<svg id="Camada_1" data-name="Camada 1" xmlns="http://www.w3.org/2000/svg" viewBox="0 0 404.82 403.33"><defs><style>.cls-1{fill:#52bdc9;}.cls-2{fill:#54beca;}.cls-2,.cls-3{stroke:#52bdc9;stroke-miterlimit:10;}.cls-3{fill:#56beca;}</style></defs><title>cerebro</title><path class="cls-1" d="M242.46,470.32q-6.21-14.19-12.15-28.53t-11.68-29.07q-3.18-8.16-6.27-16.35a.63.63,0,0,0-.94-.31l-9.72-21c-1.7-3.67-3.28-7.44-5.25-10.95a26.68,26.68,0,0,0-7.12-8.24c-2.83-2.18-5.86-4.05-8.37-6.66a37.08,37.08,0,0,1-6-8.6c-3.27-6.25-5.3-13.08-7.93-19.63-2.86-7.11-6.51-14.1-12.55-18.77-.62-.47-1.22.61-.6,1.08,11,8.55,13.32,24.05,19.17,36.18a43.91,43.91,0,0,0,5.32,8.64,38.71,38.71,0,0,0,7.8,6.95c3,2.18,5.91,4.43,8,7.64a77.72,77.72,0,0,1,5.26,10.33q6.15,13.29,12.31,26.56a.48.48,0,0,0,.68.26q5,13.08,10.14,26.06,5.81,14.47,11.88,28.83,3.45,8.12,7,16.19C241.75,471.68,242.78,471.05,242.46,470.32Z" transform="translate(-10.25 -71.22)"/><path class="cls-1" d="M330.81,378.06c-4.21.68-8.42,1.47-12.64,2.18a35.88,35.88,0,0,0,2.61-10.1,24.45,24.45,0,0,0-4.09-15.91,29.45,29.45,0,0,0-1.88-2.52.71.71,0,0,0,0-.41,55.36,55.36,0,0,0,6.76-6.16c.53-.58-.31-1.46-.85-.88a55.64,55.64,0,0,1-6.89,6.25,44.22,44.22,0,0,0-6-5.48l.14,0c.76.1.76-1.15,0-1.25l-2.18-.3c-1.13-.81-2.29-1.61-3.46-2.39.7,0,1-1.09.24-1.2-1-.14-2-.35-2.94-.58a110,110,0,0,1-9.92-7,86.59,86.59,0,0,1-12.93-14c4,.88,8,1.95,12,3a.62.62,0,0,0,.32-1.2c-4.47-1.21-9-2.42-13.5-3.35-2.91-3.83-5.73-7.73-8.68-11.48-6.68-8.48-14.7-16.65-24.87-20.19a30.5,30.5,0,0,0-3.77-1.05c-.75-.17-1.07,1-.32,1.2,10.51,2.27,19,9.89,25.85,18.12,3.51,4.21,6.74,8.68,10.05,13.08-1-.19-2-.38-3-.54-2-.31-4.09-.52-6.15-.67-5.69-5.6-11.41-11.17-18-15.67a47.21,47.21,0,0,0-17.3-7.69c-.75-.15-1.07,1.05-.32,1.2,11.4,2.29,20.87,9.79,29.31,17.74,1.5,1.42,3,2.86,4.45,4.3-3.55-.2-7.12-.24-10.68-.26-2,0-4.07-.07-6.11-.14-1.65-1.45-3.31-2.88-5-4.25a59.59,59.59,0,0,0-16.8-10c-.72-.27-1,.94-.31,1.2,7.59,2.75,14.06,7.64,20.21,12.95-3.39-.16-6.77-.41-10.14-.85a117.1,117.1,0,0,1-14.24-2.8q-.23-2.07-.39-4.14A127.69,127.69,0,0,1,219,292c.14-3.6.77-7.92,3.94-10,.65-.43.05-1.51-.61-1.08-2.79,1.84-3.9,5.16-4.31,8.44a73.72,73.72,0,0,0-.06,12.52q.22,4.43.68,8.83c-.69-.19-1.39-.37-2.08-.57a119.08,119.08,0,0,1-18.86-7.24c-.69-.34-1.3.74-.6,1.08,2.73,1.32,5.52,2.51,8.34,3.62a.64.64,0,0,0,.23,1.06A94,94,0,0,1,219,314.13q.71,5.72,1.75,11.37c-5.53-3.19-11-6.48-16.49-9.78-.66-.41-1.26.67-.6,1.07,5.78,3.49,11.56,7,17.4,10.33.16.83.32,1.66.49,2.48q1.31,6.31,3,12.52c-3.68-2.07-7.3-4.27-10.92-6.45-8.15-4.9-16.42-9.72-25.42-12.68-.73-.24-1,1-.31,1.2,13.33,4.39,24.85,12.79,37.1,19.6,1.55,5.58,3.28,11.1,5.15,16.56l-4.19-.72-31.05-5.42c-.75-.13-1.07,1.08-.31,1.21l28.12,4.9,7.89,1.37c2.52,7.24,5.28,14.39,8.2,21.46,3.88,9.43,8,18.75,12.16,28.06L263.48,448l3.71,10.86c.25.75,1.4.42,1.15-.33l-13-38.15-2.77-8.13a.68.68,0,0,0,0-.42l-.47-1c-.14-.43-.29-.85-.43-1.27a.56.56,0,0,0-.29-.34c-6.91-15.54-13.77-31.13-19.41-47.23,6.17,1.05,12.35,2,18.57,2.73,16.68,1.86,33.95,1.53,49.75-5a63.72,63.72,0,0,0,13.38-7.49,24.35,24.35,0,0,1,6.05,14.36,31.75,31.75,0,0,1-2.89,13.94,124.15,124.15,0,0,1-15.25,1.7c-8.23.32-16.65-.71-24.23-4.24a34.58,34.58,0,0,1-11-7.93c-.54-.58-1.38.31-.85.89,5.66,6.14,13.31,9.75,21.23,11.41,9.09,1.9,18.4,1.2,27.52-.17l2-.32c-.33.73-.68,1.46-1,2.17-5.22,10.26-13.51,19.16-15.82,30.86a30.67,30.67,0,0,0-.53,4.17c-.05.8,1.14.8,1.19,0,.74-12.25,9.16-21.72,14.81-31.82,1-1.81,2-3.68,2.81-5.61,4.51-.74,9-1.59,13.51-2.32C331.88,379.14,331.56,377.93,330.81,378.06Zm-115.45-67c1.12.34,2.24.69,3.37,1,0,.2.05.41.08.62C217.67,312.12,216.52,311.59,215.36,311.07ZM268,316.83c2.33.28,4.65.67,7,1.14a105,105,0,0,0,10.68,12.37,75.3,75.3,0,0,0,10.1,7.87c-8.59-3-16.13-8.85-22.92-15.1-2.28-2.11-4.51-4.28-6.73-6.47Zm-19-.7c5.08.08,10.18,0,15.25.37,6.46,6.34,12.9,12.73,20.48,17.62a46.83,46.83,0,0,0,14.55,6.41l.68.45c1.09.71,2.18,1.43,3.26,2.17-11.88-1.67-23.9-3.88-34.44-10.09-7.79-4.6-14.38-10.93-21.17-17Zm-28.71-1.34c9.05,4.61,17.61,10.34,26.17,15.86,12.81,8.25,26.25,16.35,41.18,19.4.46.1.92.16,1.38.25a118.77,118.77,0,0,1-31.75-7.08,224.12,224.12,0,0,1-34.32-16.43l-.82-.48Q221,320.58,220.28,314.79Zm2.16,13.13c4.93,2.8,9.9,5.51,15,8A158.74,158.74,0,0,0,273,349.16a104.42,104.42,0,0,0,21,2.62.58.58,0,0,0,.55-.74c1.89.16,3.79.25,5.69.26,2.67,0,5.36-.06,8,.1a103.86,103.86,0,0,1-72.22-3.47,112.58,112.58,0,0,1-10.09-5Q224,335.49,222.44,327.92ZM280,363.64c-16.21,2.07-32.51-.31-48.55-3.06a2,2,0,0,0-.08-.22q-2.69-7.8-4.92-15.77c2.31,1.25,4.65,2.45,7,3.53a105.06,105.06,0,0,0,49,9.26A103.48,103.48,0,0,0,310.35,352a.56.56,0,0,0,.39-.43c.43.05.85.11,1.28.18C302.57,358.46,291.28,362.2,280,363.64ZM302.38,350a70.86,70.86,0,0,1-11.73-.7,79.77,79.77,0,0,1-21.74-7.12c-13.91-6.66-26.37-16.06-39.65-23.9-3-1.77-6.06-3.46-9.17-5,0-.32-.09-.63-.13-.94,3.66.94,7.36,1.72,11.09,2.3A124.59,124.59,0,0,0,245.72,316c2.43,2.15,4.83,4.34,7.23,6.47a105.94,105.94,0,0,0,14,10.92A66.56,66.56,0,0,0,285.3,341a169.26,169.26,0,0,0,20.09,3.66,50.11,50.11,0,0,1,6.77,5.85A61.48,61.48,0,0,0,302.38,350Z" transform="translate(-10.25 -71.22)"/><ellipse class="cls-2" cx="143.06" cy="229.89" rx="2.74" ry="2.87"/><ellipse class="cls-2" cx="215.15" cy="208.26" rx="2.99" ry="3.14"/><ellipse class="cls-2" cx="232.75" cy="400.15" rx="2.56" ry="2.68"/><ellipse class="cls-2" cx="258.11" cy="388.55" rx="2.52" ry="2.64"/><path class="cls-1" d="M208.13,280.53c.14-.78-1-1.12-1.15-.33-.78,4.16.63,8.21.45,12.37a9.9,9.9,0,0,1-1.35,4.89,6.1,6.1,0,0,1-4.15,2.64,18.9,18.9,0,0,1-5.15,0l-6.49-.58-13-1.17-14.73-1.32c-.76-.07-.76,1.18,0,1.25l27.4,2.46,6.78.61a20.88,20.88,0,0,0,5.24,0c3.44-.58,5.72-3.15,6.37-6.68C209.25,289.94,207.24,285.24,208.13,280.53Z" transform="translate(-10.25 -71.22)"/><ellipse class="cls-2" cx="152.8" cy="225.43" rx="3.35" ry="3.51"/><ellipse class="cls-2" cx="197.5" cy="208.26" rx="2.99" ry="3.14"/><path class="cls-1" d="M206.32,392.64c-13-5.76-23.56-17.19-28.84-30.91a57.63,57.63,0,0,1-3.15-11.93c-.12-.8-1.26-.46-1.15.33a58.55,58.55,0,0,0,22.06,37.37,51.64,51.64,0,0,0,10.47,6.22C206.41,394,207,393,206.32,392.64Z" transform="translate(-10.25 -71.22)"/><ellipse class="cls-2" cx="163.3" cy="276.4" rx="2.89" ry="3.03"/><ellipse class="cls-2" cx="197.5" cy="322" rx="2.99" ry="3.14"/><path class="cls-1" d="M184.77,306.44A59.88,59.88,0,0,0,175.6,338a.6.6,0,1,0,1.2,0,58.56,58.56,0,0,1,9-30.93A.6.6,0,0,0,184.77,306.44Z" transform="translate(-10.25 -71.22)"/><ellipse class="cls-3" cx="176.73" cy="235.83" rx="2.92" ry="3.06"/><ellipse class="cls-3" cx="166.19" cy="265.51" rx="2.84" ry="2.98"/><ellipse class="cls-2" cx="186.48" cy="231.86" rx="2.99" ry="3.14"/><ellipse class="cls-2" cx="279.27" cy="250.14" rx="2.99" ry="3.14"/><ellipse class="cls-2" cx="183.88" cy="283.36" rx="2.99" ry="3.14"/><ellipse class="cls-2" cx="311.45" cy="273" rx="2.99" ry="3.14"/><ellipse class="cls-2" cx="289.48" cy="348.1" rx="2.99" ry="3.14"/><ellipse class="cls-2" cx="230.46" cy="214.01" rx="2.99" ry="3.14"/><ellipse class="cls-2" cx="218.15" cy="221.15" rx="2.99" ry="3.14"/><ellipse class="cls-2" cx="215.15" cy="229.89" rx="2.99" ry="3.14"/><ellipse class="cls-2" cx="193.38" cy="244.6" rx="2.99" ry="3.14"/><ellipse class="cls-2" cx="176.73" cy="251.16" rx="2.99" ry="3.14"/><path class="cls-1" d="M255,363.21c-8.27,1.63-16.7-.82-24.13-4.57-7.61-3.83-14.44-9.09-21.67-13.59A91.81,91.81,0,0,0,186.46,335c-8-2.35-16.15-3.93-24.27-5.63-4.51-.95-9-1.88-13.47-3.13a11.47,11.47,0,0,1-5.56-2.91,5.26,5.26,0,0,1-1.17-5.68c.36-.71-.67-1.35-1-.63-1.74,3.51.66,7.3,3.65,9a22.93,22.93,0,0,0,5.49,1.91c2.08.53,4.16,1,6.26,1.49,8.38,1.87,16.83,3.39,25.15,5.55a95.08,95.08,0,0,1,24,9.38c7.71,4.45,14.78,10,22.59,14.31,8.3,4.55,17.78,7.68,27.19,5.82C256.06,364.26,255.74,363.06,255,363.21Z" transform="translate(-10.25 -71.22)"/><ellipse class="cls-2" cx="131.8" cy="245.42" rx="2.99" ry="3.14"/><path class="cls-1" d="M387.51,336.26a150.06,150.06,0,0,1-31.18,3.25,93.72,93.72,0,0,1-30.53-5.05c-9.9-3.5-18.81-9.22-27.18-15.69s-16.16-13.52-24.53-19.88c-8.2-6.22-17-11.8-26.69-15-1.18-.39-2.38-.75-3.58-1.07a.63.63,0,0,0-.32,1.21c10,2.65,19.05,7.95,27.45,14.08s16.44,13.36,24.73,19.94,17,12.57,26.72,16.48a91.06,91.06,0,0,0,30.36,6.18,142.35,142.35,0,0,0,31.17-2.47c1.3-.23,2.6-.49,3.9-.75C388.58,337.31,388.26,336.1,387.51,336.26Z" transform="translate(-10.25 -71.22)"/><ellipse class="cls-2" cx="378" cy="265.51" rx="2.99" ry="3.14"/><path class="cls-1" d="M166.57,351.08a28.17,28.17,0,0,1-16.81-3.44,29.55,29.55,0,0,1-11.63-12.17,31.42,31.42,0,0,1-3-9.07c-.14-.79-1.29-.46-1.15.33,2.13,12.13,11.08,22,22.53,24.9a28.71,28.71,0,0,0,10.11.7C167.33,352.25,167.34,351,166.57,351.08Z" transform="translate(-10.25 -71.22)"/><ellipse class="cls-2" cx="123.66" cy="254.73" rx="2.99" ry="3.14"/><ellipse class="cls-2" cx="154.77" cy="280.23" rx="2.99" ry="3.14"/><path class="cls-1" d="M136,347.48c-12.07-1.44-24.65-4.25-34.24-12.57A33.19,33.19,0,0,1,92,321.19a16.37,16.37,0,0,1-.87-9,11.23,11.23,0,0,1,4.09-6.14c3.79-3.07,9-5,11.07-9.87.31-.73-.72-1.37-1-.63-1.92,4.58-6.82,6.43-10.41,9.24a13.06,13.06,0,0,0-4.44,5.64,15.28,15.28,0,0,0-.2,9,32.07,32.07,0,0,0,8.93,14.78,45.16,45.16,0,0,0,14.89,9.49c7,2.82,14.48,4.15,21.92,5C136.73,348.82,136.73,347.57,136,347.48Z" transform="translate(-10.25 -71.22)"/><ellipse class="cls-2" cx="95.27" cy="224.28" rx="2.99" ry="3.14"/><ellipse class="cls-2" cx="125.81" cy="277.09" rx="2.99" ry="3.14"/><path class="cls-1" d="M153.46,289.65c-8.54.94-19.3-3-26.22,4.22-2.83,3-4.09,7.12-5.16,11.06a92,92,0,0,1-4.49,13.3,74.76,74.76,0,0,1-8.23,14.19c-.46.62.37,1.51.84.88a76.55,76.55,0,0,0,12.22-25.05c1.11-4,2-8.19,4.22-11.66,2.41-3.71,6.39-5.38,10.54-5.82,5.42-.56,10.85.73,16.28.13C154.22,290.82,154.22,289.57,153.46,289.65Z" transform="translate(-10.25 -71.22)"/><ellipse class="cls-2" cx="142.81" cy="218.79" rx="2.99" ry="3.14"/><ellipse class="cls-2" cx="98.97" cy="262.3" rx="2.99" ry="3.14"/><ellipse class="cls-2" cx="378" cy="253.28" rx="2.99" ry="3.14"/><ellipse class="cls-2" cx="214.97" cy="137.43" rx="2.99" ry="3.14"/><ellipse class="cls-2" cx="100.75" cy="113.86" rx="2.99" ry="3.14"/><ellipse class="cls-2" cx="190.8" cy="175.15" rx="2.99" ry="3.14"/><ellipse class="cls-2" cx="190.39" cy="117" rx="2.99" ry="3.14"/><ellipse class="cls-2" cx="190.8" cy="191.84" rx="2.99" ry="3.14"/><ellipse class="cls-2" cx="152.8" cy="170.63" rx="2.99" ry="3.14"/><ellipse class="cls-2" cx="145.57" cy="112.59" rx="2.99" ry="3.14"/><ellipse class="cls-2" cx="103.65" cy="118.86" rx="2.99" ry="3.14"/><ellipse class="cls-2" cx="220.49" cy="166.51" rx="2.99" ry="3.14"/><path class="cls-1" d="M230.17,237l-14.27.25a29.05,29.05,0,0,0-8.78-6.9A56.15,56.15,0,0,0,192.28,225a93.87,93.87,0,0,0-7-11.41,66.53,66.53,0,0,0-6.3-7.47,33.9,33.9,0,0,0,5.37-1.11,26.19,26.19,0,0,0,9.59-5.18c6.45-.41,13.1-1.5,19.33.84.72.27,1-.94.31-1.21-5.86-2.19-12.13-1.43-18.2-1a21.18,21.18,0,0,0,4.11-5.86A19.71,19.71,0,0,0,201,188c.15-.78-1-1.12-1.15-.33a19.93,19.93,0,0,1-6.38,10.89,51.42,51.42,0,0,1-8-.13c-3.31-.34-6.66-.91-10-.53a17.64,17.64,0,0,0-4.7,1.25,45.08,45.08,0,0,0-10.93-5.52,43.51,43.51,0,0,0-25.21-.86.62.62,0,0,0-1-.26c-.27.24-.51.51-.75.77a40.58,40.58,0,0,0-5.25,2.07,38.37,38.37,0,0,0-19.93,23,35.43,35.43,0,0,0-.9,17.35c-.4-1-.78-2.09-1.1-3.16-3.52-11.85-1.74-25.75,6.77-34.83,9.71-10.36,24.2-12.51,37.39-13.29,1.81-.11,3.62-.2,5.43-.29.76,0,.77-1.28,0-1.25-13.87.68-28.85,1.57-40.29,10.82a32.21,32.21,0,0,0-7.84,9.34,61.21,61.21,0,0,1,6.69-11.46c.46-.64-.57-1.26-1-.63a56.4,56.4,0,0,0-10.17,22.32c-.06.29-.1.59-.15.89.33-8.64,1.91-17.25,6.39-24.63a34.05,34.05,0,0,1,2.33-3.36c.49-.61-.35-1.5-.84-.88-7.15,9-9.15,21-9.15,32.39,0,6.16.41,12.34.93,18.47.44,5.15,1.16,10.37,3.23,15.1a22.67,22.67,0,0,0,10.05,10.83c4.77,2.65,10.09,4.21,15.22,5.91l.1,0c0,1-.09,2.07-.14,3.1a25.94,25.94,0,0,1-1.89,9.6,10.57,10.57,0,0,1-7.14,6c-3.5.91-7.25.74-10.84.83l-12.63.34c-8.12.21-16.35.8-24.45,0-7-.67-14.19-2.68-19.85-7.27a25.63,25.63,0,0,1-3.58-3.56c-.51-.61-1.35.27-.85.88,10.32,12.46,27.5,11.72,41.81,11.35,8.38-.22,16.78-.31,25.16-.68,3.24-.14,6.69-.54,9.47-2.46a13.26,13.26,0,0,0,5-7.7,42.7,42.7,0,0,0,1.11-9.9v-.16a273.62,273.62,0,0,0,34.1,9.15,141.9,141.9,0,0,0,35.78,2.58c1.52-.1,3-.24,4.54-.4.76-.08.77-1.33,0-1.24a132.82,132.82,0,0,1-35.22-1.3,245.58,245.58,0,0,1-34.52-8.58l-4.65-1.48c0-1,0-1.93.06-2.9a73.08,73.08,0,0,0,27.62,8.33A74.5,74.5,0,0,0,198,266.1c1.51-.69,3-1.45,4.45-2.25.68-.37.07-1.45-.6-1.08a72.83,72.83,0,0,1-37.07,8.85c-2.2-.06-4.39-.25-6.58-.51a23.88,23.88,0,0,0,7.67-2.9c5.12-3,9.45-7.39,13.56-11.7q3.27-3.44,6.32-7.08c1.85-2.2,3.56-4.57,5.59-6.6a13,13,0,0,1,6.32-3.64c.49,1.15,1,2.29,1.46,3.44.58,1.38,1.15,2.76,1.73,4.15.3.73,1.33.1,1-.63-1-2.39-2-4.79-3-7.18a78.61,78.61,0,0,1,9.21-.34l7.31-.12A15.05,15.05,0,0,1,218.3,245c.14.79,1.29.46,1.15-.33a15.85,15.85,0,0,0-2.62-6.19l13.34-.23C230.94,238.24,230.94,237,230.17,237Zm-47.54-24.91a87.54,87.54,0,0,1,8.13,12.59c-1.41-.26-2.82-.48-4.25-.64a59,59,0,0,0-27.35,3.57c-1.56-7-.79-14.37,3.5-20.39.37-.53.78-1,1.2-1.53,3.14.32,6.28.7,9.44.73,1.37,0,2.73-.06,4.1-.18A62.14,62.14,0,0,1,182.63,212.09Zm-24.63,16c-4.19,1.84-8,4.58-9.39,9.17s-.37,9.08,1.69,13.13c-2.05.78-4.14,1.44-6.1,2.09a46,46,0,0,1-12,2.69,143.39,143.39,0,0,1,2.17-24.49c.22-1.12.47-2.25.74-3.39a.57.57,0,0,0,.13-.39s0-.08,0-.12c1.4-5.77,3.52-11.57,7.46-15.85a16.92,16.92,0,0,1,8.81-5.09,34.46,34.46,0,0,1,10.68-.32l.29,0a25,25,0,0,0-5.24,14.57A30.46,30.46,0,0,0,158,228.09Zm16.48-28.78c3.14-.57,6.37-.13,9.51.23a54.57,54.57,0,0,0,7.87.36,23.56,23.56,0,0,1-4.23,2.53,29.27,29.27,0,0,1-9.84,2.51,54.61,54.61,0,0,0-5.85-4.92A16,16,0,0,1,174.48,199.31Zm1.67,5.75a68.25,68.25,0,0,1-10.4-.43l-.83-.08a19.53,19.53,0,0,1,5.64-4A51.83,51.83,0,0,1,176.15,205.06Zm-42.66-10.67a42.1,42.1,0,0,1,23.08-.41,43.69,43.69,0,0,1,12.84,5.79,20.61,20.61,0,0,0-6,4.62c-6.09-.59-12.5-.87-17.9,2.53S136.9,216.78,135,223c-.06.18-.1.37-.16.55-.79-5.06-2.8-9.86-3.82-14.89C130,203.82,130.21,198.18,133.49,194.39Zm-24.61,48.35a32.49,32.49,0,0,1-2.37-4.09,37.26,37.26,0,0,1-3.12-10.59A43.44,43.44,0,0,0,108.88,242.74Zm21.88,24c-3.42-1.1-6.83-2.25-10.16-3.59-4.66-1.87-9.23-4.46-12.18-8.81-2.81-4.15-4-9.19-4.68-14.16-.35-2.66-.59-5.36-.78-8.06a38,38,0,0,0,1.59,5,33.57,33.57,0,0,0,3.07,5.85.47.47,0,0,0,.06.15,55.42,55.42,0,0,0,14,14.22c.6.49,1.19,1,1.8,1.44a66.91,66.91,0,0,0,7.34,4.79C130.82,264.65,130.79,265.7,130.76,266.75Zm.12-4.56c-.81-.46-1.61-.94-2.4-1.43a63,63,0,0,1-9.3-7.17,25.66,25.66,0,0,0,9.95,2.82c.62,0,1.24,0,1.86,0C131,258.37,130.92,260.28,130.88,262.19Zm.14-7a24.19,24.19,0,0,1-9.65-1.94,27,27,0,0,1-5.92-3.51,50.66,50.66,0,0,1-5-6.73,33.6,33.6,0,0,1-2.44-21.3,37,37,0,0,1,17.5-23.86,38.9,38.9,0,0,1,6-2.8,16.28,16.28,0,0,0-2.23,8.36c0,5.1,1.76,9.93,3.14,14.74A35.93,35.93,0,0,1,134,226.7C131.68,236,131.24,245.6,131,255.2Zm62.2-15.53a25.43,25.43,0,0,0-5.72,5.67c-2,2.42-3.94,4.81-6,7.12a90.11,90.11,0,0,1-13.27,12.72c-4.31,3.16-9.57,5.43-14.83,4.93a148.33,148.33,0,0,1-19.6-6.35l-1.78-.94c0-2.13.07-4.27.12-6.4a41.13,41.13,0,0,0,9.68-1.87c3-.91,6.1-1.9,9.07-3.09a60.51,60.51,0,0,0,5.86,8.29c.49.62,1.33-.27.84-.88A59.69,59.69,0,0,1,152,251c.73-.31,1.46-.61,2.17-.95a20.74,20.74,0,0,0,9-7.47.6.6,0,0,0-1-.63c-2.5,4-6.51,6.29-10.76,8a17.26,17.26,0,0,1-2.06-10.43c.75-5.26,4.65-8.23,9-10.18a35.49,35.49,0,0,0,4.46,9.89c.43.66,1.47,0,1-.63a34.1,34.1,0,0,1-4.35-9.75c1.43-.57,2.89-1.06,4.28-1.48a56.8,56.8,0,0,1,27.74-1.31c2,3.9,3.89,7.92,5.65,12A12.41,12.41,0,0,0,193.22,239.67Zm17.49-2.33c-3.17,0-6.34,0-9.51.18a25,25,0,0,0-2.86.29c-1.66-3.86-3.41-7.68-5.32-11.4a55.5,55.5,0,0,1,11.29,3.91,31.94,31.94,0,0,1,10,7Z" transform="translate(-10.25 -71.22)"/><path class="cls-2" d="M216.92,200.14a3.12,3.12,0,0,1-2.46,3.61,3,3,0,0,1-3.44-2.58,3.13,3.13,0,0,1,2.46-3.61A3,3,0,0,1,216.92,200.14Z" transform="translate(-10.25 -71.22)"/><ellipse class="cls-2" cx="123.73" cy="121.35" rx="2.99" ry="3.14"/><path class="cls-1" d="M278.52,224.78A128.58,128.58,0,0,0,258,185.67l-.41-.52a16.37,16.37,0,0,1,4.15-4.47,18.1,18.1,0,0,1,1.95-1.22,45,45,0,0,1,8.51,13.79c.28.73,1.43.41,1.15-.33a46.58,46.58,0,0,0-8.58-14,34.12,34.12,0,0,1,8.7-2.68c.75-.14.43-1.35-.32-1.2a33.79,33.79,0,0,0-9.18,3,49.54,49.54,0,0,0-4.16-4,61.06,61.06,0,0,0-21.14-11.73,99.71,99.71,0,0,0-27.25-4.41c-7.34-.28-15.1-.42-22.19,1.89-1.59-.23-3.17-.41-4.77-.51a46.31,46.31,0,0,0-24.94,5.32c-.95.52-1.88,1.08-2.79,1.67-.64.43-.05,1.51.61,1.08a43.79,43.79,0,0,1,24.18-6.9c1.73,0,3.45.11,5.16.28-.58.25-1.16.51-1.73.8-6.16,3.1-11,8.26-15.28,13.79-2.93-.67-5.88-1.24-8.85-1.67A84.33,84.33,0,0,0,132,174a65.8,65.8,0,0,0-15.39,5.12c-.7.34-.09,1.41.6,1.08a68.87,68.87,0,0,1,27.6-6.42,96.87,96.87,0,0,1,24,2.49c-.53.71-1.05,1.41-1.56,2.12s-1.21,1.69-1.8,2.54c-.45.65.58,1.28,1,.63,1.17-1.67,2.37-3.36,3.62-5,1.21.29,2.42.59,3.63.91a168.44,168.44,0,0,1,16,5.2c.72.27,1-.93.32-1.2a161.52,161.52,0,0,0-19.16-6A48.5,48.5,0,0,1,183,163.92a28.76,28.76,0,0,1,6.38-3,69.83,69.83,0,0,1,18.15,5.45q2.35,1.05,4.63,2.27c-3.81,2-7.51,4.35-11.44,6.06-.7.3-.4,1.51.31,1.2,4.29-1.86,8.28-4.4,12.44-6.55a51.28,51.28,0,0,1,5,3.18,36,36,0,0,1,8.95,9.41,100.72,100.72,0,0,1,6.49,12.08c1.66,3.48,3.2,7,4.66,10.59a24.49,24.49,0,0,0-14.62-4.37c-.77,0-.77,1.29,0,1.25a24,24,0,0,1,15.51,5.25,210.77,210.77,0,0,1,9.35,30,.6.6,0,1,0,1.15-.33,210.17,210.17,0,0,0-8.39-27.53l-.25-.63a33.56,33.56,0,0,1,3.24,3.29,50.2,50.2,0,0,1,6.32,9.76c1.55,3,3.47,6.36,6.92,7.14,3,.68,6.07-.88,6.4-4.31a9.05,9.05,0,0,0-1.36-5.22c-1-1.78-2.2-3.45-3.21-5.23-3.88-6.83-6.47-14.91-4.49-22.86a19.75,19.75,0,0,1,1.76-4.57,126,126,0,0,1,10.71,16.22,127.9,127.9,0,0,1,9.77,22.59A.6.6,0,1,0,278.52,224.78Zm-68-58.33a74.65,74.65,0,0,0-18.36-6.28A65.62,65.62,0,0,1,208.37,159c16.83.32,34.38,3.27,48.24,14a51.83,51.83,0,0,1,6.2,5.66,18.22,18.22,0,0,0-6.05,5.56c-8.56-10.81-20.34-22.75-34.82-19.42a37,37,0,0,0-8.45,3.26C212.51,167.45,211.52,166.93,210.52,166.45Zm45.07,19.69c-3.42,6.88-2.75,15,0,22a67.16,67.16,0,0,0,5.74,10.67c1,1.64,2,3.55,1.65,5.57a3.52,3.52,0,0,1-3.29,3c-3.67.3-5.88-3.05-7.45-6a58.62,58.62,0,0,0-6.19-9.89,34.4,34.4,0,0,0-5.69-5.56c-1.35-3.38-2.76-6.74-4.28-10.05a134.27,134.27,0,0,0-6.39-12.54,38.73,38.73,0,0,0-8.4-10.11,48.25,48.25,0,0,0-6.53-4.5,41.25,41.25,0,0,1,4.6-2,22.07,22.07,0,0,1,10.24-1.2,26.47,26.47,0,0,1,10.28,3.9c6.13,3.81,11.14,9.48,15.7,15.14l.5.64C255.91,185.54,255.74,185.83,255.59,186.14Z" transform="translate(-10.25 -71.22)"/><ellipse class="cls-2" cx="107.37" cy="108.38" rx="2.99" ry="3.14"/><ellipse class="cls-2" cx="179.13" cy="111.51" rx="2.99" ry="3.14"/><ellipse class="cls-2" cx="155.79" cy="109.46" rx="2.99" ry="3.14"/><ellipse class="cls-2" cx="262.54" cy="122.45" rx="2.99" ry="3.14"/><ellipse class="cls-2" cx="239.25" cy="166.51" rx="2.99" ry="3.14"/><ellipse class="cls-2" cx="146.26" cy="95.47" rx="2.99" ry="3.14"/><ellipse class="cls-2" cx="190.14" cy="105.24" rx="2.99" ry="3.14"/><ellipse class="cls-2" cx="267.56" cy="153.91" rx="2.99" ry="3.14"/><ellipse class="cls-2" cx="213.07" cy="129.44" rx="2.99" ry="3.14"/><ellipse class="cls-2" cx="262.54" cy="104.33" rx="2.99" ry="3.14"/><path class="cls-1" d="M225.25,228.46a68.47,68.47,0,0,0-11.46-20.3c-.5-.61-1.34.28-.84.88a67,67,0,0,1,11.15,19.75C224.37,229.53,225.52,229.21,225.25,228.46Z" transform="translate(-10.25 -71.22)"/><ellipse class="cls-2" cx="202.55" cy="136.84" rx="2.99" ry="3.14"/><ellipse class="cls-2" cx="215.15" cy="157.99" rx="2.99" ry="3.14"/><path class="cls-1" d="M248.25,199.09a12.16,12.16,0,0,0-3.48-6.19c-1.75-1.78-3.81-3.17-5.61-4.9s-3.33-3.63-3.56-6.07c-.21-2.23.77-4.85,3-5.5.74-.22.43-1.42-.31-1.2a5.57,5.57,0,0,0-3.64,4.12,8.32,8.32,0,0,0,1,6.31c2.67,4.51,8,6.4,10.49,11.07a10.35,10.35,0,0,1,.26,8.88c-.33.73.7,1.36,1,.63A11.78,11.78,0,0,0,248.25,199.09Z" transform="translate(-10.25 -71.22)"/><ellipse class="cls-2" cx="227.47" cy="103.98" rx="2.99" ry="3.14"/><ellipse class="cls-2" cx="236.26" cy="135.35" rx="2.99" ry="3.14"/><ellipse class="cls-2" cx="274.29" cy="162.25" rx="2.99" ry="3.14"/><ellipse class="cls-2" cx="247.23" cy="194.47" rx="2.99" ry="3.14"/><ellipse class="cls-2" cx="202.55" cy="186.72" rx="2.99" ry="3.14"/><ellipse class="cls-2" cx="328.14" cy="143.13" rx="2.99" ry="3.14"/><path class="cls-1" d="M104.53,271.12q-1-9.42-2.66-18.75c-.15-.79-1.3-.45-1.15.33q1.44,8,2.37,16.14.47,4,.78,8.06c.15,1.85.83,5.19-1.52,5.83-1.8.5-3.8-.61-5.38-1.36a53,53,0,0,0-6.39-2.53,52,52,0,0,0-13.53-2.41,51.36,51.36,0,0,0-15.46,1.65.62.62,0,0,0,.31,1.2,51,51,0,0,1,28.87.93A65,65,0,0,1,97.42,283c1.59.73,3.49,1.47,5.24,1,2-.56,2.65-2.65,2.58-4.63C105.14,276.58,104.82,273.83,104.53,271.12Z" transform="translate(-10.25 -71.22)"/><ellipse class="cls-2" cx="90.9" cy="180.7" rx="2.99" ry="3.14"/><ellipse class="cls-2" cx="50.91" cy="207.68" rx="2.99" ry="3.14"/><ellipse class="cls-2" cx="38.95" cy="205.98" rx="2.99" ry="3.14"/><path class="cls-1" d="M163.39,144.44a46.44,46.44,0,0,0-29.7,14.31,48.68,48.68,0,0,0-5.36,6.76c-1.72,2.6-3.45,5.51-6.32,6.84-2.61,1.21-5.54.62-7-2.09-1.36-2.54-1.33-5.72-1.2-8.54a40.74,40.74,0,0,1,1.86-10.46c.74-2.36,2.54-6.12-.25-7.86-2.55-1.59-4.3,1.9-5.15,3.81l-4.53,10.22a35.67,35.67,0,0,1-2.19,4.73c-.8,1.28-2.61,2-3.15.12a37,37,0,0,1-1.09-9.44,44.87,44.87,0,0,1,3.86-18.48,41.23,41.23,0,0,1,25.31-22.49,39.25,39.25,0,0,1,4-1,.53.53,0,0,0,.41-.66l3.5-.92a.62.62,0,0,0-.31-1.2c-13.29,3.37-28,8.38-35.28,21.55-3.72,6.73-4.36,14.6-5.14,22.17-.74,7.15-1.77,14.74-5.94,20.69-3.83,5.48-11.52,9.16-17.65,5.68a.62.62,0,0,0-.89.65l-.76-.18A16.34,16.34,0,0,1,76.7,174c.7-.29.39-1.5-.32-1.21a18,18,0,0,0-7.24,5.6,36.24,36.24,0,0,0-7.49-.67,25.5,25.5,0,0,0-7,1.14c.53-4.62,1.11-9.3,3-13.55,2-4.43,5.57-8.33,10.33-9.16a9.15,9.15,0,0,1,3.46.07c.74.16,1.06-1,.31-1.21-4.61-1-9.22,1.35-12.25,4.95-3.41,4.05-4.74,9.5-5.5,14.72-.22,1.54-.4,3.08-.57,4.63a19.35,19.35,0,0,0-8.94,6.57c-3.69,5-4.9,11.46-8.11,16.78-3.28-.12-6.59-.51-9.47,1.54a6,6,0,0,0-2.59,5.43,7.24,7.24,0,0,0,.91,2.84,23.69,23.69,0,0,1-8.49,2.12.63.63,0,0,0-.52.94A45.72,45.72,0,0,0,35.4,231.27,62.53,62.53,0,0,0,30,235.14c-.6.48,0,1.57.6,1.08a61.91,61.91,0,0,1,6.26-4.38,42.8,42.8,0,0,0,6.44,2,42.26,42.26,0,0,0,9.3,1,.63.63,0,0,0,0-1.25A41.62,41.62,0,0,1,38.2,231c9.2-5.27,19.91-8,30.17-5.23a31.53,31.53,0,0,1,12,6.35,35.57,35.57,0,0,0,4.5,6c.79.86,1.6,1.68,2.43,2.49a25.5,25.5,0,0,1,3,10.23c.6,8-1.68,16.37,1.61,24,.31.73,1.34.1,1-.63-3-7-1.06-14.91-1.38-22.26a28.26,28.26,0,0,0-1.92-9.1l2.19,2c.58.52,1.43-.36.84-.88-1.48-1.32-3-2.66-4.41-4a28.72,28.72,0,0,0-3.2-4.81,32,32,0,0,0-3.9-3.91,13.86,13.86,0,0,1-1.91-4.9,4.31,4.31,0,0,1,3.55-5.08c2.79-.58,5.47,1.08,7.79,2.49.67.4,1.27-.68.61-1.08-2.31-1.4-4.87-2.94-7.64-2.76a5.78,5.78,0,0,0-5.24,3.56c-.73,2-.18,4.15.66,6.08a33.08,33.08,0,0,0-8.52-4.38,35.63,35.63,0,0,0-19.4-.6,50.18,50.18,0,0,0-14.32,5.93,44.4,44.4,0,0,1-13.41-8.56,43.64,43.64,0,0,1-5.48-6.18,25.52,25.52,0,0,0,8-2.2,12,12,0,0,0,1.89,2.06c3.85,3.31,9.22,4.57,14.09,4.77a48.33,48.33,0,0,0,15.93-2.49c3.55-1.07,7.13-2.37,10.75-3.56.6,1.41,1.22,2.81,1.88,4.19.34.72,1.37.09,1-.63-.61-1.29-1.2-2.61-1.78-3.93,7-2.23,14.07-3.91,21.32-2.57a25.4,25.4,0,0,1,4,1.09c.73.26,1-1,.31-1.21-8.62-3.1-17.61-1.14-26.13,1.56A49.74,49.74,0,0,1,65,197a26.43,26.43,0,0,1,4.4-17l.16-.21a71.8,71.8,0,0,1,9,2.55c3.39,1.16,7,2.66,9.32,5.68,2,2.7,2.79,6.78.7,9.67-.46.64.57,1.26,1,.63,1.81-2.5,1.72-5.87.58-8.65a13.61,13.61,0,0,0-6.8-6.7A40.61,40.61,0,0,0,78,180.75a16.76,16.76,0,0,0,9.73-4.18c5.24-4.55,7.35-11.86,8.39-18.65,1.18-7.67,1.15-15.62,3.68-23a32.89,32.89,0,0,1,12.93-16.21c1.13-.76,2.29-1.45,3.46-2.1a42.57,42.57,0,0,0-11.66,12.56,45.63,45.63,0,0,0-5.46,32.62c.26,1.26.67,2.57,2,2.88,3.2.71,4.49-3.95,5.48-6.19l4.6-10.36c.54-1.22,1.12-3,2.37-3.66,1.66-.85,2.36,1.46,2.14,2.75-.3,1.75-1.11,3.41-1.58,5.11a41.57,41.57,0,0,0-1.11,5.3,32.86,32.86,0,0,0-.16,9.7c.4,2.48,1.49,5.09,3.76,6.27,2.56,1.33,5.63.44,7.81-1.29,2.46-2,4-4.84,5.78-7.4a45.84,45.84,0,0,1,28.9-18.66,41.23,41.23,0,0,1,4.29-.55C164.15,145.63,164.16,144.38,163.39,144.44ZM38.56,201.18c1.53-3.06,2.6-6.33,4-9.46a21.82,21.82,0,0,1,5.64-8.07,19,19,0,0,1,5-3,49.41,49.41,0,0,1-2.29,11.2c-1.63,4.5-4.86,8.87-9.41,10.31a12.88,12.88,0,0,1-3.81.51C38,202.19,38.3,201.7,38.56,201.18ZM26.28,212a5.09,5.09,0,0,1-.11-5.32c1.17-1.8,3.43-2.6,5.41-2.8a26.71,26.71,0,0,1,4,0c-.14.2-.28.41-.43.6A25.4,25.4,0,0,1,26.28,212ZM65.2,185.77c-2.23,6.65-1.6,13.83.34,20.47A65.86,65.86,0,0,0,68,213.18c-1.45.47-2.89,1-4.31,1.44-9.74,3.32-20.6,6.76-30.64,2.69A14.31,14.31,0,0,1,27,213.05l0-.07a25.83,25.83,0,0,0,10-9.07,17.34,17.34,0,0,0,2.88-.1c4.39-.57,8-3.66,10.29-7.47,2.75-4.51,3.59-9.91,4.22-15.13,0-.33.08-.67.11-1a24.49,24.49,0,0,1,2.37-.66,29.33,29.33,0,0,1,11.47,0A25.07,25.07,0,0,0,65.2,185.77Z" transform="translate(-10.25 -71.22)"/><ellipse class="cls-2" cx="19.45" cy="164.95" rx="2.99" ry="3.14"/><ellipse class="cls-2" cx="82.71" cy="203.99" rx="2.99" ry="3.14"/><path class="cls-1" d="M83.88,265.47c-13.8.09-25.83-8.6-39.33-10.3-3.54-.45-7.1-.14-10.64-.49a14.17,14.17,0,0,1-9.07-4.29,29.47,29.47,0,0,1-5.41-8.48,44.89,44.89,0,0,1-3.21-10.23,46.77,46.77,0,0,1,1.66-23.82c.26-.75-.89-1.08-1.15-.33a47.9,47.9,0,0,0-2.11,21.66A43.14,43.14,0,0,0,22.07,249a16.67,16.67,0,0,0,7.43,6c3.55,1.32,7.41,1.06,11.11,1.15,7.14.18,13.89,2.57,20.55,5.05,7.34,2.73,14.82,5.59,22.72,5.54A.63.63,0,0,0,83.88,265.47Z" transform="translate(-10.25 -71.22)"/><ellipse class="cls-2" cx="74.2" cy="195.5" rx="2.99" ry="3.14"/><path class="cls-1" d="M75.4,253.27c-3.47-2.31-7-5.15-8.35-9.39-1.17-3.68-.12-8.44,3.7-9.88.71-.27.4-1.48-.32-1.21-4.13,1.56-5.78,6.46-4.74,10.68,1.22,4.95,5.18,8.26,9.1,10.88C75.44,254.78,76,253.7,75.4,253.27Z" transform="translate(-10.25 -71.22)"/><ellipse class="cls-2" cx="60.28" cy="161.81" rx="2.99" ry="3.14"/><ellipse class="cls-2" cx="65.42" cy="183.58" rx="2.99" ry="3.14"/><ellipse class="cls-2" cx="41.94" cy="163.37" rx="2.99" ry="3.14"/><ellipse class="cls-2" cx="79.72" cy="127.62" rx="2.99" ry="3.14"/><ellipse class="cls-2" cx="85.71" cy="140.74" rx="2.99" ry="3.14"/><ellipse class="cls-2" cx="62.43" cy="84.47" rx="2.99" ry="3.14"/><ellipse class="cls-2" cx="147.27" cy="188.7" rx="2.99" ry="3.14"/><ellipse class="cls-2" cx="208.79" cy="175.15" rx="2.99" ry="3.14"/><ellipse class="cls-2" cx="82.71" cy="173.77" rx="2.99" ry="3.14"/><ellipse class="cls-2" cx="80.19" cy="151.72" rx="2.99" ry="3.14"/><ellipse class="cls-2" cx="65.42" cy="102.11" rx="2.99" ry="3.14"/><ellipse class="cls-2" cx="60.28" cy="147.78" rx="2.99" ry="3.14"/><path class="cls-1" d="M226.28,76.09a215.56,215.56,0,0,0-51.57,1.69,220.77,220.77,0,0,0-50.09,13.87A217.26,217.26,0,0,0,80,116.29a190.29,190.29,0,0,0-35.12,32.44,155.21,155.21,0,0,0-24.79,40.88c-.75,1.83-1.45,3.69-2.13,5.55-.27.76.89,1.08,1.15.33a151.21,151.21,0,0,1,23.45-42,185.49,185.49,0,0,1,33.88-33.09,214.66,214.66,0,0,1,43.33-25.38,221.34,221.34,0,0,1,49-15A215.3,215.3,0,0,1,220,76.87c2.1.12,4.21.28,6.31.47C227.05,77.4,227,76.15,226.28,76.09Z" transform="translate(-10.25 -71.22)"/><ellipse class="cls-2" cx="216.6" cy="5.77" rx="2.99" ry="3.14"/><path class="cls-1" d="M141.28,96.08c-8-3.69-17.22-2.6-25.13.9-8.13,3.59-15.16,9.42-22,15.21s-13.36,12-19.62,18.44-12.15,13.19-17.76,20.21S45.9,165.19,41,172.74c-.62.94-1.22,1.88-1.83,2.82a.73.73,0,0,0-.09.31,83.23,83.23,0,0,1-8.59,8.72c-.6.51.25,1.39.84.88C40,178,46.59,168.29,53.57,159.11c6.72-8.84,14.13-17.41,23.74-22.84a35,35,0,0,1,16.82-4.8c.77,0,.77-1.26,0-1.25-10.77.09-20.49,5.84-28.38,13.13-6.42,5.93-11.66,13-16.91,20.05a286.5,286.5,0,0,1,23.83-29q9-9.6,18.87-18.29c6.61-5.83,13.44-11.76,21.1-16,8.48-4.7,18.91-7.13,28-2.94C141.37,97.48,142,96.4,141.28,96.08Z" transform="translate(-10.25 -71.22)"/><ellipse class="cls-2" cx="19.45" cy="114.65" rx="2.99" ry="3.14"/><ellipse class="cls-2" cx="83.18" cy="59" rx="2.99" ry="3.14"/><ellipse class="cls-2" cx="131.34" cy="25.28" rx="2.99" ry="3.14"/><ellipse class="cls-2" cx="125.81" cy="37.76" rx="2.99" ry="3.14"/><ellipse class="cls-2" cx="153.71" cy="73.21" rx="2.99" ry="3.14"/><path class="cls-1" d="M161,143.88c-5.39,3.8-12.21,1.71-18.13.93-5.58-.72-11.92-.35-15.47,4.88-3.22,4.74-2.87,11.23-2.44,16.73.47,6,1.3,12.68,6.29,16.5,6.38,4.87,14.73,2.79,21.7.83.74-.2.43-1.41-.32-1.2-6.17,1.73-13.19,3.64-19.21.31-5.51-3.05-6.69-9.51-7.19-15.47-.45-5.29-1-11.49,1.7-16.26,3.1-5.47,9.42-5.78,14.83-5.08,6.19.79,13.2,2.89,18.84-1.09C162.25,144.51,161.65,143.43,161,143.88Z" transform="translate(-10.25 -71.22)"/><path class="cls-1" d="M121.64,112.87a14.75,14.75,0,0,0-12.09-1.18c-4.17,1.28-7.77,4-11,7a111.52,111.52,0,0,0-17.4,21.53,121.86,121.86,0,0,0-7.52,13.92c-.33.72.7,1.36,1,.63a118.8,118.8,0,0,1,13.84-23,116.32,116.32,0,0,1,8.78-10.13c3-3.09,6.27-6,10.15-7.88,4.25-2,9.44-2.43,13.57.12C121.7,114.36,122.3,113.28,121.64,112.87Z" transform="translate(-10.25 -71.22)"/><path class="cls-1" d="M334.77,121.59a32.6,32.6,0,0,0-22.29-12.48,31.29,31.29,0,0,0-13.26,1.54,56.27,56.27,0,0,1-7.79,2.35,18.29,18.29,0,0,1-7.33-.26,29.13,29.13,0,0,1-12.94-7.3,105.17,105.17,0,0,1-7.92-8.68,20.58,20.58,0,0,1,11.06-3.91c7-.24,14.4,4.41,16.23,11.77a.6.6,0,1,0,1.15-.33c-1.71-6.87-7.92-11.6-14.46-12.53-5.25-.74-10.45,1-14.8,4.09-.57-.65-1.14-1.3-1.74-1.93a36.68,36.68,0,0,0-11.91-8.53,56.1,56.1,0,0,0-14.07-3.82,127.32,127.32,0,0,0-14.18-1.45c-3.94-.14-8.35.14-11.68,2.62a10.85,10.85,0,0,0-2.14,2.14c-.47.62.37,1.51.84.88,2.62-3.49,6.91-4.34,10.93-4.41a95.45,95.45,0,0,1,13.61,1.1,64.86,64.86,0,0,1,14,3.19,34.71,34.71,0,0,1,12.39,7.77c1,1,2,2.07,3,3.16a28.26,28.26,0,0,0-3.69,3.39c-.36.4-.68.84-1,1.25a23.24,23.24,0,0,0-6.88-1.37,60.61,60.61,0,0,0-8.08.34,24.31,24.31,0,0,0-2.54-3,50.88,50.88,0,0,0-8.14-6.44c-3.25-2.19-6.71-4.6-10.7-4.78a8.46,8.46,0,0,0-5,1.26c-1.37.89-2.37,2.26-3.68,3.24a3.31,3.31,0,0,1-4.37-.11c-1.37-1.13-2.34-2.7-3.66-3.89-7-6.35-16.87-3.2-24.6-.33-.72.27-.41,1.47.31,1.21,7-2.6,15.47-5.58,22.3-.9a22,22,0,0,1,3.65,3.64,6.49,6.49,0,0,0,3.71,2.41c3.38.46,5-3.4,7.77-4.65,3.7-1.7,7.74.17,10.93,2.17a71.9,71.9,0,0,1,8.49,6,29.45,29.45,0,0,1,4.12,4.23,52.23,52.23,0,0,1-8.2.23c-5.95-.43-11.18-3.38-16.62-5.65a33.09,33.09,0,0,0-16.91-2.55,30.46,30.46,0,0,0-7.07,1.8,10.14,10.14,0,0,0-2-1.2c-1.37-.62-2.8-1.06-4.2-1.58a18.43,18.43,0,0,1-4.28-2.3,56.2,56.2,0,0,0-4.91-3.51,20.83,20.83,0,0,0-5.4-2.11,51.34,51.34,0,0,0-11.66-1c-.77,0-.77,1.24,0,1.25a55.79,55.79,0,0,1,10.24.75,21.52,21.52,0,0,1,4.87,1.53,23.91,23.91,0,0,1,4.37,2.78,28.76,28.76,0,0,0,4.33,3,33.7,33.7,0,0,0,4,1.56,16.92,16.92,0,0,1,3.28,1.48,36.82,36.82,0,0,0-7.09,4.11,103,103,0,0,0-12.64,11.73c-4.12,4.25-8.28,8.48-12.37,12.78a28.06,28.06,0,0,1-4.92-1.29,12.59,12.59,0,0,1-5.41-3.57c-3.32-4-.94-9.19,2.24-12.35s7.63-4.82,11.26-7.51a14.73,14.73,0,0,0,4.44-4.75c.91-1.77.77-4.24-1.47-4.69a5.82,5.82,0,0,0-2.8.31c-1.36.42-2.72.87-4.07,1.31l-8.09,2.6-4.12,1.33c-.73.23-.42,1.44.32,1.2,5.45-1.75,10.89-3.62,16.37-5.26.84-.26,2.12-.62,2.86.08.94.89.05,2.46-.52,3.29a17.64,17.64,0,0,1-5,4.55c-3.8,2.46-8,4.23-11.06,7.82-2.76,3.29-4.41,8.05-1.85,12,2.35,3.64,6.81,5.21,10.82,6-4.5,4.76-8.92,9.62-13.09,14.68q-1.53,1.86-3,3.75c-.48.62.36,1.51.84.89a248.93,248.93,0,0,1,16.75-19.06,41,41,0,0,0,4.94.42c-.25,1.5-.4,3-.56,4.5l-1.53,13.68c-.09.8,1.1.79,1.19,0L164,130.64c.2-1.81.35-3.7.67-5.54a85.51,85.51,0,0,0,9.05-.54c4.83-.5,9.67-1,14.48-1.71-.28,2.29-.33,4.6-.41,6.9l-.35,9.4c-.08,2.11-.14,4.22-.23,6.33A33.65,33.65,0,0,0,183,146c-8.12,1.4-15.58,5.25-23.13,8.47a69,69,0,0,1-13.27,4.39c-.76.15-.44,1.36.31,1.21,13.77-2.78,26.17-12.58,40.29-13.32,0,.55,0,1.1-.08,1.65-.19,2.71-.76,5.56-2.73,7.49a5.2,5.2,0,0,1-2.89,1.48c-.76.12-.44,1.32.31,1.21a7.17,7.17,0,0,0,4.92-3.78c1.31-2.35,1.54-5.16,1.66-7.82a2.44,2.44,0,0,1,0-.27,31.28,31.28,0,0,1,3.34.13,23.22,23.22,0,0,1,10.05,3.25.51.51,0,0,0,.28.34l.89.43a.62.62,0,0,0,.6-1.08,25,25,0,0,0-15.11-4.3c.23-5.69.42-11.39.63-17.08.07-1.76.1-3.74.35-5.68,4.32-.63,8.63-1.38,12.89-2.36,2-.45,3.92-1,5.87-1.53a75,75,0,0,1,10,10.34,78.55,78.55,0,0,1,4.84,6.73c1.18,1.84,2.54,4,4.8,4.38s4.46-1.28,5.88-3.06,2.71-4,4.87-5q-2,6.83-3.88,13.65a.6.6,0,1,0,1.15.33q2.05-7.22,4.12-14.43a8.33,8.33,0,0,1,6.52,1.59,29.15,29.15,0,0,0,2.81,14.07,18.92,18.92,0,0,0,4.1,5.3c.51,5.48,1.3,10.84,5.16,15a12.09,12.09,0,0,0,2.57,2.12c.67.41,1.27-.67.61-1.08-4.37-2.69-6.12-8-6.83-13-.1-.66-.18-1.32-.25-2,3.85,2.92,8.74,4.26,13.3,2.45.71-.28.4-1.49-.32-1.21-4.57,1.82-9.49.21-13.15-2.95-.41-4.43-.66-8.9-2.32-13.06a15.09,15.09,0,0,0-4.47-6.28,58.93,58.93,0,0,1,.74-7.13c1.28-7.86,3.56-15.84,8.22-22.28.16-.23.34-.45.51-.68a17.88,17.88,0,0,1,3,1.5c9.59,6,13.13,17.9,15.32,28.69.3,1.49.59,3,.88,4.47.15.79,1.3.46,1.15-.33-2.16-11.25-4.67-23.48-13.37-31.34a22.29,22.29,0,0,0-6.18-4,27.87,27.87,0,0,1,4.36-4.19c2.14,2.46,4.22,5,6.5,7.33a34.53,34.53,0,0,0,11.77,8.12,21.26,21.26,0,0,0,14.12.57c2.49-.75,4.91-1.75,7.43-2.41a28.18,28.18,0,0,1,6.46-.9A31.39,31.39,0,0,1,331.82,120a29.66,29.66,0,0,1,2.11,2.5C334.41,123.11,335.25,122.22,334.77,121.59Zm-171,2.25c-.95,0-1.89-.06-2.83-.14-.43,0-.85-.1-1.28-.16,2.53-2.64,5.07-5.26,7.6-7.89,4.12-4.29,8.17-8.69,12.61-12.62a41.72,41.72,0,0,1,11.51-7.5,5.53,5.53,0,0,1,1.83,3c.68,2.81-.59,5.88-2.43,7.89-2.26,2.49-5.59,3.57-8.69,4.34-5.75,1.42-12.72,2.14-16.3,7.78A15.91,15.91,0,0,0,163.72,123.84Zm41.36-5.49a144.11,144.11,0,0,1-15.49,3,9.86,9.86,0,0,1,3.29-6.18c4.36-3.43,10-.65,13.8,2.34l.32.28C206.36,118,205.72,118.19,205.08,118.35ZM239,130.62l0,.13a7.34,7.34,0,0,0-2.51,1.3c-2,1.55-3,4-4.89,5.62a4.41,4.41,0,0,1-3.68,1.32,4.92,4.92,0,0,1-2.7-2c-.79-1-1.45-2.2-2.19-3.29s-1.54-2.21-2.34-3.29a79.73,79.73,0,0,0-11.06-12,68.66,68.66,0,0,0,18.84-8.82c1-.68,2-1.4,2.9-2.14.61-.48,0-1.56-.6-1.08a66.46,66.46,0,0,1-22.25,11.08c-3.48-2.93-7.53-5.55-12.16-4.9a8.42,8.42,0,0,0-5.7,3.36,13.63,13.63,0,0,0-2.18,5.68c-3.89.54-7.8,1-11.7,1.44a105.54,105.54,0,0,1-11.77.87,15.4,15.4,0,0,1,1.41-4c3.38-6.36,11.3-6.63,17.25-8.3,3-.84,6.16-2.14,8.27-4.65a10.69,10.69,0,0,0,2.63-7.83A7,7,0,0,0,192.56,95c.57-.2,1.14-.4,1.72-.56a30.09,30.09,0,0,1,17,.16c5.42,1.65,10.34,4.75,15.8,6.26,4.67,1.3,9.41,1,14.15.57a17,17,0,0,1,1.33,2.36c1.78,3.81,1.54,7.93.57,12C241.91,120.77,240.35,125.69,239,130.62Zm11.17,7c2.16,4,2.61,8.65,3,13.27a18,18,0,0,1-1.91-2.37c-2.74-4.13-3.66-9.14-3.65-14.17A13.1,13.1,0,0,1,250.12,137.59Zm-2.43-15a67.35,67.35,0,0,0-1.23,9.3,10.19,10.19,0,0,0-4.06-1.46,8.59,8.59,0,0,0-2.15,0q1.73-6,3.4-12c1.16-4.17,2.08-8.57.83-12.84a17.09,17.09,0,0,0-1.92-4.24l1.69-.14a30.58,30.58,0,0,1,11.66,1C251.51,108.07,249.1,115.39,247.69,122.63Z" transform="translate(-10.25 -71.22)"/><ellipse class="cls-2" cx="222.59" cy="33.73" rx="2.99" ry="3.14"/><ellipse class="cls-2" cx="266" cy="65.73" rx="2.99" ry="3.14"/><ellipse class="cls-2" cx="147.27" cy="11.17" rx="2.99" ry="3.14"/><ellipse class="cls-2" cx="131.19" cy="72.55" rx="2.99" ry="3.14"/><ellipse class="cls-2" cx="170.5" cy="87.61" rx="2.99" ry="3.14"/><ellipse class="cls-2" cx="251.41" cy="98.6" rx="2.99" ry="3.14"/><ellipse class="cls-2" cx="167.5" cy="16.54" rx="2.99" ry="3.14"/><ellipse class="cls-2" cx="224.14" cy="75.69" rx="2.99" ry="3.14"/><ellipse class="cls-2" cx="258.98" cy="84.47" rx="2.99" ry="3.14"/><ellipse class="cls-2" cx="281.45" cy="33.73" rx="2.99" ry="3.14"/><ellipse class="cls-2" cx="196.75" cy="13.41" rx="2.99" ry="3.14"/><ellipse class="cls-2" cx="323.35" cy="50.67" rx="2.99" ry="3.14"/><path class="cls-1" d="M266,89.07c-1.28-3.61-4.51-5.59-7.75-7-4.29-1.84-8.79-3.26-13.22-4.7q-4.06-1.32-8.18-2.52c-.74-.22-1.06,1-.32,1.2q8.64,2.54,17.11,5.59c4.06,1.47,9.55,3.06,11.21,7.75C265.1,90.15,266.25,89.83,266,89.07Z" transform="translate(-10.25 -71.22)"/><ellipse class="cls-2" cx="225.58" cy="3.64" rx="2.99" ry="3.14"/><ellipse class="cls-2" cx="254.41" cy="18.41" rx="2.99" ry="3.14"/><path class="cls-1" d="M226.51,260a21.64,21.64,0,0,1-9.37,14.74c-.65.42,0,1.5.6,1.08a22.83,22.83,0,0,0,9.92-15.49C227.78,259.58,226.63,259.24,226.51,260Z" transform="translate(-10.25 -71.22)"/><ellipse class="cls-2" cx="217.23" cy="187.38" rx="2.99" ry="3.14"/><ellipse class="cls-2" cx="206.83" cy="202.84" rx="2.99" ry="3.14"/><path class="cls-1" d="M254,265.52c-4.35-.43-8.79-.82-13.12,0a19.07,19.07,0,0,0-10.56,6.19,36.65,36.65,0,0,0-4.18,5.91.6.6,0,1,0,1,.63c2.65-4.53,6.09-8.81,11-10.66,5.06-1.91,10.6-1.38,15.84-.86C254.79,266.84,254.79,265.59,254,265.52Z" transform="translate(-10.25 -71.22)"/><path class="cls-1" d="M48.5,278.23c-9.07-6.32-18-13.14-25.1-21.91-6.87-8.53-11.63-19-12-30.33a35,35,0,0,1,3.93-17.65c.38-.71-.65-1.34-1-.64-5.32,9.89-5.05,22-1.45,32.41,3.77,11,11.24,20,19.65,27.4a174.39,174.39,0,0,0,15.36,11.8C48.54,279.75,49.14,278.67,48.5,278.23Z" transform="translate(-10.25 -71.22)"/><path class="cls-1" d="M402.48,243.57c-.12-3.59-.46-7.67-3.38-10-2.44-2-5.49-2.18-8.47-2.36.05-.44.13-.88.16-1.31.73-8.1-1.74-16.11-4.74-23.45a98.86,98.86,0,0,0-5.55-11.55,58.61,58.61,0,0,0,.53-10.59c-.43-8.4-3.54-17.07-10.34-22-.63-.46-1.23.62-.6,1.08,6,4.36,9,12,9.64,19.43a52.69,52.69,0,0,1-.23,10.43c-1.05-1.74-2.17-3.44-3.38-5.07-3.93-5.28-8.84-9.91-14.75-12.61-7.15-3.25-15.07-3-22.46-5.24a32.66,32.66,0,0,1-3.34-1.25,15.17,15.17,0,0,0-1-3.94,54.71,54.71,0,0,0-7.32-12.3,110.73,110.73,0,0,0-12.86-14.31c0-.37-.07-.74-.09-1.11a38.37,38.37,0,0,1,.19-5.57c.08-.8-1.11-.79-1.2,0a38.46,38.46,0,0,0-.17,5.47q-2.76-2.56-5.61-5a116,116,0,0,0-11.19-8.89c-3.83-2.54-8.17-4.63-12.77-4.69a15.62,15.62,0,0,0-3.27.31c-.75.15-.43,1.35.32,1.2,4.63-.9,9.2.7,13.21,3.07a83,83,0,0,1,11.38,8.62c2.73,2.33,5.44,4.71,8.06,7.19a39,39,0,0,0,4,14.38,36.39,36.39,0,0,0,13.82,14.74,32.29,32.29,0,0,0,3.31,1.7,7.7,7.7,0,0,1,0,1,6.76,6.76,0,0,1-.83,2.71,60.58,60.58,0,0,1-9.2-3.49c-7.21-3.47-13.62-8.95-17.28-16.45a25.32,25.32,0,0,1-2.62-13.07c.06-.8-1.13-.8-1.19,0-.64,8.32,3.14,16.23,8.61,22.06,5.72,6.08,13.24,9.67,21,12a8,8,0,0,1-1.66,1.57c-3.35,2.35-7.41,2.43-11.27,3.08a46.19,46.19,0,0,0-5.21-4.37c-.64-.45-1.23.63-.6,1.08a43.76,43.76,0,0,1,4.35,3.58,15,15,0,0,0-9.49,6.69c-5.15,8.07-3.27,18.12,0,26.53.46,1.17.94,2.32,1.43,3.47.32.73,1.35.1,1-.63-3.74-8.69-7-19.23-1.84-28.08a13.36,13.36,0,0,1,10-6.93A44.82,44.82,0,0,1,327,190.4a44.18,44.18,0,0,1,3.86,9.06c1,3.53,1.58,7.45.39,11-1,3.15-3.61,6-6.88,6.48-.75.1-.76,1.35,0,1.24a9.74,9.74,0,0,0,7.08-5.22,16.23,16.23,0,0,0,1.31-10.68,39,39,0,0,0-3.7-10.58,47,47,0,0,0-5.79-8.89c-.72-.87-1.48-1.7-2.26-2.51,3.92-.61,8-.87,11.29-3.47a9.44,9.44,0,0,0,1.79-1.89l.33.11c5,1.4,10.15,2.36,15.26,3.3.75.14,1.08-1.07.32-1.21-5.09-.93-10.24-1.89-15.25-3.3a7.81,7.81,0,0,0,.65-1.85,9,9,0,0,0,.19-1.62,34.37,34.37,0,0,0,4.82,1.58c3.82,1,7.74,1.36,11.6,2.07a35.62,35.62,0,0,1,10.24,3.28A34.36,34.36,0,0,1,370,183a54.42,54.42,0,0,1,9.22,12.14c-.07.52-.15,1.05-.23,1.58-.72,4.69-1.87,9.29-2.53,14-.57,4.07-.72,8.33.64,12.26a14,14,0,0,0,5.95,7.79,14.24,14.24,0,0,0,6.17,1.53,25.26,25.26,0,0,1-3.4,9.21,18.62,18.62,0,0,1-7.14,6.71,25.59,25.59,0,0,1-10.43,2.58c-1,.06-2.08.08-3.13.07,1.47-3,.33-7-.45-10.1a128,128,0,0,0-4.41-13.4c-1.72-4.57-3.48-9.13-5.22-13.69q-6-15.75-12-31.5c-.28-.73-1.44-.41-1.15.34q5.18,13.58,10.37,27.16,2.58,6.78,5.18,13.58c1.65,4.31,3.32,8.62,4.72,13,.67,2.14,1.29,4.31,1.79,6.51.47,2,1,4.27.52,6.36a4.68,4.68,0,0,1-.73,1.68,46.39,46.39,0,0,1-13-2.32,25.81,25.81,0,0,1-2.59-3.51c-2.21-3.53-3.75-7.46-5.87-11.05A27.28,27.28,0,0,0,330.42,223a33.55,33.55,0,0,0,7.07-6.67c.49-.61-.35-1.5-.84-.88a33.72,33.72,0,0,1-7.57,7,25,25,0,0,0-6.76-1.68c-.76-.08-.76,1.17,0,1.24a23.94,23.94,0,0,1,5.52,1.27,60.77,60.77,0,0,1-9.73,4.91c-2.74,1.12-5.52,2.14-8.31,3.13q-5.87-25.74-11.74-51.5-6-26.28-12-52.55l-1.5-6.57c-.18-.79-1.33-.45-1.15.33q6.12,26.88,12.25,53.75l12.21,53.55.78,3.39c-4.88,1.71-9.81,3.29-14.73,4.84Q290,237.8,286,239a14.31,14.31,0,0,0-1.87-4.25c-.44-.65-1.47,0-1,.63a13.35,13.35,0,0,1,1.76,4q-4.5,1.33-9,2.62A37.66,37.66,0,0,1,278,228.52c.28-.75-.87-1.07-1.15-.33a38.58,38.58,0,0,0-2.24,14.1c-9.15,2.58-18.34,5-27.55,7.3a122,122,0,0,0-18.65-35.69q-1.58-2.07-3.22-4.05c-.5-.61-1.34.28-.84.88a120.28,120.28,0,0,1,20.86,37.06c.24.69.47,1.39.69,2.09L241.62,251c-9.86,2.43-19.75,4.77-29.63,7.1-.75.18-.43,1.38.32,1.21,11.34-2.68,22.69-5.38,34-8.21,1.75,5.58,3.18,11.28,5.41,16.67a38.06,38.06,0,0,0,5,8.81,36,36,0,0,0,6.9,6.62q1.33,1,2.73,1.89c.4,1.7.75,3.41,1.1,5.12a14,14,0,0,0-2.3,6.46c-.19,3.36,1.58,6.18,3.61,8.6a146.72,146.72,0,0,0,17.63,17.45c.59.5,1.44-.38.84-.88a162.65,162.65,0,0,1-15.65-15.2c-2.18-2.43-4.86-5.13-5.21-8.63a10.48,10.48,0,0,1,1.45-6,62.54,62.54,0,0,0,1.68,6.6,33.51,33.51,0,0,0,8.8,13.69,87.89,87.89,0,0,0,12.78,9.93,123.59,123.59,0,0,0,28.45,14,116.25,116.25,0,0,0,30.9,6,103.85,103.85,0,0,0,31.16-2.94c1.27-.32,2.52-.66,3.78-1,.73-.22.42-1.43-.32-1.21a101.87,101.87,0,0,1-31,4.07,113.61,113.61,0,0,1-30.84-5,122,122,0,0,1-28.84-13.19,102.12,102.12,0,0,1-13-9.42c-4.1-3.55-7.78-7.73-9.9-12.9a57,57,0,0,1-2.8-10.08c.14-.21.27-.43.4-.63.49-.74,1-1.46,1.49-2.17,3.4,1.94,6.89,3.7,10.3,5.58,6.51,3.6,12.9,7.43,19.32,11.2,12.72,7.48,25.67,14.83,39.62,19.5a96.64,96.64,0,0,0,21.76,4.73,9.24,9.24,0,0,1-4.34,3.35c-.72.26-.41,1.47.32,1.21a10.87,10.87,0,0,0,5.4-4.43,68.34,68.34,0,0,0,18.76-1.09c1.71-.34,3.4-.77,5.07-1.27.74-.21.43-1.42-.31-1.2-.5.15-1,.27-1.5.41a.57.57,0,0,0-.55-.2,88.15,88.15,0,0,1-20.32,1.14,14,14,0,0,0,1-5.39c-.08-6-3.57-11.27-7.88-14.89a54.84,54.84,0,0,0-12.67-7.54l0-.5c-.27-4.06-.51-8.13-.8-12.2a25.73,25.73,0,0,0,6.35-.88,64.21,64.21,0,0,0,8,6.82c3.88,2.67,8.31,4.6,12.52,6.84-.75,3.73-2.61,7.29-5.81,9.26-.67.4-.07,1.48.6,1.08,3.38-2.08,5.45-5.8,6.3-9.74,3.95,2.18,7.65,4.71,10.46,8.49a17.66,17.66,0,0,1,2.93,6,.59.59,0,0,0,1.17-.16l.08-1.25a.53.53,0,0,0-.63-.59c-2.38-6.51-7.95-10.52-13.78-13.75.82-5.44-.51-10.92-1.82-16.17-.19-.77-1.34-.44-1.15.34,1.23,4.91,2.55,10.11,1.86,15.23-1.73-.92-3.46-1.79-5.12-2.64a62.14,62.14,0,0,1-6.9-4,52.44,52.44,0,0,1-6-4.87l-1.41-1.34a26.44,26.44,0,0,0,10.08-6c3.39-3.24,6.37-8,5.74-13-.61-4.82-4.52-8.14-8.62-9.78-5.69-2.28-12.12-1.89-17.58-4.89a.61.61,0,0,0-.6,1.07c4.43,2.44,9.45,2.73,14.24,3.9,4.31,1,9.09,3.18,10.86,7.79s-.76,9.64-3.83,13A25.11,25.11,0,0,1,351,283.64c-.18.06-.37.1-.55.15-2.45-2.36-4.87-4.75-7.47-6.91-.17-1.56-.32-3.12-.53-4.67a54.22,54.22,0,0,0-2.76-12.52,18.82,18.82,0,0,0,2,.59,15.25,15.25,0,0,0,7.14.13c.74-.17.43-1.38-.32-1.2a15.83,15.83,0,0,1-9.47-1.08,19.16,19.16,0,0,0-4.1-5.86c-4.66-4.47-11.17-6.08-17.33-6.36-1.46-.07-2.93,0-4.39,0-1-4.46-2.08-8.91-3.09-13.34v0c2.19-.78,4.38-1.59,6.55-2.43a65.26,65.26,0,0,0,12.6-6.28,26.07,26.07,0,0,1,11.95,10.65c2.47,4.17,4.38,9.2,7.3,13.21a33,33,0,0,1-13.8-10,28.41,28.41,0,0,1-2.58-3.91c-.38-.7-1.41-.07-1,.63,4.13,7.54,11.13,12.4,18.87,15.08a15.37,15.37,0,0,0,5.22,3.89c2.87,1.27,6.79,1.4,9.09-1.17l.1-.12c6.29.19,13-.74,18.06-4.85,4.47-3.61,7.07-9.14,8.05-14.88a28.28,28.28,0,0,1,4.1.47,7.94,7.94,0,0,1,4.78,2.68,10.49,10.49,0,0,1,1.78,5.32c.25,2.43.24,4.91.26,7.35q0,4-.11,8-.3,8.05-1.34,16c-.11.78,1,1.12,1.15.33A175.33,175.33,0,0,0,402.48,243.57Zm-80.45-85a36.82,36.82,0,0,1-7.47-18.29A110.63,110.63,0,0,1,325,151.73a68.31,68.31,0,0,1,7.71,12,17.14,17.14,0,0,1,1.63,4.77A35.07,35.07,0,0,1,322,158.58Zm-36.91,82a17.31,17.31,0,0,1-2.58,12,22.34,22.34,0,0,1-5.56,5.82c-.15-1.91-.33-3.83-.51-5.73-.29-3.09-.56-6.24-.61-9.37Q280.5,241.94,285.12,240.55Zm-16.66,48a1,1,0,0,0-.11.17c-.19-.94-.39-1.87-.59-2.8.58.37,1.18.72,1.78,1.07C269.18,287.55,268.81,288.06,268.46,288.59Zm1.8-2.6c-.81-.48-1.63-.94-2.42-1.44l-.48-.32c-1.23-5.14-3-10-6.79-13.81a15.85,15.85,0,0,0-2.77-2.2c-.65-.41-1.26.67-.6,1.08,4.31,2.71,6.76,7.54,8.26,12.41.15.51.29,1,.43,1.54a35.14,35.14,0,0,1-11.62-12.86c-3.12-6.12-4.67-12.93-6.74-19.48a.88.88,0,0,0-.05-.15c6-1.51,12.06-3,18.07-4.67q4.56-1.22,9.1-2.51c.11,5.17.78,10.39,1.18,15.59a35.19,35.19,0,0,1-7.71,3.8,95.12,95.12,0,0,1-11.21,3c-.75.17-.43,1.38.32,1.21,6.42-1.46,13-3,18.71-6.64a63.76,63.76,0,0,1,0,10.25,31.27,31.27,0,0,1-2.44,9.82A34.09,34.09,0,0,1,270.26,286Zm75.13,26c1.4,3.32,4.37,6.16,8,6.13.76,0,.77-1.26,0-1.25-3.55,0-6.18-3.09-7.27-6.36s-1.26-6.89-1.44-10.38a72,72,0,0,1,8.27,4.52c4.69,3,9,7.26,10.52,13a13.43,13.43,0,0,1-.56,8.76l0,.09a87.69,87.69,0,0,1-25.67-5.86c-6.27-2.47-12.85-6.07-15.85-12.7a28.94,28.94,0,0,1-2.19-11.29c.34-.28.69-.57,1-.88a11.74,11.74,0,0,0,2.58-3.69,127.61,127.61,0,0,1,14.08,4.68c2.22.88,4.44,1.81,6.64,2.81C343.7,303.71,343.78,308.14,345.39,312Zm-26.21-27.76c-.06-1.64-.16-3.28-.29-4.92a13.24,13.24,0,0,1,3.3,5.84,9.67,9.67,0,0,1-.09,5.46c-1-.26-2-.49-2.92-.72C319.22,288,319.25,286.06,319.18,284.22Zm0,6.91c.83.2,1.65.43,2.48.64a10.83,10.83,0,0,1-2.52,3.3C319.1,293.76,319.13,292.44,319.15,291.13Zm27.85-9,2.06,2a25.8,25.8,0,0,1-5.39.66q-.23-3.1-.52-6.18C344.47,279.76,345.75,281,347,282.16Zm-4.52,2.64a23.19,23.19,0,0,1-5.6-.88c-.74-.21-1.06,1-.31,1.21a24.48,24.48,0,0,0,6,.91c.29,4,.53,8.1.79,12.15l-2.42-1.07a128.39,128.39,0,0,0-17.78-6.24,11.18,11.18,0,0,0-.08-6.93,14.8,14.8,0,0,0-4.36-6.47c-.28-3.16-.67-6.3-1.15-9.44a41.73,41.73,0,0,1,24.29,9.51C342.1,280,342.3,282.38,342.48,284.8Zm-41.1,3.36A128.51,128.51,0,0,1,318,290.88c0,1.1,0,2.2,0,3.29,0,.6,0,1.2,0,1.8a22,22,0,0,1-13.29,3.9,16.21,16.21,0,0,1-11.6-5.44A15.88,15.88,0,0,1,289.44,283c.44-4.84,3.38-8.2,7.18-10.49a26.2,26.2,0,0,0,2.67.46c4.75.56,9.55.71,14,2.58a17,17,0,0,1,4.26,2.57c.1,1.11.18,2.23.25,3.34.17,2.72.18,5.44.17,8.16a130.43,130.43,0,0,0-16.64-2.68C300.61,286.84,300.62,288.09,301.38,288.16Zm-3-16.6a37.21,37.21,0,0,1,10.78-3.17,41.53,41.53,0,0,1,7.22-.4c.44,2.81.81,5.62,1.09,8.45a17.67,17.67,0,0,0-3.35-1.93c-4.53-2-9.43-2.24-14.26-2.75C299.34,271.71,298.84,271.64,298.34,271.56Zm42.92.83q.23,1.71.42,3.42l-.15-.12a43.52,43.52,0,0,0-24.14-8.87c-.91-5.68-2.06-11.34-3.32-17a20.45,20.45,0,0,1,6.7.5,29.76,29.76,0,0,1,7,3c3.43,1.94,6.74,4.2,10.36,5.71C339.94,263.2,340.67,267.92,341.26,272.39Zm-25.92-25.27c6.22,0,13,1.12,18,5.36a17.56,17.56,0,0,1,3.91,4.88c-1.14-.55-2.25-1.15-3.33-1.77-4.24-2.46-8.4-5.39-13.19-6.54a21.46,21.46,0,0,0-6.91-.41l-.33-1.47C314.09,247.15,314.72,247.12,315.34,247.12Zm-1.45,7.78c.83,3.93,1.6,7.89,2.25,11.86-.18,0-.35,0-.53,0a41.91,41.91,0,0,0-13.77,2.1,30.1,30.1,0,0,0-5.34,2.35c-3-.77-5.85-2.38-6.33-5.93-.66-5,3.17-8.86,7.12-10.79a45.45,45.45,0,0,1,6.88-2.46,55.47,55.47,0,0,1,8.33-2l.31,0C313.17,251.62,313.54,253.26,313.89,254.9Zm-2-8.93c-7.07.4-14.12,1.72-21.22.78-.76-.1-.75,1.15,0,1.25,7.19.95,14.33-.4,21.5-.79.11.52.22,1,.34,1.56a49.81,49.81,0,0,0-7.45,1.66c-4.37,1.27-9.1,2.51-12.56,5.76-2.87,2.69-4.61,7.33-3,11.21a8.41,8.41,0,0,0,5.54,4.67,17,17,0,0,0-4.19,3.92c-5.15,7-2.34,17.34,4.36,22a18.94,18.94,0,0,0,12.89,3,21.74,21.74,0,0,0,9.93-3.58,33.88,33.88,0,0,0,1.13,8.09c1.87,6.57,6.76,11,12.41,13.92a232.43,232.43,0,0,1-26.73-13.73c-6.4-3.71-12.73-7.54-19.16-11.2-4.75-2.71-9.66-5.16-14.41-7.91a34.18,34.18,0,0,0,2.76-4.43,30.41,30.41,0,0,0,2.81-9.4,61.91,61.91,0,0,0,.23-13c4.86-3.47,8.69-8.59,9.35-14.88a16.9,16.9,0,0,0-.18-4.71c1.83-.56,3.67-1.11,5.5-1.68,5.74-1.78,11.49-3.62,17.18-5.61C310,237.27,311,241.62,311.92,246Zm44.43,6.56a12.42,12.42,0,0,1-3.76-2.21,49.42,49.42,0,0,0,10,1.68A7.14,7.14,0,0,1,356.35,252.53Zm33.09-21.45c-.5,0-1-.08-1.47-.13a10.8,10.8,0,0,1-5.36-2,12.33,12.33,0,0,1-3.4-4.17c-1.94-3.72-2.18-8-1.76-12.13.49-4.76,1.71-9.42,2.49-14.12.1-.57.19-1.14.28-1.72.43.79.84,1.58,1.25,2.38,3.42,6.77,6.46,14.09,7.72,21.66A35.37,35.37,0,0,1,389.44,231.08Z" transform="translate(-10.25 -71.22)"/><ellipse class="cls-2" cx="271.34" cy="46.28" rx="2.99" ry="3.14"/><ellipse class="cls-2" cx="301.04" cy="143.11" rx="2.99" ry="3.14"/><ellipse class="cls-2" cx="304.03" cy="59.02" rx="2.99" ry="3.14"/><ellipse class="cls-2" cx="294.35" cy="66.83" rx="2.99" ry="3.14"/><ellipse class="cls-2" cx="322.35" cy="160.7" rx="2.99" ry="3.14"/><ellipse class="cls-2" cx="341.23" cy="105.89" rx="2.99" ry="3.14"/><ellipse class="cls-2" cx="332.71" cy="109.03" rx="2.99" ry="3.14"/><ellipse class="cls-2" cx="312.18" cy="148.63" rx="2.99" ry="3.14"/><ellipse class="cls-2" cx="304.03" cy="102.76" rx="2.99" ry="3.14"/><path class="cls-1" d="M397.72,188.73a47.32,47.32,0,0,0-5-8q-2.61-3.72-5.26-7.41c-7.09-9.88-14.42-19.58-22.3-28.79a221.58,221.58,0,0,0-25.35-25.54,154.8,154.8,0,0,0-30.56-20.19c-11.66-5.84-23.82-10.45-35.78-15.55-1.49-.64-3-1.28-4.47-1.94-.71-.31-1,.9-.32,1.2C280.4,87.63,292.4,92.11,304,97.58a158.19,158.19,0,0,1,30.85,18.88,204.52,204.52,0,0,1,25.46,24.33c7.91,8.85,15.24,18.23,22.29,27.84q5.26,7.19,10.35,14.5c3.07,4.39,6.72,10.17,4.13,15.75a6.69,6.69,0,0,1-2.25,2.76c-.63.45,0,1.53.61,1.08C399.87,199.61,399.74,193.3,397.72,188.73Z" transform="translate(-10.25 -71.22)"/><ellipse class="cls-2" cx="258.02" cy="9.99" rx="2.99" ry="3.14"/><ellipse class="cls-2" cx="384.15" cy="131.61" rx="2.99" ry="3.14"/><path class="cls-1" d="M342.89,148.5a24.26,24.26,0,0,0-10.4-11,21.51,21.51,0,0,0-8.13-2.47c-.76-.07-.76,1.18,0,1.25,8.77.83,16.67,7.84,18.88,16.78a7.71,7.71,0,0,1,0,4.82,2.59,2.59,0,0,1-3.1,1.66c-.73-.27-1,.94-.32,1.2,2.6.94,4.7-1.67,4.94-4.15C345.07,153.87,344,150.91,342.89,148.5Z" transform="translate(-10.25 -71.22)"/><ellipse class="cls-2" cx="312.77" cy="63.69" rx="2.99" ry="3.14"/><ellipse class="cls-2" cx="328.9" cy="87.71" rx="2.99" ry="3.14"/><path class="cls-1" d="M364.37,153.56a21.84,21.84,0,0,0-5.66-10.47c-6.19-6.59-14.79-9.39-22.73-12.87a45.67,45.67,0,0,1-12.82-7.77c-.57-.52-1.42.36-.84.89,6.55,6,15,8.55,22.81,12.13,7.08,3.24,14.68,8,17.44,16a16,16,0,0,1-.84,13.1c-.39.69.64,1.32,1,.63A16.73,16.73,0,0,0,364.37,153.56Z" transform="translate(-10.25 -71.22)"/><ellipse class="cls-2" cx="311.87" cy="51.07" rx="2.99" ry="3.14"/><ellipse class="cls-2" cx="351.51" cy="93.98" rx="2.99" ry="3.14"/><ellipse class="cls-2" cx="360.41" cy="90.84" rx="2.99" ry="3.14"/><ellipse class="cls-2" cx="391.15" cy="200.6" rx="2.99" ry="3.14"/><ellipse class="cls-2" cx="281.42" cy="175.09" rx="2.99" ry="3.14"/><ellipse class="cls-2" cx="345.19" cy="245.42" rx="2.99" ry="3.14"/><path class="cls-1" d="M415,287.1a27.21,27.21,0,0,0-2.83-10.48c-.89-1.72-2.06-3.33-2.11-5.37a16.4,16.4,0,0,1,1.41-5.84,47,47,0,0,0-4.1-40c-1-1.64-2.65-3.28-3-5.24a6.91,6.91,0,0,1,.36-3.15,23.19,23.19,0,0,0,.75-3.09,17.49,17.49,0,0,0-2.33-11.59.6.6,0,0,0-1,.63,16.17,16.17,0,0,1,2.21,10.63c-.27,1.83-1.08,3.55-1.21,5.4a7.34,7.34,0,0,0,1.68,4.69A45.4,45.4,0,0,1,411,263.14c-1.1,3.49-3,7.11-1.54,10.81.67,1.69,1.72,3.18,2.43,4.85a24.9,24.9,0,0,1,1.55,5.29c1.66,9-1.1,18.08-3.7,26.61a.6.6,0,1,0,1.15.33C413.2,303.32,415.62,295.31,415,287.1Z" transform="translate(-10.25 -71.22)"/><ellipse class="cls-2" cx="391.7" cy="130.85" rx="2.99" ry="3.14"/><ellipse class="cls-2" cx="339.2" cy="188.2" rx="2.99" ry="3.14"/><ellipse class="cls-2" cx="375.56" cy="241.06" rx="2.99" ry="3.14"/><ellipse class="cls-2" cx="330.88" cy="179.44" rx="2.99" ry="3.14"/><ellipse class="cls-2" cx="327.23" cy="211.55" rx="2.99" ry="3.14"/><ellipse class="cls-2" cx="291.46" cy="214.69" rx="2.99" ry="3.14"/><ellipse class="cls-2" cx="348.18" cy="260.24" rx="2.99" ry="3.14"/><ellipse class="cls-2" cx="360.1" cy="209.51" rx="2.99" ry="3.14"/><ellipse class="cls-2" cx="355.54" cy="237.05" rx="2.99" ry="3.14"/><path class="cls-1" d="M400.89,283.3a7.67,7.67,0,0,1-3.63,6.17,7,7,0,0,1-7.38-.29c-2.06-1.42-3.29-3.8-4.64-5.89a23.19,23.19,0,0,0-5-5.6,21.35,21.35,0,0,0-7.54-3.86c-.74-.21-1.06,1-.31,1.2a20.53,20.53,0,0,1,7.38,3.84,25.94,25.94,0,0,1,5.36,6.46c1.41,2.24,3,4.51,5.39,5.6a8.11,8.11,0,0,0,7.56-.49,9,9,0,0,0,4-7.14C402.12,282.5,400.93,282.5,400.89,283.3Z" transform="translate(-10.25 -71.22)"/><ellipse class="cls-2" cx="361.68" cy="202.59" rx="2.99" ry="3.14"/><ellipse class="cls-2" cx="391.15" cy="212.73" rx="2.99" ry="3.14"/><path class="cls-1" d="M407.31,297.43a7.31,7.31,0,0,0-3.75-6c-.69-.33-1.3.75-.6,1.08a6,6,0,0,1,3.12,4.63,10.19,10.19,0,0,1-1.39,6.54,27.23,27.23,0,0,1-4.52,6c-.81.81-2,1.69-3.14.95a14.08,14.08,0,0,1-2.12-2.53,11.2,11.2,0,0,0-6.6-3.61c-.75-.12-1.07,1.08-.31,1.2a10.39,10.39,0,0,1,6.78,4.18,4.91,4.91,0,0,0,2.47,2.21,3.68,3.68,0,0,0,3.22-1,20.66,20.66,0,0,0,2.75-3.08,28,28,0,0,0,2.37-3.41A11.72,11.72,0,0,0,407.31,297.43Z" transform="translate(-10.25 -71.22)"/><ellipse class="cls-2" cx="392.68" cy="220.88" rx="2.99" ry="3.14"/><ellipse class="cls-2" cx="377.31" cy="232.67" rx="2.99" ry="3.14"/><path class="cls-1" d="M300.23,198.77a9.29,9.29,0,0,0-7.39-6.65c-4.32-.86-8.6,1-12.36,3-.69.37-.08,1.45.6,1.08,3.39-1.83,7.32-3.63,11.23-2.95,3,.53,6,2.57,6.77,5.83C299.27,199.89,300.42,199.56,300.23,198.77Z" transform="translate(-10.25 -71.22)"/><ellipse class="cls-2" cx="290" cy="127.72" rx="2.99" ry="3.14"/><ellipse class="cls-2" cx="269.92" cy="124.51" rx="2.99" ry="3.14"/><path class="cls-1" d="M337.45,159.5l-13.95-1.62c-4.56-.53-9.12-1.14-13.69-1.57-4-.38-8-.19-11.48,2.16-1.61,1.09-3,2.45-4.56,3.66a30.6,30.6,0,0,1-5.2,3.33,72.5,72.5,0,0,1-12.92,4.67c-.74.22-.42,1.42.32,1.21a87.92,87.92,0,0,0,11.35-3.91,35.45,35.45,0,0,0,5.29-2.92c1.63-1.11,3.09-2.43,4.63-3.68a14.42,14.42,0,0,1,5.22-3,18.48,18.48,0,0,1,6.16-.42c4.43.3,8.85,1,13.26,1.48l15.57,1.81C338.21,160.84,338.2,159.59,337.45,159.5Z" transform="translate(-10.25 -71.22)"/><ellipse class="cls-2" cx="264.98" cy="99.62" rx="2.99" ry="3.14"/><ellipse class="cls-2" cx="193.13" cy="79.65" rx="2.99" ry="3.14"/><ellipse class="cls-2" cx="136.03" cy="88.08" rx="2.99" ry="3.14"/><path class="cls-1" d="M119.5,118.89a69.81,69.81,0,0,0-2.91,18.68.6.6,0,1,0,1.2,0,68.22,68.22,0,0,1,2.86-18.35A.6.6,0,1,0,119.5,118.89Z" transform="translate(-10.25 -71.22)"/><ellipse class="cls-2" cx="110.36" cy="47.23" rx="2.99" ry="3.14"/><ellipse class="cls-2" cx="106.65" cy="66.96" rx="2.99" ry="3.14"/><path class="cls-1" d="M139.52,117.22a24.31,24.31,0,0,0-6,21c.15.78,1.3.45,1.15-.34a23,23,0,0,1,5.66-19.78C140.9,117.53,140.06,116.64,139.52,117.22Z" transform="translate(-10.25 -71.22)"/><ellipse class="cls-2" cx="129.72" cy="45.81" rx="2.99" ry="3.14"/><ellipse class="cls-2" cx="123.73" cy="66.96" rx="2.99" ry="3.14"/><path class="cls-1" d="M232.67,154.49a91.88,91.88,0,0,0-28.3-20.07,87.05,87.05,0,0,0-9-3.51c-.74-.24-1.05,1-.32,1.2a89.22,89.22,0,0,1,29.75,16.63c2.25,1.89,4.39,3.91,6.45,6a.34.34,0,0,0,.09.13l.53.49A.61.61,0,0,0,232.67,154.49Z" transform="translate(-10.25 -71.22)"/><ellipse class="cls-2" cx="184.34" cy="60.56" rx="2.99" ry="3.14"/><ellipse class="cls-2" cx="222.59" cy="84.33" rx="2.99" ry="3.14"/><path class="cls-1" d="M354.06,345.28c-.58-.51-1.43.37-.84.88,3,2.64,6.82,6,7,10.49.26,4.84-3.92,8.24-7,11.09a240.79,240.79,0,0,1-23.86,19q-7,4.88-14.28,9.21c-.67.4-.07,1.48.6,1.08a239,239,0,0,0,26.07-18q6.21-4.92,12.1-10.25c3.27-2.95,7.34-6.32,7.62-11.22C361.76,352.36,357.55,348.32,354.06,345.28Z" transform="translate(-10.25 -71.22)"/><ellipse class="cls-2" cx="342.19" cy="273.96" rx="2.99" ry="3.14"/><ellipse class="cls-2" cx="304.82" cy="325.14" rx="2.99" ry="3.14"/><path class="cls-1" d="M298,402.25c-7.48-.3-14.54,2.57-21.67,4.49-6.51,1.76-13.69,2.75-19.9-.63a14.35,14.35,0,0,1-6.54-7.05c-.31-.74-1.34-.1-1,.63,2.38,5.75,8.23,9,13.95,9.75,7.6,1,15-1.89,22.21-3.95a41.28,41.28,0,0,1,13-2C298.78,403.53,298.78,402.28,298,402.25Z" transform="translate(-10.25 -71.22)"/><ellipse class="cls-2" cx="238.57" cy="327.51" rx="2.99" ry="3.14"/><ellipse class="cls-2" cx="288.46" cy="331.41" rx="2.99" ry="3.14"/><ellipse class="cls-2" cx="255.12" cy="298.82" rx="2.99" ry="3.14"/><ellipse class="cls-2" cx="321.21" cy="306.96" rx="2.99" ry="3.14"/><path class="cls-1" d="M286.43,390.54a321.79,321.79,0,0,1-53.71,6.7c-5.06.2-10.12.27-15.18.24-.77,0-.77,1.24,0,1.25a323.3,323.3,0,0,0,54-4.14q7.64-1.24,15.23-2.85C287.5,391.58,287.18,390.38,286.43,390.54Z" transform="translate(-10.25 -71.22)"/><ellipse class="cls-2" cx="276.93" cy="319.3" rx="2.99" ry="3.14"/><ellipse class="cls-2" cx="206.72" cy="326.55" rx="2.99" ry="3.14"/><ellipse class="cls-2" cx="195.36" cy="237.1" rx="2.99" ry="3.14"/><ellipse class="cls-2" cx="301.71" cy="339.7" rx="3.14" ry="2.99" transform="translate(-19.25 -63.01) rotate(-1.54)"/><ellipse class="cls-2" cx="297.82" cy="273" rx="2.99" ry="3.14"/><ellipse class="cls-2" cx="285.47" cy="279.08" rx="2.99" ry="3.14"/><ellipse class="cls-2" cx="245.48" cy="291.91" rx="2.99" ry="3.14"/><ellipse class="cls-2" cx="298.63" cy="280.23" rx="2.99" ry="3.14"/><path class="cls-1" d="M284.56,120.69c-.09-.34-.17-.68-.26-1a.52.52,0,0,0-.23-.3.55.55,0,0,0-.38-.05.51.51,0,0,0-.35.62l.25,1a.5.5,0,0,0,.62.35A.52.52,0,0,0,284.56,120.69Z" transform="translate(-10.25 -71.22)"/></svg>