<?xml version="1.0" encoding="utf-8"?>
<!-- Generator: Adobe Illustrator 23.0.6, SVG Export Plug-In . SVG Version: 6.00 Build 0)  -->
<svg version="1.1" id="Camada_1" xmlns="http://www.w3.org/2000/svg" xmlns:xlink="http://www.w3.org/1999/xlink" x="0px" y="0px"
	 viewBox="0 0 1080 1920" style="enable-background:new 0 0 1080 1920;" xml:space="preserve">
<style type="text/css">
	.st0{enable-background:new    ;}
	.st1{fill:none;stroke:#FFFFFF;stroke-width:3;stroke-miterlimit:10;}
	.st2{fill:#FFFFFF;}
	.st3{fill:#FFFFFF;stroke:#FFFFFF;stroke-width:2;stroke-miterlimit:10;}
</style>
<title>cerebro_telemovel</title>
<g class="st0">
	<path class="st1" d="M436.5,1080.8h-34V902.1l-34,34v42.5h-34v-42.5l-34-34v178.7h-34V842.6h25.5l59.6,59.6l59.6-59.6h25.5V1080.8z
		"/>
	<path class="st1" d="M640.7,934.1l-68.1,68.1v78.6h-34v-78.6l-68.1-68.1v-91.5h34v78.6l51,51l51-51v-78.6h34V934.1z"/>
	<path class="st1" d="M844.9,1012.7c0,18.6-6.7,34.6-20.1,48c-13.4,13.4-29.4,20.1-48,20.1H674.7V842.6h102.1
		c18.6,0,34.6,6.7,48,20.1c13.4,13.4,20.1,29.4,20.1,48V1012.7z M810.9,1012.7V910.6c0-9.3-3.3-17.3-10-24c-6.7-6.7-14.7-10-24-10
		h-68.1v170.1h68.1c9.3,0,17.3-3.3,24-10C807.5,1030,810.9,1022,810.9,1012.7z"/>
</g>
<path class="st2" d="M1010.6,771.2c-4-6.6-8.5-13-12.9-19.4c-4.2-6.3-8.5-12.5-12.8-18.8c-16.9-24.7-34.5-49-53.8-72
	c-19.2-22.7-40.2-44-63.7-62.3c-24.8-19.2-52.4-34-81-46.9c-29.3-13.2-59.3-24.7-88.3-38.5c-3.5-1.7-7.1-3.4-10.6-5.2
	c-0.8-0.4-1.6,0.8-0.7,1.3c28.3,14.2,57.8,25.6,86.7,38.3c28.6,12.5,56.8,26.2,82.4,44.3c24,17.1,45.5,37.6,65.1,59.7
	c19.8,22.3,37.6,46.3,54.7,70.7c8.6,12.3,16.9,24.6,25.3,37c8.2,12.3,18.9,26.1,16,41.9c-0.6,3.5-2.1,6.8-4.2,9.7
	c-0.5,0.8,0.7,1.5,1.3,0.7C1023.5,799.3,1017.8,783.1,1010.6,771.2z"/>
<path class="st2" d="M676.3,520.5c-17-9.9-35.1-17.5-54-22.8c-5.4-1.5-10.8-2.8-16.3-3.9c-0.9-0.2-1.3,1.2-0.4,1.4
	c19.2,3.9,37.9,10.3,55.5,18.9c4.9,2.4,9.8,5,14.5,7.8c0.4,0.2,0.8,0.1,1-0.3C676.8,521.1,676.7,520.7,676.3,520.5z"/>
<circle class="st3" cx="682" cy="504.5" r="7"/>
<path class="st2" d="M567.4,492.2c-42-3.8-84.3-2.4-125.9,4.3c-11.6,1.9-23.2,4.1-34.7,6.8c-0.9,0.2-0.5,1.6,0.4,1.4
	c40.9-9.5,82.9-13.9,124.9-13c11.8,0.3,23.6,0.9,35.3,2C568.4,493.7,568.4,492.3,567.4,492.2z"/>
<path class="st2" d="M924.9,684.2c-2.2-9.9-6.7-19.2-13.1-27.1c-3.2-3.9-6.8-7.4-10.8-10.3c-4.2-3-8.7-5.4-13.4-7.3
	c-9.8-4-20.3-6.2-30.5-9.2c-9.8-2.9-19.7-6.6-27.3-13.7c-0.9-0.9-1.8-1.8-2.7-2.8c-0.6-0.7-1.7,0.3-1,1c6.8,7.6,16,12.1,25.5,15.2
	c10,3.3,20.3,5.4,30.2,8.8c4.9,1.6,9.6,3.7,14,6.3c4.3,2.6,8.3,5.7,11.7,9.4c7,7.3,12.1,16.2,14.9,25.9c2.9,9.6,3.3,19.8,1.2,29.7
	c-0.3,1.2-0.6,2.5-1,3.7c-0.1,0.4,0.2,0.8,0.6,0.8c0.3,0.1,0.7-0.1,0.8-0.5C926.9,704.4,927.2,694.1,924.9,684.2z"/>
<path class="st2" d="M352.5,543.8c-9.3-6.8-21.4-8.1-32.4-6.2c-12.5,2.2-23.7,8.6-34.3,15.3c-21.4,13.5-42.1,28.3-61.8,44.1
	c-19.5,15.9-37.7,33.4-53.3,53.1c-8.8,11.2-16.9,22.9-24.8,34.7c-3.3,3.8-6.5,7.8-9.6,11.9c-8.6,11.2-16.5,22.8-24.5,34.4
	l-18.3,26.2c-2.6,2.8-5.2,5.6-7.9,8.3c-2.1,2.1-4.2,4.1-6.4,6.1c-0.7,0.6,0.3,1.7,1,1c2.6-2.4,5.2-4.9,7.7-7.4l-2.1,3l-3.2,4.6
	c-0.5,0.8,0.7,1.5,1.3,0.7l10.8-15.5c11.2-12.3,21.1-25.7,30.5-39.5c7.4-10.9,14.6-21.9,21.9-32.9c4.3-4.9,8.8-9.6,13.6-14
	c18.7-17,41.5-28.8,66.2-34.1c1.5-0.3,3-0.6,4.5-0.9c0.9-0.2,0.5-1.6-0.4-1.4c-24.9,4.6-48.1,15.6-67.4,32
	c-3.8,3.2-7.5,6.7-10.9,10.3c4.1-6,8.3-12,12.6-17.9C180,640,196.9,622,215.6,606c19.1-16.5,39.7-31.2,60.8-45.1
	c10.6-7,21.3-14.4,33.3-18.9c11-4.1,23.6-5.4,34.7-1c2.6,1,5.1,2.4,7.3,4.1C352.5,545.7,353.3,544.4,352.5,543.8z M129.8,709.3
	c-8.5,12.7-17.3,25.4-27,37.3c2.3-3.2,4.5-6.5,6.8-9.7c8.1-11.6,16.1-23.3,24.5-34.7c1.2-1.6,2.5-3.3,3.7-4.9
	C135.2,701.3,132.5,705.3,129.8,709.3z"/>
<path class="st2" d="M356,598.3c-9.8,10.9-15.7,24.8-16.9,39.4c-0.3,4.1-0.2,8.2,0.2,12.3c0.1,0.9,1.6,0.9,1.5,0
	c-1.6-14.3,1.6-28.7,9-41c2.1-3.5,4.5-6.7,7.2-9.7C357.7,598.6,356.7,597.6,356,598.3z"/>
<path class="st2" d="M596.2,694.2c-21.3-19.3-44.7-36.2-69.8-50.3c-7.1-4-14.3-7.7-21.6-11.2c-0.8-0.4-1.6,0.8-0.7,1.3
	c25.9,12.4,50.2,27.7,72.7,45.6c5.8,4.6,11.4,9.4,16.9,14.3l-2.5-0.1c-0.9,0-0.9,1.4,0,1.5l4.5,0.2c0.4,0,0.7-0.3,0.7-0.7
	C596.4,694.5,596.3,694.3,596.2,694.2z"/>
<path class="st2" d="M303.1,606.7c-3.5,11.1-5.6,22.5-6.4,34.1c-0.2,3.3-0.3,6.6-0.3,9.9c0,0.4,0.4,0.7,0.8,0.6
	c0.3,0,0.6-0.3,0.6-0.6c0-14.8,2.2-29.5,6.6-43.6C304.8,606.2,303.4,605.8,303.1,606.7z"/>
<path class="st2" d="M307.4,589.8c-5.8-7.6-15.9-10.3-25.1-9.2c-10.8,1.3-19.9,7.9-27.4,15.3c-4.2,4.2-8,8.7-11.8,13.2
	c-4.1,4.9-8.1,9.9-12,14.9c-7.8,10.1-15.2,20.6-22.5,31.1s-14.3,21.4-21.4,32.2l-2.6,4c-0.5,0.8,0.8,1.5,1.3,0.7
	c6.8-10.4,13.6-20.9,20.6-31.2s14.2-20.6,21.7-30.7c7.4-9.8,15-19.5,23.2-28.5c7.2-7.9,15.6-15.8,26.2-18.7c8.8-2.5,19.4-1.4,26.3,5
	c0.8,0.8,1.6,1.6,2.3,2.5C306.7,591.3,308,590.6,307.4,589.8z"/>
<path class="st2" d="M876,679.5c-4.9-11.7-14.9-20.3-25.8-26.3c-6.9-3.7-14-7-21.2-9.8c-0.9-0.4-1.2,1-0.4,1.4
	c11.9,5,24.2,10.1,33.8,18.8c4.4,3.9,8,8.5,10.8,13.6c2.7,4.8,4.1,10.3,4,15.8c-0.3,5.4-2.5,11.2-7.7,13.5c-0.8,0.4-0.1,1.6,0.7,1.3
	c4.7-2.1,7.3-7,8.1-11.9C879.1,690.2,878.3,684.6,876,679.5z"/>
<path class="st2" d="M395.4,510.1c-30.2,6.8-59.7,16.4-88.1,28.7c-28.5,12.3-55.9,27.1-81.8,44.3c-25.7,17-49.8,36.2-72.1,57.4
	c-22.5,21.3-43,44.5-61.4,69.4c-18.4,24.9-34.5,51.5-48,79.3c-1.7,3.4-3.3,6.9-4.9,10.4c-0.4,0.8,0.9,1.6,1.3,0.7
	c12.8-28.1,28.2-54.9,46-80.2c17.7-25.2,37.7-48.8,59.6-70.4c22-21.8,45.9-41.7,71.4-59.3c25.2-17.5,52-32.7,79.9-45.5
	c28.2-12.9,57.5-23.2,87.5-30.7c3.6-0.9,7.3-1.8,10.9-2.6C396.7,511.3,396.3,509.9,395.4,510.1z"/>
<path class="st2" d="M836.1,600.8c-4.8-8.7-13-14.6-22.1-18.1c-10.5-4-21.8-4.4-32.9-3.3c-24.4,2.5-49.5,12.7-74,4.9
	c-5.7-1.8-11-4.7-15.6-8.5c-4.4-3.8-8.4-8.1-11.9-12.7c-3.3-4-6.4-8.1-9.8-12c8.1-7.5,18-13,29.1-14.4c7.8-1,15.7,0.4,22.6,4
	c6.7,3.4,12.1,8.9,15.3,15.7c0.8,1.7,1.3,3.5,1.7,5.3c0.2,0.9,1.6,0.5,1.4-0.4c-3.4-15.5-19-25.8-34.3-26.4
	c-13.8-0.6-26.7,5.8-36.8,15.1l-0.1-0.1c-3.5-3.9-7.3-7.5-11.3-11c-15.8-13.6-34.4-23.6-54.5-29.3c-20.2-5.8-41.5-7-62.2-3.5
	c-2.5,0.4-5,1-7.5,1.5c-0.4,0.1-0.6,0.6-0.4,0.9c0.1,0.3,0.5,0.5,0.8,0.5c20.5-4.7,41.9-4.7,62.4,0.2c20.4,4.7,39.5,13.9,56,26.8
	c5.7,4.6,11,9.6,15.8,15c-2.4,2.3-4.6,4.8-6.7,7.4c-0.3,0.4-0.6,0.8-0.9,1.2c-4.1-2.4-8.4-4.3-13-5.5c-6.7-1.6-13.7-1.9-20.5-0.8
	c-2.7,0.4-5.4,0.8-8.2,1.3c-1.3-3.3-3-6.5-5.1-9.3c-5.4-7.2-12.7-12.4-20.5-16.6c-4.3-2.3-8.8-4.3-13.2-6.2c-4.3-2-8.9-3.6-13.5-4.8
	c-4.5-1-9.3-1.1-13.7,0.6s-7.6,4.8-11.4,7.3s-8.6,4.6-13.1,2.8c-2-0.9-3.7-2.1-5.3-3.7c-1.5-1.4-3.2-2.8-4.9-4
	c-15.7-11.2-36.2-8.6-53.9-4.4c-2.5,0.6-5,1.2-7.5,1.8c-0.4,0.1-0.6,0.6-0.4,0.9c0.1,0.3,0.5,0.5,0.8,0.5c18-4.5,38.3-9.4,55.7-0.3
	c1.8,0.9,3.6,2,5.2,3.3c1.7,1.3,3.3,2.8,4.9,4.3c1.5,1.4,3.2,2.4,5.1,3.2c2,0.7,4,0.8,6.1,0.4c4.6-0.8,8.3-3.7,11.9-6.4
	s7.6-5.1,12.3-5.5s9.4,0.8,13.8,2.4s9,3.6,13.3,5.6c8.3,3.8,16.4,8.3,22.9,14.8c3.9,3.8,6.9,8.4,8.9,13.5c-4.9,1-9.8,1.7-14.8,2.1
	c-6.7,0.3-13.3-0.3-19.8-1.9c-25.9-5.9-49.2-22.5-76.4-22.7c-8.5,0-16.9,1.5-24.9,4.6c-2.2-1.3-4.5-2.6-6.7-3.9
	c-17.7-10.5-36.2-20.7-56.4-25.5c-2.4-0.6-4.8-1.1-7.3-1.5c-0.9-0.2-1.3,1.2-0.4,1.4c20.1,3.4,38.5,12.5,56,22.6
	c4.3,2.5,8.6,5.1,12.9,7.7c-17.9,7.3-33.3,21.2-45.6,35.8c-9.6,11.6-18.3,24-27,36.2c-8.8-1.7-17.4-5.2-23.7-11.7
	c-7.1-7.3-10.3-18.5-6-28c2.2-5.1,6.4-8.4,11.3-10.8c5.2-2.5,10.8-3.9,15.8-6.9c4.1-2.5,7.9-6.1,8.9-11c0.8-4-0.1-8.7-3.5-11.2
	c-4.7-3.6-11.1-1.4-16.1,0.2c-5.9,2-11.7,4.4-17.2,7.3c-2.8,1.5-5.5,3-8.2,4.7c-0.8,0.5-0.1,1.8,0.7,1.3c5.5-3.5,11.3-6.5,17.3-9
	c2.9-1.2,5.9-2.3,8.9-3.3c2.9-0.9,5.9-1.9,9-1.7c2.6,0,5.1,1.4,6.5,3.6c1.1,1.9,1.6,4.1,1.4,6.3c-0.4,5.3-4.3,9.2-8.7,11.8
	c-4.9,2.8-10.4,4.3-15.5,6.7c-4.9,2.3-9.1,5.6-11.5,10.5c-4.4,8.8-2.6,19.8,3.2,27.5c6.4,8.4,16.4,13.1,26.5,15.1v0.1L376,652.6
	l-7.4,10.2c-0.5,0.8,0.7,1.5,1.3,0.7l29.2-40.5c2.8-3.8,5.5-7.7,8.3-11.5c4.2,0.7,8.5,1.1,12.7,1.2c-1.1,10.7,1.8,23.3,0.3,32.9
	c-0.6,4.5-2.4,8.8-5.2,12.4c-2.7,3.4-6,6.1-9.9,8l-0.2,0.1c-6.6,0.1-13.1,1.4-19.3,3.7c-3.1-0.2-6.2-0.6-9.3-1.3
	c-2.5-0.6-5-1.3-7.5-2.2c-0.9-0.3-1.3,1.1-0.4,1.4c4.5,1.6,9.2,2.7,14,3.3c-2.3,1-4.6,2-6.8,3.2c-12.6,6.8-23,16.8-32.2,27.6
	c-4.8,5.6-9.4,11.5-14,17.3c-2.3,2.9-4.6,5.8-7,8.7c-1.6,1.9-3.1,3.8-4.8,5.6c-2.3-6.7-3.6-13.6-3.8-20.7
	c-0.3-12.7,3.3-26.3,12.8-35.3c8.3-7.8,20.8-12,31.9-8.7c1.4,0.4,2.7,1,4,1.6c0.8,0.4,1.6-0.8,0.7-1.3c-10.9-5.4-24.1-2.9-33.7,4
	c-10.9,7.8-16.2,20.7-17.2,33.8c-0.6,9.4,0.8,18.8,4,27.7c-0.3,0.3-0.7,0.7-1,1c-2.3,2.4-5.2,4.1-8.3,4.9c-3.1,0.6-6.3,0-8.9-1.7
	c-6.1-3.8-8.5-10.8-9.1-17.6c-0.3-3.8-0.3-7.7-0.1-11.5c0.1-4,0.3-8.1,0.6-12.2c0.5-8.3,1.4-16.5,2.5-24.7c0.3-2,0.6-4,0.9-6
	c0.1-0.4-0.1-0.8-0.5-0.9c-0.2,0-0.4,0-0.5,0.1c-12,5.9-16.9,19.4-21.5,31c-1.2,3-2.7,6.2-5.6,8c-1.2,0.8-2.8,0.8-4.1,0
	c-1.4-1-1.8-2.8-2.2-4.3c-1.5-7.5-2.1-15.1-1.9-22.8c0.4-15.3,4.1-30.4,10.8-44.2c6.4-12.9,15.3-24.4,26.4-33.7
	c10.8-9.1,23.3-16,36.7-20.3c1.6-0.5,3.3-1,4.9-1.4c0.4-0.1,0.6-0.5,0.5-0.9c-0.1-0.4-0.5-0.6-0.9-0.5c-14,3.7-27.1,10.2-38.5,19.1
	c-11.7,9-21.3,20.3-28.4,33.2c-7.5,13.8-11.8,29.1-12.8,44.8c-0.5,7.8-0.1,15.7,1.1,23.5c0.5,3.1,0.8,7.5,3.9,9.2
	c2.8,1.5,5.7-0.3,7.6-2.3c2.3-2.6,3.5-5.8,4.7-9s2.6-6.4,4-9.5c2.8-6,6.4-11.9,11.8-16c0.9-0.7,1.9-1.3,2.9-1.8
	c-2.6,15.8-3.9,31.8-3.9,47.9c0,7,0.9,14.5,5.4,20.2c3.9,4.8,10.2,7.6,16.3,5.5c3-1.2,5.8-3,8-5.3c1.2,3.2,2.7,6.3,4.4,9.3
	c0.3,0.5,0.6,1.1,1,1.6c-5.4,0.8-10.7,1.8-16,3l-4.3,1c-0.9,0.2-0.5,1.6,0.4,1.4c6.9-1.6,13.8-2.9,20.8-4
	c6.3,9.9,15.4,18.2,26.5,22.3c12,4.4,26.1,4.1,37.4-2.4c1.4-0.8,2.7-1.7,4-2.7c0.7-0.6,0-1.8-0.7-1.3c-10,7.6-23.4,9.4-35.5,6.3
	c-12.3-3.1-22.6-11.4-29.6-21.8c-0.2-0.3-0.3-0.5-0.5-0.8c4.2-0.6,8.4-1.2,12.6-1.7c23.4-2.5,47-2.3,70.3,0.6
	c6.7,0.8,13.4,2,20.1,3.2c-1.7,1.8-3.4,3.6-5,5.4c-0.6,0.7,0.4,1.7,1,1c1.8-2.1,3.7-4.1,5.7-6.1c4.4,0.9,8.7,1.8,13.1,2.9
	c11.4,2.8,22.6,6.3,33.6,10.4l4.1,1.6c0.8,0.3,1.3-0.9,0.6-1.3l-3.3-2c-0.3-0.2-0.7-0.1-0.9,0.2c0,0,0,0.1-0.1,0.1
	c-9.7-3.7-19.6-6.8-29.6-9.5c-5.3-1.4-10.7-2.7-16.2-3.8c12.6-12.6,27.1-23.2,43-31.3c4.7-2.4,9.6-4.6,14.5-6.6
	c18,3.3,35.2,9.9,50.8,19.3c1,0.6,1.9,1.2,2.8,1.8c-8.1,2.4-16,5.5-23.7,9c-1.8,0.8-3.5,1.6-5.3,2.5c-0.8,0.4-0.1,1.7,0.7,1.3
	c9.6-4.7,19.6-8.6,29.9-11.7c16.5,10.8,30.8,24.6,42.2,40.7c6.2,8.7,11.4,18.1,15.7,28c4.1,9.6,7.2,20.1,14.3,28
	c1.7,1.9,3.6,3.6,5.7,5c2.5,1.7,5.3,3,7.9,4.4c5,2.7,9,6.7,11.7,11.7c5.9,11,5,23.9,2.6,35.8c-0.7,3.3-1.5,6.6-2.2,9.8
	c-0.2,0.9,1.2,1.3,1.4,0.4c3-12.4,6-25.6,2.8-38.3c-1.2-5.1-3.6-9.9-7-14c-1.7-2-3.7-3.8-6-5.2c-2.7-1.7-5.5-3-8.3-4.6
	c-9.9-5.7-14.5-16.2-18.6-26.4c-3.9-10-8.7-19.7-14.3-28.8c-11.6-18.3-26.9-34.1-44.9-46.3l-1.1-0.7c4.2-1.2,8.5-2.1,12.8-2.8
	c7.7-1.2,15.5-1.5,23.3-0.7c6.9,0.7,13.6,2.3,20.1,4.8c12.8,4.8,24.3,12.4,34.3,21.6c10.8,9.8,19.7,21.4,27.5,33.7
	c8.2,12.9,15.1,26.5,21.8,40.2c0.8,1.7,1.6,3.3,2.5,5c0.4,0.8,1.7,0.1,1.3-0.7c-6.9-13.9-13.7-27.9-21.8-41.2
	c-7.7-12.6-16.5-24.7-27.1-35c-9.8-9.7-21.3-17.6-33.9-23.2c-13.4-5.8-28-8-42.5-6.5c-6.7,0.7-13.3,2-19.8,3.8
	c-16.1-10.4-34.1-17.7-52.9-21.5c14-5.4,28.7-8.9,43.6-10.4c20.7-2.1,41.5-0.3,61.5,5.5c19.8,5.7,38.3,14.9,54.8,27.2
	c16.6,12.2,30.9,27.4,42,44.8c1.3,2.1,2.6,4.2,3.8,6.4c0.2,0.3,0.7,0.4,1,0.2c0.3-0.2,0.4-0.6,0.2-0.9c-10.4-18-24.1-34-40.3-47
	c-16-13-34.2-23-53.7-29.7c-19.9-6.8-40.9-9.6-61.9-8.5c-18.5,1.1-36.6,5.2-53.8,12c-2-0.4-4-0.7-6-1c-24.6-3.5-49.6-1.3-73.1,6.7
	c-2.8,1-5.6,2-8.4,3.2c-0.9,0.3-0.5,1.8,0.4,1.4c22.8-9.2,47.5-12.9,72-10.8c4.2,0.3,8.4,0.8,12.6,1.5c-1.8,0.7-3.5,1.5-5.3,2.3
	c-19.1,8.6-36.5,20.7-51.3,35.7c-5.6-1.1-11.2-2.1-16.9-2.8c-23.5-3.3-47.2-3.8-70.8-1.6c-5.8,0.6-11.6,1.3-17.4,2.2
	c-2.3-3.7-4.2-7.7-5.8-11.8c2.1-2.3,4.1-4.8,6-7c4.8-5.8,9.4-11.8,14.1-17.6c9.3-11.5,19.1-22.8,31.5-30.9c4.9-3.3,10.2-6,15.8-8.1
	c4.6,0.3,9.2-0.2,13.6-1.4c2.1-0.6,4.1-1.4,6-2.3c1.4,0,2.9,0,4.4,0.2c1.7,0.1,3.4,0.4,5.1,0.8c0.9,0.2,1.3-1.2,0.4-1.4
	c-2.4-0.5-4.9-0.8-7.4-0.9c4.8-2.8,8.7-6.9,11.2-11.8c4.4-9,3.1-19.4,2.4-29c-0.4-4.2-0.4-8.4-0.1-12.6c7.9,0.1,15.8-0.5,23.5-0.9
	c11.3-0.6,22.6-1.4,33.9-2.6c-0.4,2.1-0.8,4.3-1,6.5c-1.5,15.1,1.3,30.1,1.1,45.2c0,4-0.3,8-0.9,12c-4,0.8-7.9,2-11.7,3.2
	c-18.3,5.6-36.5,11.4-54.8,17.1l-31.1,9.7c-0.9,0.3-0.5,1.7,0.4,1.4l54.3-17l27-8.4c5.2-1.6,10.5-3.3,15.8-4.5
	c-1.1,7.3-3.7,14.3-7.8,20.5c-1.6,2.4-3.6,4.6-5.7,6.6c-0.7,0.6,0.3,1.7,1,1c8.2-7.4,12.2-17.9,13.9-28.5c3-0.6,6-1,9-1.1
	c8.5-0.3,17.4,1.8,23.6,7.8c0.7,0.7,1.7-0.4,1-1c-5.5-5.3-13-7.8-20.5-8.3c-4.3-0.2-8.7,0.1-12.9,1c0-0.3,0.1-0.6,0.1-0.9
	c1.8-13.9-0.4-27.8-0.8-41.8c-0.2-6.8-0.1-14.1,1.4-20.9c11.6-1.2,23.1-2.9,34.4-5.3c3.3-0.7,6.6-1.4,9.9-2.3
	c8.7,7.7,17.1,15.8,25,24.3c4.6,5,8.9,10.3,13.6,15.3c4,4.3,8.6,8.5,14.2,10.3c5.3,1.7,10.6,0.3,14.9-3.1s7.5-7.8,11.7-11
	c1.1-0.9,2.4-1.6,3.7-2.2l-4.1,21.4c-0.5,2.5-0.9,5-1.4,7.5c-0.2,0.9,1.2,1.3,1.4,0.4c1.9-10,3.8-20,5.7-30c3.1-1.1,6.5-1.4,9.8-0.8
	c4.7,0.9,9.1,3,12.7,6c-0.6,10.4,0.6,20.7,4.8,30.3c2.6,5.8,6.1,11.1,10.5,15.7c0.8,9.7,2.1,19.4,6.3,28.3c1.3,2.7,2.9,5.2,4.8,7.6
	c0.6,0.7,1.6-0.3,1-1c-7.5-9.3-9.5-21.5-10.6-33.2c6.3,6,14.1,10.3,22.8,11.3c1.9,0.2,3.8,0.3,5.8,0.2c0.9,0,0.9-1.5,0-1.5
	c-11.1,0.5-21.2-4.7-28.8-12.4c0-0.3,0-0.6-0.1-0.9c-1.1-13-1.8-27.2-9.2-38.4c-1.6-2.4-3.5-4.6-5.7-6.6c0.4-6.5,1.4-13,3-19.4
	c2.3-9.5,5.3-18.9,8.8-28.1c3.2-8.9,7.3-17.5,12.4-25.6c0.9-1.4,1.9-2.9,3-4.3c22.1,13.5,31.6,40,37.7,64.2
	c0.9,3.5,1.7,7.1,2.5,10.6c0.2,0.9,1.6,0.5,1.4-0.4c-6.4-27-13.9-56.6-37.8-73.6c-1-0.7-1.9-1.3-2.9-1.9c2.2-2.9,4.7-5.7,7.3-8.2
	c1.9,2.1,3.7,4.3,5.5,6.5c7.1,8.8,14.1,18.1,24.2,23.5c21.5,11.6,46.9,4.7,69.4,0.6c12-2.2,24.4-3.7,36.4-1.4
	c9.8,1.9,19.5,6.3,26.2,13.9c1.6,1.9,3.1,3.9,4.3,6.1C835.3,602.4,836.5,601.7,836.1,600.8z M390.4,669.7c3.6-1.1,7.2-1.7,10.9-2.1
	C397.8,668.9,394.2,669.6,390.4,669.7z M420.3,611.1c-1.9,0-3.8-0.1-5.7-0.2c-2.1-0.2-4.2-0.4-6.3-0.7c6.2-8.7,12.4-17.3,18.9-25.8
	c14.2-18.7,31.7-37.1,53.8-45.6c3.3,2,6.7,4,9.2,7c3,3.7,4,8.6,2.5,13.2c-1.3,4.6-4.5,8.4-8.1,11.5c-3.8,3.1-7.9,5.9-12.2,8.3
	c-4.4,2.6-9,4.8-13.8,6.7c-4.5,1.8-9.2,3.3-13.9,4.5c-4.2,1.1-8.5,2.1-12.5,4C424.4,597.7,421.3,603.9,420.3,611.1z M521.9,600.6
	c-13.5,3.1-27.3,5.4-41.1,6.8c1.2-5.1,3.6-9.9,7-14c3.4-3.9,8-6.7,13.3-6.6c6.8,0.2,12.4,4.9,17.4,9.1c1.7,1.4,3.3,2.8,5,4.3
	C522.9,600.4,522.4,600.5,521.9,600.6L521.9,600.6z M608.2,633.3c-3.6,1.7-6.9,4.1-9.6,7.1c-3.7,3.8-7.4,8.2-12.6,9.7
	c-5.9,1.7-11.6-1.2-16.1-4.9c-5-4.2-9-9.4-13.4-14.3c-9.3-10.6-19.3-20.6-29.9-29.9c18.3-4.7,36.2-11.5,52.3-21.5
	c2.5-1.5,4.9-3.1,7.2-4.8c0.8-0.5,0-1.8-0.7-1.3c-18.1,12.6-38.8,20.9-60.1,26.3c-2.6-2.2-5.2-4.5-7.8-6.6c-2.5-2.1-5.2-4-8.2-5.6
	c-5.1-2.5-10.9-3-16-0.3c-4.6,2.4-8.1,6.7-10.5,11.3c-1.5,2.9-2.6,5.9-3.3,9c-9.1,1-18.2,1.7-27.3,2.2c-5.9,0.3-11.7,0.7-17.5,0.9
	c-4.2,0.2-8.5,0.3-12.7,0.3c0.7-5,2.6-9.7,6.7-13.1c3.5-2.9,7.9-4.3,12.2-5.5c4.7-1.3,9.3-2.4,13.9-4c9.7-3.4,18.8-8.1,27.1-14
	c3.9-2.8,7.6-6,10.1-10.1c2.6-4,3.5-8.8,2.6-13.5c-1-4.4-4.1-7.7-7.7-10.3c-1.3-0.9-2.6-1.8-4-2.6c4.3-1.5,8.6-2.6,13.1-3.3
	c27.2-4.3,51.6,11.2,76.5,19.2c6,2,12.2,3.4,18.5,4.2c7,0.7,14,0.5,20.9-0.7c2-0.3,3.9-0.7,5.9-1c0.9,2.7,1.5,5.5,1.7,8.3
	c0.2,5-0.1,9.9-1,14.8c-0.8,5.1-1.8,10.1-2.8,15.2C613,607.6,610.6,620.4,608.2,633.3z M633.6,641.1c9.6,9,11.8,23.1,12.9,35.6
	c0.2,2.2,0.4,4.3,0.6,6.5c-2.5-2.8-4.7-5.8-6.6-9.1c-5.8-10.2-7.6-21.7-7.2-33.3L633.6,641.1z M646.8,583.7
	c-3.9,9.3-7.2,18.8-9.9,28.6c-2.5,8.4-4.1,16.9-4.8,25.6c-5.8-4.4-13-7-20.2-5.7c-0.7,0.1-1.5,0.3-2.2,0.5c2-10.5,4-20.9,6-31.3
	c1-5.2,2-10.4,3-15.6c1-4.9,1.7-9.9,2.1-14.9c0.4-4.9-0.2-9.7-1.5-14.4c0-0.1-0.1-0.2-0.1-0.3c5.3-1.1,10.7-1.7,16.2-1.9
	c6.7,0,13.3,1.4,19.3,4.2c1.7,0.8,3.2,1.6,4.8,2.5C654.3,568,650.1,575.6,646.8,583.7L646.8,583.7z"/>
<path class="st2" d="M1026.5,915.2c-3.1-8.5-8.4-16.3-15.9-21.5c-4.1-2.7-8.7-4.5-13.6-5.3l-2-0.3c1-7,1.1-14.2,0.3-21.2
	c-1.2-9.9-3.2-19.8-6.2-29.3c-2.5-8.5-5.3-16.9-8.6-25.2c-3.7-9.6-8.3-18.9-13.7-27.7c0.8-3.3,1.6-6.6,2.1-9.9
	c2.9-17.2,1.1-38-12-50.9c-1.6-1.5-3.3-2.9-5.1-4.2c-0.8-0.5-1.5,0.7-0.7,1.3c15.7,10.7,19.1,31.7,17.1,49.3
	c-0.5,4.3-1.3,8.6-2.3,12.9c-3.2-5.1-6.9-9.9-10.9-14.4c-5.5-6.2-11.9-11.6-18.9-16c-7.9-4.7-16.4-8.3-25.3-10.7
	c-18.1-5.2-37.1-7.1-54.8-13.9c-1.3-0.5-2.6-1-3.8-1.6c1-8-1.2-16.3-4.6-23.7c5,1.4,9.9,2.9,14.8,4.5c0.9,0.3,1.3-1.1,0.4-1.4
	c-5.3-1.7-10.7-3.3-16.1-4.8c-5.3-10.7-13.1-20.2-20.9-29.1c-7.4-8.4-15.2-16.4-23.6-23.9c0-3.2,0.3-6.4,0.7-9.5
	c0.1-0.9-1.3-1.3-1.4-0.4c-0.4,2.9-0.6,5.7-0.7,8.6c-0.5-0.4-0.9-0.8-1.3-1.2c-18.5-16.2-39.1-29.7-61.2-40.4
	c-2.8-1.3-5.6-2.6-8.4-3.8c-0.8-0.4-1.6,0.9-0.7,1.3c22.7,10,44,23,63.2,38.8c2.9,2.4,5.7,4.8,8.5,7.3c0,12.2,2.6,24.3,7.6,35.5
	c1.6,3.6,3.5,7.1,5.5,10.5c-6-0.5-11.9-0.5-17.9,0.1c-3.5,0.4-7.1,1-10.5,1.8c-1.1-2.2-2.1-4.5-3-6.8c-3.8-9.6-5.1-20.1-3.8-30.4
	c0.2-1.3,0.4-2.5,0.7-3.8c0.2-0.9-1.2-1.3-1.4-0.4c-2.1,10.3-1.5,21,1.7,31c1.2,3.7,2.6,7.3,4.4,10.8c-6.4,1.7-12.6,4.2-18.3,7.7
	c-4.8,3-9.4,6.2-13.9,9.7l-6.9-29l-8.8-37.2c-2.9-12.5-5.9-24.9-8.8-37.4c-0.4-1.5-0.7-3.1-1.1-4.6c-0.1-0.4-0.6-0.6-0.9-0.4
	c-0.3,0.1-0.5,0.5-0.5,0.8l8.8,37.4l8.8,37.2l8.1,34.1c-3.5,2.7-7.1,5.4-10.8,7.9c-8.6,5.9-18.4,11-29,11.5c-1.3,0.1-2.6,0.1-3.9,0
	c-0.9,0-0.9,1.4,0,1.5c17.1,0.9,30.8-9.4,44-19.4c0.1,0.6,0.3,1.1,0.4,1.7l8.8,37.2c2.9,12.5,5.9,24.9,8.8,37.4
	c0.4,1.5,0.7,3.1,1.1,4.6c0.2,0.9,1.6,0.5,1.4-0.4c-2.9-12.5-5.9-24.9-8.8-37.4l-8.8-37.2l-1.6-6.9c3.3-2.5,6.6-4.9,9.8-7.1
	c4.4-3,9.1-5.6,14.1-7.7c2.8-1.1,5.7-2,8.6-2.8c2.9,5.5,6.4,10.7,10.4,15.5c7.2,8.4,15.7,15.5,25.3,20.9c6.4,3.7,13.1,6.8,20.1,9.3
	c-3.7,2.8-7.7,5.1-12.1,6.8c-4.7,1.9-9.6,3.5-14.4,5.1l-1.3-1.2c-1.1-1-2.1-1.9-3.2-2.8c-0.7-0.6-1.7,0.4-1,1
	c1.3,1.1,2.6,2.3,3.9,3.5c-4.2,1.4-8.3,3-12.3,4.9c-10,4.8-18,13-22.6,23.1c-4.7,10.1-5.6,21.5-2.5,32.1
	c3.1,10.4,9.7,19.5,18.6,25.8c2.3,1.6,4.7,2.9,7.2,4c0.8,0.4,1.6-0.9,0.7-1.3c-10.3-4.7-18.5-13.1-23.1-23.5
	c-4.6-10.4-5-22.3-1.1-33c3.9-10.9,11.7-19.9,21.8-25.3c4.6-2.3,9.5-4.3,14.4-5.8c10.9,10.2,20,22.1,27,35.3
	c2.6,4.7,4.7,9.7,6.4,14.8c2.8,9.1,4,20.3-2.1,28.4c-5.1,6.8-16.2,10-17.1,19.4c-3.3-2.1-6.3-4.7-8.9-7.6c-1.3-1.5-2.5-3.1-3.5-4.7
	c-0.5-0.8-1.8-0.1-1.3,0.7c3.5,5.4,8.1,9.9,13.6,13.3c0.2,4.9,2.7,9.4,5.2,13.6c-0.3,0.3-0.2,0.8,0.1,1c0.2,0.1,0.4,0.2,0.6,0.2
	l1.1,1.8l10.2,17.5l2.6,4.4c0.2,0.3,0.6,0.5,1,0.3s0.5-0.6,0.3-1l0,0l-10.2-17.5l-3.6-6.2c3.1-1.8,6.2-3.7,9.2-5.7
	c3.7,1.7,7.5,3.3,11.2,5c7.3,3.5,14.5,7.6,19.8,13.9c3.1,3.8,5.3,8.2,6.5,12.9c1.5,5.8,1.9,11.9,2.5,17.9c0.3,3.9,0.9,7.7,1.8,11.5
	c-7.7-5.2-14.6-11.5-20.6-18.6c-2.7-3.3-5.2-6.7-7.5-10.3c-0.5-0.8-1.8-0.1-1.3,0.7c7.7,12.1,18,22.5,30,30.3
	c1.6,5.6,4.3,10.8,8.9,14.5c6,4.8,16.1,5.3,21.9-0.3c0.6-0.5,1.1-1.1,1.5-1.8c7.5,1.2,15.2,1.1,22.7-0.2
	c15.5-2.7,30.5-10.6,40.6-22.8c6.7-8.2,11.1-18,12.7-28.4c2.3,0.3,4.5,0.8,6.7,1.4c8.9,2.8,15.9,9.5,20.4,17.6
	c11.4,20.4,5.4,43.9-2,64.5c-1,2.9-2.1,5.7-3.2,8.5c-0.3,0.9,1.1,1.3,1.4,0.4C1026,961,1034.6,937.4,1026.5,915.2z M850.8,725.8
	c-13.6-6.4-25.3-16.4-33.7-28.9l-0.4-0.6c2.6,0.3,5.2,0.6,7.8,1.1c7.1,1.3,14.2,2.9,21.2,4.9C849.3,709.6,851.8,717.8,850.8,725.8z
	 M802.2,650.7c0-0.2,0-0.5,0-0.7c6,5.4,11.7,11.1,17.2,17c4.2,4.5,8.2,9.2,12,14c4,4.8,7.6,9.9,10.9,15.2c0.8,1.4,1.7,2.9,2.5,4.4
	c-5.2-1.4-10.5-2.7-15.8-3.8c-4.4-0.9-8.8-1.5-13.3-2C807.3,681.6,802.6,666.3,802.2,650.7L802.2,650.7z M825.8,735.7
	c-9.8-5-18.7-11.5-26.4-19.5c-5.2-5.5-9.7-11.7-13.2-18.5c1.7-0.4,3.5-0.8,5.2-1c7.8-1.2,15.7-1.4,23.5-0.6
	c6.1,9.6,14.1,17.8,23.4,24.3c3.9,2.7,8,5,12.3,6.9c-1,6-4.1,11.4-8.8,15.3C836.3,740.7,831,738.4,825.8,735.7L825.8,735.7z
	 M834.3,869.5l-0.8-1.4c-1.6-2.6-2.9-5.5-3.8-8.4c-0.2-0.7-0.3-1.3-0.4-2c1,0.6,1.9,1.1,2.9,1.7c3.4,1.8,6.9,3.5,10.4,5.1
	C839.9,866.2,837.1,867.9,834.3,869.5L834.3,869.5z M899.9,943.9c-4.4-1.8-7.6-5.8-9.7-9.9c-0.7-1.4-1.3-2.9-1.8-4.4
	c1.7,1.1,3.5,2.1,5.3,3c7.4,3.9,15.3,6.6,23.5,8C913.3,945.4,905.3,946.2,899.9,943.9L899.9,943.9z M989.1,903.9
	c-6.5,14.6-19.4,25.7-34.2,31.5c-11.3,4.4-23.5,5.8-35.5,4.1c1.5-3.1,1.4-6.8,0.6-10.2c-0.7-3.3-1.7-6.5-2.6-9.8s-1.8-6.7-2.7-10
	l-10.9-40c-3.6-13.3-7.2-26.5-10.8-39.8l-10.9-40l-2.7-9.8c-0.1-0.4-0.6-0.6-0.9-0.4c-0.3,0.1-0.5,0.5-0.5,0.8
	c3.6,13.1,7.1,26.2,10.7,39.3l10.6,39.1c3.6,13.1,7.1,26.2,10.7,39.3c1.8,6.5,3.5,13,5.3,19.5c0.9,3.3,1.8,6.5,2.7,9.8
	c0.8,3.1,1.6,6.4,0.9,9.6c-0.2,0.9-0.5,1.7-1,2.5c-3.8-0.6-7.5-1.5-11.1-2.7c-6.7-2.2-13.2-5.3-19.1-9.1c-0.7-2.7-1.3-5.4-1.6-8.2
	c-1.4-11-1-22.7-7.1-32.5c-4.2-6.7-10.7-11.5-17.5-15.2c-5.1-2.8-10.5-5.1-15.8-7.4c4.9-3.3,9.5-6.9,14-10.8c0.7-0.6-0.3-1.6-1-1
	c-4.6,4-9.5,7.8-14.6,11.2c-1.8-0.8-3.6-1.6-5.3-2.4c-3.2-1.5-6.4-3.2-9.4-5.1c0-1.6,0.4-3.1,1.1-4.5c1.1-2,2.5-3.7,4.3-5.1
	c3.6-3,7.8-5.4,10.8-9c6.4-7.7,6.2-18.3,3.8-27.5c-1.4-5-3.3-9.9-5.7-14.6c-2.5-5.1-5.4-10.1-8.5-14.8c-5.7-8.6-12.4-16.5-19.8-23.7
	c4.2-1.4,8.3-2.7,12.4-4.3c5.2-1.9,10.2-4.6,14.5-8.1c3.6,1.3,7.3,2.5,11,3.5c11.6,3.2,23.3,5.6,35.2,7.3l4.3,0.6
	c0.9,0.1,1.3-1.3,0.4-1.4c-11.6-1.6-23.2-3.8-34.5-6.6c-5.1-1.3-10.2-2.8-15.1-4.6c2.4-2.2,4.5-4.8,6-7.7c1.2-2.4,2.1-5,2.6-7.6
	c11.6,5,24.1,7.7,36.4,10.3c18,3.8,36.2,7.8,51.4,18.7c10.4,7.5,18.8,17.3,25.5,28.1c-4.5,17.4-11.8,34.3-13,52.4
	c-1,16.5,4.3,35.8,18.7,45.5c3.9,2.5,8.3,4.3,12.8,5c3.2,0.6,6.4,0.9,9.6,1.3C992.6,894.4,991.2,899.3,989.1,903.9L989.1,903.9z
	 M993.6,887.9c-4.8-0.7-9.7-1-14.4-2.5c-17.5-5.7-25.2-25.7-25.6-42.7c-0.3-11.3,2.7-22.5,5.8-33.3c2.2-7.6,4.7-15.1,6.8-22.7
	c1.8,2.9,3.4,5.9,5,8.9c8.1,15.6,14,32.6,18.4,49.6C993.3,858.9,995.7,873.7,993.6,887.9L993.6,887.9z"/>
<path class="st2" d="M262,849.7c-8.9-11.5-24.8-14.9-38.5-13.9c-17.3,1.2-33.5,8.7-50.1,13.2l-0.4,0.1
	c-7.5-11.8-11.9-25.4-12.8-39.3c-1.3-23.4,7.3-46.3,23.9-63c0.7-0.7-0.4-1.7-1-1c-10.6,10.7-18.2,24-21.9,38.6
	c-5.6,22.2-1.9,45.8,10.3,65.2c-25.1,6.5-51.3,8-77,4.3c-4.3-0.6-8.5-1.3-12.7-2.3c-3.9-0.8-7.7-2-11.3-3.7
	c-6.4-3.2-11.9-9.4-11.5-17c0.2-3.2,1.6-6.1,4-8.3c2.2-1.9,4.9-3.1,7.7-3.8c6.1-1.6,12.5-1.4,18.7-2.1c6.7-0.7,13.2-2.8,19.2-6.1
	c12.3-6.7,21.4-18,25.3-31.4c4.7-16.6,1.5-34.1,3.8-51c1.1-7.8,3.4-15.7,8.1-22c4.2-5.9,10.3-10,17.3-11.8c3.3-0.7,6.7-0.7,10,0.1
	c0.4,0.1,0.8-0.2,0.8-0.6c0.1-0.3-0.1-0.7-0.5-0.8c-6.7-1.7-13.7-0.1-19.5,3.5c-6.1,3.9-10.9,9.5-13.7,16.2
	c-6.8,15.6-4.5,33-5.4,49.5c-0.5,8.3-1.8,16.7-5.4,24.2c-3,6.2-7.3,11.8-12.5,16.3c-5.3,4.6-11.4,8.1-18.1,10.3
	c-3.3,1.1-6.7,1.8-10.1,2.1c-3.2,0.3-6.3,0.4-9.5,0.7c-5.8,0.5-12.2,1.3-16.9,5c-5.2,4.2-6.1,11.1-3.6,17c2.9,6.9,9.4,11,16.3,13.2
	c3.9,1.2,7.9,2.1,11.9,2.8c4.3,0.8,8.7,1.4,13.1,1.9c17.6,1.9,35.4,1.5,52.9-1.2c6.5-1,12.9-2.4,19.3-4c0.6,0.8,1.1,1.7,1.7,2.5
	s1.8,0,1.3-0.7s-1-1.4-1.5-2.2c1.7-0.5,3.4-0.9,5.1-1.4c8.5-2.5,16.9-5.6,25.4-8c14.9-4.2,31.8-6.3,46.1,1.2
	c6.2,3.1,11.1,8.2,14,14.4c2.8,5.9,3.3,12.6,1.6,18.8c-0.9,3-2.4,5.7-4.5,7.9c-0.6,0.7,0.4,1.7,1,1
	C271.4,874.8,269.6,859.5,262,849.7z"/>
<path class="st2" d="M230.8,996c-4.1-18.5-0.4-37.6-1-56.3c-0.1-5.1-0.7-10.1-1.6-15.1c0.3,0.2,0.5,0.5,0.8,0.7c0.7,0.6,1.8-0.5,1-1
	s-1.6-1.3-2.4-1.9c-0.7-2.9-1.6-5.8-2.7-8.6c-2.8-6.7-6.7-12.8-11.6-18.1c-3.6-3.9-7.7-7.4-12.1-10.5c-1-2.7-1.8-5.4-2.2-8.3
	c-0.6-3.1-0.4-6.3,0.8-9.3c1.2-2.7,3.5-4.9,6.3-6c7.4-3.1,15.3,0.1,22.2,3.1c0.9,0.4,1.6-0.9,0.7-1.3c-6.5-2.8-13.6-5.7-20.8-4
	c-2.9,0.6-5.6,2.1-7.7,4.3c-2.1,2.4-3.2,5.5-3.3,8.6c-0.1,3.9,0.6,7.8,2,11.5c-7.3-4.6-15.2-8.1-23.6-10.4
	c-16.2-4.4-33.2-3.7-49.4,0.2c-11.6,2.9-22.8,7-33.5,12.3c-2.1-1-4.3-2-6.4-3c-12.4-6-24.6-12.3-36.7-18.8c-2.7-1.5-5.6-2.9-8.2-4.6
	c-2.1-1.4-4.4-3.2-5.2-5.7c-1.8-5.2,3.3-9.1,7.8-10.2c3-0.7,6.2-0.3,9.3,0.1c3.3,0.6,6.7,0.8,10,0.6c5.1-0.6,9.8-2.9,13.5-6.4
	c8.9-8.2,11.8-20.1,14.5-31.4c1.5-6.2,3.2-12.3,6-18c2.4-4.9,5.5-9.5,9.1-13.6c7.3-8.3,16.6-14.7,26.9-18.6
	c12.2-4.5,25.2-6,38.1-4.4c12,1.4,24.2,5.1,34.2,12c9.6,6.6,17,16.8,18.3,28.7c0.3,2.8,0.2,5.7-0.2,8.5c-0.1,0.9,1.3,1.3,1.4,0.4
	c1.9-11.7-2.8-23.6-10.9-32.1c-8.4-8.8-19.9-14-31.5-16.9c-12.8-3.2-26.2-3.5-39.1-0.8c-11.6,2.5-22.4,7.8-31.4,15.5
	c-8.7,7.3-15.2,16.8-19,27.4c-4.2,12.2-5.1,25.8-12.5,36.6c-3.1,4.4-7.2,8.4-12.3,10.4c-2.8,1.1-5.7,1.5-8.7,1.3
	c-3.4-0.2-6.8-0.9-10.3-1.1c-5.1-0.3-10.9,1.1-13.8,5.7c-1.3,2-1.6,4.4-0.8,6.7c1,2.4,2.6,4.4,4.8,5.7c2.5,1.7,5.2,3.2,7.9,4.6
	c3.1,1.7,6.3,3.4,9.5,5.1c6.3,3.3,12.6,6.6,18.9,9.7c5.1,2.5,10.2,5,15.3,7.4c-5.3,2.7-10.6,5.5-15.7,8.5c-1.9,1.1-3.9,2.3-5.8,3.5
	c-0.8,0.5-0.1,1.7,0.7,1.3c7.3-4.5,14.8-8.7,22.5-12.5c7.2,3.4,14.5,6.7,21.8,9.8c3.1,1.3,6.2,2.7,9.4,4c0.9,0.4,1.2-1,0.4-1.4
	c-10-4.2-20-8.6-29.9-13.3c8.3-4,16.9-7.4,25.7-10c16.1-4.7,33.4-6.6,50-3.1c10.7,2.2,20.8,6.4,29.9,12.5c0.7,1.9,1.6,3.7,2.4,5.5
	c5.5,12.2,13.7,22.9,24,31.5c0.9,3.8,1.5,7.7,1.8,11.6c1.4,18.4-2.3,36.8,0.1,55.2c0.3,2.2,0.7,4.4,1.2,6.6
	C229.6,997.3,231,997,230.8,996z M205.5,894.9c-1.2-2.3-2.4-4.8-3.4-7.3c2.4,1.7,4.6,3.6,6.8,5.6c5.2,4.9,9.6,10.6,12.8,17
	c1.7,3.3,3,6.9,4,10.5C217.5,913.4,210.6,904.7,205.5,894.9z"/>
<path class="st2" d="M761.8,802.2c-4.6-5.3-10.8-9.1-17.6-10.7c-6.9-1.6-14.1-0.9-20.6,1.9c-1.7,0.7-3.3,1.6-4.8,2.6
	c-0.3-0.1-0.6-0.1-0.8,0.1l-4.4,4c-0.7,0.7,0.3,1.7,1,1c5-4.8,11.4-7.9,18.3-8.8c6.6-0.8,13.4,0.5,19.2,3.8c3.3,1.8,6.3,4.3,8.7,7.1
	C761.4,804,762.4,803,761.8,802.2z"/>
<path class="st2" d="M187.1,948.3C187.1,948.3,187.1,948.3,187.1,948.3c-0.3,0-0.6-0.1-0.8-0.2c-1.2-0.4-2.4-0.9-3.5-1.5
	c-2.2-1-4.4-2.2-6.4-3.5c-4.2-2.6-7.7-6-10.6-10c-2.7-3.7-4.3-8.1-4.6-12.7c-0.3-4.2,0.5-8.5,2.3-12.3c2-4.3,5.5-7.6,9.8-9.3
	c0.9-0.3,0.5-1.7-0.4-1.4c-8.3,3.1-12.9,11.7-13.2,20.2c-0.4,9.8,5,18.5,12.6,24.4c4.4,3.4,9.4,6.1,14.7,7.9
	c0.5,0.7,1.4,0.9,2.1,0.4c0.2-0.2,0.4-0.4,0.6-0.7C190.2,948.2,188.1,947.3,187.1,948.3z"/>
<path class="st2" d="M267.2,952.8l-2.6-1.2c-0.8-0.4-1.6,0.9-0.7,1.3l2.3,1.1l-1,37.9l-0.5,19.3c-0.1,2.7,0,5.5-0.4,8.1
	c-0.2,2.4-1,4.6-2.4,6.6c-3.3,4-8.9,3.4-13.3,2.1c-2.7-0.8-5.2-1.8-7.8-2.8l-8.8-3.3l-17.9-6.8c-5.8-2.2-11.6-4.5-17.5-6.5
	c-10.1-3.3-21.9-5.2-31.6,0.3c-1,0.6-2.1,1.3-3,2.1c-0.7,0.6,0.3,1.6,1,1c9.2-7.2,21.8-5.7,32.1-2.4c5.9,1.9,11.7,4.2,17.5,6.4
	l18.1,6.8l9,3.4c2.7,1,5.4,2.1,8.1,3c4.3,1.3,9.5,2.2,13.4-0.6s4.7-7.9,4.9-12.4c0.3-6.3,0.3-12.7,0.5-19c0.3-12.9,0.7-25.8,1-38.7
	c0-1.6,0.1-3.3,0.1-4.9C267.6,953.2,267.5,952.9,267.2,952.8z"/>
<path class="st2" d="M1056.9,1021.4c-1.4-4.7-3.2-9.2-5.2-13.7c-4-9.1-8.4-18.6-7.3-28.8s6.8-19,10.4-28.3c3.5-9,4.5-18.7,2.9-28.2
	c-1.6-9.2-5.6-17.9-11.6-25.1c-5.5-6.8-12.2-12.9-16.2-20.7c-2.1-3.9-3.1-8.2-3-12.6c0.2-5.4,2.3-10.5,4.2-15.6
	c2.9-7.7,5.8-16.9,1.7-24.8c-0.9-1.7-2.1-3.2-3.6-4.4c-0.7-0.6-1.8,0.4-1,1c7,5.7,5.7,16.1,3.1,23.6c-3.2,9.1-7.8,18.2-4.9,28
	c2.3,8,8.2,14.4,13.6,20.5c3,3.3,5.8,6.7,8.4,10.4c2.7,4,4.8,8.4,6.2,13c3,9.4,3.2,19.5,0.6,29c-2.6,9.5-8.1,17.9-10.9,27.3
	c-1.4,4.6-1.9,9.4-1.4,14.2c0.7,4.7,1.9,9.4,3.8,13.8c3.7,9.2,8.5,18,10.1,27.9c3.5,21.6-5.6,43-15,61.9c-1.2,2.4-2.4,4.8-3.7,7.3
	c-0.4,0.8,0.8,1.6,1.3,0.7c9.6-18.8,19.7-39.2,19.6-60.8C1059,1031.7,1058.3,1026.5,1056.9,1021.4z"/>
<path class="st2" d="M570.8,871.2c-4.9-13.9-13.4-26.3-24.5-36c-0.7-0.6-1.7,0.4-1,1c8.5,7.4,15.4,16.4,20.3,26.5
	c1.4,2.9,2.7,5.8,3.7,8.8C569.7,872.4,571.1,872.1,570.8,871.2z"/>
<path class="st2" d="M203.9,978.5c-20.3-0.8-40.1-5.2-59.5-10.9c-9.7-2.8-19.3-6-28.8-9.1c-8.9-3-17.8-5.8-26.5-9.4
	c-8.6-3.4-16.7-7.8-24.2-13.2c-5.9-4.4-11-9.7-15.4-15.5c-8.7-11.9-14.3-25.7-16.4-40.2c-2.2-14.7-0.9-29.8,4.1-43.8
	c0.6-1.7,1.3-3.4,2-5c0.4-0.8-0.9-1.6-1.3-0.7c-5.9,13.9-8.3,29-6.9,44c1.2,14.9,6,29.2,14,41.8c4,6.3,8.8,11.9,14.4,16.9
	c6.6,5.7,14,10.5,22,14.1c8.5,3.9,17.3,7.2,26.2,10.1c9.7,3.2,19.3,6.5,29.1,9.5c19.4,6,39.3,11,59.7,12.7c2.5,0.2,5.1,0.4,7.6,0.5
	C204.8,980,204.8,978.5,203.9,978.5z"/>
<path class="st2" d="M117.8,1002.2c-0.3-1.8-0.7-3.5-1-5.3c-0.2-0.9-1.6-0.5-1.4,0.4c0.2,1.1,0.4,2.3,0.6,3.4
	c-10.8-7.9-21.5-16-31.6-24.8c-10.5-9-20.2-18.9-29-29.6c-8.6-10.6-15.7-22.3-21-34.9c-5.2-12.4-8.2-25.6-8.8-39
	c-0.7-13.2,1.6-26.3,6.7-38.5c0.7-1.5,1.4-3,2.1-4.5c0.4-0.8-0.8-1.6-1.3-0.7c-6,11.9-9.1,25.1-9.2,38.5c-0.1,13.5,2.3,27,7,39.7
	c4.8,12.9,11.5,25.1,19.8,36c8.5,11.1,18.1,21.4,28.6,30.7c10.5,9.4,21.6,18.1,33,26.4l4.2,3.1
	C117.2,1003.4,117.8,1002.7,117.8,1002.2z"/>
<path class="st2" d="M260.1,1035.6c-3.4-3-8.3-3-12.5-2.5c-10.8,1.1-21.4,2.9-32.2,4c-19.4,2-39.3,2.3-57.9-4.3
	c-9.4-3.2-17.9-8.5-25-15.3c-0.3-0.2-0.8-0.1-1,0.3c-0.1,0.2-0.1,0.5,0,0.7c12.3,12.2,29.2,18.3,46.1,20.4
	c20.5,2.6,41.1-0.7,61.4-3.3c2.9-0.4,5.8-0.8,8.7-1.1c2.6-0.4,5.3-0.3,7.9,0.3c2.2,0.6,4.1,2,5.2,3.9c1.1,1.7,1.1,3.9,0.1,5.7
	c-0.5,0.8,0.8,1.5,1.3,0.7C264.2,1042,262.8,1037.9,260.1,1035.6z"/>
<path class="st2" d="M531.9,1022.8c-0.2-0.9-1.5-0.5-1.4,0.4c1.4,8.8,2.9,17.9,1.5,26.8c-1,6.8-4,13.5-9,18.3
	c-2.5,2.4-5.6,4.1-8.9,5c-4.1,1-8.4,1.2-12.5,0.6c-4.4-0.5-8.7-1.3-13-2l-13.6-2l-30.5-4.8c-0.9-0.2-1.3,1.3-0.4,1.4l28.3,4.5
	c9.1,1.4,18.2,3.1,27.4,4.3c4.2,0.7,8.5,0.7,12.7,0c3.6-0.7,7-2.2,9.8-4.5c5.5-4.3,9-11,10.5-17.7
	C535.1,1043.1,533.5,1032.8,531.9,1022.8z"/>
<path class="st2" d="M376.6,1039.9c-13-1.4-26-1.8-39.1-1.3c-6.1,0.1-12.2,0.6-18.3,1.4c-5,0.8-10.1,2.4-13.5,6.4
	c-6.5,7.6-4.9,18.7-4.8,27.9c0.1,23.6-5.9,46.9-17.4,67.6c-0.7,1.3-1.4,2.5-2.2,3.8c-0.2,0.4,0,0.8,0.3,1c0.3,0.2,0.7,0.1,0.9-0.2
	c11.9-19.8,18.6-42.3,19.7-65.3c0.3-5.4,0-10.7,0-16.1c0-4.7,0.3-9.7,2.3-14c2.2-4.7,6.4-7.6,11.4-8.8c2.5-0.6,5.1-1,7.8-1.2
	c3.2-0.3,6.4-0.5,9.5-0.7c12.9-0.7,25.7-0.5,38.6,0.6c1.6,0.1,3.2,0.3,4.8,0.5C377.5,1041.5,377.5,1040,376.6,1039.9z"/>
<path class="st2" d="M632.4,807.4c-1-5.7-5.1-10.1-9.7-13.3c-9.4-6.7-24-10.4-26.4-23.5c-1.1-6.3,0.9-12.7,5.4-17.2
	c0.7-0.7-0.3-1.7-1-1c-3.9,3.8-6.1,9.1-6.1,14.6c0,5.6,2.2,10.9,6.2,14.8c4.4,4.4,10.1,7.1,15.5,10.1c5.2,2.9,10.7,6.4,13.4,11.9
	c2.4,5,2.3,12.2-2.5,15.7c-0.8,0.5,0,1.8,0.7,1.3C632,817.6,633.3,812.3,632.4,807.4z"/>
<path class="st2" d="M1024.4,1031.5c-0.1-0.9-1.5-0.5-1.4,0.4c0.7,4.7-3.4,8.8-7.7,10c-5,1.4-10.4-1.1-14.2-4.2
	c-4.3-3.6-7.3-8.5-10.5-13.1c-3-4.4-6.6-8.4-10.6-11.9c-4.4-3.9-9.4-7.1-14.8-9.6c-0.8-0.4-1.6,0.9-0.7,1.3
	c5.1,2.4,9.9,5.5,14.2,9.1c4.3,3.8,8.2,8.2,11.4,13c3.3,4.8,6.5,9.7,11.3,13.2c4.1,3,9.6,5.1,14.7,3.5S1025.1,1036.9,1024.4,1031.5z
	"/>
<path class="st2" d="M1036.5,1051.4c-0.5-0.8-1.8,0-1.3,0.7c3.7,5.6,2.9,12.7,0.6,18.6c-1.4,3.2-3,6.3-4.8,9.3
	c-1.9,3.2-3.8,6.4-5.7,9.7s-3.7,6.5-5.7,9.6c-1.3,2-4.1,4.7-6.3,2.3c-1.7-1.8-1.8-4.6-2.4-6.9c-0.7-2.7-1.9-5.2-3.4-7.5
	c-3.4-5.2-8.6-8.9-14.6-10.6c-0.4-0.1-0.8,0.2-0.8,0.6c-0.1,0.3,0.1,0.7,0.5,0.8c5.8,1.6,10.8,5.2,14,10.2c1.6,2.5,2.7,5.3,3.3,8.2
	c0.5,2.3,1,5.1,3,6.6c2.2,1.8,5,0.8,6.8-1.2c1-1.2,1.9-2.5,2.6-3.8l3.1-5.3l6.2-10.4c1.9-3.1,3.7-6.4,5.2-9.7
	C1039.5,1066,1040.8,1057.8,1036.5,1051.4z"/>
<path class="st2" d="M760.3,1164.7c-10.2-8.3-19.9-17.2-29.3-26.4s-18.4-18.6-27.4-28.2c-4.7-4.9-9.3-9.8-14-14.8
	c-4.6-4.9-9.3-9.7-13.7-14.8c-8.4-9.7-14.5-21-22.8-30.8c-7.1-8.3-16.4-15.8-27.4-17.9c-1.3-0.3-2.7-0.4-4-0.5
	c-0.9-0.1-0.9,1.4,0,1.4c11.3,0.7,21.1,7.7,28.5,15.8c8.5,9.2,14.5,20.3,22.3,30.1c4.2,5.2,8.8,10,13.4,14.8l13.9,14.7
	c8.9,9.4,17.9,18.9,27.1,28s18.8,18.1,28.8,26.4c1.2,1,2.4,2,3.7,3C760,1166.3,761.1,1165.3,760.3,1164.7z"/>
<path class="st2" d="M466.7,1090c-11.2,20.4-17.5,43.1-18.6,66.4c0,0.9,1.4,0.9,1.5,0c0.8-17.9,4.8-35.6,11.8-52.1
	c2-4.6,4.1-9.2,6.6-13.6C468.4,1089.9,467.1,1089.2,466.7,1090z"/>
<path class="st2" d="M417.7,1202c-12.8-2.7-25-7.8-36-14.9c-11-7.1-20.6-16-28.4-26.4c-4.4-5.9-8.2-12.2-11.3-18.8
	c-0.4-0.8-1.6-0.1-1.3,0.7c5.6,12,13.4,22.8,22.9,32c9.5,9.2,20.5,16.6,32.6,22c6,2.6,12.2,4.7,18.6,6.2l-1.7,0.6
	c-0.9,0.3-0.5,1.7,0.4,1.4l4.2-1.4C418.4,1203.2,418.5,1202.2,417.7,1202z"/>
<path class="st2" d="M777.7,1178.3c-14.2,1-28.5-0.5-42.2-4.7c-13.8-4.1-26.9-10-39.2-17.4c-12.4-7.5-24.4-15.8-35.7-24.8
	c-11.8-9.2-23.4-18.7-35-28.2l-36.6-29.6l-4.5-3.7c-0.7-0.6-1.8,0.4-1,1l37,30c11.8,9.6,23.6,19.3,35.6,28.7
	c11.3,9.1,23.1,17.6,35.4,25.3c12.2,7.7,25.2,13.9,38.8,18.5c13.6,4.6,27.8,6.8,42.2,6.5c1.8,0,3.5-0.2,5.2-0.3
	C778.7,1179.7,778.7,1178.2,777.7,1178.3z"/>
<path class="st2" d="M520.9,1302.2c-15.9-8.1-30.2-19.1-42.2-32.5c-12-13.3-21.5-28.7-28-45.4c-3.6-9.3-6.3-19-7.9-28.9
	c-0.1-0.9-1.5-0.5-1.4,0.4c3,17.9,9.2,35,18.5,50.6c9.1,15.5,21,29.3,35,40.6c7.8,6.3,16.3,11.8,25.3,16.4
	C521,1303.9,521.8,1302.6,520.9,1302.2z"/>
<path class="st2" d="M747.9,1329.2c-7.7-2.6-15.6,0.9-22,4.9c-3.4,2.2-6.6,4.5-10.1,6.5c-3.4,1.9-6.9,3.5-10.6,4.6
	c-14.6,4.7-30.4,3.4-44-3.5c-7.3-3.7-13.6-8.9-18.8-15.3c-0.6-0.7-1.6,0.3-1,1c14.3,17.8,37.6,25.7,59.7,20.4
	c3.7-0.9,7.4-2.1,10.9-3.7c3.6-1.7,7-3.7,10.3-5.9c7.3-4.8,16-10.8,25.2-7.7C748.4,1330.9,748.8,1329.5,747.9,1329.2z"/>
<path class="st2" d="M829.4,1275c-9.5,2.9-19.2,4.8-29,5.9c-29.7,3.1-59.7-1.7-86.9-14.1c-9-4.1-17.6-9-25.6-14.6
	c-1-0.7-2-1.4-3-2.1c-0.8-0.6-1.5,0.7-0.7,1.3c8,5.9,16.6,11,25.5,15.3c9,4.3,18.4,7.8,28,10.5c9.6,2.6,19.4,4.4,29.2,5.4
	c10,1,20,1,30,0.2c9.9-0.8,19.7-2.6,29.2-5.2c1.2-0.3,2.4-0.7,3.7-1.1c0.4-0.1,0.6-0.5,0.5-0.9S829.8,1274.9,829.4,1275z"/>
<path class="st2" d="M813.4,1184.3c-11.5,14.4-27.3,24.8-44.3,31.5c-19.4,7.6-40.3,10.5-61.1,11.3c-19.1,0.8-38.3,0.3-57.4-0.9
	l0.3-0.1c0.9-0.3,0.5-1.7-0.4-1.4c-1.5,0.5-2.9,0.9-4.4,1.2c-1.1-0.1-2.2-0.1-3.3-0.2c-10.9-0.7-21.8-1.7-32.7-2.9
	c-5.1-1.9-10.1-4.1-14.9-6.7c-0.4-1.1-0.8-2.3-1.1-3.4c-8.4-25.4-14.3-51.7-17.3-78.3l0.5,0.3c15.8,8.3,31.3,17.2,47,25.6
	s31.3,16.4,47.8,23s33.5,11.6,51.1,14.1c17,2.4,34.5,2.4,51.3-1.3c2.1-0.5,4.2-1,6.3-1.6c0.4-0.1,0.6-0.5,0.5-0.9s-0.5-0.6-0.9-0.5
	l0,0h-0.1c-0.1-0.2-0.3-0.3-0.6-0.3c-36.7,3.8-73.6-3.4-106.2-20.6c-16.5-8.7-31.5-19.8-46.3-31.1c-14.6-11-29.1-22.3-44.9-31.6
	c-2.5-1.5-5.1-3-7.8-4.4c-0.4-9.4-0.6-18.8-0.6-28.2c3.8,0.3,7.6,1.3,11.1,2.8c6.9,3,12.8,8,18.1,13.3c5.5,5.5,10.5,11.6,15.9,17.2
	c5.2,5.6,11.1,10.5,17.6,14.6c13.2,7.9,28.4,12,43.8,12c1.7,0,3.4,0,5.1-0.1c9.7,7.6,20.4,13.8,31.8,18.5c12.6,5.2,26,8.3,39.5,9.3
	c1.7,0.1,3.3,0.2,4.9,0.3c0.9,0,0.9-1.4,0-1.5c-13.6-0.4-27-3.1-39.8-7.8c-12.3-4.5-23.9-10.9-34.3-18.9c13-0.9,25.5-5,36.6-11.7
	c1.6-1,3.2-2.1,4.8-3.2c0.8-0.6,0-1.8-0.7-1.3c-12.4,8.9-27.1,14.1-42.3,14.9c-5.1-4-9.9-8.5-14.3-13.3c-5-5.6-9.7-11.4-14.1-17.5
	c-4.5-6-8.9-12-13.8-17.8c-4.8-5.6-10.1-10.8-15.8-15.5c-11.5-9.3-24.3-16.6-37.3-23.6c-1.6-0.9-3.2-1.7-4.8-2.6
	c-0.8-0.4-1.6,0.8-0.7,1.3c13,7,26.1,14.1,38,23.1c6,4.5,11.5,9.5,16.5,15c5.1,5.7,9.7,11.8,14.3,17.9s8.9,12,13.8,17.7
	c4.5,5.2,9.4,10.1,14.7,14.5c0.4,0.3,0.8,0.6,1.1,0.9c-14.8,0.6-29.5-2.7-42.6-9.6c-6.7-3.6-12.9-8.2-18.3-13.6
	c-5.5-5.4-10.5-11.3-15.8-17c-5.1-5.4-10.5-10.6-17-14.4c-5-2.9-10.5-4.7-16.3-5.2c0-13.9,0.4-27.8,0.8-41.6
	c0.1-3.7,0.3-7.5,0.4-11.2c0-0.9-1.4-0.9-1.5,0c-0.6,17.6-1.2,35.2-1.2,52.7c-1.8-0.1-3.5-0.1-5.3,0.1c-9.7,0.8-18.8,4.2-28.5,5.3
	c-7.5,0.8-15.9,0.3-22.3-4.1c-1.5-1-2.9-2.3-4.1-3.7c-0.6-0.7-1.6,0.3-1,1c5,5.9,12.7,8.2,20.2,8.5c9.1,0.4,17.8-2.3,26.6-4.1
	c4.7-1.1,9.6-1.6,14.4-1.5c0,9.2,0.1,18.4,0.5,27.5c-12.5-6.6-25.9-11.9-39.9-14.4c-2.1-0.4-4.2-0.7-6.3-1c-0.9-0.1-0.9,1.3,0,1.5
	c16.3,2,31.8,7.9,46.2,15.6c0.1,2.6,0.2,5.2,0.4,7.9c0.4,6,0.9,12,1.5,17.9c-13-6.8-26.4-12.9-40.2-18.3c-2-0.8-4.1-1.5-6.2-2.3
	c-0.9-0.3-1.3,1.1-0.4,1.4c16.2,5.7,31.7,12.9,46.9,20.8c2.5,23,7.1,45.8,13.8,68c1.4,4.5,2.8,9,4.3,13.5c-1.8-1-3.6-2.1-5.4-3.2
	c-18.4-11.6-33.8-27.2-51.9-39.2c-8.9-6.1-18.7-10.8-29-14c-11.2-3.3-22.9-4.6-34.5-5.2c-10.3-0.5-20.7-0.5-31-1
	c-12.7-26.9-25.1-53.9-37.7-80.9c-1.7-3.7-3.5-7.5-5.3-11.3c-0.4-0.8-1.6-0.1-1.3,0.7c14.1,30.3,28.3,60.6,42.4,90.9
	c0.1,0.1,0.1,0.3,0.2,0.4c-10.9-0.5-21.7-1.5-32.3-4.2c-17.3-4.4-34.8-13.1-44.5-28.7c-1.2-1.9-2.2-3.8-3.1-5.8
	c-0.4-0.8-1.6-0.1-1.3,0.7c7.5,16.8,23.5,27.2,40.5,32.9c13.5,4.5,27.3,6,41.3,6.6c5.8,12.6,11.6,25.5,20.4,36.3
	c9.2,11.3,22,18.5,32.8,28.2s18.5,21.7,24.8,34.4c6.8,13.6,12.3,27.8,18,41.9c12.9,31.1,25.7,62.2,38.6,93.3l38.5,93.3
	c1.6,3.9,3.2,7.7,4.8,11.6c0.3,0.8,1.8,0.5,1.4-0.4c-12.9-31.2-25.8-62.5-38.7-93.7c-12.9-31.2-25.8-62.5-38.7-93.7
	c-6-14.4-11.7-29-18-43.2c-5.6-12.6-12-24.9-20.9-35.5c-9.3-11.1-21.6-18.4-32.5-27.9c-11.4-9.9-18.6-22.8-25-36.3
	c-1.3-2.7-2.6-5.4-3.9-8.2c6.5,0.3,12.9,0.4,19.4,0.6c12,0.3,24.1,0.9,35.9,3.3c11.3,2.3,22.1,6.5,31.9,12.4
	c19,11.3,34.5,27.1,52.7,39.5c3.8,2.6,7.8,5.1,12,7.4c0.4,1.3,0.9,2.6,1.3,3.9c-6.1-0.8-12.2-1.7-18.3-2.6
	c-21.7-3.4-43.2-7.7-64.5-13c-2.6-0.6-5.2-1.3-7.8-2c-0.4-0.1-0.8,0.2-0.8,0.6c-0.1,0.3,0.1,0.7,0.5,0.8
	c21.5,5.6,43.3,10.2,65.3,13.8c8.8,1.5,17.5,2.8,26.3,3.9c7.2,20.9,15.4,41.5,23.3,62.1c3.9,10.1,7.7,20.3,11.3,30.4
	c-10.9,1.3-21.9,2-32.9,2c-11.6,0-23.3-1-34.7-3c-0.9-0.2-1.3,1.2-0.4,1.4c20.5,3.8,41.5,3.7,62.2,1.7c2.1-0.2,4.2-0.4,6.3-0.7
	c6.5,17.9,12.7,35.9,18.6,54c9.4,28.8,18,57.8,25.9,87c1,3.6,1.9,7.2,2.9,10.8c0.1,0.4,0.6,0.6,0.9,0.4c0.3-0.1,0.5-0.5,0.5-0.8
	c-7.7-29.1-16.1-58-25.2-86.8c-6.9-21.7-14.3-43.3-22.1-64.8c18.2-2.2,36.3-5.8,54.3-9.5c11.8-2.4,23.6-4.9,35.4-7.3
	c0.9-0.2,0.5-1.6-0.4-1.4c-20.7,4.3-41.4,8.8-62.2,12.5c-9.1,1.7-18.3,3.1-27.6,4.2c-2.4-6.5-4.8-13-7.2-19.5
	c-9.1-24.2-18.9-48.2-27.4-72.6c4,0.5,8.1,1,12.1,1.5c10.7,3.9,22.1,5.7,33.4,3.8c1.1-0.2,2.2-0.4,3.2-0.7
	c18.5,1.2,37.1,1.8,55.6,1.3c21-0.5,42.3-2.7,62.3-9.6c17.2-5.9,33.4-15.3,45.8-28.7c1.6-1.7,3.1-3.4,4.5-5.3
	C815,1184.6,814,1183.6,813.4,1184.3z M575.8,1125.3c-0.5-6.1-0.9-12.2-1.2-18.3c0.9,0.5,1.8,1,2.8,1.5c15.9,9,30.5,20,45,31
	c14.8,11.2,29.7,22.5,45.9,31.7c31.7,17.9,68,26.1,104.3,23.8c-14.5,2.9-29.4,3.5-44.1,1.7c-17.5-2-34.6-6.7-51.1-12.8
	s-32.5-14.1-48.1-22.4s-31.1-17.2-46.8-25.6c-2-1.1-4-2.1-6-3.2C576.2,1130.3,576,1127.8,575.8,1125.3L575.8,1125.3z M596.9,1221.3
	c-0.3-1-0.7-2.1-1-3.1c2.7,1.4,5.5,2.8,8.4,4C601.8,1222,599.4,1221.6,596.9,1221.3L596.9,1221.3z M617.3,1225.1
	c6,0.6,12,1.1,18.1,1.6l4.5,0.3C632.3,1227.8,624.6,1227.1,617.3,1225.1L617.3,1225.1z"/>
<path class="st2" d="M354.6,1222.7c-27.4-7.2-53.1-20-75.4-37.5c-3.5-2.6-6.8-5.6-9.6-9c-3-3.6-4.7-8.1-4.8-12.7
	c-0.2-9.3,4.6-17.7,5.7-26.8c0.8-6.5,0-14.5-5.3-19.1c-5.7-5-13.6-3.3-20.4-3c-3.3,0.2-6.9,0.1-9.8-1.9c-3.1-2.2-4.1-5.9-3.3-9.4
	c1-3.9,3.2-7.3,6.3-9.7c3.6-2.9,7.9-4.8,11.8-7.2c3.4-2.1,6.6-4.6,8.6-8.1c1.8-3.1,2.8-6.9,2-10.4c-0.4-1.6-1.2-3.1-2.4-4.4
	c-0.6-0.7-1.7,0.3-1,1c2.7,2.8,2.7,6.7,1.5,10.2c-1.5,3.8-4.1,7.1-7.6,9.3c-7,4.8-15.9,7.6-19.5,15.9c-1.4,3.3-1.9,7.1-0.3,10.4
	c1.6,3,4.4,5,7.8,5.5c7.1,1.3,14.4-1.7,21.4,0.7s9.2,10.2,9.1,17c-0.2,9-4.6,17.2-5.7,26c-0.7,4.6,0.1,9.3,2.1,13.4
	c2.1,3.8,4.9,7.2,8.3,10c7,6,14.5,11.4,22.3,16.2c16,10,33.3,17.9,51.3,23.3c2.2,0.7,4.4,1.3,6.7,1.9c0.4,0.1,0.8-0.2,0.9-0.6
	C355.3,1223.2,355,1222.8,354.6,1222.7z"/>
<path class="st2" d="M777.5,1200.7c-20.1,5.4-40.8,8.4-61.6,8.9c-20.8,0.5-41.5-1.4-61.8-5.6c-20.3-4.2-40.1-10.9-58.8-19.7
	c-18.7-8.9-35.7-20.4-53-31.8c-16.8-11.1-34.1-21.9-53.5-27.8c-2.4-0.8-4.9-1.4-7.4-2c-0.9-0.2-1.3,1.2-0.4,1.4
	c20.1,4.8,38.1,15.1,55.3,26.3c17.4,11.3,34.2,23.3,52.8,32.6c18.5,9.3,38.1,16.4,58.3,21.1c20.2,4.7,40.8,7.2,61.5,7.2
	c20.7,0,41.4-2.4,61.5-7.2c2.5-0.6,5-1.2,7.5-1.9c0.4-0.1,0.6-0.5,0.5-0.9C778.3,1200.8,777.9,1200.6,777.5,1200.7L777.5,1200.7z"/>
<path class="st2" d="M653,984.9c-9.5-7-21.2-10.5-33-9.7c-17.6,1.3-33.2,11.8-41,27.6c-0.4,0.8,0.8,1.6,1.3,0.7
	c4.7-9.6,12.5-17.4,22.1-22.2c10.1-5,21.7-6.2,32.6-3.4c6.3,1.5,12.2,4.3,17.4,8.2C653.1,986.8,653.8,985.5,653,984.9z"/>
<path class="st2" d="M985,1149.6c-21.2-8.8-44.6-4-66.3-0.2c-20.9,3.7-44.6,6.8-63.8-4.5c-8.8-5.1-15.7-12.8-22.2-20.4
	s-13.2-15.6-21.2-21.8c-16.3-12.7-36.5-19.6-56.8-22.3c-24.6-3.3-49.6-0.7-74.1,2.5c-2.7,0.3-5.4,0.7-8.2,1.1
	c3.9-11.3,3.2-23.7-2-34.5c-5.4-10.9-14.9-19.1-26.5-22.7c-6.4-2-13.2-2.6-19.9-1.7c-0.3,0-0.5,0.3-0.5,0.6c0,0,0,0,0,0
	c-0.3,0.3-0.3,0.7,0,1c0,0,0.1,0.1,0.1,0.1l37.7,24l10.5,6.7c2.5,8.9,2.1,18.4-1.2,27c-0.1,0.4,0.1,0.8,0.5,0.9c0.1,0,0.1,0,0.2,0
	c7.6-1,15.2-2,22.8-2.9c0,0,0,0.1,0.1,0.1c9.4,10.6,20.4,19.6,32.6,26.7c3.5,2,7,3.8,10.7,5.5c0.8,0.4,1.6-0.9,0.7-1.3
	c-12.8-5.9-24.5-13.8-34.8-23.4c-2.6-2.5-5.1-5.1-7.6-7.8c16.9-1.9,33.9-2.9,50.9-1.5c21,1.8,42.1,7.7,59.6,19.7
	c8.6,5.9,15.6,13.5,22.4,21.4c6.4,7.5,12.8,15.2,20.8,21c17.2,12.6,39.2,12.3,59.4,9.4c22.3-3.2,45.5-10.1,67.9-4.2
	c2.7,0.7,5.3,1.6,7.8,2.7C985.4,1151.3,985.8,1149.9,985,1149.6z M634.9,1032.4l-9.5-6.1c11.2-1.2,22.4,2,31.4,8.8
	c6.7,5.2,11.7,12.2,14.3,20.3L634.9,1032.4z"/>
<path class="st2" d="M905.8,1192.1c-0.9-0.7-1.8-1.3-2.8-1.8c-0.8-0.4-1.6,0.8-0.7,1.3c8,4.3,11.9,13.4,12.3,22.2
	c0.4,10.4-4.3,19.8-10.7,27.8c-3.5,4.3-7.3,8.3-11.4,12c-4.5,4.2-9.2,8.3-13.9,12.4c-9.7,8.4-19.6,16.5-29.8,24.4
	c-8.9,6.8-18.6,14-30,15.6c-1.5,0.2-2.9,0.3-4.4,0.3c-0.4,0-0.7,0.3-0.7,0.7c0,0.4,0.3,0.7,0.7,0.7c11.9,0,22.4-6.6,31.6-13.4
	c10.5-7.8,20.6-16.2,30.5-24.7c5-4.2,9.9-8.6,14.7-13c4.3-3.8,8.3-7.9,12.1-12.2c6.8-8,12.3-17.5,12.7-28.2
	C916.3,1207.3,913.2,1197.7,905.8,1192.1z"/>
<path class="st2" d="M579.7,907.7l-34.4,0.3c-0.7-1.1-1.4-2.1-2.3-3.1c-4.5-5.4-10.7-8.8-16.6-12.3c-5.7-3.4-11.5-7-15.5-12.4
	c-1.9-2.5-3.2-5.3-3.9-8.4c-0.8-3.9-0.2-7.9,0.4-11.8c0.8-4.3,1.3-8.6,1.5-12.9c0.1-4.4-0.2-8.8-1-13.2c-0.1-0.9-1.5-0.5-1.4,0.4
	c1.2,7.8,1.2,15.7-0.2,23.5c-0.8,3.7-1.2,7.5-1.1,11.2c0.2,3.2,1.1,6.4,2.6,9.2c6.7,12.2,21.2,15.8,31,24.6c1.8,1.6,3.4,3.4,4.7,5.4
	l-22.3,0.2l-16.3,0.1c-0.4,0-0.7,0.3-0.7,0.7c0,0.4,0.3,0.7,0.7,0.7l39.6-0.3c2.4,3.7,3.3,8.2,2.6,12.5c-0.2,0.9,1.2,1.3,1.4,0.4
	c0.8-4.4-0.1-9-2.3-12.9l17.2-0.1l16.3-0.1c0.4,0,0.8-0.3,0.8-0.8S580.1,907.7,579.7,907.7z"/>
<path class="st2" d="M605.5,879c-12.3-5.5-20.1-17.1-25.9-28.9c-1.8-3.6-3.4-7.3-5-10.9c-0.4-0.8-1.6-0.1-1.3,0.7
	c5.6,12.5,11.5,25.6,22.4,34.6c2.8,2.3,5.8,4.2,9.1,5.7C605.7,880.7,606.4,879.4,605.5,879z"/>
<path class="st2" d="M618.8,830.5l-1-1.2c-0.2-0.3-0.5-0.3-0.8-0.1c-12.9-9.8-28.2-15.9-44.3-17.6c-0.9-0.1-0.9,1.4,0,1.5
	c16.5,1.8,32.1,8.2,45,18.5c0.3,0.3,0.8,0.3,1,0C619,831.2,619,830.8,618.8,830.5L618.8,830.5z"/>
<path class="st2" d="M674,926.5l-23.8,5.9c-0.4,0.1-0.6,0.6-0.4,0.9c0.1,0.3,0.5,0.5,0.8,0.5l23.8-5.9
	C675.3,927.7,674.9,926.3,674,926.5z"/>
<path class="st2" d="M800.5,887.5c-21.7,11.1-44.7,19.4-68.5,24.8c0-0.4,0-0.8,0-1.2c0-5-0.6-9.9-1.9-14.8c-0.1-0.4-0.6-0.6-0.9-0.4
	c-0.3,0.1-0.5,0.5-0.5,0.8c1.4,5.2,2,10.5,1.8,15.9l-1,0.2c-6.9,1.5-13.9,2.8-21,3.8c-0.9,0.1-0.5,1.5,0.4,1.4
	c7.2-1,14.3-2.4,21.5-4c-0.7,11.4-4.6,22.3-11.4,31.4c-2.9,3.9-6.3,7.3-10.1,10.3c-0.7,0.6,0,1.8,0.7,1.3c7-5.4,12.6-12.4,16.4-20.3
	c3.5-7.2,5.5-15,6-23c4.8-1.1,9.5-2.2,14.2-3.5c12.2-3.4,24.1-7.6,35.7-12.5c6.6-2.8,13-5.8,19.3-9
	C802.1,888.3,801.3,887,800.5,887.5z"/>
<path class="st2" d="M800,1035.7c-10.2,0.4-20.3-1.1-29.9-4.4c-0.9-0.3-1.3,1.1-0.4,1.4c9.7,3.3,20,4.9,30.3,4.5
	C800.9,1037.1,800.9,1035.6,800,1035.7z"/>
<path class="st2" d="M809.3,928.8c-15.9,4.2-32.5,5.3-48.8,3.4c-4.6-0.6-9.2-1.4-13.8-2.4c-0.9-0.2-1.3,1.2-0.4,1.4
	c16.2,3.8,33,4.4,49.5,1.9c4.7-0.7,9.3-1.7,13.9-2.9c0.4-0.1,0.6-0.6,0.4-0.9C810,928.9,809.7,928.7,809.3,928.8z"/>
<path class="st2" d="M811.6,983c0.9,0.1,0.9-1.4,0-1.5c-18.3-1.2-37.6-1.5-54.4,6.9c-0.6,0.3-1.1,0.6-1.7,0.9
	c-0.8-0.3-1.6-0.6-2.4-1c-5-2.3-9.6-5.6-12.4-10.4c-2.7-4.5-3.5-10-0.8-14.7c2.6-4.5,7.4-7.3,11.8-9.6c5.6-2.9,11.3-5.8,17-8.3
	c11.5-5.1,24.1-9.1,36.8-8c1.6,0.1,3.1,0.3,4.7,0.6c0.9,0.2,1.3-1.2,0.4-1.4c-12.8-2.4-25.7,0.7-37.7,5.4c-6.1,2.4-12,5.3-17.9,8.3
	c-4.8,2.5-10,4.8-13.8,8.8c-3.7,3.6-5.2,8.9-4.1,13.9c1.2,5.2,4.6,9.7,8.8,12.8c2.4,1.8,5.1,3.3,7.9,4.5
	c-5.7,3.2-10.7,7.6-14.6,12.8c-4.5,6-7,13.3-7.3,20.8c-0.3,8.2,2.3,16.5,8.1,22.5c0.7,0.7,1.7-0.3,1-1c-10.3-10.7-9.5-28.2-1.6-40
	c4.2-6,9.7-11,16.2-14.4c7.6,2.8,16,3.7,23.9,4.9c10.2,1.6,21.5,4.3,28.7,12.4c0.9,1,1.7,2,2.4,3.1c0.5,0.8,1.8,0,1.3-0.7
	c-5.6-8.7-15.7-12.8-25.4-14.9c-9.6-2.1-19.7-2.5-29-5.7c7.1-3.5,14.7-5.8,22.5-6.7C790.4,981.9,801.1,982.3,811.6,983z"/>
<path class="st2" d="M327.5,971.9c-9.8-5.8-18.7-13-26.5-21.3c-0.6-0.7-1.7,0.3-1,1c7.9,8.4,16.9,15.7,26.8,21.5
	c0.4,0.1,0.8-0.1,0.9-0.5C327.8,972.3,327.7,972,327.5,971.9z"/>
<path class="st2" d="M265.8,911c-4-5.2-7.3-10.9-9.7-17c-0.3-0.9-1.8-0.5-1.4,0.4c2.5,6.3,5.9,12.2,10.1,17.6
	C265.3,912.8,266.3,911.7,265.8,911z"/>
<path class="st2" d="M401.7,1001.5c-15.4-2.3-30.5-6.4-44.9-12.2c-4.1-1.7-8.2-3.5-12.2-5.5c-0.8-0.4-1.6,0.8-0.7,1.3
	c14.1,6.9,29,12.1,44.3,15.4c4.4,1,8.8,1.8,13.2,2.4C402.2,1003,402.6,1001.6,401.7,1001.5z"/>
<path class="st2" d="M517.5,1009.1c-26,7.7-53.7,8.2-79.9,1.3c-0.4-0.1-0.8,0.2-0.8,0.6c-0.1,0.3,0.1,0.7,0.5,0.8
	c26.5,6.9,54.4,6.4,80.7-1.3c0.4-0.1,0.6-0.6,0.4-0.9C518.2,1009.3,517.9,1009.1,517.5,1009.1z"/>
<path class="st2" d="M401,987.5c-14.6,4-30,3.2-44.1-2.3c-4-1.6-7.8-3.5-11.4-5.7c-0.8-0.5-1.5,0.8-0.7,1.3
	c13.1,8.2,28.6,11.8,44,10.5c4.3-0.4,8.5-1.1,12.6-2.3c0.4-0.1,0.6-0.5,0.5-0.9C401.8,987.6,401.4,987.4,401,987.5z"/>
<path class="st2" d="M463.1,940.3c-7.8,10.3-16.7,19.8-26.5,28.2c-0.7,0.6,0.3,1.6,1,1c10-8.5,18.9-18,26.8-28.5
	C464.9,940.3,463.7,939.6,463.1,940.3z"/>
<path class="st2" d="M503.3,979.7c-16,7.4-33,12-50.5,13.8c-4.9,0.5-9.8,0.8-14.6,0.8c-0.4,0-0.7,0.3-0.7,0.7c0,0.4,0.3,0.7,0.7,0.7
	c17.8-0.2,35.4-3.3,52.2-9.2c4.7-1.7,9.3-3.5,13.8-5.6C504.8,980.5,504.1,979.3,503.3,979.7z"/>
<path class="st2" d="M975.2,1096.1c-4.3-10-10.8-18.8-19.2-25.8c-2.2-1.9-4.6-3.6-7-5.2c1-7.9,1-15.9-0.2-23.9
	c-0.6-3.9-1.4-7.8-2.5-11.6c0.1-0.2,0.1-0.4,0-0.6l-0.3-0.7c-0.2-0.3-0.7-0.5-1-0.2c-0.3,0.2-0.4,0.5-0.3,0.8
	c3.4,11.4,4.4,23.5,3,35.3c-7-4.4-14.5-8-21.7-12c-9.4-5.5-18.3-11.9-26.5-19c-2.8-2.4-5.6-4.8-8.3-7.2
	c13.2-3.2,25.2-10.2,34.3-20.3c5.1-5.8,9.2-12.9,9.9-20.7c0.7-7.2-1.9-14.2-6.4-19.8c-4.6-5.6-10.5-10.1-17.2-13
	c-8-3.6-16.6-5.5-25.1-7.6c-14.4-3.6-30.8-8.7-38.6-22.5c-0.9-1.6-1.6-3.2-2.2-4.9c-0.3-0.9-1.7-0.5-1.4,0.4
	c4.8,14.2,19.2,21.9,32.7,25.9c15.7,4.7,33.3,6.4,46.1,17.7c5.2,4.6,9.4,10.7,10.5,17.7c1.3,8-1.9,15.8-6.5,22.1
	c-8.8,12.2-22.9,20.4-37.5,23.8c-5-4.4-9.9-8.8-15-13c-1.2-1-2.4-2-3.6-3c-0.3-3.3-0.6-6.6-1-9.9c-1.2-11.6-1.9-23.5-5.2-34.8
	c0-0.1-0.1-0.2-0.1-0.3c5,1.1,10.2,1.4,15.3,0.8c0.9-0.1,0.9-1.6,0-1.5c-5.3,0.6-10.7,0.3-15.8-0.9c-2.9-8.6-7.6-16.7-14.9-22.2
	c-1-0.7-2-1.4-3-2c-0.3-0.2-0.8-0.1-1,0.3s-0.1,0.8,0.3,1l0,0c8.4,5,13.9,13.5,17,22.6c-6-1.7-11.6-4.5-16.4-8.5
	c-0.7-0.6-1.8,0.4-1,1c5.3,4.3,11.4,7.4,18,9.1c3.5,11,4.2,22.7,5.4,34.1c0.3,3.4,0.7,6.7,1,10.1c-6.6-5.4-13.6-10.3-20.9-14.7
	c-1.2-0.7-2.3-1.3-3.5-2c-0.8-0.4-1.6,0.8-0.7,1.3c9,5,17.5,10.8,25.3,17.4c0.5,5.6,1,11.3,1.4,16.9c-1.8-0.1-3.6-0.2-5.4-0.5
	c-6-0.7-13.4-1.9-18.8,1.6c-1.3,0.8-2.3,1.9-3.2,3.2c-0.5,0.8,0.7,1.5,1.3,0.7c3.9-5.7,12-5,18.1-4.4c2.7,0.3,5.4,0.6,8.2,0.8
	c0.1,2.1,0.3,4.3,0.4,6.4c0.5,9.1,0.8,18.2,0.6,27.3c-3.7-1.9-7.5-3.8-11.3-5.5c-8-3.7-16.2-7.1-24.5-10.1c-0.9-0.3-1.3,1.1-0.4,1.4
	c12.4,4.5,24.4,9.7,36.1,15.8c-0.1,2.7-0.2,5.4-0.3,8c-0.2,3-0.4,6.1-0.7,9.1s-0.7,6.1-0.9,9.2c-0.3,4.8,0.5,10.2,4.4,13.6
	c0.8,0.7,1.8,1.3,2.8,1.7c0.9,0.4,1.2-1,0.4-1.4c-5-2-6.3-8-6.2-12.8c0.1-3.1,0.5-6.1,0.8-9.1s0.5-6.1,0.7-9.1
	c0.2-2.8,0.3-5.6,0.4-8.4c1.5,0.8,3,1.6,4.4,2.4c6.7,3.7,13.3,7.6,19.7,11.8c6.1,4,12.3,8.2,17.2,13.7c5.4,6,9.3,13.8,8.8,22.1
	c-0.1,0.9,1.4,0.9,1.5,0c0.4-7.3-2.4-14.3-6.7-20.1c-4.5-5.9-10.4-10.5-16.5-14.6c-9.1-6.1-18.5-11.8-28.3-16.8
	c0.2-8.9,0-17.8-0.5-26.8c-0.1-2.6-0.3-5.1-0.5-7.6h1.3c3.9,0,7.7-0.3,11.5-0.9c1.3-0.2,2.5-0.5,3.8-0.7c2,1.7,4,3.5,6,5.2
	c8.1,7.1,16.7,13.6,25.7,19.4c8.6,5.3,17.9,9.4,26.4,14.8c-0.4,2.7-0.9,5.4-1.5,8c-0.6,2.4-1.3,4.8-2,7.2c-0.2,0.1-0.4,0.2-0.4,0.5
	c-0.4,1.5-0.9,3-1.3,4.5c-0.3,0.9,1.1,1.2,1.4,0.4c2.5-6.3,4.2-12.9,5.2-19.6c0.9,0.6,1.8,1.2,2.6,1.8c8.8,6.4,16,14.9,20.8,24.6
	c0.6,1.2,1.2,2.4,1.7,3.7C974.3,1097.7,975.6,1096.9,975.2,1096.1z M872.7,1026.5c-0.4-5.2-0.8-10.4-1.3-15.7
	c5.6,4.7,11.1,9.6,16.6,14.4C883,1026.3,877.8,1026.7,872.7,1026.5L872.7,1026.5z"/>
<path class="st2" d="M332.9,949.4c-10.5,3.4-22,2.4-31.8-2.6c-0.8-0.4-1.6,0.8-0.7,1.3c10.2,5.2,22,6.2,32.9,2.7
	C334.2,950.5,333.8,949.2,332.9,949.4z"/>
<path class="st2" d="M401.1,925.3c-8.2,5.5-17.4,9.2-27.1,10.8c-0.9,0.2-0.5,1.6,0.4,1.4c9.8-1.6,19.2-5.4,27.5-11
	C402.6,926.1,401.9,924.8,401.1,925.3z"/>
<path class="st2" d="M533.2,809.3c-10.7,3.8-22,3.7-33.1,2.3c-1.9-0.2-3.8-0.5-5.7-0.8c1.3-1,2.6-2,3.7-3.2c4.5-4.4,8-10.1,8.4-16.5
	c0.1-1.5,0-3.1-0.3-4.6c0-0.3-0.3-0.6-0.6-0.5c0,0-0.1,0-0.1,0c0.6-1.2,1.2-2.4,1.7-3.7c0.4-0.8-0.9-1.6-1.3-0.7
	c-4.6,10.6-11.4,20.1-20,27.8c-6.7-1.2-13.3-2.4-20.1-3c-9.6-1-19.4-0.9-28.7,1.9l-0.3-0.2c-8.4-6.5-17.8-11.6-27.8-15.3
	c-10-3.6-20.4-5.8-31-6.4c-10.6-0.6-21.3,0.5-31.6,3.3c-1.3,0.3-2.5,0.7-3.8,1.1c-0.9,0.3-0.5,1.7,0.4,1.4c10.2-3.2,21-4.7,31.7-4.5
	c10.8,0.3,21.4,2.2,31.6,5.6c10.2,3.5,19.8,8.5,28.4,14.9l0.7,0.5c-0.5,0.2-1,0.3-1.5,0.5c-9.2,3.5-17.3,9.2-23.8,16.6
	c-0.3,0.3-0.6,0.7-0.9,1l-2.9-0.6c-8.5-1.8-17.3-3.4-25.9-1.9c-13.9,2.5-24.7,12.8-31.9,24.4c-4.3,6.6-7.4,13.8-9.3,21.5
	c-1,4.3-1.1,8.8-0.4,13.1c-3.5-5.7-6.3-11.8-8.5-18.1c-4.3-12.5-5.9-25.8-4.7-39c0.7-7.4,2.3-14.7,4.8-21.7c0.3-0.9-1.1-1.3-1.4-0.4
	c-4.5,12.7-6.1,26.2-4.8,39.6c1.3,13.4,5.3,26.3,11.9,38c1.3,2.3,2.7,4.5,4.2,6.7c0.1,0.3,0.3,0.6,0.4,0.8c-3.4-2.9-6.6-6-9.6-9.2
	l-15.2-15.4c-5.1-5.1-10.1-10.3-15.2-15.4c-4-3.9-8.8-8.1-14.7-8.7c-0.4,0-0.8,0-1.2,0c2.3-2.3,4.2-4.9,5.8-7.6
	c9.7-15.3,23.6-27.3,40.2-34.6c0.9-0.4,0.1-1.6-0.7-1.3c-15,6.7-27.9,17.2-37.5,30.4c-1.6,2.2-3,4.5-4.5,6.8
	c-1.4,2.3-3.2,4.4-5.4,6.2c-0.3,0.2-0.5,0.4-0.8,0.5c-0.1,0-0.2,0.1-0.3,0.2c-1.7,1-3.8,1.4-5.8,1.2c-1.2-0.1-2.3-0.5-3.2-1.1
	c0.4-1,0.7-2,1.1-3c0.3-0.8-0.8-1.2-1.3-0.6c0.8-12.1,3.1-24,7-35.5c1.3-3.7,2.7-7.4,4.2-10.9c0.4-0.8-0.9-1.6-1.3-0.7
	c-5.6,12.7-9.2,26.2-10.8,40c-0.3,3-0.5,6-0.7,9c-0.1-0.3-0.2-0.5-0.3-0.8c-0.1-0.4-0.6-0.6-1-0.5c-0.1,0-0.2,0.1-0.2,0.1
	c-5.7-15.9-6.1-33.2-0.9-49.3c1.5-4.6,3.4-9,5.7-13.2c0.5-0.8-0.8-1.6-1.3-0.7c-8.3,15.3-11.3,32.9-8.5,50c0.8,4.8,2.1,9.6,3.8,14.2
	c0.2,0.4,0.6,0.6,1,0.4c0.1,0,0.1-0.1,0.2-0.1c0.3,0.7,0.8,1.4,1.4,2c0,0.2,0,0.5,0,0.7c0,0.4,0.3,0.7,0.7,0.7
	c0.3,0,0.5-0.2,0.6-0.4c2.3,1.3,4.9,1.6,7.5,1c1-0.3,2-0.7,3-1.2c5.9-1.4,11.4,2.7,15.5,6.5c2.4,2.3,4.7,4.7,7,7l7.6,7.7l15.1,15.3
	c2.4,2.4,4.8,4.9,7.2,7.3c2,2.1,4.2,4,6.5,5.7c0.3,0.2,0.6,0.4,1,0.6c1,1.3,2.1,2.5,3.4,3.6c0.1,0.1,0.2,0.1,0.2,0.1
	c1.1,1.3,2.2,2.6,3.4,3.8c0.2,0.2,0.6,0.3,0.9,0.1c3.5-2.1,6.8-4.4,10-6.8c3.8-2.2,7.3-5,10.3-8.2c0.9-0.9,1.7-1.8,2.6-2.6
	c2.1-2,4.2-4,6.3-6c8.9-8.7,17.3-17.9,26.4-26.4c2.7-2.2,5.7-4,8.9-5.2c5-1.8,10.9-2.2,15.7,0.2c1.2,0.6,2.4,1.3,3.4,2.3
	c0.7,0.6,1.7-0.4,1-1c-4-3.6-9.5-4.8-14.8-4.1c-2.8,0.4-5.5,1.2-8.1,2.4c5.6-4.9,11.6-9.2,18-13c8.2,0.1,16.4-1,24.3-3.3
	c1.2,1.4,2.5,2.8,3.8,4.2c4,4.2,8.5,7.8,14.1,9.7c4.9,1.6,10.4,1.9,15.1-0.2c1.2-0.5,2.3-1.2,3.3-2c0.7-0.6-0.3-1.6-1-1
	c-4.3,3.4-10,3.8-15.1,2.5c-5.7-1.5-10.4-5-14.5-9.1c-1.4-1.4-2.7-2.9-4-4.4c6.7-2.1,13.2-5.1,19.1-8.9l0.8-0.5
	c1.2-0.3,2.4-0.6,3.6-0.9c4.5-1.2,8.7-3.1,12.6-5.6c1.5,0.2,2.9,0.5,4.4,0.7c10.8,1.5,22,2.2,32.6-0.7c1.3-0.4,2.7-0.8,4-1.3
	C534.5,810.4,534.1,809,533.2,809.3z M504.9,787.3c1.4,9.7-4.7,17.9-12.6,23.2l-4.5-0.8C494.8,803.3,500.5,795.7,504.9,787.3
	L504.9,787.3z M463.4,807.6c7.1,0.6,14.2,1.8,21.3,3.1c-2.1,1.9-4.4,3.6-6.7,5.2c-0.7,0.5-1.3,0.9-2,1.3c-5.7,1.3-11.5,2.1-17.2,3.1
	c-2.5,0.4-4.9,0.9-7.4,1.5c-0.9-1-1.8-2-2.7-3c-3.1-3.3-6.5-6.5-10-9.3C446.7,807.4,455.1,806.7,463.4,807.6L463.4,807.6z
	 M432.1,811.7c1.6-0.7,3.2-1.3,4.8-1.8c3.5,2.8,6.9,5.8,10,9.1c1,1,2,2.1,2.9,3.2c-3.8,0.9-7.5,2.2-11,3.7c-2.9,1.2-5.6,2.6-8.3,4.1
	c-3.6-0.1-7.2-0.4-10.7-1c-2.9-0.5-5.8-1.1-8.7-1.7C416.8,820.6,424,815.2,432.1,811.7L432.1,811.7z M354,896.4
	c-1.1,0.7-2.3,1.4-3.4,2.1c-1.3-1.3-2.4-2.7-3.6-4c2.8,1,5.8,1.3,8.7,0.7C355.1,895.6,354.6,896,354,896.4z M375.9,878.2l-2.6,2.7
	c-4.1,3.8-8.4,7.5-12.8,10.9c-4.5,2.5-9.5,3.3-14.8,0.6c-0.2-0.1-0.4-0.2-0.6-0.3c-1-1.3-2-2.7-3-4c-1.7-4.2-2.4-8.7-1.9-13.2
	c0.8-8,4.3-15.7,8.3-22.6c6.8-11.8,17.2-22.8,30.9-26c8.5-1.9,17.1-0.5,25.5,1.2l3.6,0.8c-5.5,6.9-9.3,14.9-11.2,23.5
	c-0.3,1.2-0.5,2.4-0.6,3.6c-0.1,0.4,0.3,0.8,0.7,0.9c0.1,0,0.2,0,0.3,0c-2.1,2.1-4.2,4.3-6.2,6.4L375.9,878.2z M408.9,845.9
	c-1.1,1-2.1,2-3.2,3l-0.4,0.3c-2.6,2.1-5,4.3-7.4,6.7v-0.1c1.4-9.7,5.4-18.8,11.5-26.5l0.6-0.7c6,1.4,12,2.3,18.1,2.8
	C421.2,835.6,414.8,840.4,408.9,845.9L408.9,845.9z M433.4,830c1.1-0.6,2.2-1.1,3.3-1.7c4.5-2.1,9.2-3.8,14.1-5
	c1,1.2,2.1,2.4,3.1,3.7C447.3,828.9,440.4,829.9,433.4,830z M455.5,826.6c-1-1.2-2-2.4-3-3.6c1.3-0.3,2.6-0.6,3.9-0.8
	c5.3-1,10.6-1.7,15.8-2.7C466.9,822.5,461.3,824.8,455.5,826.6L455.5,826.6z M482.2,815.4c-0.7,0.2-1.4,0.4-2.1,0.7
	c2.2-1.6,4.4-3.3,6.4-5.2l4,0.7C487.9,813.2,485.1,814.5,482.2,815.4L482.2,815.4z"/>
<path class="st2" d="M986.9,1157.6c-74.5,26.8-157.6,12.2-218.5-38.4c-14.6-12.1-28.1-25.5-44-36c-2-1.3-4-2.6-6-3.8
	c-0.4-0.2-0.8,0-1,0.4c-0.1,0.3,0,0.7,0.2,0.9c16.7,9.9,30.6,23.4,45.3,35.9c14.2,12.3,29.9,22.8,46.6,31.4
	c16.7,8.5,34.4,14.8,52.6,18.9c39.1,8.7,79.8,6.8,117.9-5.5c2.4-0.8,4.7-1.6,7-2.4C988.2,1158.7,987.8,1157.3,986.9,1157.6z"/>
<path class="st2" d="M990,1158.5c-16.4,5.3-32.8,10.6-49.8,13.9c-8.5,1.7-17.1,2.7-25.8,3.1c-8.8,0.2-17.6-0.2-26.3-1.4
	c-8.8-1.1-17.5-2.7-26.2-4.4c-8.4-1.7-16.8-3.4-25.1-5.4c-8.3-2-16.5-4.5-24.5-7.4c-7.8-2.9-15.3-6.3-22.7-10.2
	c-14.6-7.7-28.3-16.8-42-26l-5.1-3.4c-0.8-0.5-1.5,0.7-0.7,1.3c13.7,9.3,27.5,18.7,42,26.8c14.6,8.2,30.2,14.5,46.4,18.9
	c8.3,2.2,16.8,4.1,25.2,5.8c8.7,1.8,17.4,3.5,26.2,4.8c8.7,1.4,17.5,2.2,26.4,2.4c8.6,0,17.2-0.6,25.6-2c17.3-2.7,34-7.8,50.7-13.1
	l6.1-2C991.3,1159.6,990.9,1158.2,990,1158.5z"/>
<path class="st2" d="M813.3,1230.7c-1.9-11.8-7.3-22.8-15.5-31.5c-1-1.1-2.1-2.1-3.2-3c-0.7-0.6-1.7,0.4-1,1
	c8.9,8.1,15.1,18.8,17.7,30.5c2.8,12.4,1.7,25.4-2.3,37.5c-4.2,12.8-11.5,23.9-20.2,34.1s-18.1,19.5-24.8,31
	c-6.2,10.6-10.3,23.4-7.6,35.7c0.3,1.5,0.8,3,1.3,4.4c0.3,0.9,1.7,0.5,1.4-0.4c-4.4-12.3-1.1-25.7,4.9-36.8
	c6.4-11.8,16-21.5,24.7-31.6c4.4-5,8.4-10.3,12-15.8c3.5-5.6,6.4-11.5,8.7-17.6C814,1256.3,815.3,1243.3,813.3,1230.7z"/>
<circle class="st3" cx="676.5" cy="522" r="7"/>
<circle class="st3" cx="605.2" cy="494.4" r="7"/>
<circle class="st3" cx="739" cy="561.3" r="7"/>
<circle class="st3" cx="568.3" cy="492.9" r="7"/>
<circle class="st3" cx="726.8" cy="602.8" r="7"/>
<circle class="st3" cx="585.7" cy="573.7" r="7"/>
<circle class="st3" cx="533.8" cy="508.2" r="7"/>
<circle class="st3" cx="835.5" cy="601.2" r="7"/>
<circle class="st3" cx="825.4" cy="612.8" r="7"/>
<circle class="st3" cx="802.1" cy="637.6" r="7"/>
<circle class="st3" cx="828.3" cy="644.8" r="7"/>
<circle class="st3" cx="778.8" cy="653.5" r="7"/>
<circle class="st3" cx="700.9" cy="636.8" r="7"/>
<circle class="st3" cx="865.2" cy="708.1" r="7"/>
<circle class="st3" cx="950.3" cy="720.8" r="7"/>
<circle class="st3" cx="922.7" cy="715" r="7"/>
<circle class="st3" cx="893.6" cy="755.3" r="7"/>
<circle class="st3" cx="877.6" cy="778.6" r="7"/>
<circle class="st3" cx="809.3" cy="752.4" r="7"/>
<circle class="st3" cx="1029.4" cy="819.4" r="7"/>
<circle class="st3" cx="1011.9" cy="812.2" r="7"/>
<circle class="st3" cx="1016.3" cy="982.4" r="7"/>
<ellipse transform="matrix(0.1602 -0.9871 0.9871 0.1602 -157.9271 1876.0789)" class="st3" cx="1023.6" cy="1030.8" rx="7" ry="7"/>
<circle class="st3" cx="963.9" cy="1004.7" r="7"/>
<circle class="st3" cx="881" cy="963.1" r="7"/>
<circle class="st3" cx="846.7" cy="919.5" r="7"/>
<circle class="st3" cx="851.1" cy="894.7" r="7"/>
<circle class="st3" cx="858.4" cy="852.6" r="7"/>
<circle class="st3" cx="843.8" cy="1031.4" r="7"/>
<circle class="st3" cx="769.7" cy="1031.6" r="7"/>
<circle class="st3" cx="945.6" cy="1028.7" r="7"/>
<circle class="st3" cx="1035.3" cy="1050.6" r="7"/>
<circle class="st3" cx="1038.2" cy="1097.1" r="7"/>
<circle class="st3" cx="991.7" cy="1076.7" r="7"/>
<circle class="st3" cx="975.7" cy="1097.1" r="7"/>
<circle class="st3" cx="942.3" cy="1086.9" r="7"/>
<circle class="st3" cx="924.8" cy="1114.6" r="7"/>
<circle class="st3" cx="877.8" cy="1105.4" r="7"/>
<circle class="st3" cx="988.3" cy="1154.8" r="7"/>
<circle class="st3" cx="892.3" cy="1153.3" r="7"/>
<circle class="st3" cx="901" cy="1191.3" r="7"/>
<circle class="st3" cx="813.8" cy="1184" r="7"/>
<circle class="st3" cx="828.3" cy="1275.9" r="7"/>
<circle class="st3" cx="813.8" cy="1307.9" r="7"/>
<circle class="st3" cx="750" cy="1329.7" r="7"/>
<circle class="st3" cx="758.7" cy="1370.4" r="7"/>
<circle class="st3" cx="722.3" cy="1299.1" r="7"/>
<circle class="st3" cx="679.5" cy="1468.9" r="7"/>
<circle class="st3" cx="641.7" cy="1327.2" r="7"/>
<circle class="st3" cx="683.9" cy="1250.2" r="7"/>
<circle class="st3" cx="563.7" cy="1314.2" r="7"/>
<circle class="st3" cx="520.7" cy="1304" r="7"/>
<circle class="st3" cx="651.6" cy="1224.9" r="7"/>
<circle class="st3" cx="504.7" cy="1204.6" r="7"/>
<circle class="st3" cx="781.5" cy="1191.8" r="7"/>
<circle class="st3" cx="777.1" cy="1202" r="7"/>
<circle class="st3" cx="794.6" cy="1196.2" r="7"/>
<circle class="st3" cx="780" cy="1180.2" r="7"/>
<circle class="st3" cx="761.1" cy="1164.2" r="7"/>
<circle class="st3" cx="727.7" cy="1122" r="7"/>
<circle class="st3" cx="739.3" cy="1114.7" r="7"/>
<circle class="st3" cx="440.8" cy="1193.3" r="7"/>
<circle class="st3" cx="416.1" cy="1203.4" r="7"/>
<circle class="st3" cx="449.5" cy="1155.4" r="7"/>
<circle class="st3" cx="354.3" cy="1222.3" r="7"/>
<circle class="st3" cx="341.2" cy="1140.9" r="7"/>
<circle class="st3" cx="358.6" cy="1113.3" r="7"/>
<circle class="st3" cx="480.8" cy="1122" r="7"/>
<circle class="st3" cx="528.1" cy="1112.3" r="7"/>
<circle class="st3" cx="525.2" cy="1089" r="7"/>
<ellipse transform="matrix(0.9239 -0.3827 0.3827 0.9239 -371.6486 277.6553)" class="st3" cx="512.1" cy="1073" rx="7" ry="7"/>
<circle class="st3" cx="468.5" cy="1089" r="7"/>
<circle class="st3" cx="445.2" cy="1065.8" r="7"/>
<circle class="st3" cx="583.4" cy="1070.1" r="7"/>
<circle class="st3" cx="673" cy="1081.8" r="7"/>
<circle class="st3" cx="623.5" cy="1027.9" r="7"/>
<circle class="st3" cx="584.3" cy="1046.8" r="7"/>
<circle class="st3" cx="397.6" cy="1059.9" r="7"/>
<circle class="st3" cx="377.3" cy="1041" r="7"/>
<circle class="st3" cx="281.2" cy="1147.2" r="7"/>
<circle class="st3" cx="263.7" cy="1119.6" r="7"/>
<ellipse transform="matrix(7.088915e-02 -0.9975 0.9975 7.088915e-02 -822.3738 1243.7278)" class="st3" cx="256.4" cy="1063.3" rx="7" ry="7"/>
<ellipse transform="matrix(7.088915e-02 -0.9975 0.9975 7.088915e-02 -800.9167 1231.8638)" class="st3" cx="260.8" cy="1045.9" rx="7" ry="7"/>
<circle class="st3" cx="230.6" cy="998.2" r="7"/>
<circle class="st3" cx="344" cy="982.2" r="7"/>
<circle class="st3" cx="328" cy="973.5" r="7"/>
<circle class="st3" cx="373.1" cy="937.1" r="7"/>
<circle class="st3" cx="265.5" cy="951.7" r="7"/>
<circle class="st3" cx="229.7" cy="924.8" r="7"/>
<circle class="st3" cx="205" cy="980" r="7"/>
<circle class="st3" cx="162.8" cy="1010.5" r="7"/>
<ellipse transform="matrix(3.327771e-02 -0.9994 0.9994 3.327771e-02 -890.7706 1114.7365)" class="st3" cx="130.9" cy="1017.8" rx="7" ry="7"/>
<circle class="st3" cx="117.1" cy="1003.3" r="7"/>
<circle class="st3" cx="188.4" cy="949.5" r="7"/>
<circle class="st3" cx="173.8" cy="899.3" r="7"/>
<circle class="st3" cx="229.1" cy="864.4" r="7"/>
<ellipse transform="matrix(7.088915e-02 -0.9975 0.9975 7.088915e-02 -647.0046 1083.6023)" class="st3" cx="258.2" cy="889.1" rx="7" ry="7"/>
<circle class="st3" cx="124.4" cy="902.2" r="7"/>
<ellipse transform="matrix(2.172377e-02 -0.9998 0.9998 2.172377e-02 -830.0408 950.3074)" class="st3" cx="70.6" cy="899.3" rx="7" ry="7"/>
<circle class="st3" cx="175.3" cy="853" r="7"/>
<circle class="st3" cx="37.5" cy="828.3" r="7"/>
<circle class="st3" cx="38.9" cy="799.2" r="7"/>
<circle class="st3" cx="270.2" cy="838.4" r="7"/>
<circle class="st3" cx="284.8" cy="841.3" r="7"/>
<circle class="st3" cx="223.7" cy="802.1" r="7"/>
<circle class="st3" cx="80.4" cy="773.3" r="7"/>
<circle class="st3" cx="183.6" cy="747.2" r="7"/>
<circle class="st3" cx="329.6" cy="799.5" r="7"/>
<circle class="st3" cx="347.1" cy="790.8" r="7"/>
<circle class="st3" cx="303.4" cy="751.5" r="7"/>
<circle class="st3" cx="284.5" cy="790.8" r="7"/>
<circle class="st3" cx="274.4" cy="774.8" r="7"/>
<circle class="st3" cx="390.7" cy="764.6" r="7"/>
<circle class="st3" cx="422.7" cy="755.9" r="7"/>
<circle class="st3" cx="437.8" cy="841.7" r="7"/>
<circle class="st3" cx="491.6" cy="838.8" r="7"/>
<ellipse transform="matrix(0.9239 -0.3827 0.3827 0.9239 -280.679 257.7503)" class="st3" cx="507.6" cy="834.4" rx="7" ry="7"/>
<circle class="st3" cx="463.9" cy="940.6" r="7"/>
<ellipse transform="matrix(0.9239 -0.3827 0.3827 0.9239 -346.6786 275.0874)" class="st3" cx="518.1" cy="1009" rx="7" ry="7"/>
<circle class="st3" cx="529.8" cy="1023.5" r="7"/>
<circle class="st3" cx="579.2" cy="1004.6" r="7"/>
<circle class="st3" cx="556" cy="975.5" r="7"/>
<ellipse transform="matrix(0.9239 -0.3827 0.3827 0.9239 -336.5428 267.8637)" class="st3" cx="505" cy="979.9" rx="7" ry="7"/>
<circle class="st3" cx="548.7" cy="921.7" r="7"/>
<circle class="st3" cx="579.2" cy="907.2" r="7"/>
<circle class="st3" cx="570.5" cy="872.5" r="7"/>
<circle class="st3" cx="573.4" cy="841.2" r="7"/>
<circle class="st3" cx="544.3" cy="836.8" r="7"/>
<circle class="st3" cx="534.1" cy="809.2" r="7"/>
<circle class="st3" cx="570.5" cy="812.1" r="7"/>
<ellipse transform="matrix(0.9239 -0.3827 0.3827 0.9239 -261.5331 252.9434)" class="st3" cx="505" cy="783.9" rx="7" ry="7"/>
<circle class="st3" cx="628.7" cy="820.2" r="7"/>
<circle class="st3" cx="602.5" cy="753.9" r="7"/>
<ellipse transform="matrix(0.9239 -0.3827 0.3827 0.9239 -246.1752 252.7926)" class="st3" cx="512.3" cy="745.2" rx="7" ry="7"/>
<circle class="st3" cx="480.4" cy="764.1" r="7"/>
<circle class="st3" cx="688.8" cy="835.4" r="7"/>
<circle class="st3" cx="642.8" cy="896.7" r="7"/>
<circle class="st3" cx="650" cy="933.1" r="7"/>
<circle class="st3" cx="653" cy="986.9" r="7"/>
<circle class="st3" cx="730.2" cy="895.3" r="7"/>
<circle class="st3" cx="747.6" cy="931" r="7"/>
<circle class="st3" cx="815.4" cy="842.7" r="7"/>
<circle class="st3" cx="793.6" cy="842.7" r="7"/>
<circle class="st3" cx="770.3" cy="793.2" r="7"/>
<circle class="st3" cx="761.6" cy="809.2" r="7"/>
<circle class="st3" cx="712.6" cy="802.2" r="7"/>
<circle class="st3" cx="698.1" cy="783.3" r="7"/>
<circle class="st3" cx="706.8" cy="736" r="7"/>
<circle class="st3" cx="676.3" cy="698.2" r="7"/>
<circle class="st3" cx="660.3" cy="721.4" r="7"/>
<circle class="st3" cx="603.3" cy="663.7" r="7"/>
<circle class="st3" cx="593.1" cy="692.8" r="7"/>
<ellipse transform="matrix(0.9239 -0.3827 0.3827 0.9239 -221.5958 248.2018)" class="st3" cx="513.1" cy="681.1" rx="7" ry="7"/>
<circle class="st3" cx="504.4" cy="633.1" r="7"/>
<circle class="st3" cx="464.6" cy="702.3" r="7"/>
<circle class="st3" cx="415.1" cy="668.8" r="7"/>
<circle class="st3" cx="402" cy="719.7" r="7"/>
<circle class="st3" cx="380.2" cy="703.7" r="7"/>
<circle class="st3" cx="366.5" cy="667.3" r="7"/>
<circle class="st3" cx="341.8" cy="651.4" r="7"/>
<circle class="st3" cx="357.8" cy="598" r="7"/>
<circle class="st3" cx="455" cy="519" r="7"/>
<circle class="st3" cx="411.4" cy="504.4" r="7"/>
<circle class="st3" cx="391" cy="513.1" r="7"/>
<circle class="st3" cx="367.7" cy="543.7" r="7"/>
<circle class="st3" cx="348.8" cy="543.7" r="7"/>
<circle class="st3" cx="335.8" cy="577.6" r="7"/>
<circle class="st3" cx="305.3" cy="589.3" r="7"/>
<circle class="st3" cx="303.8" cy="608.2" r="7"/>
<circle class="st3" cx="296.5" cy="651.8" r="7"/>
<circle class="st3" cx="231.4" cy="637.5" r="7"/>
<circle class="st3" cx="187.8" cy="688.4" r="7"/>
<circle class="st3" cx="170.4" cy="694.2" r="7"/>
<circle class="st3" cx="619" cy="1492.1" r="7"/>
</svg>
