<svg id="Camada_1" data-name="Camada 1" xmlns="http://www.w3.org/2000/svg" viewBox="0 0 381.98 164.17"><defs><style>.cls-1,.cls-3{font-size:149.47px;font-family:ProFontWindows;}.cls-1{fill:none;}.cls-1,.cls-2{stroke:#52bdc9;stroke-miterlimit:10;}.cls-2{fill:#54beca;}.cls-3{opacity:0.7;fill:#fff;}</style></defs><title>myd svg</title><text class="cls-1" transform="translate(3.49 118.81)">_MYD_</text><ellipse class="cls-2" cx="77.56" cy="30.1" rx="2.99" ry="3.14"/><ellipse class="cls-2" cx="108.95" cy="53.17" rx="2.99" ry="3.14"/><ellipse class="cls-2" cx="141.08" cy="30.1" rx="2.99" ry="3.14"/><ellipse class="cls-2" cx="77.56" cy="118.81" rx="2.99" ry="3.14"/><ellipse class="cls-2" cx="141.08" cy="118.81" rx="2.99" ry="3.14"/><ellipse class="cls-2" cx="102.96" cy="81" rx="2.99" ry="3.14"/><ellipse class="cls-2" cx="166.34" cy="31.08" rx="2.99" ry="3.14"/><ellipse class="cls-2" cx="184.66" cy="81" rx="2.99" ry="3.14"/><ellipse class="cls-2" cx="192.01" cy="118.81" rx="2.99" ry="3.14"/><ellipse class="cls-2" cx="215.47" cy="31.08" rx="2.99" ry="3.14"/><ellipse class="cls-2" cx="226.85" cy="31.08" rx="2.99" ry="3.14"/><ellipse class="cls-2" cx="238.74" cy="42.99" rx="2.99" ry="3.14"/><ellipse class="cls-2" cx="238.74" cy="106.92" rx="2.99" ry="3.14"/><ellipse class="cls-2" cx="301.15" cy="130.37" rx="2.99" ry="3.14"/><ellipse class="cls-2" cx="378.49" cy="129.82" rx="2.99" ry="3.14"/><ellipse class="cls-2" cx="301.15" cy="145.11" rx="2.99" ry="3.14"/><ellipse class="cls-2" cx="378.49" cy="145.11" rx="2.99" ry="3.14"/><ellipse class="cls-2" cx="3.49" cy="130.37" rx="2.99" ry="3.14"/><ellipse class="cls-2" cx="77.56" cy="130.37" rx="2.99" ry="3.14"/><ellipse class="cls-2" cx="3.49" cy="144.6" rx="2.99" ry="3.14"/><ellipse class="cls-2" cx="78.56" cy="144.62" rx="2.99" ry="3.14"/><text class="cls-3" transform="translate(8.25 126.81)">_MYD_</text></svg>