<svg id="Camada_1" data-name="Camada 1" xmlns="http://www.w3.org/2000/svg" xmlns:xlink="http://www.w3.org/1999/xlink"
     viewBox="0 0 1146.34 1798.5">
    <defs>
        <style>
            .cls-1,.cls-2,.cls-4{fill:none;}.cls-2,.cls-4{stroke:#fff;stroke-miterlimit:10;stroke-width:5px;}.cls-3{fill:#fff;}.cls-4{fill-rule:evenodd;}.cls-5{clip-path:url(#clip-path);}
        </style>
        <clipPath id="clip-path" transform="translate(-18.72 -98.5)">
            <rect class="cls-1" x="116" y="401" width="693" height="693"/>
        </clipPath>
    </defs>
    <title>oradores_ecra_telemovel_daniel</title>
    <line class="cls-2" x1="25.52" y1="1786.5" x2="1033.51" y2="1786.5"/>
    <circle class="cls-3" cx="1033.03" cy="1786.02" r="11.52"/>
    <polyline class="cls-2" points="68 1031.31 68 277.31 822 277.31 822 654.81"/>
    <circle class="cls-3" cx="25.04" cy="1786.98" r="11.52"/>
    <circle class="cls-3" cx="68" cy="1031.31" r="12"/>
    <circle class="cls-3" cx="822" cy="654.31" r="12"/>
    <polyline class="cls-4" points="806.74 1031.83 1031.03 1031.83 1031.03 1349.22"/>
    <polyline class="cls-4" points="11.52 1262.55 11.52 1142.23 425.95 1142.23"/>
    <circle class="cls-3" cx="1031.03" cy="1349.59" r="11.52"/>
    <circle class="cls-3" cx="11.52" cy="1261.27" r="11.52"/>
    <circle class="cls-3" cx="426.24" cy="1142.23" r="11.52"/>
    <circle class="cls-3" cx="806.39" cy="1031.83" r="11.52"/>
    <g class="cls-5">
        <image width="200" height="200" transform="translate(97.28 302.5) scale(3.56)"
               xlink:href="daniel.png"/>
    </g>
    <path class="cls-3"
          d="M164,143.21a4.81,4.81,0,0,0-1.48,3.53v5a5.05,5.05,0,0,0,5,5,7.17,7.17,0,0,0,5-2.5l5-5v-7.5h-10A4.81,4.81,0,0,0,164,143.21Z"
          transform="translate(-18.72 -98.5)"/>
    <path class="cls-3"
          d="M374,143.21a4.81,4.81,0,0,0-1.48,3.53v5a5.05,5.05,0,0,0,5,5,7.17,7.17,0,0,0,5-2.5l5-5v-7.5h-10A4.81,4.81,0,0,0,374,143.21Z"
          transform="translate(-18.72 -98.5)"/>
    <path class="cls-3" d="M442.48,141.74h-10v15h10a5,5,0,0,0,5-5v-5a5,5,0,0,0-5-5Z"
          transform="translate(-18.72 -98.5)"/>
    <path class="cls-3"
          d="M83.48,98.5v94h478v-94Zm144.73,29a2.55,2.55,0,0,1,3.55,0,2.44,2.44,0,0,1,.72,1.78,2.48,2.48,0,0,1-2.5,2.5,2.49,2.49,0,0,1-2.5-2.5A2.41,2.41,0,0,1,228.21,127.46Zm-75.73,24.28a10.07,10.07,0,0,1-10,10h-15v-35h15a10.07,10.07,0,0,1,10,10Zm30,10h-5v-6.9l-3.1,3.15q-3.75,3.75-6.9,3.75a10,10,0,0,1-10-10v-5a10,10,0,0,1,10-10h15Zm30,0h-5v-15a5,5,0,0,0-5-5,7.21,7.21,0,0,0-5,2.5l-5,5v12.5h-5v-25h5v6.85l3.15-3.1c2.5-2.5,4.79-3.75,6.85-3.75a10,10,0,0,1,10,10Zm25,0h-15v-5h5v-15h-5v-5h10v20h5Zm35-10h-20a5.05,5.05,0,0,0,5,5h15v5h-15a10.07,10.07,0,0,1-10-10v-5a10.07,10.07,0,0,1,10-10h5a10.07,10.07,0,0,1,10,10Zm25,10h-15v-5h5v-25h-5v-5h10v30h5ZM344,155.26a4.78,4.78,0,0,0,3.52,1.48h5a5,5,0,0,0,5-5v-5h-5v-5h10v10a10.07,10.07,0,0,1-10,10h-5a10.07,10.07,0,0,1-10-10v-15a10.07,10.07,0,0,1,10-10h5a10.07,10.07,0,0,1,10,10h-5a5,5,0,0,0-5-5h-5a5,5,0,0,0-5,5v15A4.77,4.77,0,0,0,344,155.26Zm48.52,6.48h-5v-6.9l-3.1,3.15q-3.75,3.75-6.9,3.75a10,10,0,0,1-10-10v-5a10,10,0,0,1,10-10h15Zm30-20h-13.1a12.07,12.07,0,0,0-4.42.72c-1.22.49-1.83,1.08-1.83,1.78s.61,1.29,1.83,1.77a11.86,11.86,0,0,0,4.42.73h1.25a14,14,0,0,1,7.95,2.2c2.2,1.47,3.3,3.23,3.3,5.3s-1.1,3.83-3.3,5.3a14,14,0,0,1-7.95,2.2H397.48v-5h13.15A11.89,11.89,0,0,0,415,156c1.24-.48,1.85-1.07,1.85-1.77s-.61-1.29-1.85-1.78a12.11,12.11,0,0,0-4.4-.72h-1.25a13.93,13.93,0,0,1-8-2.2c-2.19-1.47-3.28-3.23-3.28-5.3s1.09-3.83,3.28-5.3a13.93,13.93,0,0,1,8-2.2h13.1Zm30,10a10.07,10.07,0,0,1-10,10h-10v9.95h-5V136.74h15a10.07,10.07,0,0,1,10,10Zm30,10h-5v-6.9l-3.1,3.15q-3.75,3.75-6.9,3.75a10,10,0,0,1-10-10v-5a10,10,0,0,1,10-10h15Zm25-15a5,5,0,0,0-5-5,7.21,7.21,0,0,0-5,2.5l-5,5v12.5h-5v-25h5v6.85l3.15-3.1c2.5-2.5,4.79-3.75,6.85-3.75a10,10,0,0,1,10,10Z"
          transform="translate(-18.72 -98.5)"/>
    <path class="cls-3" d="M142.48,131.74h-10v25h10a5,5,0,0,0,5-5v-15a5,5,0,0,0-5-5Z"
          transform="translate(-18.72 -98.5)"/>
    <path class="cls-3"
          d="M464,143.21a4.81,4.81,0,0,0-1.48,3.53v5a5.05,5.05,0,0,0,5,5,7.17,7.17,0,0,0,5-2.5l5-5v-7.5h-10A4.81,4.81,0,0,0,464,143.21Z"
          transform="translate(-18.72 -98.5)"/>
    <path class="cls-3" d="M262.48,141.74h-5a5,5,0,0,0-5,5h15a5,5,0,0,0-5-5Z" transform="translate(-18.72 -98.5)"/>
    <text x="-18.72" y="-98.5"/>
    <path class="cls-3" d="M624.06,242.68h-3.75a3.76,3.76,0,0,0-3.75,3.75h11.25a3.77,3.77,0,0,0-3.75-3.75Z"
          transform="translate(-18.72 -98.5)"/>
    <path class="cls-3" d="M714.06,235.18h-7.5v18.75h7.5a3.79,3.79,0,0,0,3.75-3.75V238.93a3.77,3.77,0,0,0-3.75-3.75Z"
          transform="translate(-18.72 -98.5)"/>
    <path class="cls-3" d="M556.56,242.68h-3.75a3.77,3.77,0,0,0-3.75,3.75h11.25a3.77,3.77,0,0,0-3.75-3.75Z"
          transform="translate(-18.72 -98.5)"/>
    <path class="cls-3"
          d="M775.16,243.78a3.64,3.64,0,0,0-1.1,2.65v3.75a3.77,3.77,0,0,0,3.75,3.75,5.41,5.41,0,0,0,3.75-1.88l3.75-3.75v-5.62h-7.5A3.64,3.64,0,0,0,775.16,243.78Z"
          transform="translate(-18.72 -98.5)"/>
    <path class="cls-3"
          d="M730.16,243.78a3.64,3.64,0,0,0-1.1,2.65v3.75a3.77,3.77,0,0,0,3.75,3.75,5.41,5.41,0,0,0,3.75-1.88l3.75-3.75v-5.62h-7.5A3.64,3.64,0,0,0,730.16,243.78Z"
          transform="translate(-18.72 -98.5)"/>
    <path class="cls-3" d="M534.06,242.68h-7.5v11.25h7.5a3.79,3.79,0,0,0,3.75-3.75v-3.75a3.77,3.77,0,0,0-3.75-3.75Z"
          transform="translate(-18.72 -98.5)"/>
    <path class="cls-3" d="M129.06,235.18h-7.5v7.5h7.5a3.75,3.75,0,0,0,0-7.5Z" transform="translate(-18.72 -98.5)"/>
    <polygon class="cls-3" points="305.34 147.93 316.59 147.93 310.97 136.68 305.34 147.93"/>
    <path class="cls-3"
          d="M219.06,242.68h-3.75a3.77,3.77,0,0,0-3.75,3.75v3.75a3.79,3.79,0,0,0,3.75,3.75h3.75a3.79,3.79,0,0,0,3.75-3.75v-3.75a3.77,3.77,0,0,0-3.75-3.75Z"
          transform="translate(-18.72 -98.5)"/>
    <path class="cls-3" d="M444.06,242.68h-3.75a3.77,3.77,0,0,0-3.75,3.75h11.25a3.77,3.77,0,0,0-3.75-3.75Z"
          transform="translate(-18.72 -98.5)"/>
    <path class="cls-3"
          d="M910.16,243.78a3.64,3.64,0,0,0-1.1,2.65v3.75a3.77,3.77,0,0,0,3.75,3.75,5.41,5.41,0,0,0,3.75-1.88l3.75-3.75v-5.62h-7.5A3.64,3.64,0,0,0,910.16,243.78Z"
          transform="translate(-18.72 -98.5)"/>
    <path class="cls-3"
          d="M370.17,243.78a3.61,3.61,0,0,0-1.11,2.65v3.75a3.79,3.79,0,0,0,3.75,3.75,5.41,5.41,0,0,0,3.75-1.88l3.75-3.75v-5.62h-7.5A3.6,3.6,0,0,0,370.17,243.78Z"
          transform="translate(-18.72 -98.5)"/>
    <path class="cls-3" d="M354.06,242.68h-7.5v11.25h7.5a3.79,3.79,0,0,0,3.75-3.75v-3.75a3.77,3.77,0,0,0-3.75-3.75Z"
          transform="translate(-18.72 -98.5)"/>
    <path class="cls-3" d="M286.56,242.68h-3.75a3.77,3.77,0,0,0-3.75,3.75h11.25a3.77,3.77,0,0,0-3.75-3.75Z"
          transform="translate(-18.72 -98.5)"/>
    <path class="cls-3"
          d="M1074.06,242.68h-3.75a3.76,3.76,0,0,0-3.75,3.75v3.75a3.77,3.77,0,0,0,3.75,3.75h3.75a3.79,3.79,0,0,0,3.75-3.75v-3.75a3.77,3.77,0,0,0-3.75-3.75Z"
          transform="translate(-18.72 -98.5)"/>
    <path class="cls-3"
          d="M1000.16,243.78a3.64,3.64,0,0,0-1.1,2.65v3.75a3.77,3.77,0,0,0,3.75,3.75,5.41,5.41,0,0,0,3.75-1.88l3.75-3.75v-5.62h-7.5A3.64,3.64,0,0,0,1000.16,243.78Z"
          transform="translate(-18.72 -98.5)"/>
    <path class="cls-3"
          d="M83.06,214.49v62h1082v-62ZM1048.35,232a1.91,1.91,0,0,1,2.66,0,1.88,1.88,0,1,1-3.2,1.33A1.82,1.82,0,0,1,1048.35,232Zm-90,0a1.91,1.91,0,0,1,2.66,0,1.88,1.88,0,1,1-3.2,1.33A1.82,1.82,0,0,1,958.35,232Zm-112.5,0a1.91,1.91,0,0,1,2.66,0,1.88,1.88,0,1,1-3.2,1.33A1.82,1.82,0,0,1,845.85,232Zm-711.5,12.24a7.22,7.22,0,0,1-5.29,2.22h-7.5v11.25h-3.75V231.43h11.25a7.47,7.47,0,0,1,5.29,12.78Zm24.71,13.47a7.19,7.19,0,0,1-2.21,5.27,7.27,7.27,0,0,1-5.29,2.19h-7.5v-3.75h7.5a3.59,3.59,0,0,0,2.64-1.11,3.53,3.53,0,0,0,1.11-2.6h-7.5a7.56,7.56,0,0,1-7.5-7.5V238.93h3.75v11.25a3.79,3.79,0,0,0,3.75,3.75h7.5v-15h3.75Zm22.5,0h-3.75a7.56,7.56,0,0,1-7.5-7.5v-7.5h-3.75v-3.75h3.75v-7.5h3.75v7.5h3.75v3.75h-3.75v7.5a3.79,3.79,0,0,0,3.75,3.75h3.75Zm22.5,0h-3.75V246.43a3.77,3.77,0,0,0-3.75-3.75h-7.5v15h-3.75V231.43h3.75v7.5h7.5a7.55,7.55,0,0,1,7.5,7.5Zm22.5-7.5a7.56,7.56,0,0,1-7.5,7.5h-3.75a7.56,7.56,0,0,1-7.5-7.5v-3.75a7.55,7.55,0,0,1,7.5-7.5h3.75a7.55,7.55,0,0,1,7.5,7.5Zm22.5,7.5h-3.75V246.43a3.77,3.77,0,0,0-3.75-3.75,5.39,5.39,0,0,0-3.75,1.87l-3.75,3.75v9.38h-3.75V238.93h3.75v5.13l2.36-2.32c1.88-1.88,3.59-2.81,5.14-2.81a7.48,7.48,0,0,1,7.5,7.5Zm45-7.5h-15a3.79,3.79,0,0,0,3.75,3.75h11.25v3.75H282.81a7.56,7.56,0,0,1-7.5-7.5v-3.75a7.55,7.55,0,0,1,7.5-7.5h3.75a7.55,7.55,0,0,1,7.5,7.5Zm45,7.5h-3.75v-7.5H324.06v7.5h-3.75V245.49l7.05-14.06h4.69l7,14.06Zm22.5-7.5a7.56,7.56,0,0,1-7.5,7.5h-7.5v7.46h-3.75V238.93h11.25a7.55,7.55,0,0,1,7.5,7.5Zm22.5,7.5h-3.75V252.5L378,254.86c-1.87,1.88-3.6,2.82-5.17,2.82a7.49,7.49,0,0,1-7.5-7.5v-3.75a7.48,7.48,0,0,1,7.5-7.5h11.25Zm8.61-4.86a3.57,3.57,0,0,0,2.64,1.11h11.25v3.75H395.31a7.56,7.56,0,0,1-7.5-7.5v-3.75a7.55,7.55,0,0,1,7.5-7.5h3.75a7.55,7.55,0,0,1,7.5,7.5h-3.75a3.77,3.77,0,0,0-3.75-3.75h-3.75a3.77,3.77,0,0,0-3.75,3.75v3.75A3.61,3.61,0,0,0,392.67,252.82Zm36.39,4.86h-3.75V246.43a3.77,3.77,0,0,0-3.75-3.75h-7.5v15h-3.75V231.43h3.75v7.5h7.5a7.55,7.55,0,0,1,7.5,7.5Zm22.5-7.5h-15a3.79,3.79,0,0,0,3.75,3.75h11.25v3.75H440.31a7.56,7.56,0,0,1-7.5-7.5v-3.75a7.55,7.55,0,0,1,7.5-7.5h3.75a7.55,7.55,0,0,1,7.5,7.5Zm31.11-8.61a3.57,3.57,0,0,0,2.64,1.11h3.75a7.5,7.5,0,0,1,0,15h-3.75a7.53,7.53,0,0,1-7.5-7.5h3.75a3.79,3.79,0,0,0,3.75,3.75h3.75a3.75,3.75,0,0,0,0-7.5h-3.75a7.5,7.5,0,0,1,0-15h3.75a7.55,7.55,0,0,1,7.5,7.5h-3.75a3.77,3.77,0,0,0-3.75-3.75h-3.75a3.73,3.73,0,0,0-2.64,6.39Zm36.39,16.11h-3.75V252.5L513,254.86c-1.87,1.88-3.6,2.82-5.17,2.82a7.49,7.49,0,0,1-7.5-7.5V238.93h3.75v11.25a3.79,3.79,0,0,0,3.75,3.75,5.41,5.41,0,0,0,3.75-1.88l3.75-3.75v-9.37h3.75Zm22.5-7.5a7.56,7.56,0,0,1-7.5,7.5h-7.5v7.46h-3.75V238.93h11.25a7.55,7.55,0,0,1,7.5,7.5Zm22.5,0h-15a3.79,3.79,0,0,0,3.75,3.75h11.25v3.75H552.81a7.56,7.56,0,0,1-7.5-7.5v-3.75a7.55,7.55,0,0,1,7.5-7.5h3.75a7.55,7.55,0,0,1,7.5,7.5Zm18.75-3.75a3.77,3.77,0,0,0-3.75-3.75,5.39,5.39,0,0,0-3.75,1.87l-3.75,3.75v9.38h-3.75V238.93h3.75v5.13l2.36-2.32c1.88-1.88,3.59-2.81,5.14-2.81a7.48,7.48,0,0,1,7.5,7.5Zm26.25-3.75h-9.83a9.09,9.09,0,0,0-3.32.54c-.91.36-1.36.81-1.36,1.33s.45,1,1.36,1.33a8.88,8.88,0,0,0,3.32.55h.94a10.48,10.48,0,0,1,6,1.65,4.43,4.43,0,0,1,0,7.95,10.48,10.48,0,0,1-6,1.65h-9.86v-3.75h9.86a8.84,8.84,0,0,0,3.3-.55c.93-.36,1.39-.8,1.39-1.33s-.46-1-1.39-1.33a9.05,9.05,0,0,0-3.3-.54h-.94a10.48,10.48,0,0,1-6-1.65,4.45,4.45,0,0,1,0-7.95,10.48,10.48,0,0,1,6-1.65h9.83Zm22.5,7.5h-15a3.77,3.77,0,0,0,3.75,3.75h11.25v3.75H620.31a7.56,7.56,0,0,1-7.5-7.5v-3.75a7.55,7.55,0,0,1,7.5-7.5h3.75a7.55,7.55,0,0,1,7.5,7.5Zm22.5,7.5h-3.75a7.56,7.56,0,0,1-7.5-7.5v-7.5h-3.75v-3.75h3.75v-7.5h3.75v7.5h3.75v3.75h-3.75v7.5a3.77,3.77,0,0,0,3.75,3.75h3.75Zm42,1.83-2.59,2.59-9.37-9.34V236.34l9.37-9.38,2.59,2.59-8.21,8.21v13.58Zm25.54-9.33a7.56,7.56,0,0,1-7.5,7.5H702.81V231.43h11.25a7.55,7.55,0,0,1,7.5,7.5Zm22.5,7.5h-3.75V252.5L738,254.86c-1.87,1.88-3.6,2.82-5.17,2.82a7.49,7.49,0,0,1-7.5-7.5v-3.75a7.48,7.48,0,0,1,7.5-7.5h11.25Zm22.5,0h-3.75a7.56,7.56,0,0,1-7.5-7.5v-7.5h-3.75v-3.75h3.75v-7.5h3.75v7.5h3.75v3.75h-3.75v7.5a3.77,3.77,0,0,0,3.75,3.75h3.75Zm22.5,0h-3.75V252.5L783,254.86c-1.87,1.88-3.6,2.82-5.17,2.82a7.49,7.49,0,0,1-7.5-7.5v-3.75a7.48,7.48,0,0,1,7.5-7.5h11.25Zm45-18.75-9.38,18.75-9.37-18.75v-7.5h3.75v6.63l5.62,11.18L830.31,238v-6.56h3.75Zm18.75,18.75H841.56v-3.75h3.75V242.68h-3.75v-3.75h7.5v15h3.75Zm26.25-15h-9.83a9.09,9.09,0,0,0-3.32.54c-.91.36-1.36.81-1.36,1.33s.45,1,1.36,1.33a8.88,8.88,0,0,0,3.32.55h.94a10.48,10.48,0,0,1,6,1.65,4.43,4.43,0,0,1,0,7.95,10.48,10.48,0,0,1-6,1.65h-9.86v-3.75h9.86a8.84,8.84,0,0,0,3.3-.55c.93-.36,1.39-.8,1.39-1.33s-.46-1-1.39-1.33a9.05,9.05,0,0,0-3.3-.54h-.94a10.48,10.48,0,0,1-6-1.65,4.45,4.45,0,0,1,0-7.95,10.48,10.48,0,0,1,6-1.65h9.83Zm22.5,15h-3.75V252.5l-2.33,2.36c-1.87,1.88-3.6,2.82-5.17,2.82a7.49,7.49,0,0,1-7.5-7.5V238.93h3.75v11.25a3.77,3.77,0,0,0,3.75,3.75,5.41,5.41,0,0,0,3.75-1.88l3.75-3.75v-9.37h3.75Zm22.5,0h-3.75V252.5L918,254.86c-1.87,1.88-3.6,2.82-5.17,2.82a7.49,7.49,0,0,1-7.5-7.5v-3.75a7.48,7.48,0,0,1,7.5-7.5h11.25Zm18.75,0H931.56v-3.75h3.75V235.18h-3.75v-3.75h7.5v22.5h3.75Zm22.5,0H954.06v-3.75h3.75V242.68h-3.75v-3.75h7.5v15h3.75Zm26.25-16.17-12.41,12.42h12.41v3.75H972.81v-2.59l12.41-12.41H972.81v-3.75h18.75Zm22.5,16.17h-3.75V252.5l-2.33,2.36c-1.87,1.88-3.6,2.82-5.17,2.82a7.49,7.49,0,0,1-7.5-7.5v-3.75a7.48,7.48,0,0,1,7.5-7.5h11.25Zm22.5,0h-3.75a7.56,7.56,0,0,1-7.5-7.5v-7.5h-3.75v-3.75h3.75v-7.5h3.75v7.5h3.75v3.75h-3.75v7.5a3.77,3.77,0,0,0,3.75,3.75h3.75Zm18.75,0h-11.25v-3.75h3.75V242.68h-3.75v-3.75h7.5v15h3.75Zm26.25-7.5a7.56,7.56,0,0,1-7.5,7.5h-3.75a7.56,7.56,0,0,1-7.5-7.5v-3.75a7.55,7.55,0,0,1,7.5-7.5h3.75a7.55,7.55,0,0,1,7.5,7.5Zm22.5,7.5h-3.75V246.43a3.77,3.77,0,0,0-3.75-3.75,5.39,5.39,0,0,0-3.75,1.87l-3.75,3.75v9.38h-3.75V238.93h3.75v5.13l2.36-2.32c1.88-1.88,3.59-2.81,5.14-2.81a7.48,7.48,0,0,1,7.5,7.5Zm18.75-4.92-9.38,9.34-2.58-2.59,8.21-8.17V237.76l-8.21-8.21,2.58-2.59,9.38,9.38Z"
          transform="translate(-18.72 -98.5)"/>
    <path class="cls-3"
          d="M74.31,1328.22v-32h8.46a11.62,11.62,0,0,1,8.93,3.56q3.33,3.56,3.39,9.75v5.19q0,6.3-3.33,9.9t-9.17,3.59Zm6.46-26.61v21.25H82.7q3.22,0,4.55-1.71t1.38-5.87v-5.56c0-3-.41-5.07-1.25-6.25s-2.26-1.8-4.26-1.86Z"
          transform="translate(-18.72 -98.5)"/>
    <path class="cls-3"
          d="M110.72,1328.22a8.12,8.12,0,0,1-.53-1.85,5.31,5.31,0,0,1-4.53,2.29,6.68,6.68,0,0,1-5-2,7,7,0,0,1-2-5.12,7.19,7.19,0,0,1,2.38-5.78c1.59-1.36,3.88-2.06,6.87-2.08h1.89v-1.92a3.55,3.55,0,0,0-.55-2.26,2,2,0,0,0-1.6-.66c-1.56,0-2.33.91-2.33,2.73H99.18a6.88,6.88,0,0,1,2.47-5.44,9.2,9.2,0,0,1,6.25-2.15,8.45,8.45,0,0,1,6.06,2,7.65,7.65,0,0,1,2.14,5.81V1323a11.71,11.71,0,0,0,.88,4.82v.37Zm-3.67-4.44a3.44,3.44,0,0,0,1.75-.42,2.9,2.9,0,0,0,1.08-1v-4.94h-1.49a3.21,3.21,0,0,0-2.5,1,3.89,3.89,0,0,0-.91,2.7Q105,1323.78,107.05,1323.78Z"
          transform="translate(-18.72 -98.5)"/>
    <path class="cls-3"
          d="M126.29,1304.44l.18,2.35A6.62,6.62,0,0,1,132,1304q6.14,0,6.31,8.6v15.62h-6.24v-15.16a5.52,5.52,0,0,0-.6-2.94,2.38,2.38,0,0,0-2.12-.91,2.91,2.91,0,0,0-2.64,1.74v17.27h-6.24v-23.78Z"
          transform="translate(-18.72 -98.5)"/>
    <path class="cls-3"
          d="M142.75,1298.29a3.23,3.23,0,0,1,.92-2.37,3.76,3.76,0,0,1,4.93,0,3.23,3.23,0,0,1,.92,2.37,3.39,3.39,0,1,1-6.77,0Zm6.53,29.93H143v-23.78h6.24Z"
          transform="translate(-18.72 -98.5)"/>
    <path class="cls-3"
          d="M163.69,1328.66a9.74,9.74,0,0,1-7.47-2.86c-1.79-1.9-2.68-4.63-2.68-8.17v-1.89q0-5.62,2.46-8.68a8.52,8.52,0,0,1,7.05-3.06q4.48,0,6.75,2.87c1.51,1.91,2.28,4.73,2.31,8.48v3.05H159.74a6.42,6.42,0,0,0,1.16,3.87,3.93,3.93,0,0,0,3.19,1.22,7,7,0,0,0,5.2-2.13l2.44,3.76a7.94,7.94,0,0,1-3.31,2.56A11.44,11.44,0,0,1,163.69,1328.66Zm-3.91-14.59H166v-.57a6.76,6.76,0,0,0-.7-3.23,2.46,2.46,0,0,0-2.29-1.1,2.6,2.6,0,0,0-2.36,1.16A8.06,8.06,0,0,0,159.78,1314.07Z"
          transform="translate(-18.72 -98.5)"/>
    <path class="cls-3" d="M182.15,1328.22h-6.24v-33.75h6.24Z" transform="translate(-18.72 -98.5)"/>
    <path class="cls-3"
          d="M219.39,1324.59a11.71,11.71,0,0,1-4.58,3.05,16.76,16.76,0,0,1-5.94,1q-5.52,0-8.57-3.42t-3.14-9.94v-5.76q0-6.61,2.88-10.18t8.43-3.57c3.47,0,6.09.85,7.86,2.57s2.78,4.4,3.06,8.06h-6.28c-.18-2-.6-3.42-1.28-4.16a4.07,4.07,0,0,0-3.16-1.11,4.15,4.15,0,0,0-3.8,1.91q-1.19,1.9-1.23,6.09v5.8c0,2.91.43,5,1.31,6.36a4.76,4.76,0,0,0,4.29,2,5.63,5.63,0,0,0,3.1-.77l.57-.4v-5.86h-4.53v-4.88h11Z"
          transform="translate(-18.72 -98.5)"/>
    <path class="cls-3"
          d="M235,1328.22a8.68,8.68,0,0,1-.53-1.85,5.29,5.29,0,0,1-4.52,2.29,6.69,6.69,0,0,1-5-2,7,7,0,0,1-2-5.12,7.2,7.2,0,0,1,2.39-5.78c1.59-1.36,3.88-2.06,6.86-2.08h1.89v-1.92a3.55,3.55,0,0,0-.55-2.26,2,2,0,0,0-1.6-.66c-1.55,0-2.33.91-2.33,2.73h-6.22a6.91,6.91,0,0,1,2.47-5.44,9.22,9.22,0,0,1,6.26-2.15,8.44,8.44,0,0,1,6.05,2,7.61,7.61,0,0,1,2.14,5.81V1323a11.71,11.71,0,0,0,.88,4.82v.37Zm-3.67-4.44a3.47,3.47,0,0,0,1.76-.42,3,3,0,0,0,1.07-1v-4.94h-1.49a3.17,3.17,0,0,0-2.49,1,3.89,3.89,0,0,0-.92,2.7Q229.21,1323.78,231.28,1323.78Z"
          transform="translate(-18.72 -98.5)"/>
    <path class="cls-3"
          d="M255.36,1321.85a1.91,1.91,0,0,0-.76-1.46,14.61,14.61,0,0,0-3.37-1.82,14,14,0,0,1-5.28-3.23,6.11,6.11,0,0,1-1.44-4.15,6.63,6.63,0,0,1,2.25-5.15,8.54,8.54,0,0,1,6-2,9.29,9.29,0,0,1,6.27,2,6.79,6.79,0,0,1,2.35,5.42h-6.22c0-1.93-.81-2.9-2.42-2.9a2.17,2.17,0,0,0-2.26,2.33,1.79,1.79,0,0,0,.7,1.4,15.47,15.47,0,0,0,3.32,1.72,13.72,13.72,0,0,1,5.37,3.13,6.38,6.38,0,0,1,1.57,4.48,6.21,6.21,0,0,1-2.39,5.11,9.7,9.7,0,0,1-6.29,1.94,10,10,0,0,1-4.61-1,7.71,7.71,0,0,1-3.13-2.85,7.27,7.27,0,0,1-1.13-3.93h5.91a3.78,3.78,0,0,0,.76,2.44,3,3,0,0,0,2.34.81C254.53,1324.11,255.36,1323.36,255.36,1321.85Z"
          transform="translate(-18.72 -98.5)"/>
    <path class="cls-3"
          d="M283.79,1317.08c0,3.73-.64,6.6-1.92,8.59a6.36,6.36,0,0,1-5.72,3,5.52,5.52,0,0,1-4.66-2.35v11h-6.22v-32.92H271l.22,2.18a5.57,5.57,0,0,1,4.85-2.62,6.53,6.53,0,0,1,5.73,2.77q1.92,2.77,2,8.48Zm-6.19-1.56a11.3,11.3,0,0,0-.76-4.88,2.67,2.67,0,0,0-2.56-1.43,3,3,0,0,0-2.79,1.61V1322a3,3,0,0,0,2.83,1.53,2.57,2.57,0,0,0,2.56-1.56,12.21,12.21,0,0,0,.72-4.85Z"
          transform="translate(-18.72 -98.5)"/>
    <path class="cls-3"
          d="M298.85,1328.22a8.12,8.12,0,0,1-.53-1.85,5.31,5.31,0,0,1-4.53,2.29,6.68,6.68,0,0,1-5-2,7,7,0,0,1-2-5.12,7.19,7.19,0,0,1,2.38-5.78c1.59-1.36,3.88-2.06,6.87-2.08H298v-1.92a3.55,3.55,0,0,0-.55-2.26,2,2,0,0,0-1.6-.66c-1.56,0-2.33.91-2.33,2.73h-6.22a6.88,6.88,0,0,1,2.47-5.44A9.2,9.2,0,0,1,296,1304a8.45,8.45,0,0,1,6.06,2,7.65,7.65,0,0,1,2.14,5.81V1323a11.71,11.71,0,0,0,.88,4.82v.37Zm-3.67-4.44a3.44,3.44,0,0,0,1.75-.42,2.9,2.9,0,0,0,1.08-1v-4.94h-1.49a3.21,3.21,0,0,0-2.5,1,3.89,3.89,0,0,0-.91,2.7Q293.11,1323.78,295.18,1323.78Z"
          transform="translate(-18.72 -98.5)"/>
    <path class="cls-3"
          d="M320.47,1310.44l-2.07-.17a3.38,3.38,0,0,0-3.45,2.24v15.71h-6.24v-23.78h5.87l.17,2.58q1.47-3,4.07-3a4.35,4.35,0,0,1,1.71.29Z"
          transform="translate(-18.72 -98.5)"/>
    <path class="cls-3"
          d="M343.63,1328.66a9.74,9.74,0,0,1-7.48-2.86c-1.78-1.9-2.68-4.63-2.68-8.17v-1.89q0-5.62,2.47-8.68A8.52,8.52,0,0,1,343,1304q4.49,0,6.74,2.87c1.51,1.91,2.28,4.73,2.31,8.48v3.05H339.67a6.56,6.56,0,0,0,1.16,3.87,3.94,3.94,0,0,0,3.19,1.22,7,7,0,0,0,5.21-2.13l2.44,3.76a8,8,0,0,1-3.32,2.56A11.43,11.43,0,0,1,343.63,1328.66Zm-.22-34.19h7l-6.11,6.81H339.1Zm-3.7,19.6h6.22v-.57a6.65,6.65,0,0,0-.7-3.23,2.45,2.45,0,0,0-2.29-1.1,2.6,2.6,0,0,0-2.36,1.16A8.06,8.06,0,0,0,339.71,1314.07Z"
          transform="translate(-18.72 -98.5)"/>
    <path class="cls-3" d="M382.76,1314.38H372.7v8.48h11.9v5.36H366.24v-32h18.32v5.38H372.7v7.56h10.06Z"
          transform="translate(-18.72 -98.5)"/>
    <path class="cls-3"
          d="M393.7,1304.44l.18,2.35a6.6,6.6,0,0,1,5.51-2.79q6.14,0,6.31,8.6v15.62h-6.24v-15.16a5.42,5.42,0,0,0-.61-2.94,2.37,2.37,0,0,0-2.12-.91,2.9,2.9,0,0,0-2.63,1.74v17.27h-6.24v-23.78Z"
          transform="translate(-18.72 -98.5)"/>
    <path class="cls-3"
          d="M409.41,1315.61q0-5.85,2.11-8.73a6.91,6.91,0,0,1,5.91-2.88,5.71,5.71,0,0,1,5,2.55l.24-2.11h5.6v23.78q0,4.54-2.54,7t-7.32,2.41a12.06,12.06,0,0,1-4.11-.78,7.53,7.53,0,0,1-3.21-2l2.09-4.31a6.53,6.53,0,0,0,2.28,1.51,7,7,0,0,0,2.66.58,3.89,3.89,0,0,0,3-1,4.79,4.79,0,0,0,.94-3.22v-2a5.59,5.59,0,0,1-4.64,2.33,6.78,6.78,0,0,1-5.88-3q-2.07-3-2.12-8.34Zm6.22,1.56a10.18,10.18,0,0,0,.86,4.8,2.91,2.91,0,0,0,2.72,1.5,3.18,3.18,0,0,0,2.84-1.38v-11.36a3.13,3.13,0,0,0-2.79-1.52,3,3,0,0,0-2.74,1.52,10.11,10.11,0,0,0-.89,4.88Z"
          transform="translate(-18.72 -98.5)"/>
    <path class="cls-3"
          d="M442.39,1328.66a9.74,9.74,0,0,1-7.47-2.86c-1.79-1.9-2.68-4.63-2.68-8.17v-1.89q0-5.62,2.46-8.68a8.53,8.53,0,0,1,7.06-3.06q4.47,0,6.74,2.87c1.51,1.91,2.28,4.73,2.31,8.48v3.05H438.44a6.49,6.49,0,0,0,1.16,3.87,3.93,3.93,0,0,0,3.19,1.22,7,7,0,0,0,5.21-2.13l2.43,3.76a7.94,7.94,0,0,1-3.31,2.56A11.44,11.44,0,0,1,442.39,1328.66Zm-3.91-14.59h6.22v-.57a6.65,6.65,0,0,0-.7-3.23,2.45,2.45,0,0,0-2.29-1.1,2.6,2.6,0,0,0-2.36,1.16A8.06,8.06,0,0,0,438.48,1314.07Z"
          transform="translate(-18.72 -98.5)"/>
    <path class="cls-3"
          d="M460,1304.44l.18,2.35a6.64,6.64,0,0,1,5.52-2.79q6.12,0,6.3,8.6v15.62h-6.24v-15.16a5.52,5.52,0,0,0-.6-2.94,2.38,2.38,0,0,0-2.12-.91,2.91,2.91,0,0,0-2.64,1.74v17.27h-6.24v-23.78Z"
          transform="translate(-18.72 -98.5)"/>
    <path class="cls-3"
          d="M482.54,1306.53a6.14,6.14,0,0,1,5-2.53,5.79,5.79,0,0,1,4.95,2.29c1.12,1.52,1.7,3.79,1.71,6.81v15.12h-6.24v-15a5.44,5.44,0,0,0-.65-3,2.36,2.36,0,0,0-2.1-.94,2.94,2.94,0,0,0-2.63,1.56v17.45h-6.22v-33.75h6.22Z"
          transform="translate(-18.72 -98.5)"/>
    <path class="cls-3"
          d="M508.22,1328.66a9.74,9.74,0,0,1-7.47-2.86c-1.79-1.9-2.68-4.63-2.68-8.17v-1.89q0-5.62,2.46-8.68a8.53,8.53,0,0,1,7.06-3.06q4.47,0,6.74,2.87c1.51,1.91,2.28,4.73,2.31,8.48v3.05H504.27a6.49,6.49,0,0,0,1.16,3.87,3.93,3.93,0,0,0,3.19,1.22,7,7,0,0,0,5.21-2.13l2.43,3.76a7.94,7.94,0,0,1-3.31,2.56A11.44,11.44,0,0,1,508.22,1328.66Zm-3.91-14.59h6.22v-.57a6.65,6.65,0,0,0-.7-3.23,2.45,2.45,0,0,0-2.29-1.1,2.6,2.6,0,0,0-2.36,1.16A8.06,8.06,0,0,0,504.31,1314.07Z"
          transform="translate(-18.72 -98.5)"/>
    <path class="cls-3"
          d="M520.15,1298.29a3.19,3.19,0,0,1,.93-2.37,3.75,3.75,0,0,1,4.92,0,3.23,3.23,0,0,1,.92,2.37,3.39,3.39,0,1,1-6.77,0Zm6.53,29.93h-6.24v-23.78h6.24Z"
          transform="translate(-18.72 -98.5)"/>
    <path class="cls-3"
          d="M543.23,1310.44l-2.07-.17a3.38,3.38,0,0,0-3.45,2.24v15.71h-6.24v-23.78h5.87l.17,2.58q1.47-3,4.07-3a4.35,4.35,0,0,1,1.71.29Z"
          transform="translate(-18.72 -98.5)"/>
    <path class="cls-3"
          d="M544.9,1315.56q0-5.4,2.54-8.48a9.67,9.67,0,0,1,14.15,0q2.55,3.08,2.55,8.53v1.51q0,5.43-2.52,8.48a9.74,9.74,0,0,1-14.19,0q-2.53-3.06-2.53-8.51Zm6.24,1.56q0,6.38,3.4,6.37c2.1,0,3.22-1.77,3.39-5.31l0-2.62a10,10,0,0,0-.9-4.82,2.8,2.8,0,0,0-2.55-1.57,2.72,2.72,0,0,0-2.47,1.57,10,10,0,0,0-.89,4.82Z"
          transform="translate(-18.72 -98.5)"/>
    <path class="cls-3"
          d="M577.55,1315.61q0-5.85,2-8.73a6.55,6.55,0,0,1,5.76-2.88,5.57,5.57,0,0,1,4.57,2.38v-11.91h6.26v33.75h-5.64l-.29-2.42a5.71,5.71,0,0,1-4.92,2.86,6.48,6.48,0,0,1-5.7-2.86q-2-2.85-2-8.39Zm6.24,1.56a11.5,11.5,0,0,0,.74,4.91,2.63,2.63,0,0,0,2.53,1.39,3,3,0,0,0,2.79-1.65V1311a3,3,0,0,0-2.77-1.76,2.66,2.66,0,0,0-2.5,1.39,10.72,10.72,0,0,0-.79,4.92Z"
          transform="translate(-18.72 -98.5)"/>
    <path class="cls-3"
          d="M610.29,1328.66a9.71,9.71,0,0,1-7.47-2.86c-1.79-1.9-2.69-4.63-2.69-8.17v-1.89c0-3.75.83-6.64,2.47-8.68a8.52,8.52,0,0,1,7-3.06q4.49,0,6.74,2.87c1.51,1.91,2.28,4.73,2.31,8.48v3.05H606.33a6.49,6.49,0,0,0,1.17,3.87,3.91,3.91,0,0,0,3.18,1.22,7,7,0,0,0,5.21-2.13l2.44,3.76a8,8,0,0,1-3.32,2.56A11.4,11.4,0,0,1,610.29,1328.66Zm-3.91-14.59h6.21v-.57a6.65,6.65,0,0,0-.7-3.23,2.45,2.45,0,0,0-2.29-1.1,2.6,2.6,0,0,0-2.36,1.16A8,8,0,0,0,606.38,1314.07Z"
          transform="translate(-18.72 -98.5)"/>
    <path class="cls-3"
          d="M646.41,1319.83a4,4,0,0,0-1-3,11.52,11.52,0,0,0-3.64-2.08,17,17,0,0,1-6.92-4.27,8.61,8.61,0,0,1-2.11-5.79,8.12,8.12,0,0,1,2.87-6.49,10.78,10.78,0,0,1,7.28-2.45,10.9,10.9,0,0,1,5.26,1.24,8.59,8.59,0,0,1,3.54,3.5,10.51,10.51,0,0,1,1.24,5.14H646.5a5.27,5.27,0,0,0-1-3.41,3.34,3.34,0,0,0-2.76-1.18,3.47,3.47,0,0,0-2.63,1,3.78,3.78,0,0,0-.95,2.69,3.3,3.3,0,0,0,1.06,2.39,12.31,12.31,0,0,0,3.73,2.21,15.91,15.91,0,0,1,6.8,4.15,9.22,9.22,0,0,1,2.12,6.26,8.25,8.25,0,0,1-2.66,6.53,10.49,10.49,0,0,1-7.22,2.35,12.45,12.45,0,0,1-5.65-1.28,9.56,9.56,0,0,1-4-3.64,10.62,10.62,0,0,1-1.44-5.61h6.48a6.08,6.08,0,0,0,1.08,4,4.4,4.4,0,0,0,3.52,1.26C645.28,1323.41,646.41,1322.21,646.41,1319.83Z"
          transform="translate(-18.72 -98.5)"/>
    <path class="cls-3"
          d="M656.17,1315.56c0-3.6.84-6.43,2.54-8.48a9.67,9.67,0,0,1,14.15,0q2.55,3.08,2.55,8.53v1.51q0,5.43-2.52,8.48a9.74,9.74,0,0,1-14.19,0q-2.54-3.06-2.53-8.51Zm6.24,1.56q0,6.38,3.4,6.37c2.1,0,3.22-1.77,3.39-5.31l0-2.62a10,10,0,0,0-.9-4.82,2.81,2.81,0,0,0-2.55-1.57,2.74,2.74,0,0,0-2.48,1.57,10.15,10.15,0,0,0-.88,4.82Z"
          transform="translate(-18.72 -98.5)"/>
    <path class="cls-3"
          d="M680.71,1328.22V1309.1h-2.88v-4.66h2.88v-2.13a8.69,8.69,0,0,1,2.07-6.12,7.45,7.45,0,0,1,5.68-2.18,11.52,11.52,0,0,1,2.82.44l0,5a5.16,5.16,0,0,0-1.51-.2q-2.78,0-2.77,3.3v1.93h3.71v4.66H687v19.12Z"
          transform="translate(-18.72 -98.5)"/>
    <path class="cls-3"
          d="M701.25,1298.6v5.84h3.19v4.66h-3.19v11.82a3.47,3.47,0,0,0,.39,1.94,1.73,1.73,0,0,0,1.48.52,5.93,5.93,0,0,0,1.47-.15l0,4.83a9.62,9.62,0,0,1-3.43.6q-6,0-6.09-6.91V1309.1h-2.74v-4.66H695v-5.84Z"
          transform="translate(-18.72 -98.5)"/>
    <path class="cls-3"
          d="M725.16,1317.78l2.13-13.34h6l-4.93,23.78h-5.16l-3.36-13.76-3.36,13.76h-5.19l-4.92-23.78h6l2.11,13.36,3.17-13.36H722Z"
          transform="translate(-18.72 -98.5)"/>
    <path class="cls-3"
          d="M747.61,1328.22a8.8,8.8,0,0,1-.52-1.85,5.32,5.32,0,0,1-4.53,2.29,6.68,6.68,0,0,1-4.95-2,6.91,6.91,0,0,1-2-5.12,7.19,7.19,0,0,1,2.38-5.78c1.59-1.36,3.88-2.06,6.87-2.08h1.89v-1.92a3.55,3.55,0,0,0-.55-2.26,2,2,0,0,0-1.6-.66c-1.56,0-2.33.91-2.33,2.73h-6.22a6.88,6.88,0,0,1,2.47-5.44,9.2,9.2,0,0,1,6.25-2.15,8.45,8.45,0,0,1,6.06,2,7.65,7.65,0,0,1,2.14,5.81V1323a11.71,11.71,0,0,0,.88,4.82v.37Zm-3.66-4.44a3.44,3.44,0,0,0,1.75-.42,3,3,0,0,0,1.08-1v-4.94h-1.49a3.21,3.21,0,0,0-2.5,1,3.89,3.89,0,0,0-.91,2.7Q741.88,1323.78,744,1323.78Z"
          transform="translate(-18.72 -98.5)"/>
    <path class="cls-3"
          d="M769.24,1310.44l-2.07-.17a3.38,3.38,0,0,0-3.45,2.24v15.71h-6.24v-23.78h5.87l.17,2.58q1.47-3,4.07-3a4.35,4.35,0,0,1,1.71.29Z"
          transform="translate(-18.72 -98.5)"/>
    <path class="cls-3"
          d="M781.61,1328.66a9.71,9.71,0,0,1-7.47-2.86c-1.79-1.9-2.68-4.63-2.68-8.17v-1.89q0-5.62,2.46-8.68A8.52,8.52,0,0,1,781,1304q4.49,0,6.74,2.87c1.51,1.91,2.28,4.73,2.31,8.48v3.05H777.65a6.49,6.49,0,0,0,1.17,3.87,3.91,3.91,0,0,0,3.18,1.22,7,7,0,0,0,5.21-2.13l2.44,3.76a8,8,0,0,1-3.32,2.56A11.4,11.4,0,0,1,781.61,1328.66Zm-3.91-14.59h6.21v-.57a6.65,6.65,0,0,0-.7-3.23,2.45,2.45,0,0,0-2.29-1.1,2.6,2.6,0,0,0-2.36,1.16A8,8,0,0,0,777.7,1314.07Z"
          transform="translate(-18.72 -98.5)"/>
    <path class="cls-3"
          d="M813.51,1328.66a9.74,9.74,0,0,1-7.47-2.86c-1.79-1.9-2.68-4.63-2.68-8.17v-1.89q0-5.62,2.46-8.68a8.52,8.52,0,0,1,7-3.06q4.49,0,6.75,2.87c1.51,1.91,2.28,4.73,2.31,8.48v3.05H809.56a6.42,6.42,0,0,0,1.16,3.87,3.93,3.93,0,0,0,3.19,1.22,7,7,0,0,0,5.2-2.13l2.44,3.76a8,8,0,0,1-3.31,2.56A11.48,11.48,0,0,1,813.51,1328.66Zm-3.91-14.59h6.22v-.57a6.63,6.63,0,0,0-.71-3.23,2.45,2.45,0,0,0-2.28-1.1,2.6,2.6,0,0,0-2.36,1.16A8.06,8.06,0,0,0,809.6,1314.07Z"
          transform="translate(-18.72 -98.5)"/>
    <path class="cls-3"
          d="M841.66,1304.44l.17,2.2a6.69,6.69,0,0,1,5.52-2.64,5.13,5.13,0,0,1,5,3.21,6.51,6.51,0,0,1,5.82-3.21q6.24,0,6.4,8.64v15.58h-6.22V1313a5.68,5.68,0,0,0-.57-3,2.15,2.15,0,0,0-1.94-.88c-1.15,0-2,.71-2.59,2.13l.05.75v16.13h-6.22v-15.14a6.08,6.08,0,0,0-.55-3,2.12,2.12,0,0,0-2-.91,2.85,2.85,0,0,0-2.55,1.74v17.27h-6.22v-23.78Z"
          transform="translate(-18.72 -98.5)"/>
    <path class="cls-3"
          d="M878.79,1328.66a9.74,9.74,0,0,1-7.47-2.86c-1.79-1.9-2.68-4.63-2.68-8.17v-1.89q0-5.62,2.46-8.68a8.53,8.53,0,0,1,7.06-3.06q4.47,0,6.74,2.87c1.51,1.91,2.28,4.73,2.31,8.48v3.05H874.84a6.42,6.42,0,0,0,1.16,3.87,3.93,3.93,0,0,0,3.19,1.22,7,7,0,0,0,5.21-2.13l2.43,3.76a7.94,7.94,0,0,1-3.31,2.56A11.44,11.44,0,0,1,878.79,1328.66Zm-3.91-14.59h6.22v-.57a6.76,6.76,0,0,0-.7-3.23,2.46,2.46,0,0,0-2.29-1.1,2.6,2.6,0,0,0-2.36,1.16A8.06,8.06,0,0,0,874.88,1314.07Z"
          transform="translate(-18.72 -98.5)"/>
    <path class="cls-3"
          d="M896.57,1304.44l.17,2.2a6.69,6.69,0,0,1,5.52-2.64,5.13,5.13,0,0,1,5,3.21,6.51,6.51,0,0,1,5.82-3.21q6.24,0,6.4,8.64v15.58h-6.22V1313a5.68,5.68,0,0,0-.57-3,2.15,2.15,0,0,0-1.94-.88c-1.15,0-2,.71-2.59,2.13l0,.75v16.13H902v-15.14a6.08,6.08,0,0,0-.55-3,2.12,2.12,0,0,0-2-.91A2.85,2.85,0,0,0,897,1311v17.27h-6.21v-23.78Z"
          transform="translate(-18.72 -98.5)"/>
    <path class="cls-3"
          d="M942.65,1317.1q0,5.78-1.85,8.67a6.37,6.37,0,0,1-5.8,2.89,5.73,5.73,0,0,1-5-2.79l-.2,2.35H924.1v-33.75h6.22v11.91A5.51,5.51,0,0,1,935,1304a6.4,6.4,0,0,1,5.8,2.87c1.24,1.91,1.87,4.72,1.9,8.41Zm-6.22-1.56c0-2.5-.25-4.19-.73-5a2.65,2.65,0,0,0-2.53-1.29,3,3,0,0,0-2.85,1.78v10.83a3,3,0,0,0,2.9,1.67,2.62,2.62,0,0,0,2.47-1.16,10.25,10.25,0,0,0,.74-4.53Z"
          transform="translate(-18.72 -98.5)"/>
    <path class="cls-3"
          d="M958.11,1310.44l-2.06-.17a3.38,3.38,0,0,0-3.45,2.24v15.71h-6.24v-23.78h5.87l.17,2.58q1.47-3,4.07-3a4.35,4.35,0,0,1,1.71.29Z"
          transform="translate(-18.72 -98.5)"/>
    <path class="cls-3"
          d="M959.78,1315.56q0-5.4,2.55-8.48a9.67,9.67,0,0,1,14.15,0q2.55,3.08,2.55,8.53v1.51q0,5.43-2.53,8.48a9.73,9.73,0,0,1-14.18,0q-2.54-3.06-2.54-8.51Zm6.24,1.56q0,6.38,3.41,6.37,3.14,0,3.38-5.31l0-2.62a10,10,0,0,0-.9-4.82,2.8,2.8,0,0,0-2.54-1.57,2.74,2.74,0,0,0-2.48,1.57,10.14,10.14,0,0,0-.89,4.82Z"
          transform="translate(-18.72 -98.5)"/>
    <path class="cls-3"
          d="M73.16,1369.61q0-5.85,2-8.73A6.55,6.55,0,0,1,80.9,1358a5.57,5.57,0,0,1,4.57,2.38v-11.91h6.26v33.75H86.08l-.28-2.42a5.73,5.73,0,0,1-4.92,2.86,6.51,6.51,0,0,1-5.71-2.86q-2-2.85-2-8.39Zm6.24,1.56a11.31,11.31,0,0,0,.75,4.91,2.63,2.63,0,0,0,2.53,1.39,3,3,0,0,0,2.79-1.65V1365a3,3,0,0,0-2.77-1.76,2.66,2.66,0,0,0-2.5,1.39,10.69,10.69,0,0,0-.8,4.92Z"
          transform="translate(-18.72 -98.5)"/>
    <path class="cls-3"
          d="M107.6,1382.22a8.12,8.12,0,0,1-.53-1.85,5.31,5.31,0,0,1-4.53,2.29,6.68,6.68,0,0,1-5-2,7,7,0,0,1-2-5.12,7.19,7.19,0,0,1,2.38-5.78c1.59-1.36,3.88-2.06,6.87-2.08h1.89v-1.92a3.55,3.55,0,0,0-.55-2.26,2,2,0,0,0-1.6-.66c-1.56,0-2.33.91-2.33,2.73H96.06a6.88,6.88,0,0,1,2.47-5.44,9.2,9.2,0,0,1,6.25-2.15,8.45,8.45,0,0,1,6.06,2,7.65,7.65,0,0,1,2.14,5.81V1377a11.71,11.71,0,0,0,.88,4.82v.37Zm-3.67-4.44a3.44,3.44,0,0,0,1.75-.42,2.9,2.9,0,0,0,1.08-1v-4.94h-1.49a3.21,3.21,0,0,0-2.5,1,3.89,3.89,0,0,0-.91,2.7Q101.86,1377.78,103.93,1377.78Z"
          transform="translate(-18.72 -98.5)"/>
    <path class="cls-3" d="M143.43,1375.67h-8.81l-1.71,6.55h-6.84l10-32H142l10.07,32h-6.9Zm-7.4-5.38h6l-3-11.41Z"
          transform="translate(-18.72 -98.5)"/>
    <path class="cls-3"
          d="M172.19,1371.08c0,3.73-.64,6.6-1.92,8.59a6.36,6.36,0,0,1-5.72,3,5.52,5.52,0,0,1-4.66-2.35v11h-6.22v-32.92h5.76l.22,2.18a5.57,5.57,0,0,1,4.85-2.62,6.53,6.53,0,0,1,5.73,2.77c1.28,1.85,1.94,4.68,2,8.48Zm-6.19-1.56a11.15,11.15,0,0,0-.76-4.88,2.67,2.67,0,0,0-2.56-1.43,3,3,0,0,0-2.79,1.61V1376a3,3,0,0,0,2.83,1.53,2.56,2.56,0,0,0,2.56-1.56,12.21,12.21,0,0,0,.72-4.85Z"
          transform="translate(-18.72 -98.5)"/>
    <path class="cls-3"
          d="M187.25,1382.22a8.12,8.12,0,0,1-.53-1.85,5.3,5.3,0,0,1-4.53,2.29,6.68,6.68,0,0,1-4.95-2,7,7,0,0,1-2-5.12,7.22,7.22,0,0,1,2.38-5.78c1.59-1.36,3.88-2.06,6.87-2.08h1.89v-1.92a3.55,3.55,0,0,0-.55-2.26,2,2,0,0,0-1.6-.66c-1.55,0-2.33.91-2.33,2.73h-6.22a6.88,6.88,0,0,1,2.47-5.44,9.2,9.2,0,0,1,6.25-2.15,8.45,8.45,0,0,1,6.06,2,7.61,7.61,0,0,1,2.14,5.81V1377a11.71,11.71,0,0,0,.88,4.82v.37Zm-3.67-4.44a3.41,3.41,0,0,0,1.75-.42,2.9,2.9,0,0,0,1.08-1v-4.94h-1.49a3.21,3.21,0,0,0-2.5,1,3.89,3.89,0,0,0-.91,2.7Q181.51,1377.78,183.58,1377.78Z"
          transform="translate(-18.72 -98.5)"/>
    <path class="cls-3"
          d="M205.73,1377.49q2.7,0,2.74-3.51h5.85a8.71,8.71,0,0,1-2.4,6.28,8.12,8.12,0,0,1-6.06,2.4q-4.59,0-7-2.86c-1.61-1.9-2.43-4.71-2.46-8.41v-1.89q0-5.61,2.38-8.55c1.59-2,3.94-3,7-3a8.05,8.05,0,0,1,6.2,2.43,9.89,9.89,0,0,1,2.31,6.89h-5.85a6.09,6.09,0,0,0-.66-3.07,2.25,2.25,0,0,0-2.11-1.08,2.52,2.52,0,0,0-2.33,1.15,10,10,0,0,0-.74,4.47v2.42a19.46,19.46,0,0,0,.28,4,3.08,3.08,0,0,0,1,1.7A2.87,2.87,0,0,0,205.73,1377.49Z"
          transform="translate(-18.72 -98.5)"/>
    <path class="cls-3"
          d="M223.9,1360.53a6.14,6.14,0,0,1,5-2.53,5.79,5.79,0,0,1,4.95,2.29c1.12,1.52,1.7,3.79,1.71,6.81v15.12h-6.24v-15a5.44,5.44,0,0,0-.65-3,2.36,2.36,0,0,0-2.1-.94,2.94,2.94,0,0,0-2.63,1.56v17.45h-6.22v-33.75h6.22Z"
          transform="translate(-18.72 -98.5)"/>
    <path class="cls-3"
          d="M249.58,1382.66a9.74,9.74,0,0,1-7.47-2.86c-1.79-1.9-2.68-4.63-2.68-8.17v-1.89q0-5.62,2.46-8.68A8.53,8.53,0,0,1,249,1358q4.47,0,6.74,2.87c1.51,1.91,2.28,4.73,2.31,8.48v3.05H245.63a6.49,6.49,0,0,0,1.16,3.87,3.93,3.93,0,0,0,3.19,1.22,7,7,0,0,0,5.21-2.13l2.43,3.76a7.94,7.94,0,0,1-3.31,2.56A11.44,11.44,0,0,1,249.58,1382.66Zm-3.91-14.59h6.22v-.57a6.65,6.65,0,0,0-.7-3.23,2.45,2.45,0,0,0-2.29-1.1,2.6,2.6,0,0,0-2.36,1.16A8.06,8.06,0,0,0,245.67,1368.07Z"
          transform="translate(-18.72 -98.5)"/>
    <path class="cls-3"
          d="M285.71,1373.83a4,4,0,0,0-1-3,11.52,11.52,0,0,0-3.64-2.08,16.85,16.85,0,0,1-6.92-4.27,8.56,8.56,0,0,1-2.11-5.79,8.09,8.09,0,0,1,2.87-6.49,11.91,11.91,0,0,1,12.53-1.21,8.61,8.61,0,0,1,3.55,3.5,10.51,10.51,0,0,1,1.24,5.14h-6.44a5.27,5.27,0,0,0-1-3.41,3.34,3.34,0,0,0-2.76-1.18,3.48,3.48,0,0,0-2.64,1,3.77,3.77,0,0,0-.94,2.69,3.33,3.33,0,0,0,1.05,2.39,12.39,12.39,0,0,0,3.74,2.21,15.91,15.91,0,0,1,6.8,4.15,9.27,9.27,0,0,1,2.12,6.26,8.28,8.28,0,0,1-2.66,6.53,10.5,10.5,0,0,1-7.23,2.35,12.48,12.48,0,0,1-5.65-1.28,9.59,9.59,0,0,1-4-3.64,10.62,10.62,0,0,1-1.44-5.61h6.48a6.08,6.08,0,0,0,1.08,4,4.38,4.38,0,0,0,3.51,1.26C284.58,1377.41,285.71,1376.21,285.71,1373.83Z"
          transform="translate(-18.72 -98.5)"/>
    <path class="cls-3"
          d="M295.46,1369.56q0-5.4,2.55-8.48a9.67,9.67,0,0,1,14.15,0q2.55,3.08,2.55,8.53v1.51q0,5.43-2.53,8.48a9.73,9.73,0,0,1-14.18,0q-2.53-3.06-2.54-8.51Zm6.24,1.56q0,6.38,3.41,6.37,3.13,0,3.38-5.31l0-2.62a10,10,0,0,0-.9-4.82,2.8,2.8,0,0,0-2.55-1.57,2.74,2.74,0,0,0-2.47,1.57,10.14,10.14,0,0,0-.89,4.82Z"
          transform="translate(-18.72 -98.5)"/>
    <path class="cls-3"
          d="M320,1382.22V1363.1h-2.87v-4.66H320v-2.13a8.7,8.7,0,0,1,2.08-6.12,7.44,7.44,0,0,1,5.68-2.18,11.46,11.46,0,0,1,2.81.44l0,5a5.23,5.23,0,0,0-1.52-.2q-2.76,0-2.76,3.3v1.93H330v4.66h-3.71v19.12Z"
          transform="translate(-18.72 -98.5)"/>
    <path class="cls-3"
          d="M340.55,1352.6v5.84h3.19v4.66h-3.19v11.82a3.58,3.58,0,0,0,.38,1.94,1.75,1.75,0,0,0,1.49.52,5.93,5.93,0,0,0,1.47-.15l0,4.83a9.62,9.62,0,0,1-3.43.6c-4,0-6-2.3-6.09-6.91V1363.1h-2.75v-4.66h2.75v-5.84Z"
          transform="translate(-18.72 -98.5)"/>
    <path class="cls-3"
          d="M364.46,1371.78l2.13-13.34h6l-4.92,23.78h-5.16l-3.37-13.76-3.36,13.76h-5.18l-4.92-23.78h6l2.11,13.36,3.17-13.36h4.41Z"
          transform="translate(-18.72 -98.5)"/>
    <path class="cls-3"
          d="M386.91,1382.22a9.32,9.32,0,0,1-.53-1.85,5.29,5.29,0,0,1-4.52,2.29,6.71,6.71,0,0,1-5-2,6.94,6.94,0,0,1-2-5.12,7.19,7.19,0,0,1,2.38-5.78c1.59-1.36,3.88-2.06,6.87-2.08h1.89v-1.92a3.61,3.61,0,0,0-.55-2.26,2,2,0,0,0-1.61-.66c-1.55,0-2.33.91-2.33,2.73h-6.21a6.88,6.88,0,0,1,2.47-5.44,9.2,9.2,0,0,1,6.25-2.15,8.42,8.42,0,0,1,6,2,7.61,7.61,0,0,1,2.14,5.81V1377a11.88,11.88,0,0,0,.88,4.82v.37Zm-3.67-4.44a3.45,3.45,0,0,0,1.76-.42,3.07,3.07,0,0,0,1.08-1v-4.94h-1.5a3.2,3.2,0,0,0-2.49,1,3.89,3.89,0,0,0-.91,2.7C381.18,1376.9,381.87,1377.78,383.24,1377.78Z"
          transform="translate(-18.72 -98.5)"/>
    <path class="cls-3"
          d="M408.53,1364.44l-2.06-.17a3.38,3.38,0,0,0-3.45,2.24v15.71h-6.24v-23.78h5.86l.18,2.58c1-2,2.34-3,4.06-3a4.37,4.37,0,0,1,1.72.29Z"
          transform="translate(-18.72 -98.5)"/>
    <path class="cls-3"
          d="M420.9,1382.66a9.74,9.74,0,0,1-7.47-2.86c-1.78-1.9-2.68-4.63-2.68-8.17v-1.89q0-5.62,2.46-8.68a8.53,8.53,0,0,1,7.06-3.06q4.47,0,6.74,2.87c1.51,1.91,2.28,4.73,2.31,8.48v3.05H417a6.49,6.49,0,0,0,1.16,3.87,3.93,3.93,0,0,0,3.19,1.22,7,7,0,0,0,5.21-2.13l2.44,3.76a8,8,0,0,1-3.32,2.56A11.44,11.44,0,0,1,420.9,1382.66ZM417,1368.07h6.22v-.57a6.65,6.65,0,0,0-.7-3.23,2.45,2.45,0,0,0-2.29-1.1,2.6,2.6,0,0,0-2.36,1.16A8.06,8.06,0,0,0,417,1368.07Z"
          transform="translate(-18.72 -98.5)"/>
    <path class="cls-3" d="M460,1369.17H450v13h-6.46v-32h17.71v5.38H450v8.2h10Z" transform="translate(-18.72 -98.5)"/>
    <path class="cls-3"
          d="M463.42,1369.56q0-5.4,2.55-8.48a9.67,9.67,0,0,1,14.15,0q2.55,3.08,2.55,8.53v1.51q0,5.43-2.53,8.48a9.73,9.73,0,0,1-14.18,0q-2.54-3.06-2.54-8.51Zm6.24,1.56q0,6.38,3.41,6.37,3.14,0,3.38-5.31l0-2.62a10,10,0,0,0-.9-4.82,2.8,2.8,0,0,0-2.55-1.57,2.73,2.73,0,0,0-2.47,1.57,10.14,10.14,0,0,0-.89,4.82Z"
          transform="translate(-18.72 -98.5)"/>
    <path class="cls-3"
          d="M498.23,1380a6.12,6.12,0,0,1-5.19,2.62,5.84,5.84,0,0,1-5-2.25c-1.12-1.51-1.69-3.69-1.69-6.56v-15.41h6.22V1374c0,2.32.8,3.47,2.31,3.47a3.2,3.2,0,0,0,3.07-1.84v-17.19h6.27v23.78H498.4Z"
          transform="translate(-18.72 -98.5)"/>
    <path class="cls-3"
          d="M514.38,1358.44l.17,2.35a6.64,6.64,0,0,1,5.52-2.79q6.12,0,6.3,8.6v15.62h-6.24v-15.16a5.52,5.52,0,0,0-.6-2.94,2.38,2.38,0,0,0-2.12-.91,2.91,2.91,0,0,0-2.64,1.74v17.27h-6.24v-23.78Z"
          transform="translate(-18.72 -98.5)"/>
    <path class="cls-3"
          d="M530,1369.61q0-5.85,2-8.73a6.52,6.52,0,0,1,5.75-2.88,5.56,5.56,0,0,1,4.57,2.38v-11.91h6.27v33.75h-5.65l-.29-2.42a5.71,5.71,0,0,1-4.92,2.86,6.48,6.48,0,0,1-5.7-2.86q-2-2.85-2-8.39Zm6.24,1.56a11.5,11.5,0,0,0,.74,4.91,2.63,2.63,0,0,0,2.53,1.39,3,3,0,0,0,2.79-1.65V1365a3,3,0,0,0-2.77-1.76,2.67,2.67,0,0,0-2.5,1.39,10.72,10.72,0,0,0-.79,4.92Z"
          transform="translate(-18.72 -98.5)"/>
    <path class="cls-3"
          d="M564.43,1382.22a8.68,8.68,0,0,1-.53-1.85,5.29,5.29,0,0,1-4.52,2.29,6.69,6.69,0,0,1-5-2,7,7,0,0,1-2-5.12,7.2,7.2,0,0,1,2.39-5.78c1.59-1.36,3.88-2.06,6.86-2.08h1.89v-1.92a3.55,3.55,0,0,0-.55-2.26,2,2,0,0,0-1.6-.66c-1.55,0-2.33.91-2.33,2.73h-6.22a6.89,6.89,0,0,1,2.48-5.44,9.18,9.18,0,0,1,6.25-2.15,8.44,8.44,0,0,1,6,2,7.61,7.61,0,0,1,2.14,5.81V1377a11.71,11.71,0,0,0,.88,4.82v.37Zm-3.67-4.44a3.47,3.47,0,0,0,1.76-.42,3,3,0,0,0,1.07-1v-4.94H562.1a3.19,3.19,0,0,0-2.49,1,3.89,3.89,0,0,0-.92,2.7Q558.69,1377.78,560.76,1377.78Z"
          transform="translate(-18.72 -98.5)"/>
    <path class="cls-3"
          d="M581.55,1352.6v5.84h3.18v4.66h-3.18v11.82a3.49,3.49,0,0,0,.38,1.94,1.74,1.74,0,0,0,1.48.52,6.07,6.07,0,0,0,1.48-.15l0,4.83a9.58,9.58,0,0,1-3.43.6q-6,0-6.08-6.91V1363.1h-2.75v-4.66h2.75v-5.84Z"
          transform="translate(-18.72 -98.5)"/>
    <path class="cls-3"
          d="M588.14,1352.29a3.19,3.19,0,0,1,.92-2.37,3.75,3.75,0,0,1,4.92,0,3.19,3.19,0,0,1,.93,2.37,3.39,3.39,0,1,1-6.77,0Zm6.52,29.93h-6.24v-23.78h6.24Z"
          transform="translate(-18.72 -98.5)"/>
    <path class="cls-3"
          d="M598.75,1369.56q0-5.4,2.55-8.48a9.67,9.67,0,0,1,14.15,0q2.55,3.08,2.55,8.53v1.51q0,5.43-2.53,8.48a9.73,9.73,0,0,1-14.18,0q-2.53-3.06-2.54-8.51Zm6.24,1.56q0,6.38,3.41,6.37,3.14,0,3.38-5.31l0-2.62a10,10,0,0,0-.9-4.82,2.8,2.8,0,0,0-2.55-1.57,2.73,2.73,0,0,0-2.47,1.57,10.14,10.14,0,0,0-.89,4.82Z"
          transform="translate(-18.72 -98.5)"/>
    <path class="cls-3"
          d="M627.56,1358.44l.17,2.35a6.64,6.64,0,0,1,5.52-2.79c4.08,0,6.19,2.87,6.3,8.6v15.62h-6.24v-15.16a5.52,5.52,0,0,0-.6-2.94,2.37,2.37,0,0,0-2.12-.91A2.91,2.91,0,0,0,628,1365v17.27h-6.24v-23.78Z"
          transform="translate(-18.72 -98.5)"/>
    <path class="cls-3"
          d="M664,1382.66a9.71,9.71,0,0,1-7.47-2.86c-1.79-1.9-2.68-4.63-2.68-8.17v-1.89q0-5.62,2.46-8.68a8.52,8.52,0,0,1,7.05-3.06q4.49,0,6.75,2.87c1.5,1.91,2.27,4.73,2.3,8.48v3.05H660a6.49,6.49,0,0,0,1.17,3.87,3.91,3.91,0,0,0,3.18,1.22,7,7,0,0,0,5.21-2.13l2.44,3.76a8,8,0,0,1-3.32,2.56A11.4,11.4,0,0,1,664,1382.66Zm-3.91-14.59h6.21v-.57a6.65,6.65,0,0,0-.7-3.23,2.45,2.45,0,0,0-2.28-1.1,2.6,2.6,0,0,0-2.37,1.16A8,8,0,0,0,660.08,1368.07Z"
          transform="translate(-18.72 -98.5)"/>
    <path class="cls-3" d="M694.09,1373.43l3-15h6.48l-6.52,23.78h-5.94l-6.54-23.78h6.5Z"
          transform="translate(-18.72 -98.5)"/>
    <path class="cls-3"
          d="M715.82,1382.66a9.74,9.74,0,0,1-7.47-2.86c-1.79-1.9-2.68-4.63-2.68-8.17v-1.89q0-5.62,2.46-8.68a8.52,8.52,0,0,1,7-3.06q4.49,0,6.75,2.87c1.51,1.91,2.28,4.73,2.31,8.48v3.05H711.87a6.42,6.42,0,0,0,1.16,3.87,3.93,3.93,0,0,0,3.19,1.22,7,7,0,0,0,5.2-2.13l2.44,3.76a7.94,7.94,0,0,1-3.31,2.56A11.48,11.48,0,0,1,715.82,1382.66Zm-3.91-14.59h6.22v-.57a6.63,6.63,0,0,0-.71-3.23,2.44,2.44,0,0,0-2.28-1.1,2.6,2.6,0,0,0-2.36,1.16A8.06,8.06,0,0,0,711.91,1368.07Z"
          transform="translate(-18.72 -98.5)"/>
    <path class="cls-3"
          d="M733.6,1358.44l.17,2.2a6.69,6.69,0,0,1,5.52-2.64,5.13,5.13,0,0,1,5,3.21,6.51,6.51,0,0,1,5.82-3.21q6.24,0,6.4,8.64v15.58h-6.22V1367a5.68,5.68,0,0,0-.57-3,2.15,2.15,0,0,0-1.94-.88c-1.15,0-2,.71-2.59,2.13l0,.75v16.13h-6.21v-15.14a6.08,6.08,0,0,0-.55-3,2.12,2.12,0,0,0-2-.91A2.85,2.85,0,0,0,734,1365v17.27h-6.22v-23.78Z"
          transform="translate(-18.72 -98.5)"/>
    <path class="cls-3"
          d="M770.67,1369.61q0-5.85,2-8.73a6.55,6.55,0,0,1,5.76-2.88,5.57,5.57,0,0,1,4.57,2.38v-11.91h6.26v33.75h-5.65l-.28-2.42a5.72,5.72,0,0,1-4.92,2.86,6.48,6.48,0,0,1-5.7-2.86c-1.31-1.9-2-4.7-2-8.39Zm6.24,1.56a11.34,11.34,0,0,0,.74,4.91,2.63,2.63,0,0,0,2.53,1.39,3,3,0,0,0,2.79-1.65V1365a3,3,0,0,0-2.77-1.76,2.66,2.66,0,0,0-2.5,1.39,10.72,10.72,0,0,0-.79,4.92Z"
          transform="translate(-18.72 -98.5)"/>
    <path class="cls-3"
          d="M805.1,1382.22a8.68,8.68,0,0,1-.53-1.85,5.3,5.3,0,0,1-4.53,2.29,6.68,6.68,0,0,1-4.95-2,7,7,0,0,1-2-5.12,7.2,7.2,0,0,1,2.39-5.78c1.59-1.36,3.87-2.06,6.86-2.08h1.89v-1.92a3.55,3.55,0,0,0-.55-2.26,2,2,0,0,0-1.6-.66c-1.55,0-2.33.91-2.33,2.73h-6.22a6.91,6.91,0,0,1,2.47-5.44,9.2,9.2,0,0,1,6.25-2.15,8.45,8.45,0,0,1,6.06,2,7.61,7.61,0,0,1,2.14,5.81V1377a11.71,11.71,0,0,0,.88,4.82v.37Zm-3.67-4.44a3.47,3.47,0,0,0,1.76-.42,3,3,0,0,0,1.07-1v-4.94h-1.49a3.21,3.21,0,0,0-2.5,1,3.94,3.94,0,0,0-.91,2.7Q799.36,1377.78,801.43,1377.78Z"
          transform="translate(-18.72 -98.5)"/>
    <path class="cls-3"
          d="M826.72,1364.44l-2.07-.17a3.38,3.38,0,0,0-3.45,2.24v15.71H815v-23.78h5.87L821,1361c1-2,2.34-3,4.07-3a4.35,4.35,0,0,1,1.71.29Z"
          transform="translate(-18.72 -98.5)"/>
    <path class="cls-3" d="M841.09,1371.1H830.34v-5.18h10.75Z" transform="translate(-18.72 -98.5)"/>
    <path class="cls-3"
          d="M851.94,1358.44l.18,2.35a6.62,6.62,0,0,1,5.51-2.79q6.14,0,6.31,8.6v15.62H857.7v-15.16a5.52,5.52,0,0,0-.6-2.94,2.38,2.38,0,0,0-2.12-.91,2.91,2.91,0,0,0-2.64,1.74v17.27H846.1v-23.78Z"
          transform="translate(-18.72 -98.5)"/>
    <path class="cls-3"
          d="M867.68,1369.56q0-5.4,2.54-8.48a9.68,9.68,0,0,1,14.16,0q2.54,3.08,2.54,8.53v1.51q0,5.43-2.52,8.48a9.74,9.74,0,0,1-14.19,0q-2.54-3.06-2.53-8.51Zm6.24,1.56q0,6.38,3.4,6.37c2.1,0,3.22-1.77,3.39-5.31l0-2.62a10,10,0,0,0-.9-4.82,2.8,2.8,0,0,0-2.55-1.57,2.72,2.72,0,0,0-2.47,1.57,10,10,0,0,0-.89,4.82Z"
          transform="translate(-18.72 -98.5)"/>
    <path class="cls-3"
          d="M901.32,1375.85a1.94,1.94,0,0,0-.76-1.46,14.84,14.84,0,0,0-3.37-1.82,13.93,13.93,0,0,1-5.29-3.23,6.11,6.11,0,0,1-1.44-4.15,6.63,6.63,0,0,1,2.25-5.15,8.56,8.56,0,0,1,6-2,9.26,9.26,0,0,1,6.26,2,6.76,6.76,0,0,1,2.35,5.42h-6.21c0-1.93-.81-2.9-2.42-2.9a2.17,2.17,0,0,0-2.27,2.33,1.8,1.8,0,0,0,.71,1.4,15.21,15.21,0,0,0,3.32,1.72,13.8,13.8,0,0,1,5.37,3.13,6.42,6.42,0,0,1,1.57,4.48,6.22,6.22,0,0,1-2.4,5.11,9.67,9.67,0,0,1-6.28,1.94,10,10,0,0,1-4.61-1,7.74,7.74,0,0,1-3.14-2.85,7.35,7.35,0,0,1-1.13-3.93h5.91a3.83,3.83,0,0,0,.76,2.44,3,3,0,0,0,2.34.81C900.48,1378.11,901.32,1377.36,901.32,1375.85Z"
          transform="translate(-18.72 -98.5)"/>
    <path class="cls-3"
          d="M933.29,1380a6.12,6.12,0,0,1-5.19,2.62,5.84,5.84,0,0,1-5-2.25c-1.12-1.51-1.69-3.69-1.69-6.56v-15.41h6.22V1374c0,2.32.8,3.47,2.31,3.47a3.2,3.2,0,0,0,3.07-1.84v-17.19h6.27v23.78h-5.85Z"
          transform="translate(-18.72 -98.5)"/>
    <path class="cls-3"
          d="M949.59,1358.44l.17,2.2a6.71,6.71,0,0,1,5.52-2.64,5.13,5.13,0,0,1,5,3.21,6.52,6.52,0,0,1,5.82-3.21q6.24,0,6.4,8.64v15.58h-6.22V1367a5.68,5.68,0,0,0-.57-3,2.14,2.14,0,0,0-1.93-.88c-1.16,0-2,.71-2.6,2.13l0,.75v16.13H955v-15.14a6,6,0,0,0-.55-3,2.12,2.12,0,0,0-2-.91A2.83,2.83,0,0,0,950,1365v17.27h-6.22v-23.78Z"
          transform="translate(-18.72 -98.5)"/>
    <path class="cls-3"
          d="M91.31,1425.78l2.13-13.34h6l-4.92,23.78H89.31L86,1422.46l-3.36,13.76H77.4l-4.92-23.78h6l2.11,13.36,3.16-13.36h4.42Z"
          transform="translate(-18.72 -98.5)"/>
    <path class="cls-3"
          d="M101.75,1423.56q0-5.4,2.55-8.48a9.67,9.67,0,0,1,14.15,0q2.55,3.08,2.55,8.53v1.51q0,5.43-2.53,8.48a9.73,9.73,0,0,1-14.18,0q-2.54-3.06-2.54-8.51Zm6.24,1.56q0,6.38,3.41,6.37,3.13,0,3.38-5.31l0-2.62a10,10,0,0,0-.9-4.82,2.8,2.8,0,0,0-2.55-1.57,2.73,2.73,0,0,0-2.47,1.57,10.14,10.14,0,0,0-.89,4.82Z"
          transform="translate(-18.72 -98.5)"/>
    <path class="cls-3"
          d="M136.6,1418.44l-2.07-.17a3.38,3.38,0,0,0-3.45,2.24v15.71h-6.24v-23.78h5.87l.18,2.58q1.47-3,4.06-3a4.4,4.4,0,0,1,1.72.29Z"
          transform="translate(-18.72 -98.5)"/>
    <path class="cls-3"
          d="M147.67,1427.06l-1.67,1.86v7.3h-6.21v-33.75H146v18.24l.77-1.15,4.31-7.12h7.4l-6.9,9.8,7.56,14H152Z"
          transform="translate(-18.72 -98.5)"/>
    <path class="cls-3"
          d="M171.84,1429.85a1.93,1.93,0,0,0-.75-1.46,14.75,14.75,0,0,0-3.38-1.82,14,14,0,0,1-5.28-3.23,6.11,6.11,0,0,1-1.44-4.15,6.63,6.63,0,0,1,2.25-5.15,8.55,8.55,0,0,1,6-2,9.28,9.28,0,0,1,6.26,2,6.76,6.76,0,0,1,2.35,5.42H171.6c0-1.93-.8-2.9-2.42-2.9a2.17,2.17,0,0,0-2.26,2.33,1.82,1.82,0,0,0,.7,1.4,15.47,15.47,0,0,0,3.32,1.72,13.65,13.65,0,0,1,5.37,3.13,6.38,6.38,0,0,1,1.58,4.48,6.22,6.22,0,0,1-2.4,5.11,9.69,9.69,0,0,1-6.28,1.94,10,10,0,0,1-4.62-1,7.77,7.77,0,0,1-3.13-2.85,7.35,7.35,0,0,1-1.13-3.93h5.91a3.78,3.78,0,0,0,.76,2.44,3,3,0,0,0,2.34.81C171,1432.11,171.84,1431.36,171.84,1429.85Z"
          transform="translate(-18.72 -98.5)"/>
    <path class="cls-3"
          d="M187.82,1414.53a6.15,6.15,0,0,1,5-2.53,5.79,5.79,0,0,1,4.95,2.29c1.12,1.52,1.7,3.79,1.71,6.81v15.12H193.2v-15a5.44,5.44,0,0,0-.65-3,2.36,2.36,0,0,0-2.1-.94,2.94,2.94,0,0,0-2.63,1.56v17.45H181.6v-33.75h6.22Z"
          transform="translate(-18.72 -98.5)"/>
    <path class="cls-3"
          d="M203.18,1423.56q0-5.4,2.55-8.48a9.67,9.67,0,0,1,14.15,0q2.53,3.08,2.54,8.53v1.51q0,5.43-2.52,8.48a9.74,9.74,0,0,1-14.19,0q-2.53-3.06-2.53-8.51Zm6.24,1.56q0,6.38,3.4,6.37c2.1,0,3.22-1.77,3.39-5.31l0-2.62a10,10,0,0,0-.9-4.82,2.8,2.8,0,0,0-2.55-1.57,2.72,2.72,0,0,0-2.47,1.57,10,10,0,0,0-.89,4.82Z"
          transform="translate(-18.72 -98.5)"/>
    <path class="cls-3"
          d="M244.81,1425.08c0,3.73-.64,6.6-1.92,8.59a6.36,6.36,0,0,1-5.72,3,5.52,5.52,0,0,1-4.66-2.35v11h-6.22v-32.92h5.76l.22,2.18a5.57,5.57,0,0,1,4.85-2.62,6.53,6.53,0,0,1,5.73,2.77c1.28,1.85,1.94,4.68,2,8.48Zm-6.19-1.56a11.15,11.15,0,0,0-.76-4.88,2.67,2.67,0,0,0-2.56-1.43,3,3,0,0,0-2.79,1.61V1430a3,3,0,0,0,2.83,1.53,2.57,2.57,0,0,0,2.56-1.56,12.21,12.21,0,0,0,.72-4.85Z"
          transform="translate(-18.72 -98.5)"/>
    <path class="cls-3"
          d="M258.11,1423.61q0-5.85,2-8.73a6.52,6.52,0,0,1,5.75-2.88,5.56,5.56,0,0,1,4.57,2.38v-11.91h6.26v33.75H271l-.29-2.42a5.71,5.71,0,0,1-4.92,2.86,6.48,6.48,0,0,1-5.7-2.86q-2-2.85-2-8.39Zm6.24,1.56a11.31,11.31,0,0,0,.75,4.91,2.62,2.62,0,0,0,2.52,1.39,3,3,0,0,0,2.79-1.65V1419a3,3,0,0,0-2.77-1.76,2.67,2.67,0,0,0-2.5,1.39,10.72,10.72,0,0,0-.79,4.92Z"
          transform="translate(-18.72 -98.5)"/>
    <path class="cls-3"
          d="M290.85,1436.66a9.71,9.71,0,0,1-7.47-2.86c-1.79-1.9-2.68-4.63-2.68-8.17v-1.89q0-5.62,2.46-8.68a8.52,8.52,0,0,1,7-3.06q4.49,0,6.75,2.87c1.5,1.91,2.27,4.73,2.3,8.48v3.05H286.89a6.49,6.49,0,0,0,1.17,3.87,3.92,3.92,0,0,0,3.18,1.22,7,7,0,0,0,5.21-2.13l2.44,3.76a8,8,0,0,1-3.32,2.56A11.4,11.4,0,0,1,290.85,1436.66Zm-3.91-14.59h6.21v-.57a6.53,6.53,0,0,0-.7-3.23,2.45,2.45,0,0,0-2.28-1.1,2.6,2.6,0,0,0-2.37,1.16A8,8,0,0,0,286.94,1422.07Z"
          transform="translate(-18.72 -98.5)"/>
    <path class="cls-3"
          d="M331.67,1425.08c0,3.73-.64,6.6-1.92,8.59a6.36,6.36,0,0,1-5.72,3,5.52,5.52,0,0,1-4.66-2.35v11h-6.22v-32.92h5.76l.22,2.18A5.57,5.57,0,0,1,324,1412a6.54,6.54,0,0,1,5.73,2.77q1.92,2.77,2,8.48Zm-6.19-1.56a11.3,11.3,0,0,0-.76-4.88,2.67,2.67,0,0,0-2.56-1.43,3,3,0,0,0-2.79,1.61V1430a3,3,0,0,0,2.83,1.53,2.57,2.57,0,0,0,2.56-1.56,12.21,12.21,0,0,0,.72-4.85Z"
          transform="translate(-18.72 -98.5)"/>
    <path class="cls-3"
          d="M342.81,1425.87l3.17-13.43h6.63l-7.82,27.34q-1.76,6-6.61,6a9.13,9.13,0,0,1-2.55-.42v-4.85l.72,0a3.61,3.61,0,0,0,2.19-.56,3.5,3.5,0,0,0,1.11-2l.48-1.6-6.85-24H340Z"
          transform="translate(-18.72 -98.5)"/>
    <path class="cls-3"
          d="M362.5,1406.6v5.84h3.19v4.66H362.5v11.82a3.58,3.58,0,0,0,.38,1.94,1.76,1.76,0,0,0,1.49.52,5.93,5.93,0,0,0,1.47-.15l0,4.83a9.62,9.62,0,0,1-3.43.6c-4,0-6-2.3-6.09-6.91V1417.1h-2.74v-4.66h2.74v-5.84Z"
          transform="translate(-18.72 -98.5)"/>
    <path class="cls-3"
          d="M375.16,1414.53a6.14,6.14,0,0,1,5-2.53,5.79,5.79,0,0,1,4.95,2.29c1.12,1.52,1.7,3.79,1.71,6.81v15.12h-6.24v-15a5.44,5.44,0,0,0-.65-3,2.36,2.36,0,0,0-2.1-.94,2.94,2.94,0,0,0-2.63,1.56v17.45h-6.22v-33.75h6.22Z"
          transform="translate(-18.72 -98.5)"/>
    <path class="cls-3"
          d="M390.52,1423.56c0-3.6.84-6.43,2.54-8.48a9.67,9.67,0,0,1,14.15,0q2.55,3.08,2.55,8.53v1.51q0,5.43-2.52,8.48a9.74,9.74,0,0,1-14.19,0q-2.54-3.06-2.53-8.51Zm6.24,1.56q0,6.38,3.4,6.37c2.1,0,3.22-1.77,3.38-5.31l0-2.62a10,10,0,0,0-.9-4.82,2.8,2.8,0,0,0-2.55-1.57,2.72,2.72,0,0,0-2.47,1.57,10,10,0,0,0-.89,4.82Z"
          transform="translate(-18.72 -98.5)"/>
    <path class="cls-3"
          d="M419.32,1412.44l.18,2.35A6.6,6.6,0,0,1,425,1412q6.14,0,6.31,8.6v15.62h-6.24v-15.16a5.42,5.42,0,0,0-.61-2.94,2.37,2.37,0,0,0-2.12-.91,2.9,2.9,0,0,0-2.63,1.74v17.27h-6.24v-23.78Z"
          transform="translate(-18.72 -98.5)"/>
    <path class="cls-3"
          d="M455.75,1436.66a9.74,9.74,0,0,1-7.47-2.86c-1.79-1.9-2.68-4.63-2.68-8.17v-1.89q0-5.62,2.46-8.68a8.52,8.52,0,0,1,7.05-3.06q4.49,0,6.75,2.87c1.51,1.91,2.28,4.73,2.31,8.48v3.05H451.8a6.42,6.42,0,0,0,1.16,3.87,3.93,3.93,0,0,0,3.19,1.22,7,7,0,0,0,5.2-2.13l2.44,3.76a7.94,7.94,0,0,1-3.31,2.56A11.44,11.44,0,0,1,455.75,1436.66Zm-3.91-14.59h6.22v-.57a6.65,6.65,0,0,0-.7-3.23,2.46,2.46,0,0,0-2.29-1.1,2.6,2.6,0,0,0-2.36,1.16A8.06,8.06,0,0,0,451.84,1422.07Z"
          transform="translate(-18.72 -98.5)"/>
    <path class="cls-3" d="M493.63,1429.67h-8.81l-1.71,6.55h-6.84l10-32h5.91l10.07,32h-6.9Zm-7.4-5.38h6l-3-11.41Z"
          transform="translate(-18.72 -98.5)"/>
    <path class="cls-3"
          d="M522.4,1425.08c0,3.73-.65,6.6-1.93,8.59a6.36,6.36,0,0,1-5.72,3,5.52,5.52,0,0,1-4.66-2.35v11h-6.22v-32.92h5.76l.22,2.18a5.59,5.59,0,0,1,4.85-2.62,6.53,6.53,0,0,1,5.73,2.77q1.92,2.77,2,8.48Zm-6.2-1.56a11.15,11.15,0,0,0-.76-4.88,2.66,2.66,0,0,0-2.56-1.43,3,3,0,0,0-2.79,1.61V1430a3,3,0,0,0,2.83,1.53,2.56,2.56,0,0,0,2.56-1.56,12.21,12.21,0,0,0,.72-4.85Z"
          transform="translate(-18.72 -98.5)"/>
    <path class="cls-3"
          d="M537.45,1436.22a8.12,8.12,0,0,1-.53-1.85,5.3,5.3,0,0,1-4.53,2.29,6.68,6.68,0,0,1-4.95-2,7,7,0,0,1-2-5.12,7.22,7.22,0,0,1,2.38-5.78c1.59-1.36,3.88-2.06,6.87-2.08h1.89v-1.92a3.55,3.55,0,0,0-.55-2.26,2,2,0,0,0-1.6-.66c-1.56,0-2.33.91-2.33,2.73h-6.22a6.88,6.88,0,0,1,2.47-5.44,9.2,9.2,0,0,1,6.25-2.15,8.45,8.45,0,0,1,6.06,2,7.61,7.61,0,0,1,2.14,5.81V1431a11.71,11.71,0,0,0,.88,4.82v.37Zm-3.67-4.44a3.41,3.41,0,0,0,1.75-.42,2.9,2.9,0,0,0,1.08-1v-4.94h-1.49a3.21,3.21,0,0,0-2.5,1,3.94,3.94,0,0,0-.91,2.7Q531.71,1431.78,533.78,1431.78Z"
          transform="translate(-18.72 -98.5)"/>
    <path class="cls-3"
          d="M555.93,1431.49q2.7,0,2.74-3.51h5.85a8.71,8.71,0,0,1-2.4,6.28,8.12,8.12,0,0,1-6.06,2.4q-4.59,0-7-2.86c-1.61-1.9-2.43-4.71-2.46-8.41v-1.89q0-5.61,2.38-8.55c1.59-2,3.94-3,7-3a8.05,8.05,0,0,1,6.2,2.43,9.89,9.89,0,0,1,2.31,6.89h-5.85a6.09,6.09,0,0,0-.66-3.07,2.25,2.25,0,0,0-2.11-1.08,2.49,2.49,0,0,0-2.32,1.15,9.82,9.82,0,0,0-.75,4.47v2.42a19.46,19.46,0,0,0,.28,4,3.08,3.08,0,0,0,.95,1.7A2.87,2.87,0,0,0,555.93,1431.49Z"
          transform="translate(-18.72 -98.5)"/>
    <path class="cls-3"
          d="M574.1,1414.53a6.15,6.15,0,0,1,5-2.53,5.79,5.79,0,0,1,5,2.29q1.69,2.28,1.71,6.81v15.12h-6.24v-15a5.35,5.35,0,0,0-.65-3,2.35,2.35,0,0,0-2.09-.94,2.94,2.94,0,0,0-2.64,1.56v17.45h-6.22v-33.75h6.22Z"
          transform="translate(-18.72 -98.5)"/>
    <path class="cls-3"
          d="M599.78,1436.66a9.74,9.74,0,0,1-7.47-2.86c-1.78-1.9-2.68-4.63-2.68-8.17v-1.89q0-5.62,2.46-8.68a8.53,8.53,0,0,1,7.06-3.06c3,0,5.23,1,6.74,2.87s2.28,4.73,2.31,8.48v3.05H595.83a6.49,6.49,0,0,0,1.16,3.87,3.93,3.93,0,0,0,3.19,1.22,7,7,0,0,0,5.21-2.13l2.44,3.76a8,8,0,0,1-3.32,2.56A11.44,11.44,0,0,1,599.78,1436.66Zm-3.91-14.59h6.22v-.57a6.65,6.65,0,0,0-.7-3.23,2.45,2.45,0,0,0-2.29-1.1,2.6,2.6,0,0,0-2.36,1.16A8.06,8.06,0,0,0,595.87,1422.07Z"
          transform="translate(-18.72 -98.5)"/>
    <path class="cls-3"
          d="M635.91,1427.83a4,4,0,0,0-1-3,11.52,11.52,0,0,0-3.64-2.08,16.92,16.92,0,0,1-6.92-4.27,8.56,8.56,0,0,1-2.11-5.79,8.12,8.12,0,0,1,2.87-6.49,11.91,11.91,0,0,1,12.53-1.21,8.61,8.61,0,0,1,3.55,3.5,10.51,10.51,0,0,1,1.24,5.14H636a5.27,5.27,0,0,0-1-3.41,3.34,3.34,0,0,0-2.76-1.18,3.44,3.44,0,0,0-2.63,1,3.73,3.73,0,0,0-.95,2.69,3.33,3.33,0,0,0,1,2.39,12.39,12.39,0,0,0,3.74,2.21,15.91,15.91,0,0,1,6.8,4.15,9.27,9.27,0,0,1,2.12,6.26,8.28,8.28,0,0,1-2.66,6.53,10.5,10.5,0,0,1-7.23,2.35,12.44,12.44,0,0,1-5.64-1.28,9.56,9.56,0,0,1-4-3.64,10.62,10.62,0,0,1-1.44-5.61h6.48a6.08,6.08,0,0,0,1.08,4,4.39,4.39,0,0,0,3.51,1.26C634.78,1431.41,635.91,1430.21,635.91,1427.83Z"
          transform="translate(-18.72 -98.5)"/>
    <path class="cls-3"
          d="M658.08,1434a6.12,6.12,0,0,1-5.19,2.62,5.84,5.84,0,0,1-5-2.25c-1.12-1.51-1.69-3.69-1.69-6.56v-15.41h6.22V1428c0,2.32.8,3.47,2.31,3.47a3.19,3.19,0,0,0,3.07-1.84v-17.19h6.27v23.78h-5.85Z"
          transform="translate(-18.72 -98.5)"/>
    <path class="cls-3"
          d="M687.06,1425.08c0,3.73-.64,6.6-1.92,8.59a6.38,6.38,0,0,1-5.73,3,5.55,5.55,0,0,1-4.66-2.35v11h-6.21v-32.92h5.75l.22,2.18a5.6,5.6,0,0,1,4.86-2.62,6.52,6.52,0,0,1,5.72,2.77q1.92,2.77,2,8.48Zm-6.2-1.56a11.15,11.15,0,0,0-.76-4.88,2.66,2.66,0,0,0-2.56-1.43,3,3,0,0,0-2.79,1.61V1430a3,3,0,0,0,2.84,1.53,2.58,2.58,0,0,0,2.56-1.56,12.43,12.43,0,0,0,.71-4.85Z"
          transform="translate(-18.72 -98.5)"/>
    <path class="cls-3"
          d="M700.42,1436.66a9.74,9.74,0,0,1-7.47-2.86c-1.79-1.9-2.68-4.63-2.68-8.17v-1.89q0-5.62,2.46-8.68a8.52,8.52,0,0,1,7-3.06q4.49,0,6.75,2.87c1.51,1.91,2.27,4.73,2.3,8.48v3.05H696.46a6.49,6.49,0,0,0,1.17,3.87,3.92,3.92,0,0,0,3.18,1.22,7,7,0,0,0,5.21-2.13l2.44,3.76a8,8,0,0,1-3.32,2.56A11.4,11.4,0,0,1,700.42,1436.66Zm-3.91-14.59h6.22v-.57a6.63,6.63,0,0,0-.71-3.23,2.45,2.45,0,0,0-2.28-1.1,2.58,2.58,0,0,0-2.36,1.16A7.94,7.94,0,0,0,696.51,1422.07Z"
          transform="translate(-18.72 -98.5)"/>
    <path class="cls-3"
          d="M724.08,1418.44l-2.06-.17a3.38,3.38,0,0,0-3.45,2.24v15.71h-6.24v-23.78h5.86l.18,2.58q1.47-3,4.07-3a4.35,4.35,0,0,1,1.71.29Z"
          transform="translate(-18.72 -98.5)"/>
    <path class="cls-3"
          d="M737.79,1429.85a1.93,1.93,0,0,0-.75-1.46,14.75,14.75,0,0,0-3.38-1.82,14,14,0,0,1-5.28-3.23,6.11,6.11,0,0,1-1.44-4.15,6.63,6.63,0,0,1,2.25-5.15,8.55,8.55,0,0,1,6-2,9.28,9.28,0,0,1,6.26,2,6.76,6.76,0,0,1,2.35,5.42h-6.22c0-1.93-.8-2.9-2.42-2.9a2.17,2.17,0,0,0-2.26,2.33,1.82,1.82,0,0,0,.7,1.4,15.47,15.47,0,0,0,3.32,1.72,13.65,13.65,0,0,1,5.37,3.13,6.38,6.38,0,0,1,1.57,4.48,6.21,6.21,0,0,1-2.39,5.11,9.69,9.69,0,0,1-6.28,1.94,10,10,0,0,1-4.62-1,7.77,7.77,0,0,1-3.13-2.85,7.35,7.35,0,0,1-1.13-3.93h5.91a3.78,3.78,0,0,0,.76,2.44,3,3,0,0,0,2.34.81C737,1432.11,737.79,1431.36,737.79,1429.85Z"
          transform="translate(-18.72 -98.5)"/>
    <path class="cls-3"
          d="M757.31,1436.66a9.74,9.74,0,0,1-7.48-2.86c-1.78-1.9-2.68-4.63-2.68-8.17v-1.89q0-5.62,2.47-8.68a8.52,8.52,0,0,1,7-3.06q4.49,0,6.74,2.87c1.51,1.91,2.28,4.73,2.31,8.48v3.05H753.35a6.56,6.56,0,0,0,1.16,3.87,3.94,3.94,0,0,0,3.19,1.22,7,7,0,0,0,5.21-2.13l2.44,3.76a8,8,0,0,1-3.32,2.56A11.43,11.43,0,0,1,757.31,1436.66Zm-3.92-14.59h6.22v-.57a6.65,6.65,0,0,0-.7-3.23,2.45,2.45,0,0,0-2.29-1.1,2.6,2.6,0,0,0-2.36,1.16A8.06,8.06,0,0,0,753.39,1422.07Z"
          transform="translate(-18.72 -98.5)"/>
    <path class="cls-3"
          d="M776.47,1406.6v5.84h3.18v4.66h-3.18v11.82a3.49,3.49,0,0,0,.38,1.94,1.74,1.74,0,0,0,1.48.52,6.07,6.07,0,0,0,1.48-.15l0,4.83a9.58,9.58,0,0,1-3.43.6q-6,0-6.08-6.91V1417.1H767.5v-4.66h2.75v-5.84Z"
          transform="translate(-18.72 -98.5)"/>
    <path class="cls-3"
          d="M74.37,1477.21a38.11,38.11,0,0,1,1.16-9.45,27.15,27.15,0,0,1,3.45-8.09,13.67,13.67,0,0,1,4.91-4.94l1.16,3.43a15.9,15.9,0,0,0-3.93,7.15,40.45,40.45,0,0,0-1.52,11.15v1.32A42,42,0,0,0,81,1489.37a16.43,16.43,0,0,0,4,7.46l-1.16,3.39a13.78,13.78,0,0,1-4.87-4.86,27,27,0,0,1-3.44-7.95,38,38,0,0,1-1.21-9.3Z"
          transform="translate(-18.72 -98.5)"/>
    <path class="cls-3"
          d="M88.85,1490.22v-32h8.46a11.61,11.61,0,0,1,8.93,3.56q3.33,3.56,3.4,9.75v5.19q0,6.3-3.33,9.9t-9.17,3.59Zm6.46-26.61v21.25h1.94c2.15,0,3.67-.57,4.54-1.71s1.34-3.09,1.39-5.87v-5.56q0-4.48-1.25-6.25a5.08,5.08,0,0,0-4.27-1.86Z"
          transform="translate(-18.72 -98.5)"/>
    <path class="cls-3"
          d="M125.26,1490.22a9.32,9.32,0,0,1-.53-1.85,5.29,5.29,0,0,1-4.52,2.29,6.71,6.71,0,0,1-5-2,6.94,6.94,0,0,1-2-5.12,7.19,7.19,0,0,1,2.38-5.78c1.59-1.36,3.88-2.06,6.87-2.08h1.89v-1.92a3.61,3.61,0,0,0-.55-2.26,2,2,0,0,0-1.61-.66c-1.55,0-2.33.91-2.33,2.73h-6.21a6.88,6.88,0,0,1,2.47-5.44,9.2,9.2,0,0,1,6.25-2.15,8.42,8.42,0,0,1,6,2,7.61,7.61,0,0,1,2.14,5.81V1485a11.88,11.88,0,0,0,.88,4.82v.37Zm-3.67-4.44a3.45,3.45,0,0,0,1.76-.42,3.07,3.07,0,0,0,1.08-1v-4.94h-1.5a3.2,3.2,0,0,0-2.49,1,3.89,3.89,0,0,0-.91,2.7C119.53,1484.9,120.21,1485.78,121.59,1485.78Z"
          transform="translate(-18.72 -98.5)"/>
    <path class="cls-3"
          d="M142.38,1460.6v5.84h3.18v4.66h-3.18v11.82a3.58,3.58,0,0,0,.38,1.94,1.75,1.75,0,0,0,1.49.52,5.93,5.93,0,0,0,1.47-.15l-.05,4.83a9.53,9.53,0,0,1-3.42.6q-6,0-6.09-6.91V1471.1h-2.75v-4.66h2.75v-5.84Z"
          transform="translate(-18.72 -98.5)"/>
    <path class="cls-3"
          d="M160.26,1490.22a8.8,8.8,0,0,1-.52-1.85,5.32,5.32,0,0,1-4.53,2.29,6.68,6.68,0,0,1-5-2,6.91,6.91,0,0,1-2-5.12,7.19,7.19,0,0,1,2.38-5.78c1.59-1.36,3.88-2.06,6.87-2.08h1.89v-1.92a3.55,3.55,0,0,0-.55-2.26,2,2,0,0,0-1.6-.66c-1.56,0-2.33.91-2.33,2.73h-6.22a6.88,6.88,0,0,1,2.47-5.44,9.2,9.2,0,0,1,6.25-2.15,8.4,8.4,0,0,1,6.05,2,7.61,7.61,0,0,1,2.15,5.81V1485a11.71,11.71,0,0,0,.88,4.82v.37Zm-3.67-4.44a3.45,3.45,0,0,0,1.76-.42,3,3,0,0,0,1.08-1v-4.94h-1.5a3.2,3.2,0,0,0-2.49,1,3.89,3.89,0,0,0-.91,2.7C154.53,1484.9,155.22,1485.78,156.59,1485.78Z"
          transform="translate(-18.72 -98.5)"/>
    <path class="cls-3" d="M188.32,1481.43l3-15h6.48l-6.52,23.78h-5.93l-6.55-23.78h6.5Z"
          transform="translate(-18.72 -98.5)"/>
    <path class="cls-3"
          d="M200.74,1460.29a3.19,3.19,0,0,1,.92-2.37,3.75,3.75,0,0,1,4.92,0,3.19,3.19,0,0,1,.92,2.37,3.38,3.38,0,1,1-6.76,0Zm6.52,29.93H201v-23.78h6.24Z"
          transform="translate(-18.72 -98.5)"/>
    <path class="cls-3"
          d="M222.6,1483.85a1.91,1.91,0,0,0-.76-1.46,14.61,14.61,0,0,0-3.37-1.82,13.87,13.87,0,0,1-5.28-3.23,6.11,6.11,0,0,1-1.44-4.15A6.63,6.63,0,0,1,214,1468a8.54,8.54,0,0,1,6-2,9.29,9.29,0,0,1,6.27,2,6.79,6.79,0,0,1,2.35,5.42h-6.22c0-1.93-.81-2.9-2.42-2.9a2.17,2.17,0,0,0-2.26,2.33,1.79,1.79,0,0,0,.7,1.4,15.47,15.47,0,0,0,3.32,1.72,13.8,13.8,0,0,1,5.37,3.13,6.38,6.38,0,0,1,1.57,4.48,6.24,6.24,0,0,1-2.39,5.11,9.7,9.7,0,0,1-6.29,1.94,10,10,0,0,1-4.61-1,7.71,7.71,0,0,1-3.13-2.85,7.27,7.27,0,0,1-1.13-3.93H217a3.78,3.78,0,0,0,.76,2.44,3,3,0,0,0,2.34.81C221.77,1486.11,222.6,1485.36,222.6,1483.85Z"
          transform="translate(-18.72 -98.5)"/>
    <path class="cls-3"
          d="M244.2,1488a6.12,6.12,0,0,1-5.19,2.62,5.82,5.82,0,0,1-5-2.25c-1.13-1.51-1.69-3.69-1.69-6.56v-15.41h6.21V1482c0,2.32.8,3.47,2.31,3.47a3.21,3.21,0,0,0,3.08-1.84v-17.19h6.26v23.78h-5.84Z"
          transform="translate(-18.72 -98.5)"/>
    <path class="cls-3"
          d="M266,1490.22a9.32,9.32,0,0,1-.53-1.85,5.29,5.29,0,0,1-4.52,2.29,6.71,6.71,0,0,1-5-2,6.94,6.94,0,0,1-2-5.12,7.19,7.19,0,0,1,2.38-5.78c1.59-1.36,3.88-2.06,6.87-2.08h1.89v-1.92a3.61,3.61,0,0,0-.55-2.26,2,2,0,0,0-1.61-.66c-1.55,0-2.33.91-2.33,2.73h-6.21a6.88,6.88,0,0,1,2.47-5.44,9.2,9.2,0,0,1,6.25-2.15,8.4,8.4,0,0,1,6.05,2,7.61,7.61,0,0,1,2.15,5.81V1485a11.73,11.73,0,0,0,.87,4.82v.37Zm-3.67-4.44a3.45,3.45,0,0,0,1.76-.42,3.07,3.07,0,0,0,1.08-1v-4.94h-1.5a3.2,3.2,0,0,0-2.49,1,3.89,3.89,0,0,0-.91,2.7C260.22,1484.9,260.91,1485.78,262.28,1485.78Z"
          transform="translate(-18.72 -98.5)"/>
    <path class="cls-3" d="M282.37,1490.22h-6.24v-33.75h6.24Z" transform="translate(-18.72 -98.5)"/>
    <path class="cls-3"
          d="M287.18,1460.29a3.23,3.23,0,0,1,.92-2.37,3.75,3.75,0,0,1,4.92,0,3.19,3.19,0,0,1,.93,2.37,3.39,3.39,0,1,1-6.77,0Zm6.52,29.93h-6.24v-23.78h6.24Z"
          transform="translate(-18.72 -98.5)"/>
    <path class="cls-3" d="M305.39,1485.05h9.41v5.17H298v-3.89l9.18-14.7h-9v-5.19h16.44v3.76Z"
          transform="translate(-18.72 -98.5)"/>
    <path class="cls-3"
          d="M330.18,1490.22a8.68,8.68,0,0,1-.53-1.85,5.3,5.3,0,0,1-4.53,2.29,6.68,6.68,0,0,1-4.95-2,7,7,0,0,1-2-5.12,7.2,7.2,0,0,1,2.39-5.78c1.59-1.36,3.88-2.06,6.86-2.08h1.89v-1.92a3.55,3.55,0,0,0-.55-2.26,2,2,0,0,0-1.6-.66c-1.55,0-2.33.91-2.33,2.73h-6.22a6.91,6.91,0,0,1,2.47-5.44,9.22,9.22,0,0,1,6.26-2.15,8.44,8.44,0,0,1,6.05,2,7.61,7.61,0,0,1,2.14,5.81V1485a11.71,11.71,0,0,0,.88,4.82v.37Zm-3.67-4.44a3.47,3.47,0,0,0,1.76-.42,3,3,0,0,0,1.07-1v-4.94h-1.49a3.17,3.17,0,0,0-2.49,1,3.89,3.89,0,0,0-.92,2.7Q324.44,1485.78,326.51,1485.78Z"
          transform="translate(-18.72 -98.5)"/>
    <path class="cls-3"
          d="M347.29,1460.6v5.84h3.19v4.66h-3.19v11.82a3.47,3.47,0,0,0,.39,1.94,1.74,1.74,0,0,0,1.48.52,5.93,5.93,0,0,0,1.47-.15l0,4.83a9.58,9.58,0,0,1-3.43.6q-6,0-6.08-6.91V1471.1h-2.75v-4.66h2.75v-5.84Z"
          transform="translate(-18.72 -98.5)"/>
    <path class="cls-3"
          d="M353.89,1460.29a3.19,3.19,0,0,1,.92-2.37,3.75,3.75,0,0,1,4.92,0,3.19,3.19,0,0,1,.92,2.37,3.38,3.38,0,1,1-6.76,0Zm6.52,29.93h-6.24v-23.78h6.24Z"
          transform="translate(-18.72 -98.5)"/>
    <path class="cls-3"
          d="M364.5,1477.56q0-5.4,2.55-8.48a9.67,9.67,0,0,1,14.15,0q2.55,3.08,2.55,8.53v1.51q0,5.43-2.53,8.48a9.73,9.73,0,0,1-14.18,0q-2.54-3.06-2.54-8.51Zm6.24,1.56q0,6.38,3.41,6.37,3.14,0,3.38-5.31l0-2.62a10,10,0,0,0-.9-4.82,2.8,2.8,0,0,0-2.55-1.57,2.73,2.73,0,0,0-2.47,1.57,10.14,10.14,0,0,0-.89,4.82Z"
          transform="translate(-18.72 -98.5)"/>
    <path class="cls-3"
          d="M393.31,1466.44l.17,2.35A6.64,6.64,0,0,1,399,1466c4.08,0,6.19,2.87,6.3,8.6v15.62h-6.24v-15.16a5.52,5.52,0,0,0-.6-2.94,2.37,2.37,0,0,0-2.12-.91,2.91,2.91,0,0,0-2.64,1.74v17.27h-6.24v-23.78Z"
          transform="translate(-18.72 -98.5)"/>
    <path class="cls-3"
          d="M419.72,1477.74a35.17,35.17,0,0,1-1.31,9.69,28.08,28.08,0,0,1-3.63,8,13.67,13.67,0,0,1-4.91,4.77l-1.14-3.39a16.34,16.34,0,0,0,4-7.33,40.87,40.87,0,0,0,1.49-11.17v-1.16a41.66,41.66,0,0,0-1.44-11.44,17.33,17.33,0,0,0-4-7.61l1.14-3.39a12.14,12.14,0,0,1,3.46,2.86,21.61,21.61,0,0,1,3.2,4.94,32.83,32.83,0,0,1,2.31,6.63A37.5,37.5,0,0,1,419.72,1477.74Z"
          transform="translate(-18.72 -98.5)"/>
    <path class="cls-3"
          d="M424.81,1487.05a3.32,3.32,0,0,1,1-2.46,3.62,3.62,0,0,1,2.61-1,3.69,3.69,0,0,1,2.59.95,3.21,3.21,0,0,1,1,2.47,3.16,3.16,0,0,1-1,2.48,3.75,3.75,0,0,1-2.58.93,3.64,3.64,0,0,1-2.58-.94A3.21,3.21,0,0,1,424.81,1487.05Z"
          transform="translate(-18.72 -98.5)"/>
</svg>