<svg id="Camada_1" data-name="Camada 1" xmlns="http://www.w3.org/2000/svg" xmlns:xlink="http://www.w3.org/1999/xlink"
     viewBox="0 0 2067 917">
    <defs>
        <style>
            .cls-1,.cls-2,.cls-4{fill:none;}.cls-2,.cls-4{stroke:#fff;stroke-miterlimit:10;stroke-width:5px;}.cls-3{fill:#fff;}.cls-4{fill-rule:evenodd;}.cls-5{clip-path:url(#clip-path);}
        </style>
        <clipPath id="clip-path" transform="translate(-361 -74)">
            <rect class="cls-1" x="1690.93" y="242.8" width="693" height="693"/>
        </clipPath>
    </defs>
    <title>workshop_daniel</title>
    <line class="cls-2" x1="24.5" y1="804.5" x2="1074.5" y2="804.5"/>
    <circle class="cls-3" cx="1074" cy="804" r="12"/>
    <polyline class="cls-2" points="1301 905 1301 151 2055 151 2055 528.5"/>
    <circle class="cls-3" cx="24" cy="805" r="12"/>
    <circle class="cls-3" cx="1301" cy="905" r="12"/>
    <circle class="cls-3" cx="2055" cy="528" r="12"/>
    <polyline class="cls-4" points="840.36 209 1074 209 1074 539.62"/>
    <polyline class="cls-4" points="12 449.34 12 324 443.71 324"/>
    <circle class="cls-3" cx="1074" cy="540" r="12"/>
    <circle class="cls-3" cx="12" cy="448" r="12"/>
    <circle class="cls-3" cx="444" cy="324" r="12"/>
    <circle class="cls-3" cx="840" cy="209" r="12"/>
    <g class="cls-5">
        <image width="200" height="200" transform="translate(1329.93 168.8) scale(3.56)"
               xlink:href="daniel.png"/>
    </g>
    <path class="cls-3"
          d="M458.9,118.72a4.81,4.81,0,0,0-1.47,3.52v5a5,5,0,0,0,5,5,7.21,7.21,0,0,0,5-2.5l5-5v-7.5h-10A4.83,4.83,0,0,0,458.9,118.72Z"
          transform="translate(-361 -74)"/>
    <path class="cls-3"
          d="M668.9,118.72a4.81,4.81,0,0,0-1.47,3.52v5a5,5,0,0,0,5,5,7.21,7.21,0,0,0,5-2.5l5-5v-7.5h-10A4.83,4.83,0,0,0,668.9,118.72Z"
          transform="translate(-361 -74)"/>
    <path class="cls-3" d="M737.43,117.24h-10v15h10a5,5,0,0,0,5-5v-5a5.05,5.05,0,0,0-5-5Z"
          transform="translate(-361 -74)"/>
    <path class="cls-3"
          d="M378.43,74v94h478V74Zm144.72,29a2.55,2.55,0,1,1-.72,1.77A2.42,2.42,0,0,1,523.15,103Zm-75.72,24.27a10.09,10.09,0,0,1-10,10h-15v-35h15a10.11,10.11,0,0,1,10,10Zm30,10h-5v-6.9l-3.1,3.15q-3.75,3.75-6.9,3.75a10,10,0,0,1-10-10v-5a10,10,0,0,1,10-10h15Zm30,0h-5v-15a5.05,5.05,0,0,0-5-5,7.21,7.21,0,0,0-5,2.5l-5,5v12.5h-5v-25h5v6.85l3.15-3.1q3.75-3.75,6.85-3.75a10,10,0,0,1,10,10Zm25,0h-15v-5h5v-15h-5v-5h10v20h5Zm35-10h-20a5,5,0,0,0,5,5h15v5h-15a10.07,10.07,0,0,1-10-10v-5a10.09,10.09,0,0,1,10-10h5a10.11,10.11,0,0,1,10,10Zm25,10h-15v-5h5v-25h-5v-5h10v30h5Zm46.47-6.47a4.82,4.82,0,0,0,3.53,1.47h5a5,5,0,0,0,5-5v-5h-5v-5h10v10a10.09,10.09,0,0,1-10,10h-5a10.07,10.07,0,0,1-10-10v-15a10.09,10.09,0,0,1,10-10h5a10.11,10.11,0,0,1,10,10h-5a5.05,5.05,0,0,0-5-5h-5a5,5,0,0,0-5,5v15A4.82,4.82,0,0,0,638.9,130.77Zm48.53,6.47h-5v-6.9l-3.1,3.15q-3.75,3.75-6.9,3.75a10,10,0,0,1-10-10v-5a10,10,0,0,1,10-10h15Zm30-20h-13.1a12.08,12.08,0,0,0-4.43.73c-1.22.48-1.82,1.07-1.82,1.77s.6,1.3,1.82,1.78a12.09,12.09,0,0,0,4.43.72h1.25a14,14,0,0,1,7.95,2.21c2.19,1.46,3.3,3.23,3.3,5.29s-1.11,3.84-3.3,5.3a14,14,0,0,1-7.95,2.2H692.43v-5h13.15a12.05,12.05,0,0,0,4.39-.72c1.24-.48,1.86-1.07,1.86-1.78s-.62-1.29-1.86-1.77a12,12,0,0,0-4.39-.73h-1.25a13.94,13.94,0,0,1-8-2.2q-3.27-2.19-3.27-5.3c0-2.06,1.09-3.83,3.27-5.29a14,14,0,0,1,8-2.21h13.1Zm30,10a10.09,10.09,0,0,1-10,10h-10v10h-5v-35h15a10.11,10.11,0,0,1,10,10Zm30,10h-5v-6.9l-3.1,3.15q-3.75,3.75-6.9,3.75a10,10,0,0,1-10-10v-5a10,10,0,0,1,10-10h15Zm25-15a5.05,5.05,0,0,0-5-5,7.21,7.21,0,0,0-5,2.5l-5,5v12.5h-5v-25h5v6.85l3.15-3.1q3.75-3.75,6.85-3.75a10,10,0,0,1,10,10Z"
          transform="translate(-361 -74)"/>
    <path class="cls-3" d="M437.43,107.24h-10v25h10a5,5,0,0,0,5-5v-15a5.05,5.05,0,0,0-5-5Z"
          transform="translate(-361 -74)"/>
    <path class="cls-3"
          d="M758.9,118.72a4.81,4.81,0,0,0-1.47,3.52v5a5,5,0,0,0,5,5,7.21,7.21,0,0,0,5-2.5l5-5v-7.5h-10A4.83,4.83,0,0,0,758.9,118.72Z"
          transform="translate(-361 -74)"/>
    <path class="cls-3" d="M557.43,117.24h-5a5,5,0,0,0-5,5h15a5.05,5.05,0,0,0-5-5Z" transform="translate(-361 -74)"/>
    <path class="cls-3" d="M919,218.18h-3.75a3.79,3.79,0,0,0-3.75,3.75h11.25a3.79,3.79,0,0,0-3.75-3.75Z"
          transform="translate(-361 -74)"/>
    <path class="cls-3" d="M1009,210.68h-7.5v18.75h7.5a3.77,3.77,0,0,0,3.75-3.75V214.43a3.79,3.79,0,0,0-3.75-3.75Z"
          transform="translate(-361 -74)"/>
    <path class="cls-3" d="M851.5,218.18h-3.75a3.79,3.79,0,0,0-3.75,3.75h11.25a3.79,3.79,0,0,0-3.75-3.75Z"
          transform="translate(-361 -74)"/>
    <path class="cls-3"
          d="M1070.11,219.29a3.61,3.61,0,0,0-1.11,2.64v3.75a3.77,3.77,0,0,0,3.75,3.75,5.39,5.39,0,0,0,3.75-1.87l3.75-3.75v-5.63h-7.5A3.57,3.57,0,0,0,1070.11,219.29Z"
          transform="translate(-361 -74)"/>
    <path class="cls-3"
          d="M1025.11,219.29a3.61,3.61,0,0,0-1.11,2.64v3.75a3.77,3.77,0,0,0,3.75,3.75,5.39,5.39,0,0,0,3.75-1.87l3.75-3.75v-5.63h-7.5A3.57,3.57,0,0,0,1025.11,219.29Z"
          transform="translate(-361 -74)"/>
    <path class="cls-3" d="M829,218.18h-7.5v11.25H829a3.77,3.77,0,0,0,3.75-3.75v-3.75a3.79,3.79,0,0,0-3.75-3.75Z"
          transform="translate(-361 -74)"/>
    <path class="cls-3" d="M424,210.68h-7.5v7.5H424a3.75,3.75,0,0,0,0-7.5Z" transform="translate(-361 -74)"/>
    <polygon class="cls-3" points="258 147.93 269.25 147.93 263.63 136.68 258 147.93"/>
    <path class="cls-3"
          d="M514,218.18h-3.75a3.79,3.79,0,0,0-3.75,3.75v3.75a3.77,3.77,0,0,0,3.75,3.75H514a3.77,3.77,0,0,0,3.75-3.75v-3.75a3.79,3.79,0,0,0-3.75-3.75Z"
          transform="translate(-361 -74)"/>
    <path class="cls-3" d="M739,218.18h-3.75a3.79,3.79,0,0,0-3.75,3.75h11.25a3.79,3.79,0,0,0-3.75-3.75Z"
          transform="translate(-361 -74)"/>
    <path class="cls-3"
          d="M1205.11,219.29a3.61,3.61,0,0,0-1.11,2.64v3.75a3.77,3.77,0,0,0,3.75,3.75,5.39,5.39,0,0,0,3.75-1.87l3.75-3.75v-5.63h-7.5A3.57,3.57,0,0,0,1205.11,219.29Z"
          transform="translate(-361 -74)"/>
    <path class="cls-3"
          d="M665.11,219.29a3.61,3.61,0,0,0-1.11,2.64v3.75a3.77,3.77,0,0,0,3.75,3.75,5.39,5.39,0,0,0,3.75-1.87l3.75-3.75v-5.63h-7.5A3.57,3.57,0,0,0,665.11,219.29Z"
          transform="translate(-361 -74)"/>
    <path class="cls-3" d="M649,218.18h-7.5v11.25H649a3.77,3.77,0,0,0,3.75-3.75v-3.75a3.79,3.79,0,0,0-3.75-3.75Z"
          transform="translate(-361 -74)"/>
    <path class="cls-3" d="M581.5,218.18h-3.75a3.79,3.79,0,0,0-3.75,3.75h11.25a3.79,3.79,0,0,0-3.75-3.75Z"
          transform="translate(-361 -74)"/>
    <path class="cls-3"
          d="M1369,218.18h-3.75a3.79,3.79,0,0,0-3.75,3.75v3.75a3.77,3.77,0,0,0,3.75,3.75H1369a3.77,3.77,0,0,0,3.75-3.75v-3.75a3.79,3.79,0,0,0-3.75-3.75Z"
          transform="translate(-361 -74)"/>
    <path class="cls-3"
          d="M1295.11,219.29a3.61,3.61,0,0,0-1.11,2.64v3.75a3.77,3.77,0,0,0,3.75,3.75,5.39,5.39,0,0,0,3.75-1.87l3.75-3.75v-5.63h-7.5A3.57,3.57,0,0,0,1295.11,219.29Z"
          transform="translate(-361 -74)"/>
    <path class="cls-3"
          d="M378,190v62H1460V190Zm965.29,17.48a1.88,1.88,0,0,1,2.67,2.66,1.92,1.92,0,0,1-2.67,0,1.91,1.91,0,0,1,0-2.66Zm-90,0a1.88,1.88,0,0,1,2.67,2.66,1.92,1.92,0,0,1-2.67,0,1.91,1.91,0,0,1,0-2.66Zm-112.5,0a1.88,1.88,0,0,1,2.67,2.66,1.92,1.92,0,0,1-2.67,0,1.91,1.91,0,0,1,0-2.66Zm-711.5,12.24a7.25,7.25,0,0,1-5.29,2.21h-7.5v11.25h-3.75V206.93H424a7.48,7.48,0,0,1,5.29,12.79ZM454,233.18a7.17,7.17,0,0,1-2.21,5.27,7.27,7.27,0,0,1-5.29,2.19H439v-3.75h7.5a3.77,3.77,0,0,0,3.75-3.71h-7.5a7.55,7.55,0,0,1-7.5-7.5V214.43H439v11.25a3.77,3.77,0,0,0,3.75,3.75h7.5v-15H454Zm22.5,0h-3.75a7.55,7.55,0,0,1-7.5-7.5v-7.5H461.5v-3.75h3.75v-7.5H469v7.5h3.75v3.75H469v7.5a3.77,3.77,0,0,0,3.75,3.75h3.75Zm22.5,0h-3.75V221.93a3.79,3.79,0,0,0-3.75-3.75H484v15h-3.75V206.93H484v7.5h7.5a7.55,7.55,0,0,1,7.5,7.5Zm22.5-7.5a7.55,7.55,0,0,1-7.5,7.5h-3.75a7.55,7.55,0,0,1-7.5-7.5v-3.75a7.55,7.55,0,0,1,7.5-7.5H514a7.55,7.55,0,0,1,7.5,7.5Zm22.5,7.5h-3.75V221.93a3.79,3.79,0,0,0-3.75-3.75,5.41,5.41,0,0,0-3.75,1.88L529,223.81v9.37h-3.75V214.43H529v5.14l2.36-2.33q2.82-2.81,5.14-2.81a7.49,7.49,0,0,1,7.5,7.5Zm45-7.5H574a3.77,3.77,0,0,0,3.75,3.75H589v3.75H577.75a7.55,7.55,0,0,1-7.5-7.5v-3.75a7.55,7.55,0,0,1,7.5-7.5h3.75a7.55,7.55,0,0,1,7.5,7.5Zm45,7.5h-3.75v-7.5H619v7.5h-3.75V221l7-14.06H627L634,221Zm22.5-7.5a7.55,7.55,0,0,1-7.5,7.5h-7.5v7.46h-3.75V214.43H649a7.55,7.55,0,0,1,7.5,7.5Zm22.5,7.5h-3.75V228l-2.32,2.36c-1.88,1.87-3.6,2.81-5.18,2.81a7.48,7.48,0,0,1-7.5-7.5v-3.75a7.49,7.49,0,0,1,7.5-7.5H679Zm8.61-4.85a3.6,3.6,0,0,0,2.64,1.1H701.5v3.75H690.25a7.55,7.55,0,0,1-7.5-7.5v-3.75a7.55,7.55,0,0,1,7.5-7.5H694a7.55,7.55,0,0,1,7.5,7.5h-3.75a3.79,3.79,0,0,0-3.75-3.75h-3.75a3.79,3.79,0,0,0-3.75,3.75v3.75A3.61,3.61,0,0,0,687.61,228.33ZM724,233.18h-3.75V221.93a3.79,3.79,0,0,0-3.75-3.75H709v15h-3.75V206.93H709v7.5h7.5a7.55,7.55,0,0,1,7.5,7.5Zm22.5-7.5h-15a3.77,3.77,0,0,0,3.75,3.75H746.5v3.75H735.25a7.55,7.55,0,0,1-7.5-7.5v-3.75a7.55,7.55,0,0,1,7.5-7.5H739a7.55,7.55,0,0,1,7.5,7.5Zm31.11-8.6a3.6,3.6,0,0,0,2.64,1.1H784a7.5,7.5,0,0,1,0,15h-3.75a7.51,7.51,0,0,1-7.5-7.5h3.75a3.77,3.77,0,0,0,3.75,3.75H784a3.75,3.75,0,0,0,0-7.5h-3.75a7.5,7.5,0,0,1,0-15H784a7.55,7.55,0,0,1,7.5,7.5h-3.75a3.79,3.79,0,0,0-3.75-3.75h-3.75a3.79,3.79,0,0,0-3.75,3.75A3.61,3.61,0,0,0,777.61,217.08ZM814,233.18h-3.75V228l-2.32,2.36c-1.88,1.87-3.6,2.81-5.18,2.81a7.48,7.48,0,0,1-7.5-7.5V214.43H799v11.25a3.77,3.77,0,0,0,3.75,3.75,5.39,5.39,0,0,0,3.75-1.87l3.75-3.75v-9.38H814Zm22.5-7.5a7.55,7.55,0,0,1-7.5,7.5h-7.5v7.46h-3.75V214.43H829a7.55,7.55,0,0,1,7.5,7.5Zm22.5,0H844a3.77,3.77,0,0,0,3.75,3.75H859v3.75H847.75a7.55,7.55,0,0,1-7.5-7.5v-3.75a7.55,7.55,0,0,1,7.5-7.5h3.75a7.55,7.55,0,0,1,7.5,7.5Zm18.75-3.75a3.79,3.79,0,0,0-3.75-3.75,5.41,5.41,0,0,0-3.75,1.88l-3.75,3.75v9.37h-3.75V214.43h3.75v5.14l2.36-2.33q2.82-2.81,5.14-2.81a7.49,7.49,0,0,1,7.5,7.5ZM904,218.18h-9.83a8.78,8.78,0,0,0-3.31.55c-.92.36-1.37.8-1.37,1.33s.45,1,1.37,1.33a9,9,0,0,0,3.31.54h.94a10.54,10.54,0,0,1,6,1.65,4.43,4.43,0,0,1,0,7.95,10.54,10.54,0,0,1-6,1.65h-9.86v-3.75h9.86a9.05,9.05,0,0,0,3.3-.54c.93-.36,1.39-.81,1.39-1.33s-.46-1-1.39-1.33a8.84,8.84,0,0,0-3.3-.55h-.94a10.5,10.5,0,0,1-6-1.65,4.45,4.45,0,0,1,0-7.95,10.5,10.5,0,0,1,6-1.65H904Zm22.5,7.5h-15a3.77,3.77,0,0,0,3.75,3.75H926.5v3.75H915.25a7.55,7.55,0,0,1-7.5-7.5v-3.75a7.55,7.55,0,0,1,7.5-7.5H919a7.55,7.55,0,0,1,7.5,7.5Zm22.5,7.5h-3.75a7.55,7.55,0,0,1-7.5-7.5v-7.5H934v-3.75h3.75v-7.5h3.75v7.5h3.75v3.75H941.5v7.5a3.77,3.77,0,0,0,3.75,3.75H949ZM991,235l-2.59,2.59L979,228.27V211.84l9.37-9.37,2.59,2.59-8.21,8.21v13.57Zm25.54-9.34a7.55,7.55,0,0,1-7.5,7.5H997.75V206.93H1009a7.55,7.55,0,0,1,7.5,7.5Zm22.5,7.5h-3.75V228l-2.33,2.36q-2.81,2.81-5.17,2.81a7.48,7.48,0,0,1-7.5-7.5v-3.75a7.49,7.49,0,0,1,7.5-7.5H1039Zm22.5,0h-3.75a7.55,7.55,0,0,1-7.5-7.5v-7.5h-3.75v-3.75h3.75v-7.5H1054v7.5h3.75v3.75H1054v7.5a3.77,3.77,0,0,0,3.75,3.75h3.75Zm22.5,0h-3.75V228l-2.33,2.36q-2.81,2.81-5.17,2.81a7.48,7.48,0,0,1-7.5-7.5v-3.75a7.49,7.49,0,0,1,7.5-7.5H1084Zm45-18.75-9.38,18.75-9.37-18.75v-7.5H1114v6.64l5.62,11.17,5.63-11.25v-6.56H1129Zm18.75,18.75H1136.5v-3.75h3.75V218.18h-3.75v-3.75h7.5v15h3.75Zm26.25-15h-9.83a8.78,8.78,0,0,0-3.31.55c-.92.36-1.37.8-1.37,1.33s.45,1,1.37,1.33a9,9,0,0,0,3.31.54h.94a10.54,10.54,0,0,1,6,1.65,4.43,4.43,0,0,1,0,7.95,10.54,10.54,0,0,1-6,1.65h-9.86v-3.75h9.86a9.05,9.05,0,0,0,3.3-.54c.93-.36,1.39-.81,1.39-1.33s-.46-1-1.39-1.33a8.84,8.84,0,0,0-3.3-.55h-.94a10.5,10.5,0,0,1-6-1.65,4.45,4.45,0,0,1,0-7.95,10.5,10.5,0,0,1,6-1.65H1174Zm22.5,15h-3.75V228l-2.33,2.36q-2.81,2.81-5.17,2.81a7.48,7.48,0,0,1-7.5-7.5V214.43h3.75v11.25a3.77,3.77,0,0,0,3.75,3.75,5.39,5.39,0,0,0,3.75-1.87l3.75-3.75v-9.38h3.75Zm22.5,0h-3.75V228l-2.33,2.36q-2.81,2.81-5.17,2.81a7.48,7.48,0,0,1-7.5-7.5v-3.75a7.49,7.49,0,0,1,7.5-7.5H1219Zm18.75,0H1226.5v-3.75h3.75V210.68h-3.75v-3.75h7.5v22.5h3.75Zm22.5,0H1249v-3.75h3.75V218.18H1249v-3.75h7.5v15h3.75ZM1286.5,217l-12.41,12.41h12.41v3.75h-18.75v-2.59l12.41-12.41h-12.41v-3.75h18.75Zm22.5,16.16h-3.75V228l-2.33,2.36q-2.81,2.81-5.17,2.81a7.48,7.48,0,0,1-7.5-7.5v-3.75a7.49,7.49,0,0,1,7.5-7.5H1309Zm22.5,0h-3.75a7.55,7.55,0,0,1-7.5-7.5v-7.5h-3.75v-3.75h3.75v-7.5H1324v7.5h3.75v3.75H1324v7.5a3.77,3.77,0,0,0,3.75,3.75h3.75Zm18.75,0H1339v-3.75h3.75V218.18H1339v-3.75h7.5v15h3.75Zm26.25-7.5a7.55,7.55,0,0,1-7.5,7.5h-3.75a7.55,7.55,0,0,1-7.5-7.5v-3.75a7.55,7.55,0,0,1,7.5-7.5H1369a7.55,7.55,0,0,1,7.5,7.5Zm22.5,7.5h-3.75V221.93a3.79,3.79,0,0,0-3.75-3.75,5.41,5.41,0,0,0-3.75,1.88l-3.75,3.75v9.37h-3.75V214.43H1384v5.14l2.36-2.33q2.82-2.81,5.14-2.81a7.49,7.49,0,0,1,7.5,7.5Zm18.75-4.91-9.38,9.34-2.58-2.59,8.21-8.18V213.27l-8.21-8.21,2.58-2.59,9.38,9.37Z"
          transform="translate(-361 -74)"/>
    <path class="cls-3"
          d="M416.55,568.19v-32H425a11.62,11.62,0,0,1,8.93,3.56q3.33,3.56,3.4,9.75v5.19q0,6.3-3.33,9.9t-9.18,3.59ZM423,541.58v21.25h1.93c2.16,0,3.67-.57,4.55-1.7s1.34-3.1,1.39-5.88v-5.56q0-4.49-1.26-6.25t-4.26-1.86Z"
          transform="translate(-361 -74)"/>
    <path class="cls-3"
          d="M453,568.19a8.68,8.68,0,0,1-.53-1.85,5.3,5.3,0,0,1-4.53,2.29,6.68,6.68,0,0,1-4.95-2,7,7,0,0,1-2-5.12,7.21,7.21,0,0,1,2.39-5.78q2.38-2,6.86-2.08h1.89v-1.92a3.55,3.55,0,0,0-.55-2.26,2,2,0,0,0-1.6-.66c-1.55,0-2.33.91-2.33,2.73h-6.22a6.91,6.91,0,0,1,2.47-5.44,9.22,9.22,0,0,1,6.26-2.14,8.43,8.43,0,0,1,6.05,2,7.61,7.61,0,0,1,2.14,5.81V563a11.71,11.71,0,0,0,.88,4.82v.37Zm-3.67-4.44a3.47,3.47,0,0,0,1.76-.42,2.79,2.79,0,0,0,1.07-1V557.4h-1.49a3.17,3.17,0,0,0-2.49,1,3.89,3.89,0,0,0-.92,2.7Q447.22,563.75,449.29,563.75Z"
          transform="translate(-361 -74)"/>
    <path class="cls-3"
          d="M468.54,544.42l.17,2.35a6.61,6.61,0,0,1,5.52-2.79c4.08,0,6.19,2.86,6.3,8.59v15.62h-6.24V553a5.52,5.52,0,0,0-.6-2.94,2.37,2.37,0,0,0-2.12-.91,2.91,2.91,0,0,0-2.64,1.74v17.27h-6.24V544.42Z"
          transform="translate(-361 -74)"/>
    <path class="cls-3"
          d="M485,538.26a3.19,3.19,0,0,1,.93-2.37,3.75,3.75,0,0,1,4.92,0,3.23,3.23,0,0,1,.92,2.37,3.18,3.18,0,0,1-3.38,3.32,3.26,3.26,0,0,1-2.47-.94A3.3,3.3,0,0,1,485,538.26Zm6.53,29.93h-6.24V544.42h6.24Z"
          transform="translate(-361 -74)"/>
    <path class="cls-3"
          d="M505.93,568.63a9.74,9.74,0,0,1-7.47-2.86c-1.78-1.9-2.68-4.63-2.68-8.17v-1.89q0-5.62,2.46-8.68a8.53,8.53,0,0,1,7.06-3c3,0,5.23.95,6.74,2.86s2.28,4.73,2.31,8.48v3H502a6.56,6.56,0,0,0,1.16,3.87,3.93,3.93,0,0,0,3.19,1.22,7,7,0,0,0,5.21-2.13l2.44,3.76a8,8,0,0,1-3.32,2.56A11.44,11.44,0,0,1,505.93,568.63ZM502,554h6.22v-.57a6.65,6.65,0,0,0-.7-3.23,2.45,2.45,0,0,0-2.29-1.1,2.6,2.6,0,0,0-2.36,1.16A8.1,8.1,0,0,0,502,554Z"
          transform="translate(-361 -74)"/>
    <path class="cls-3" d="M524.39,568.19h-6.24V534.44h6.24Z" transform="translate(-361 -74)"/>
    <path class="cls-3"
          d="M561.63,564.56a11.71,11.71,0,0,1-4.58,3.05,16.76,16.76,0,0,1-5.94,1c-3.68,0-6.53-1.14-8.57-3.42s-3.08-5.59-3.14-9.94v-5.76q0-6.62,2.89-10.18t8.42-3.57c3.48,0,6.09.86,7.86,2.57s2.79,4.4,3.06,8.06h-6.28c-.18-2-.6-3.42-1.27-4.16a4.1,4.1,0,0,0-3.17-1.11,4.15,4.15,0,0,0-3.8,1.91q-1.18,1.9-1.23,6.09v5.8q0,4.37,1.31,6.36a4.76,4.76,0,0,0,4.29,2,5.63,5.63,0,0,0,3.1-.77l.57-.4v-5.86h-4.52v-4.88h11Z"
          transform="translate(-361 -74)"/>
    <path class="cls-3"
          d="M577.19,568.19a9.32,9.32,0,0,1-.53-1.85,5.29,5.29,0,0,1-4.52,2.29,6.71,6.71,0,0,1-5-2,6.94,6.94,0,0,1-2-5.12,7.21,7.21,0,0,1,2.38-5.78q2.39-2,6.87-2.08h1.89v-1.92a3.61,3.61,0,0,0-.55-2.26,2,2,0,0,0-1.61-.66c-1.55,0-2.33.91-2.33,2.73h-6.21a6.88,6.88,0,0,1,2.47-5.44,9.19,9.19,0,0,1,6.25-2.14,8.42,8.42,0,0,1,6,2,7.61,7.61,0,0,1,2.14,5.81V563a11.88,11.88,0,0,0,.88,4.82v.37Zm-3.67-4.44a3.45,3.45,0,0,0,1.76-.42,2.9,2.9,0,0,0,1.08-1V557.4h-1.5a3.2,3.2,0,0,0-2.49,1,3.89,3.89,0,0,0-.91,2.7C571.46,562.87,572.15,563.75,573.52,563.75Z"
          transform="translate(-361 -74)"/>
    <path class="cls-3"
          d="M597.6,561.82a1.93,1.93,0,0,0-.75-1.46,15.16,15.16,0,0,0-3.38-1.82,14,14,0,0,1-5.28-3.23,6.11,6.11,0,0,1-1.44-4.15A6.63,6.63,0,0,1,589,546a8.54,8.54,0,0,1,6-2,9.27,9.27,0,0,1,6.26,2,6.76,6.76,0,0,1,2.35,5.42h-6.22c0-1.93-.8-2.9-2.41-2.9a2.17,2.17,0,0,0-2.27,2.33,1.8,1.8,0,0,0,.71,1.4A15.05,15.05,0,0,0,596.7,554a13.77,13.77,0,0,1,5.38,3.13,6.44,6.44,0,0,1,1.57,4.48,6.26,6.26,0,0,1-2.4,5.12,9.75,9.75,0,0,1-6.28,1.93,10,10,0,0,1-4.62-1,7.77,7.77,0,0,1-3.13-2.85,7.35,7.35,0,0,1-1.13-3.93H592a3.76,3.76,0,0,0,.76,2.44,3,3,0,0,0,2.34.81C596.77,564.08,597.6,563.33,597.6,561.82Z"
          transform="translate(-361 -74)"/>
    <path class="cls-3"
          d="M626,557.05q0,5.61-1.93,8.59a6.36,6.36,0,0,1-5.72,3,5.53,5.53,0,0,1-4.66-2.35v11.05h-6.22V544.42h5.76l.22,2.17a5.59,5.59,0,0,1,4.86-2.61,6.52,6.52,0,0,1,5.72,2.76q1.92,2.78,2,8.49Zm-6.2-1.56a11.15,11.15,0,0,0-.76-4.88,2.66,2.66,0,0,0-2.56-1.43,3,3,0,0,0-2.79,1.61v11.14a3,3,0,0,0,2.84,1.53,2.57,2.57,0,0,0,2.56-1.55,12.49,12.49,0,0,0,.71-4.86Z"
          transform="translate(-361 -74)"/>
    <path class="cls-3"
          d="M641.09,568.19a8.68,8.68,0,0,1-.53-1.85,5.3,5.3,0,0,1-4.53,2.29,6.68,6.68,0,0,1-4.95-2,7,7,0,0,1-2-5.12,7.21,7.21,0,0,1,2.39-5.78q2.38-2,6.86-2.08h1.89v-1.92a3.55,3.55,0,0,0-.55-2.26,2,2,0,0,0-1.6-.66c-1.55,0-2.33.91-2.33,2.73h-6.22a6.91,6.91,0,0,1,2.47-5.44,9.22,9.22,0,0,1,6.26-2.14,8.43,8.43,0,0,1,6.05,2,7.61,7.61,0,0,1,2.14,5.81V563a11.71,11.71,0,0,0,.88,4.82v.37Zm-3.67-4.44a3.47,3.47,0,0,0,1.76-.42,2.79,2.79,0,0,0,1.07-1V557.4h-1.49a3.17,3.17,0,0,0-2.49,1,3.89,3.89,0,0,0-.92,2.7Q635.35,563.75,637.42,563.75Z"
          transform="translate(-361 -74)"/>
    <path class="cls-3"
          d="M662.71,550.41l-2.07-.17a3.38,3.38,0,0,0-3.45,2.24v15.71H651V544.42h5.87L657,547q1.47-3,4.06-3a4.33,4.33,0,0,1,1.71.28Z"
          transform="translate(-361 -74)"/>
    <path class="cls-3"
          d="M685.87,568.63a9.71,9.71,0,0,1-7.47-2.86c-1.79-1.9-2.68-4.63-2.68-8.17v-1.89q0-5.62,2.46-8.68a8.51,8.51,0,0,1,7.05-3q4.49,0,6.75,2.86c1.51,1.91,2.27,4.73,2.3,8.48v3H681.91a6.49,6.49,0,0,0,1.17,3.87,3.92,3.92,0,0,0,3.18,1.22,7,7,0,0,0,5.21-2.13l2.44,3.76a8,8,0,0,1-3.32,2.56A11.4,11.4,0,0,1,685.87,568.63Zm-.22-34.19h7l-6.11,6.81h-5.19ZM682,554h6.22v-.57a6.63,6.63,0,0,0-.71-3.23,2.45,2.45,0,0,0-2.28-1.1,2.58,2.58,0,0,0-2.36,1.16A7.85,7.85,0,0,0,682,554Z"
          transform="translate(-361 -74)"/>
    <path class="cls-3" d="M725,554.35H714.94v8.48h11.91v5.36H708.48v-32H726.8v5.38H714.94v7.56H725Z"
          transform="translate(-361 -74)"/>
    <path class="cls-3"
          d="M735.94,544.42l.18,2.35a6.59,6.59,0,0,1,5.51-2.79q6.14,0,6.31,8.59v15.62H741.7V553a5.52,5.52,0,0,0-.6-2.94,2.38,2.38,0,0,0-2.12-.91,2.91,2.91,0,0,0-2.64,1.74v17.27H730.1V544.42Z"
          transform="translate(-361 -74)"/>
    <path class="cls-3"
          d="M751.65,555.58c0-3.9.71-6.81,2.11-8.73a6.93,6.93,0,0,1,5.91-2.87,5.71,5.71,0,0,1,5,2.54l.24-2.1h5.61v23.77q0,4.54-2.55,6.95t-7.32,2.41a12.1,12.1,0,0,1-4.11-.78,7.65,7.65,0,0,1-3.21-2l2.09-4.31A6.58,6.58,0,0,0,757.7,572a6.88,6.88,0,0,0,2.66.58,3.85,3.85,0,0,0,3-1,4.77,4.77,0,0,0,.94-3.22v-2a5.58,5.58,0,0,1-4.64,2.33,6.78,6.78,0,0,1-5.88-3q-2.07-3-2.12-8.34Zm6.22,1.56a10.18,10.18,0,0,0,.86,4.8,2.91,2.91,0,0,0,2.72,1.5,3.18,3.18,0,0,0,2.84-1.38V550.7a3.13,3.13,0,0,0-2.79-1.52,3,3,0,0,0-2.74,1.52,10.11,10.11,0,0,0-.89,4.88Z"
          transform="translate(-361 -74)"/>
    <path class="cls-3"
          d="M784.64,568.63a9.74,9.74,0,0,1-7.48-2.86c-1.78-1.9-2.68-4.63-2.68-8.17v-1.89q0-5.62,2.46-8.68a8.55,8.55,0,0,1,7.06-3c3,0,5.23.95,6.74,2.86s2.28,4.73,2.31,8.48v3H780.68a6.56,6.56,0,0,0,1.16,3.87,3.94,3.94,0,0,0,3.19,1.22,7,7,0,0,0,5.21-2.13l2.44,3.76a8,8,0,0,1-3.32,2.56A11.43,11.43,0,0,1,784.64,568.63ZM780.72,554h6.22v-.57a6.65,6.65,0,0,0-.7-3.23,2.45,2.45,0,0,0-2.29-1.1,2.6,2.6,0,0,0-2.36,1.16A8.1,8.1,0,0,0,780.72,554Z"
          transform="translate(-361 -74)"/>
    <path class="cls-3"
          d="M802.26,544.42l.17,2.35A6.61,6.61,0,0,1,808,544q6.13,0,6.3,8.59v15.62H808V553a5.52,5.52,0,0,0-.6-2.94,2.37,2.37,0,0,0-2.12-.91,2.91,2.91,0,0,0-2.64,1.74v17.27h-6.24V544.42Z"
          transform="translate(-361 -74)"/>
    <path class="cls-3"
          d="M824.78,546.5a6.15,6.15,0,0,1,5-2.52,5.78,5.78,0,0,1,4.94,2.28q1.69,2.28,1.71,6.81v15.12h-6.24V553.14a5.35,5.35,0,0,0-.65-3,2.35,2.35,0,0,0-2.09-.94,2.94,2.94,0,0,0-2.64,1.56v17.45h-6.22V534.44h6.22Z"
          transform="translate(-361 -74)"/>
    <path class="cls-3"
          d="M850.47,568.63a9.74,9.74,0,0,1-7.48-2.86c-1.78-1.9-2.68-4.63-2.68-8.17v-1.89q0-5.62,2.46-8.68a8.55,8.55,0,0,1,7.06-3c3,0,5.23.95,6.74,2.86s2.28,4.73,2.31,8.48v3H846.51a6.56,6.56,0,0,0,1.16,3.87,3.94,3.94,0,0,0,3.19,1.22,7,7,0,0,0,5.21-2.13l2.44,3.76a8,8,0,0,1-3.32,2.56A11.43,11.43,0,0,1,850.47,568.63ZM846.55,554h6.22v-.57a6.65,6.65,0,0,0-.7-3.23,2.45,2.45,0,0,0-2.29-1.1,2.6,2.6,0,0,0-2.36,1.16A8.1,8.1,0,0,0,846.55,554Z"
          transform="translate(-361 -74)"/>
    <path class="cls-3"
          d="M862.4,538.26a3.19,3.19,0,0,1,.92-2.37,3.75,3.75,0,0,1,4.92,0,3.19,3.19,0,0,1,.92,2.37,3.38,3.38,0,1,1-6.76,0Zm6.52,29.93h-6.24V544.42h6.24Z"
          transform="translate(-361 -74)"/>
    <path class="cls-3"
          d="M885.47,550.41l-2.07-.17a3.38,3.38,0,0,0-3.45,2.24v15.71h-6.24V544.42h5.87l.17,2.57c1-2,2.34-3,4.07-3a4.33,4.33,0,0,1,1.71.28Z"
          transform="translate(-361 -74)"/>
    <path class="cls-3"
          d="M887.14,555.53q0-5.4,2.55-8.48a9.69,9.69,0,0,1,14.15,0q2.55,3.08,2.55,8.53v1.51c0,3.62-.85,6.45-2.53,8.48a9.73,9.73,0,0,1-14.18,0c-1.7-2-2.54-4.88-2.54-8.51Zm6.24,1.56q0,6.38,3.4,6.37,3.15,0,3.39-5.31l0-2.62a10,10,0,0,0-.9-4.82,2.8,2.8,0,0,0-2.55-1.57,2.73,2.73,0,0,0-2.47,1.57,10.16,10.16,0,0,0-.89,4.82Z"
          transform="translate(-361 -74)"/>
    <path class="cls-3"
          d="M919.79,555.58q0-5.85,2-8.73a6.55,6.55,0,0,1,5.75-2.87,5.55,5.55,0,0,1,4.57,2.37V534.44h6.27v33.75h-5.65l-.29-2.42a5.71,5.71,0,0,1-4.92,2.86,6.48,6.48,0,0,1-5.7-2.86q-2-2.85-2-8.39Zm6.24,1.56a11.31,11.31,0,0,0,.75,4.91,2.62,2.62,0,0,0,2.52,1.39,3,3,0,0,0,2.79-1.65V550.94a3,3,0,0,0-2.76-1.76,2.67,2.67,0,0,0-2.51,1.39,10.72,10.72,0,0,0-.79,4.92Z"
          transform="translate(-361 -74)"/>
    <path class="cls-3"
          d="M952.53,568.63a9.74,9.74,0,0,1-7.47-2.86c-1.79-1.9-2.68-4.63-2.68-8.17v-1.89q0-5.62,2.46-8.68a8.51,8.51,0,0,1,7-3q4.49,0,6.75,2.86c1.51,1.91,2.27,4.73,2.3,8.48v3H948.57a6.49,6.49,0,0,0,1.17,3.87,3.92,3.92,0,0,0,3.18,1.22,7,7,0,0,0,5.21-2.13l2.44,3.76a8,8,0,0,1-3.32,2.56A11.4,11.4,0,0,1,952.53,568.63ZM948.62,554h6.22v-.57a6.63,6.63,0,0,0-.71-3.23,2.45,2.45,0,0,0-2.28-1.1,2.58,2.58,0,0,0-2.36,1.16A8,8,0,0,0,948.62,554Z"
          transform="translate(-361 -74)"/>
    <path class="cls-3"
          d="M988.65,559.8a4,4,0,0,0-1-3,11.45,11.45,0,0,0-3.63-2.08,17,17,0,0,1-6.93-4.27A8.61,8.61,0,0,1,975,544.7a8.12,8.12,0,0,1,2.87-6.49A11.93,11.93,0,0,1,990.39,537a8.67,8.67,0,0,1,3.55,3.5,10.63,10.63,0,0,1,1.24,5.15h-6.44a5.28,5.28,0,0,0-1-3.42,3.34,3.34,0,0,0-2.75-1.18,3.48,3.48,0,0,0-2.64,1,3.78,3.78,0,0,0-.95,2.69,3.34,3.34,0,0,0,1.06,2.39,12.11,12.11,0,0,0,3.73,2.21,16,16,0,0,1,6.81,4.15,9.27,9.27,0,0,1,2.12,6.26,8.27,8.27,0,0,1-2.66,6.53,10.54,10.54,0,0,1-7.23,2.35,12.45,12.45,0,0,1-5.65-1.28,9.56,9.56,0,0,1-4-3.64,10.59,10.59,0,0,1-1.44-5.61h6.49a6.13,6.13,0,0,0,1.07,4,4.43,4.43,0,0,0,3.52,1.25C987.52,563.38,988.65,562.18,988.65,559.8Z"
          transform="translate(-361 -74)"/>
    <path class="cls-3"
          d="M998.41,555.53q0-5.4,2.55-8.48a9.69,9.69,0,0,1,14.15,0q2.55,3.08,2.55,8.53v1.51c0,3.62-.85,6.45-2.53,8.48a9.73,9.73,0,0,1-14.18,0c-1.7-2-2.54-4.88-2.54-8.51Zm6.24,1.56q0,6.38,3.4,6.37,3.15,0,3.39-5.31l0-2.62a10,10,0,0,0-.9-4.82,2.8,2.8,0,0,0-2.55-1.57,2.73,2.73,0,0,0-2.47,1.57,10,10,0,0,0-.89,4.82Z"
          transform="translate(-361 -74)"/>
    <path class="cls-3"
          d="M1023,568.19V549.07h-2.88v-4.65H1023v-2.14a8.7,8.7,0,0,1,2.08-6.12,7.44,7.44,0,0,1,5.68-2.18,12,12,0,0,1,2.81.44l0,5a5.26,5.26,0,0,0-1.52-.19c-1.85,0-2.77,1.09-2.77,3.29v1.94h3.71v4.65h-3.71v19.12Z"
          transform="translate(-361 -74)"/>
    <path class="cls-3"
          d="M1043.5,538.57v5.85h3.18v4.65h-3.18v11.82a3.47,3.47,0,0,0,.38,1.94,1.74,1.74,0,0,0,1.48.53,6,6,0,0,0,1.48-.16l0,4.84a9.8,9.8,0,0,1-3.43.59q-6,0-6.08-6.91V549.07h-2.75v-4.65h2.75v-5.85Z"
          transform="translate(-361 -74)"/>
    <path class="cls-3"
          d="M1067.4,557.75l2.13-13.33h6l-4.92,23.77h-5.17L1062,554.43l-3.36,13.76h-5.19l-4.92-23.77h6l2.11,13.35,3.16-13.35h4.42Z"
          transform="translate(-361 -74)"/>
    <path class="cls-3"
          d="M1089.86,568.19a8.68,8.68,0,0,1-.53-1.85,5.3,5.3,0,0,1-4.53,2.29,6.68,6.68,0,0,1-5-2,7,7,0,0,1-2-5.12,7.21,7.21,0,0,1,2.39-5.78c1.59-1.36,3.87-2,6.86-2.08H1089v-1.92a3.55,3.55,0,0,0-.55-2.26,2,2,0,0,0-1.6-.66c-1.55,0-2.33.91-2.33,2.73h-6.22a6.91,6.91,0,0,1,2.47-5.44A9.19,9.19,0,0,1,1087,544a8.44,8.44,0,0,1,6.06,2,7.61,7.61,0,0,1,2.14,5.81V563a11.71,11.71,0,0,0,.88,4.82v.37Zm-3.67-4.44a3.47,3.47,0,0,0,1.76-.42,2.79,2.79,0,0,0,1.07-1V557.4h-1.49a3.21,3.21,0,0,0-2.5,1,3.94,3.94,0,0,0-.91,2.7Q1084.12,563.75,1086.19,563.75Z"
          transform="translate(-361 -74)"/>
    <path class="cls-3"
          d="M1111.48,550.41l-2.07-.17a3.38,3.38,0,0,0-3.45,2.24v15.71h-6.24V544.42h5.87l.18,2.57q1.47-3,4.06-3a4.36,4.36,0,0,1,1.71.28Z"
          transform="translate(-361 -74)"/>
    <path class="cls-3"
          d="M1123.85,568.63a9.74,9.74,0,0,1-7.47-2.86c-1.79-1.9-2.68-4.63-2.68-8.17v-1.89q0-5.62,2.46-8.68a8.51,8.51,0,0,1,7-3q4.49,0,6.75,2.86c1.51,1.91,2.27,4.73,2.31,8.48v3h-12.38a6.49,6.49,0,0,0,1.17,3.87,3.92,3.92,0,0,0,3.18,1.22,7,7,0,0,0,5.21-2.13l2.44,3.76a8,8,0,0,1-3.32,2.56A11.4,11.4,0,0,1,1123.85,568.63ZM1119.94,554h6.22v-.57a6.63,6.63,0,0,0-.71-3.23,2.45,2.45,0,0,0-2.28-1.1,2.58,2.58,0,0,0-2.36,1.16A8,8,0,0,0,1119.94,554Z"
          transform="translate(-361 -74)"/>
    <path class="cls-3"
          d="M1155.75,568.63a9.74,9.74,0,0,1-7.47-2.86c-1.78-1.9-2.68-4.63-2.68-8.17v-1.89q0-5.62,2.46-8.68a8.52,8.52,0,0,1,7.06-3q4.47,0,6.74,2.86c1.51,1.91,2.28,4.73,2.31,8.48v3H1151.8a6.49,6.49,0,0,0,1.16,3.87,3.93,3.93,0,0,0,3.19,1.22,7,7,0,0,0,5.21-2.13l2.44,3.76a8,8,0,0,1-3.32,2.56A11.44,11.44,0,0,1,1155.75,568.63ZM1151.84,554h6.22v-.57a6.65,6.65,0,0,0-.7-3.23,2.45,2.45,0,0,0-2.29-1.1,2.6,2.6,0,0,0-2.36,1.16A8.1,8.1,0,0,0,1151.84,554Z"
          transform="translate(-361 -74)"/>
    <path class="cls-3"
          d="M1183.9,544.42l.18,2.19a6.67,6.67,0,0,1,5.51-2.63,5.12,5.12,0,0,1,5,3.2,6.52,6.52,0,0,1,5.83-3.2q6.24,0,6.39,8.63v15.58h-6.22V553a5.68,5.68,0,0,0-.57-3,2.14,2.14,0,0,0-1.93-.88c-1.16,0-2,.71-2.6,2.13l0,.75v16.13h-6.22V553.05a6,6,0,0,0-.55-3,2.11,2.11,0,0,0-2-.91,2.84,2.84,0,0,0-2.55,1.74v17.27h-6.22V544.42Z"
          transform="translate(-361 -74)"/>
    <path class="cls-3"
          d="M1221,568.63a9.74,9.74,0,0,1-7.47-2.86c-1.78-1.9-2.68-4.63-2.68-8.17v-1.89q0-5.62,2.46-8.68a8.53,8.53,0,0,1,7.06-3c3,0,5.23.95,6.74,2.86s2.28,4.73,2.31,8.48v3h-12.37a6.56,6.56,0,0,0,1.16,3.87,3.93,3.93,0,0,0,3.19,1.22,7,7,0,0,0,5.21-2.13l2.44,3.76a8,8,0,0,1-3.32,2.56A11.44,11.44,0,0,1,1221,568.63ZM1217.12,554h6.22v-.57a6.65,6.65,0,0,0-.7-3.23,2.45,2.45,0,0,0-2.29-1.1,2.6,2.6,0,0,0-2.36,1.16A8.1,8.1,0,0,0,1217.12,554Z"
          transform="translate(-361 -74)"/>
    <path class="cls-3"
          d="M1238.81,544.42l.18,2.19a6.67,6.67,0,0,1,5.51-2.63,5.12,5.12,0,0,1,5,3.2,6.52,6.52,0,0,1,5.83-3.2q6.24,0,6.39,8.63v15.58h-6.22V553a5.68,5.68,0,0,0-.57-3,2.13,2.13,0,0,0-1.93-.88c-1.16,0-2,.71-2.6,2.13l0,.75v16.13h-6.22V553.05a6,6,0,0,0-.55-3,2.11,2.11,0,0,0-2-.91,2.85,2.85,0,0,0-2.55,1.74v17.27H1233V544.42Z"
          transform="translate(-361 -74)"/>
    <path class="cls-3"
          d="M1284.89,557.07q0,5.77-1.85,8.67a6.37,6.37,0,0,1-5.8,2.89,5.74,5.74,0,0,1-5-2.79l-.19,2.35h-5.74V534.44h6.22v11.91a5.5,5.5,0,0,1,4.64-2.37,6.4,6.4,0,0,1,5.8,2.86c1.23,1.91,1.86,4.72,1.89,8.41Zm-6.22-1.56c0-2.5-.24-4.18-.73-5a2.64,2.64,0,0,0-2.52-1.29,3,3,0,0,0-2.86,1.78v10.83a3,3,0,0,0,2.9,1.67,2.62,2.62,0,0,0,2.47-1.16c.47-.78.71-2.28.74-4.53Z"
          transform="translate(-361 -74)"/>
    <path class="cls-3"
          d="M1300.36,550.41l-2.07-.17a3.38,3.38,0,0,0-3.45,2.24v15.71h-6.24V544.42h5.87l.17,2.57c1-2,2.34-3,4.07-3a4.36,4.36,0,0,1,1.71.28Z"
          transform="translate(-361 -74)"/>
    <path class="cls-3"
          d="M1302,555.53q0-5.4,2.54-8.48a9.7,9.7,0,0,1,14.16,0q2.54,3.08,2.54,8.53v1.51q0,5.43-2.52,8.48a9.74,9.74,0,0,1-14.19,0q-2.54-3.06-2.53-8.51Zm6.24,1.56q0,6.38,3.4,6.37c2.1,0,3.22-1.77,3.39-5.31l0-2.62a10,10,0,0,0-.9-4.82,2.8,2.8,0,0,0-2.55-1.57,2.72,2.72,0,0,0-2.47,1.57,10,10,0,0,0-.89,4.82Z"
          transform="translate(-361 -74)"/>
    <path class="cls-3"
          d="M415.41,609.58q0-5.85,2-8.73a6.57,6.57,0,0,1,5.76-2.87,5.55,5.55,0,0,1,4.57,2.37V588.44H434v33.75h-5.64l-.29-2.42a5.71,5.71,0,0,1-4.92,2.86,6.48,6.48,0,0,1-5.7-2.86q-2-2.85-2-8.39Zm6.24,1.56a11.5,11.5,0,0,0,.74,4.91,2.63,2.63,0,0,0,2.53,1.39,3,3,0,0,0,2.79-1.65V604.94a3,3,0,0,0-2.77-1.76,2.67,2.67,0,0,0-2.5,1.39,10.72,10.72,0,0,0-.79,4.92Z"
          transform="translate(-361 -74)"/>
    <path class="cls-3"
          d="M449.84,622.19a8.68,8.68,0,0,1-.53-1.85,5.3,5.3,0,0,1-4.53,2.29,6.68,6.68,0,0,1-4.95-2,7,7,0,0,1-2-5.12,7.21,7.21,0,0,1,2.39-5.78q2.38-2,6.86-2.08H449v-1.92a3.55,3.55,0,0,0-.55-2.26,2,2,0,0,0-1.6-.66c-1.55,0-2.33.91-2.33,2.73H438.3a6.91,6.91,0,0,1,2.47-5.44A9.22,9.22,0,0,1,447,598a8.43,8.43,0,0,1,6.05,2,7.61,7.61,0,0,1,2.14,5.81V617a11.71,11.71,0,0,0,.88,4.82v.37Zm-3.67-4.44a3.47,3.47,0,0,0,1.76-.42,2.79,2.79,0,0,0,1.07-1V611.4h-1.49a3.17,3.17,0,0,0-2.49,1,3.89,3.89,0,0,0-.92,2.7Q444.1,617.75,446.17,617.75Z"
          transform="translate(-361 -74)"/>
    <path class="cls-3" d="M485.68,615.64h-8.82l-1.71,6.55h-6.83l10-32h5.92l10.06,32h-6.9Zm-7.41-5.38h6l-3-11.41Z"
          transform="translate(-361 -74)"/>
    <path class="cls-3"
          d="M514.44,611.05q0,5.61-1.93,8.59a6.35,6.35,0,0,1-5.72,3,5.53,5.53,0,0,1-4.66-2.35v11.05h-6.22V598.42h5.76l.22,2.17a5.59,5.59,0,0,1,4.86-2.61,6.52,6.52,0,0,1,5.72,2.76q1.92,2.78,2,8.49Zm-6.2-1.56a11.15,11.15,0,0,0-.76-4.88,2.66,2.66,0,0,0-2.56-1.43,3,3,0,0,0-2.79,1.61v11.14a3,3,0,0,0,2.84,1.53,2.57,2.57,0,0,0,2.56-1.55,12.49,12.49,0,0,0,.71-4.86Z"
          transform="translate(-361 -74)"/>
    <path class="cls-3"
          d="M529.49,622.19a8.68,8.68,0,0,1-.53-1.85,5.29,5.29,0,0,1-4.52,2.29,6.69,6.69,0,0,1-5-2,7,7,0,0,1-2-5.12,7.21,7.21,0,0,1,2.39-5.78q2.39-2,6.86-2.08h1.89v-1.92a3.55,3.55,0,0,0-.55-2.26,2,2,0,0,0-1.6-.66c-1.55,0-2.33.91-2.33,2.73H518a6.91,6.91,0,0,1,2.47-5.44,9.22,9.22,0,0,1,6.26-2.14,8.43,8.43,0,0,1,6.05,2,7.61,7.61,0,0,1,2.14,5.81V617a11.71,11.71,0,0,0,.88,4.82v.37Zm-3.67-4.44a3.47,3.47,0,0,0,1.76-.42,2.79,2.79,0,0,0,1.07-1V611.4h-1.49a3.17,3.17,0,0,0-2.49,1,3.89,3.89,0,0,0-.92,2.7Q523.75,617.75,525.82,617.75Z"
          transform="translate(-361 -74)"/>
    <path class="cls-3"
          d="M548,617.46c1.8,0,2.72-1.17,2.74-3.51h5.85a8.71,8.71,0,0,1-2.4,6.28,8.09,8.09,0,0,1-6.06,2.4q-4.59,0-7-2.86c-1.61-1.9-2.43-4.71-2.46-8.41v-1.89q0-5.61,2.38-8.55t7-2.94a8.07,8.07,0,0,1,6.19,2.42,9.89,9.89,0,0,1,2.31,6.89h-5.85a6.2,6.2,0,0,0-.65-3.07,2.26,2.26,0,0,0-2.11-1.08,2.51,2.51,0,0,0-2.33,1.15,9.82,9.82,0,0,0-.75,4.47v2.42a18.7,18.7,0,0,0,.29,4.06,3.07,3.07,0,0,0,.94,1.69A2.87,2.87,0,0,0,548,617.46Z"
          transform="translate(-361 -74)"/>
    <path class="cls-3"
          d="M566.14,600.5a6.14,6.14,0,0,1,5-2.52,5.78,5.78,0,0,1,4.95,2.28q1.69,2.28,1.71,6.81v15.12h-6.24V607.14a5.35,5.35,0,0,0-.65-3,2.35,2.35,0,0,0-2.09-.94,2.94,2.94,0,0,0-2.64,1.56v17.45h-6.22V588.44h6.22Z"
          transform="translate(-361 -74)"/>
    <path class="cls-3"
          d="M591.83,622.63a9.74,9.74,0,0,1-7.48-2.86c-1.78-1.9-2.68-4.63-2.68-8.17v-1.89q0-5.62,2.46-8.68a8.55,8.55,0,0,1,7.06-3c3,0,5.23.95,6.74,2.86s2.28,4.73,2.31,8.48v3H587.87a6.56,6.56,0,0,0,1.16,3.87,3.94,3.94,0,0,0,3.19,1.22,7,7,0,0,0,5.21-2.13l2.44,3.76a8,8,0,0,1-3.32,2.56A11.43,11.43,0,0,1,591.83,622.63ZM587.91,608h6.22v-.57a6.65,6.65,0,0,0-.7-3.23,2.45,2.45,0,0,0-2.29-1.1,2.6,2.6,0,0,0-2.36,1.16A8.1,8.1,0,0,0,587.91,608Z"
          transform="translate(-361 -74)"/>
    <path class="cls-3"
          d="M628,613.8a4,4,0,0,0-1-3,11.52,11.52,0,0,0-3.64-2.08,16.92,16.92,0,0,1-6.92-4.27,8.56,8.56,0,0,1-2.11-5.79,8.12,8.12,0,0,1,2.87-6.49A11.91,11.91,0,0,1,629.68,591a8.67,8.67,0,0,1,3.55,3.5,10.52,10.52,0,0,1,1.24,5.15H628a5.28,5.28,0,0,0-1-3.42,3.37,3.37,0,0,0-2.76-1.18,3.46,3.46,0,0,0-2.63,1,3.78,3.78,0,0,0-1,2.69,3.3,3.3,0,0,0,1.06,2.39,12,12,0,0,0,3.73,2.21,15.91,15.91,0,0,1,6.8,4.15,9.22,9.22,0,0,1,2.12,6.26,8.24,8.24,0,0,1-2.66,6.53,10.5,10.5,0,0,1-7.23,2.35,12.44,12.44,0,0,1-5.64-1.28,9.56,9.56,0,0,1-4-3.64,10.59,10.59,0,0,1-1.44-5.61H620a6.13,6.13,0,0,0,1.08,4,4.42,4.42,0,0,0,3.51,1.25C626.82,617.38,628,616.18,628,613.8Z"
          transform="translate(-361 -74)"/>
    <path class="cls-3"
          d="M637.7,609.53q0-5.4,2.55-8.48a9.69,9.69,0,0,1,14.15,0q2.55,3.08,2.55,8.53v1.51q0,5.43-2.52,8.48a9.74,9.74,0,0,1-14.19,0q-2.54-3.06-2.54-8.51Zm6.24,1.56q0,6.38,3.41,6.37,3.14,0,3.38-5.31l0-2.62a9.89,9.89,0,0,0-.91-4.82,2.8,2.8,0,0,0-2.54-1.57,2.74,2.74,0,0,0-2.48,1.57,10.16,10.16,0,0,0-.89,4.82Z"
          transform="translate(-361 -74)"/>
    <path class="cls-3"
          d="M662.25,622.19V603.07h-2.88v-4.65h2.88v-2.14a8.65,8.65,0,0,1,2.07-6.12A7.45,7.45,0,0,1,670,588a12,12,0,0,1,2.82.44l-.05,5a5.19,5.19,0,0,0-1.51-.19c-1.85,0-2.77,1.09-2.77,3.29v1.94h3.71v4.65h-3.71v19.12Z"
          transform="translate(-361 -74)"/>
    <path class="cls-3"
          d="M682.79,592.57v5.85H686v4.65h-3.19v11.82a3.45,3.45,0,0,0,.39,1.94,1.73,1.73,0,0,0,1.48.53,5.87,5.87,0,0,0,1.47-.16l0,4.84a9.85,9.85,0,0,1-3.43.59q-6,0-6.09-6.91V603.07h-2.74v-4.65h2.74v-5.85Z"
          transform="translate(-361 -74)"/>
    <path class="cls-3"
          d="M706.7,611.75l2.13-13.33h5.95l-4.92,23.77H704.7l-3.36-13.76L698,622.19h-5.19l-4.92-23.77h6L696,611.77l3.17-13.35h4.41Z"
          transform="translate(-361 -74)"/>
    <path class="cls-3"
          d="M729.15,622.19a8.8,8.8,0,0,1-.52-1.85,5.32,5.32,0,0,1-4.53,2.29,6.68,6.68,0,0,1-5-2,6.91,6.91,0,0,1-2-5.12,7.21,7.21,0,0,1,2.38-5.78q2.38-2,6.87-2.08h1.89v-1.92a3.55,3.55,0,0,0-.55-2.26,2,2,0,0,0-1.6-.66c-1.56,0-2.33.91-2.33,2.73h-6.22a6.88,6.88,0,0,1,2.47-5.44,9.19,9.19,0,0,1,6.25-2.14,8.44,8.44,0,0,1,6.06,2,7.65,7.65,0,0,1,2.14,5.81V617a11.71,11.71,0,0,0,.88,4.82v.37Zm-3.67-4.44a3.45,3.45,0,0,0,1.76-.42,2.82,2.82,0,0,0,1.08-1V611.4h-1.49a3.21,3.21,0,0,0-2.5,1,3.89,3.89,0,0,0-.91,2.7C723.42,616.87,724.11,617.75,725.48,617.75Z"
          transform="translate(-361 -74)"/>
    <path class="cls-3"
          d="M750.78,604.41l-2.07-.17a3.38,3.38,0,0,0-3.45,2.24v15.71H739V598.42h5.87l.17,2.57q1.47-3,4.07-3a4.36,4.36,0,0,1,1.71.28Z"
          transform="translate(-361 -74)"/>
    <path class="cls-3"
          d="M763.15,622.63a9.71,9.71,0,0,1-7.47-2.86c-1.79-1.9-2.69-4.63-2.69-8.17v-1.89q0-5.62,2.47-8.68a8.51,8.51,0,0,1,7-3q4.49,0,6.74,2.86c1.51,1.91,2.28,4.73,2.31,8.48v3H759.19a6.49,6.49,0,0,0,1.17,3.87,3.91,3.91,0,0,0,3.18,1.22,7,7,0,0,0,5.21-2.13l2.44,3.76a8,8,0,0,1-3.32,2.56A11.4,11.4,0,0,1,763.15,622.63ZM759.23,608h6.22v-.57a6.65,6.65,0,0,0-.7-3.23,2.45,2.45,0,0,0-2.29-1.1,2.6,2.6,0,0,0-2.36,1.16A8.1,8.1,0,0,0,759.23,608Z"
          transform="translate(-361 -74)"/>
    <path class="cls-3" d="M802.26,609.14h-10v13.05h-6.46v-32h17.71v5.38H792.22v8.2h10Z"
          transform="translate(-361 -74)"/>
    <path class="cls-3"
          d="M805.66,609.53q0-5.4,2.55-8.48a9.69,9.69,0,0,1,14.15,0q2.55,3.08,2.55,8.53v1.51q0,5.43-2.53,8.48a9.73,9.73,0,0,1-14.18,0q-2.54-3.06-2.54-8.51Zm6.24,1.56q0,6.38,3.41,6.37,3.13,0,3.38-5.31l0-2.62a10,10,0,0,0-.9-4.82,2.8,2.8,0,0,0-2.54-1.57,2.74,2.74,0,0,0-2.48,1.57,10.16,10.16,0,0,0-.89,4.82Z"
          transform="translate(-361 -74)"/>
    <path class="cls-3"
          d="M840.47,620a6.12,6.12,0,0,1-5.19,2.62,5.81,5.81,0,0,1-5-2.25q-1.7-2.25-1.7-6.56v-15.4h6.22V614c0,2.32.8,3.47,2.31,3.47a3.21,3.21,0,0,0,3.08-1.84V598.42h6.26v23.77h-5.85Z"
          transform="translate(-361 -74)"/>
    <path class="cls-3"
          d="M856.62,598.42l.17,2.35a6.61,6.61,0,0,1,5.52-2.79q6.13,0,6.3,8.59v15.62h-6.24V607a5.52,5.52,0,0,0-.6-2.94,2.37,2.37,0,0,0-2.12-.91,2.91,2.91,0,0,0-2.64,1.74v17.27h-6.24V598.42Z"
          transform="translate(-361 -74)"/>
    <path class="cls-3"
          d="M872.24,609.58q0-5.85,2-8.73A6.55,6.55,0,0,1,880,598a5.53,5.53,0,0,1,4.57,2.37V588.44h6.27v33.75h-5.65l-.29-2.42a5.71,5.71,0,0,1-4.92,2.86,6.48,6.48,0,0,1-5.7-2.86q-2-2.85-2-8.39Zm6.24,1.56a11.31,11.31,0,0,0,.75,4.91,2.63,2.63,0,0,0,2.52,1.39,3,3,0,0,0,2.79-1.65V604.94a3,3,0,0,0-2.76-1.76,2.67,2.67,0,0,0-2.51,1.39,10.72,10.72,0,0,0-.79,4.92Z"
          transform="translate(-361 -74)"/>
    <path class="cls-3"
          d="M906.67,622.19a9.32,9.32,0,0,1-.53-1.85,5.29,5.29,0,0,1-4.52,2.29,6.71,6.71,0,0,1-5-2,6.94,6.94,0,0,1-2-5.12,7.21,7.21,0,0,1,2.38-5.78q2.38-2,6.87-2.08h1.89v-1.92a3.61,3.61,0,0,0-.55-2.26,2,2,0,0,0-1.61-.66c-1.55,0-2.33.91-2.33,2.73h-6.21a6.88,6.88,0,0,1,2.47-5.44,9.19,9.19,0,0,1,6.25-2.14,8.42,8.42,0,0,1,6,2,7.61,7.61,0,0,1,2.15,5.81V617a11.73,11.73,0,0,0,.87,4.82v.37ZM903,617.75a3.45,3.45,0,0,0,1.76-.42,2.9,2.9,0,0,0,1.08-1V611.4h-1.5a3.2,3.2,0,0,0-2.49,1,3.89,3.89,0,0,0-.91,2.7C900.94,616.87,901.63,617.75,903,617.75Z"
          transform="translate(-361 -74)"/>
    <path class="cls-3"
          d="M923.79,592.57v5.85H927v4.65h-3.18v11.82a3.56,3.56,0,0,0,.38,1.94,1.75,1.75,0,0,0,1.49.53,5.87,5.87,0,0,0,1.47-.16l0,4.84a9.75,9.75,0,0,1-3.42.59q-6,0-6.09-6.91V603.07h-2.75v-4.65h2.75v-5.85Z"
          transform="translate(-361 -74)"/>
    <path class="cls-3"
          d="M930.38,592.26a3.23,3.23,0,0,1,.92-2.37,3.75,3.75,0,0,1,4.92,0,3.19,3.19,0,0,1,.93,2.37,3.33,3.33,0,0,1-.91,2.38,3.39,3.39,0,0,1-5.86-2.38Zm6.53,29.93h-6.24V598.42h6.24Z"
          transform="translate(-361 -74)"/>
    <path class="cls-3"
          d="M941,609.53q0-5.4,2.55-8.48a9.69,9.69,0,0,1,14.15,0q2.55,3.08,2.55,8.53v1.51q0,5.43-2.53,8.48a9.73,9.73,0,0,1-14.18,0Q941,616.5,941,611.05Zm6.24,1.56q0,6.38,3.41,6.37,3.14,0,3.38-5.31l0-2.62a10,10,0,0,0-.9-4.82,2.8,2.8,0,0,0-2.54-1.57,2.74,2.74,0,0,0-2.48,1.57,10.16,10.16,0,0,0-.89,4.82Z"
          transform="translate(-361 -74)"/>
    <path class="cls-3"
          d="M969.8,598.42l.18,2.35a6.58,6.58,0,0,1,5.51-2.79q6.13,0,6.31,8.59v15.62h-6.24V607a5.51,5.51,0,0,0-.61-2.94,2.37,2.37,0,0,0-2.12-.91,2.91,2.91,0,0,0-2.64,1.74v17.27H964V598.42Z"
          transform="translate(-361 -74)"/>
    <path class="cls-3"
          d="M1006.23,622.63a9.74,9.74,0,0,1-7.47-2.86c-1.79-1.9-2.68-4.63-2.68-8.17v-1.89q0-5.62,2.46-8.68a8.51,8.51,0,0,1,7.05-3q4.49,0,6.75,2.86c1.51,1.91,2.28,4.73,2.31,8.48v3h-12.38a6.49,6.49,0,0,0,1.17,3.87,3.93,3.93,0,0,0,3.19,1.22,7,7,0,0,0,5.2-2.13l2.44,3.76a8,8,0,0,1-3.32,2.56A11.4,11.4,0,0,1,1006.23,622.63ZM1002.32,608h6.22v-.57a6.63,6.63,0,0,0-.71-3.23,2.45,2.45,0,0,0-2.28-1.1,2.58,2.58,0,0,0-2.36,1.16A8.1,8.1,0,0,0,1002.32,608Z"
          transform="translate(-361 -74)"/>
    <path class="cls-3" d="M1036.33,613.4l3-15h6.48l-6.52,23.77h-5.93l-6.55-23.77h6.5Z"
          transform="translate(-361 -74)"/>
    <path class="cls-3"
          d="M1058.06,622.63a9.74,9.74,0,0,1-7.47-2.86c-1.78-1.9-2.68-4.63-2.68-8.17v-1.89q0-5.62,2.46-8.68a8.52,8.52,0,0,1,7.06-3c3,0,5.23.95,6.74,2.86s2.28,4.73,2.31,8.48v3h-12.37a6.49,6.49,0,0,0,1.16,3.87,3.93,3.93,0,0,0,3.19,1.22,7,7,0,0,0,5.21-2.13l2.44,3.76a8,8,0,0,1-3.32,2.56A11.44,11.44,0,0,1,1058.06,622.63ZM1054.15,608h6.22v-.57a6.65,6.65,0,0,0-.7-3.23,2.45,2.45,0,0,0-2.29-1.1,2.6,2.6,0,0,0-2.36,1.16A8.1,8.1,0,0,0,1054.15,608Z"
          transform="translate(-361 -74)"/>
    <path class="cls-3"
          d="M1075.84,598.42l.18,2.19a6.67,6.67,0,0,1,5.51-2.63,5.12,5.12,0,0,1,5,3.2,6.52,6.52,0,0,1,5.83-3.2q6.24,0,6.39,8.63v15.58h-6.22V607a5.68,5.68,0,0,0-.57-3,2.14,2.14,0,0,0-1.93-.88c-1.16,0-2,.71-2.6,2.13l0,.75v16.13h-6.22V607.05a6,6,0,0,0-.55-3,2.12,2.12,0,0,0-2-.91,2.83,2.83,0,0,0-2.54,1.74v17.27H1070V598.42Z"
          transform="translate(-361 -74)"/>
    <path class="cls-3"
          d="M1112.91,609.58q0-5.85,2-8.73a6.54,6.54,0,0,1,5.75-2.87,5.55,5.55,0,0,1,4.57,2.37V588.44h6.27v33.75h-5.65l-.29-2.42a5.71,5.71,0,0,1-4.92,2.86,6.48,6.48,0,0,1-5.7-2.86q-2-2.85-2-8.39Zm6.24,1.56a11.31,11.31,0,0,0,.75,4.91,2.62,2.62,0,0,0,2.52,1.39,3,3,0,0,0,2.79-1.65V604.94a3,3,0,0,0-2.77-1.76,2.67,2.67,0,0,0-2.5,1.39,10.72,10.72,0,0,0-.79,4.92Z"
          transform="translate(-361 -74)"/>
    <path class="cls-3"
          d="M1147.34,622.19a8.68,8.68,0,0,1-.53-1.85,5.29,5.29,0,0,1-4.52,2.29,6.69,6.69,0,0,1-5-2,7,7,0,0,1-2-5.12,7.21,7.21,0,0,1,2.39-5.78q2.38-2,6.86-2.08h1.9v-1.92a3.61,3.61,0,0,0-.55-2.26,2,2,0,0,0-1.61-.66c-1.55,0-2.33.91-2.33,2.73h-6.22a6.89,6.89,0,0,1,2.48-5.44,9.17,9.17,0,0,1,6.25-2.14,8.43,8.43,0,0,1,6,2,7.61,7.61,0,0,1,2.14,5.81V617a11.88,11.88,0,0,0,.88,4.82v.37Zm-3.67-4.44a3.47,3.47,0,0,0,1.76-.42,2.9,2.9,0,0,0,1.08-1V611.4H1145a3.19,3.19,0,0,0-2.49,1,3.89,3.89,0,0,0-.92,2.7Q1141.6,617.75,1143.67,617.75Z"
          transform="translate(-361 -74)"/>
    <path class="cls-3"
          d="M1169,604.41l-2.06-.17a3.38,3.38,0,0,0-3.45,2.24v15.71h-6.24V598.42h5.86l.18,2.57q1.47-3,4.06-3a4.38,4.38,0,0,1,1.72.28Z"
          transform="translate(-361 -74)"/>
    <path class="cls-3" d="M1183.33,611.07h-10.74v-5.18h10.74Z" transform="translate(-361 -74)"/>
    <path class="cls-3"
          d="M1194.19,598.42l.17,2.35a6.61,6.61,0,0,1,5.52-2.79c4.08,0,6.19,2.86,6.3,8.59v15.62h-6.24V607a5.52,5.52,0,0,0-.6-2.94,2.37,2.37,0,0,0-2.12-.91,2.91,2.91,0,0,0-2.64,1.74v17.27h-6.24V598.42Z"
          transform="translate(-361 -74)"/>
    <path class="cls-3"
          d="M1209.92,609.53q0-5.4,2.55-8.48a9.69,9.69,0,0,1,14.15,0q2.55,3.08,2.55,8.53v1.51c0,3.62-.85,6.45-2.53,8.48a9.73,9.73,0,0,1-14.18,0c-1.7-2-2.54-4.88-2.54-8.51Zm6.24,1.56q0,6.38,3.4,6.37,3.15,0,3.39-5.31l0-2.62a10,10,0,0,0-.9-4.82,2.8,2.8,0,0,0-2.55-1.57,2.73,2.73,0,0,0-2.47,1.57,10.16,10.16,0,0,0-.89,4.82Z"
          transform="translate(-361 -74)"/>
    <path class="cls-3"
          d="M1243.56,615.82a1.91,1.91,0,0,0-.76-1.46,15,15,0,0,0-3.37-1.82,13.93,13.93,0,0,1-5.29-3.23,6.11,6.11,0,0,1-1.44-4.15A6.64,6.64,0,0,1,1235,600a8.53,8.53,0,0,1,6-2,9.28,9.28,0,0,1,6.27,2,6.79,6.79,0,0,1,2.35,5.42h-6.22c0-1.93-.81-2.9-2.42-2.9a2.15,2.15,0,0,0-2.26,2.33,1.79,1.79,0,0,0,.7,1.4,15.21,15.21,0,0,0,3.32,1.72,13.8,13.8,0,0,1,5.37,3.13,6.39,6.39,0,0,1,1.57,4.48,6.27,6.27,0,0,1-2.39,5.12,9.76,9.76,0,0,1-6.29,1.93,10,10,0,0,1-4.61-1,7.71,7.71,0,0,1-3.13-2.85,7.27,7.27,0,0,1-1.13-3.93H1238a3.76,3.76,0,0,0,.75,2.44,3,3,0,0,0,2.34.81C1242.72,618.08,1243.56,617.33,1243.56,615.82Z"
          transform="translate(-361 -74)"/>
    <path class="cls-3"
          d="M1275.53,620a6.12,6.12,0,0,1-5.19,2.62,5.81,5.81,0,0,1-5-2.25q-1.7-2.25-1.69-6.56v-15.4h6.21V614c0,2.32.8,3.47,2.31,3.47a3.21,3.21,0,0,0,3.08-1.84V598.42h6.26v23.77h-5.85Z"
          transform="translate(-361 -74)"/>
    <path class="cls-3"
          d="M1291.83,598.42l.18,2.19a6.67,6.67,0,0,1,5.51-2.63,5.11,5.11,0,0,1,5,3.2,6.52,6.52,0,0,1,5.83-3.2q6.24,0,6.39,8.63v15.58h-6.22V607a5.68,5.68,0,0,0-.57-3,2.13,2.13,0,0,0-1.93-.88c-1.16,0-2,.71-2.59,2.13l0,.75v16.13h-6.22V607.05a6,6,0,0,0-.55-3,2.1,2.1,0,0,0-2-.91,2.85,2.85,0,0,0-2.55,1.74v17.27H1286V598.42Z"
          transform="translate(-361 -74)"/>
    <path class="cls-3"
          d="M433.56,665.75l2.13-13.33h5.95l-4.92,23.77h-5.16l-3.37-13.76-3.36,13.76h-5.18l-4.92-23.77h6l2.11,13.35L426,652.42h4.41Z"
          transform="translate(-361 -74)"/>
    <path class="cls-3"
          d="M444,663.53q0-5.4,2.55-8.48a9.69,9.69,0,0,1,14.15,0q2.55,3.08,2.55,8.53v1.51q0,5.43-2.53,8.48a9.73,9.73,0,0,1-14.18,0Q444,670.5,444,665.05Zm6.24,1.56q0,6.38,3.41,6.37,3.14,0,3.38-5.31l0-2.62a10,10,0,0,0-.9-4.82,2.8,2.8,0,0,0-2.54-1.57,2.74,2.74,0,0,0-2.48,1.57,10.16,10.16,0,0,0-.89,4.82Z"
          transform="translate(-361 -74)"/>
    <path class="cls-3"
          d="M478.84,658.41l-2.06-.17a3.38,3.38,0,0,0-3.45,2.24v15.71h-6.24V652.42H473l.18,2.57c1-2,2.34-3,4.06-3a4.38,4.38,0,0,1,1.72.28Z"
          transform="translate(-361 -74)"/>
    <path class="cls-3"
          d="M489.92,667l-1.67,1.86v7.3H482V642.44h6.22v18.24l.77-1.15,4.3-7.11h7.41l-6.9,9.79,7.56,14h-7.12Z"
          transform="translate(-361 -74)"/>
    <path class="cls-3"
          d="M514.09,669.82a1.94,1.94,0,0,0-.76-1.46,15.26,15.26,0,0,0-3.37-1.82,13.93,13.93,0,0,1-5.29-3.23,6.11,6.11,0,0,1-1.44-4.15,6.63,6.63,0,0,1,2.25-5.15,8.54,8.54,0,0,1,6-2,9.26,9.26,0,0,1,6.26,2,6.76,6.76,0,0,1,2.35,5.42h-6.22c0-1.93-.8-2.9-2.41-2.9a2.17,2.17,0,0,0-2.27,2.33,1.8,1.8,0,0,0,.71,1.4,15.21,15.21,0,0,0,3.32,1.72,13.8,13.8,0,0,1,5.37,3.13,6.44,6.44,0,0,1,1.57,4.48,6.26,6.26,0,0,1-2.4,5.12,9.73,9.73,0,0,1-6.28,1.93,10.07,10.07,0,0,1-4.62-1,7.77,7.77,0,0,1-3.13-2.85,7.35,7.35,0,0,1-1.13-3.93h5.91a3.76,3.76,0,0,0,.76,2.44,3,3,0,0,0,2.34.81C513.25,672.08,514.09,671.33,514.09,669.82Z"
          transform="translate(-361 -74)"/>
    <path class="cls-3"
          d="M530.06,654.5a6.15,6.15,0,0,1,5-2.52,5.78,5.78,0,0,1,4.94,2.28q1.69,2.28,1.71,6.81v15.12h-6.24V661.14a5.35,5.35,0,0,0-.65-3,2.35,2.35,0,0,0-2.09-.94,2.94,2.94,0,0,0-2.64,1.56v17.45h-6.22V642.44h6.22Z"
          transform="translate(-361 -74)"/>
    <path class="cls-3"
          d="M545.42,663.53q0-5.4,2.55-8.48a9.69,9.69,0,0,1,14.15,0q2.55,3.08,2.55,8.53v1.51c0,3.62-.85,6.45-2.53,8.48a9.73,9.73,0,0,1-14.18,0c-1.7-2-2.54-4.88-2.54-8.51Zm6.24,1.56q0,6.38,3.4,6.37,3.15,0,3.39-5.31l0-2.62a10,10,0,0,0-.9-4.82,2.8,2.8,0,0,0-2.55-1.57,2.73,2.73,0,0,0-2.47,1.57,10.16,10.16,0,0,0-.89,4.82Z"
          transform="translate(-361 -74)"/>
    <path class="cls-3"
          d="M587.06,665.05q0,5.61-1.93,8.59a6.36,6.36,0,0,1-5.72,3,5.53,5.53,0,0,1-4.66-2.35v11.05h-6.22V652.42h5.76l.22,2.17a5.59,5.59,0,0,1,4.86-2.61,6.52,6.52,0,0,1,5.72,2.76q1.92,2.78,2,8.49Zm-6.2-1.56a11.15,11.15,0,0,0-.76-4.88,2.66,2.66,0,0,0-2.56-1.43,3,3,0,0,0-2.79,1.61v11.14a3,3,0,0,0,2.84,1.53,2.57,2.57,0,0,0,2.56-1.55,12.49,12.49,0,0,0,.71-4.86Z"
          transform="translate(-361 -74)"/>
    <path class="cls-3"
          d="M600.35,663.58q0-5.85,2-8.73a6.56,6.56,0,0,1,5.75-2.87,5.56,5.56,0,0,1,4.58,2.37V642.44h6.26v33.75h-5.65l-.29-2.42a5.71,5.71,0,0,1-4.92,2.86,6.48,6.48,0,0,1-5.7-2.86q-2-2.85-2-8.39Zm6.24,1.56a11.31,11.31,0,0,0,.75,4.91,2.63,2.63,0,0,0,2.52,1.39,3,3,0,0,0,2.8-1.65V658.94a3,3,0,0,0-2.77-1.76,2.67,2.67,0,0,0-2.51,1.39,10.72,10.72,0,0,0-.79,4.92Z"
          transform="translate(-361 -74)"/>
    <path class="cls-3"
          d="M633.09,676.63a9.74,9.74,0,0,1-7.47-2.86c-1.79-1.9-2.68-4.63-2.68-8.17v-1.89q0-5.62,2.46-8.68a8.51,8.51,0,0,1,7.05-3q4.49,0,6.75,2.86c1.51,1.91,2.28,4.73,2.31,8.48v3H629.13a6.49,6.49,0,0,0,1.17,3.87,3.93,3.93,0,0,0,3.19,1.22,7,7,0,0,0,5.2-2.13l2.44,3.76a8,8,0,0,1-3.32,2.56A11.4,11.4,0,0,1,633.09,676.63ZM629.18,662h6.22v-.57a6.63,6.63,0,0,0-.71-3.23,2.45,2.45,0,0,0-2.28-1.1,2.58,2.58,0,0,0-2.36,1.16A8.1,8.1,0,0,0,629.18,662Z"
          transform="translate(-361 -74)"/>
    <path class="cls-3"
          d="M673.92,665.05c0,3.74-.65,6.6-1.93,8.59a6.36,6.36,0,0,1-5.72,3,5.52,5.52,0,0,1-4.66-2.35v11.05h-6.22V652.42h5.76l.22,2.17a5.58,5.58,0,0,1,4.85-2.61,6.52,6.52,0,0,1,5.73,2.76q1.92,2.78,2,8.49Zm-6.2-1.56a11.15,11.15,0,0,0-.76-4.88,2.66,2.66,0,0,0-2.56-1.43,3,3,0,0,0-2.79,1.61v11.14a3,3,0,0,0,2.83,1.53,2.56,2.56,0,0,0,2.56-1.55,12.27,12.27,0,0,0,.72-4.86Z"
          transform="translate(-361 -74)"/>
    <path class="cls-3"
          d="M685.06,665.84l3.16-13.42h6.63L687,679.75q-1.75,6-6.61,6a9.13,9.13,0,0,1-2.55-.42v-4.85l.73,0a3.59,3.59,0,0,0,2.18-.56,3.5,3.5,0,0,0,1.11-1.94l.48-1.61-6.85-24h6.68Z"
          transform="translate(-361 -74)"/>
    <path class="cls-3"
          d="M704.74,646.57v5.85h3.19v4.65h-3.19v11.82a3.45,3.45,0,0,0,.39,1.94,1.73,1.73,0,0,0,1.48.53,5.87,5.87,0,0,0,1.47-.16l0,4.84a9.85,9.85,0,0,1-3.43.59q-6,0-6.09-6.91V657.07h-2.74v-4.65h2.74v-5.85Z"
          transform="translate(-361 -74)"/>
    <path class="cls-3"
          d="M717.4,654.5a6.14,6.14,0,0,1,5-2.52,5.78,5.78,0,0,1,4.95,2.28q1.7,2.28,1.71,6.81v15.12h-6.24V661.14a5.35,5.35,0,0,0-.65-3,2.35,2.35,0,0,0-2.09-.94,2.94,2.94,0,0,0-2.64,1.56v17.45h-6.22V642.44h6.22Z"
          transform="translate(-361 -74)"/>
    <path class="cls-3"
          d="M732.76,663.53q0-5.4,2.55-8.48a9.69,9.69,0,0,1,14.15,0q2.55,3.08,2.55,8.53v1.51c0,3.62-.85,6.45-2.53,8.48a9.73,9.73,0,0,1-14.18,0c-1.7-2-2.54-4.88-2.54-8.51Zm6.24,1.56q0,6.38,3.4,6.37,3.15,0,3.39-5.31l0-2.62a10,10,0,0,0-.9-4.82,2.8,2.8,0,0,0-2.55-1.57,2.73,2.73,0,0,0-2.47,1.57,10,10,0,0,0-.89,4.82Z"
          transform="translate(-361 -74)"/>
    <path class="cls-3"
          d="M761.56,652.42l.18,2.35a6.59,6.59,0,0,1,5.51-2.79q6.13,0,6.31,8.59v15.62h-6.24V661a5.52,5.52,0,0,0-.6-2.94,2.38,2.38,0,0,0-2.12-.91,2.91,2.91,0,0,0-2.64,1.74v17.27h-6.24V652.42Z"
          transform="translate(-361 -74)"/>
    <path class="cls-3"
          d="M798,676.63a9.74,9.74,0,0,1-7.47-2.86c-1.78-1.9-2.68-4.63-2.68-8.17v-1.89q0-5.62,2.46-8.68a8.53,8.53,0,0,1,7.06-3c3,0,5.23.95,6.74,2.86s2.28,4.73,2.31,8.48v3H794a6.56,6.56,0,0,0,1.16,3.87,3.93,3.93,0,0,0,3.19,1.22,7,7,0,0,0,5.21-2.13l2.44,3.76a8,8,0,0,1-3.32,2.56A11.44,11.44,0,0,1,798,676.63ZM794.08,662h6.22v-.57a6.65,6.65,0,0,0-.7-3.23,2.45,2.45,0,0,0-2.29-1.1A2.6,2.6,0,0,0,795,658.3,8.1,8.1,0,0,0,794.08,662Z"
          transform="translate(-361 -74)"/>
    <path class="cls-3" d="M835.88,669.64h-8.82l-1.71,6.55h-6.83l10-32h5.92l10.06,32h-6.9Zm-7.41-5.38h6l-3-11.41Z"
          transform="translate(-361 -74)"/>
    <path class="cls-3"
          d="M864.64,665.05q0,5.61-1.93,8.59a6.35,6.35,0,0,1-5.72,3,5.53,5.53,0,0,1-4.66-2.35v11.05h-6.22V652.42h5.76l.22,2.17A5.59,5.59,0,0,1,857,652a6.52,6.52,0,0,1,5.72,2.76q1.92,2.78,2,8.49Zm-6.2-1.56a11.15,11.15,0,0,0-.76-4.88,2.66,2.66,0,0,0-2.56-1.43,3,3,0,0,0-2.79,1.61v11.14a3,3,0,0,0,2.84,1.53,2.57,2.57,0,0,0,2.56-1.55,12.49,12.49,0,0,0,.71-4.86Z"
          transform="translate(-361 -74)"/>
    <path class="cls-3"
          d="M879.69,676.19a8.68,8.68,0,0,1-.53-1.85,5.29,5.29,0,0,1-4.52,2.29,6.69,6.69,0,0,1-5-2,7,7,0,0,1-2-5.12,7.21,7.21,0,0,1,2.39-5.78q2.39-2,6.86-2.08h1.89v-1.92a3.55,3.55,0,0,0-.55-2.26,2,2,0,0,0-1.6-.66c-1.55,0-2.33.91-2.33,2.73h-6.22a6.89,6.89,0,0,1,2.48-5.44,9.17,9.17,0,0,1,6.25-2.14,8.43,8.43,0,0,1,6,2,7.61,7.61,0,0,1,2.14,5.81V671a11.88,11.88,0,0,0,.88,4.82v.37ZM876,671.75a3.47,3.47,0,0,0,1.76-.42,2.79,2.79,0,0,0,1.07-1V665.4h-1.49a3.19,3.19,0,0,0-2.49,1,3.89,3.89,0,0,0-.92,2.7Q874,671.75,876,671.75Z"
          transform="translate(-361 -74)"/>
    <path class="cls-3"
          d="M898.17,671.46q2.7,0,2.75-3.51h5.84a8.71,8.71,0,0,1-2.4,6.28,8.09,8.09,0,0,1-6.06,2.4q-4.59,0-7-2.86c-1.61-1.9-2.43-4.71-2.46-8.41v-1.89q0-5.61,2.38-8.55t7-2.94a8.07,8.07,0,0,1,6.19,2.42,9.89,9.89,0,0,1,2.31,6.89h-5.84a6.31,6.31,0,0,0-.66-3.07,2.26,2.26,0,0,0-2.11-1.08,2.51,2.51,0,0,0-2.33,1.15,9.82,9.82,0,0,0-.75,4.47v2.42a19.38,19.38,0,0,0,.29,4.06,3.07,3.07,0,0,0,.94,1.69A2.87,2.87,0,0,0,898.17,671.46Z"
          transform="translate(-361 -74)"/>
    <path class="cls-3"
          d="M916.34,654.5a6.15,6.15,0,0,1,5-2.52,5.78,5.78,0,0,1,4.94,2.28q1.69,2.28,1.71,6.81v15.12h-6.24V661.14a5.45,5.45,0,0,0-.64-3,2.38,2.38,0,0,0-2.1-.94,2.94,2.94,0,0,0-2.64,1.56v17.45h-6.22V642.44h6.22Z"
          transform="translate(-361 -74)"/>
    <path class="cls-3"
          d="M942,676.63a9.71,9.71,0,0,1-7.47-2.86c-1.79-1.9-2.68-4.63-2.68-8.17v-1.89q0-5.62,2.46-8.68a8.51,8.51,0,0,1,7-3q4.49,0,6.75,2.86c1.5,1.91,2.27,4.73,2.3,8.48v3H938.07a6.49,6.49,0,0,0,1.17,3.87,3.91,3.91,0,0,0,3.18,1.22,7,7,0,0,0,5.21-2.13l2.44,3.76a8,8,0,0,1-3.32,2.56A11.4,11.4,0,0,1,942,676.63ZM938.12,662h6.21v-.57a6.65,6.65,0,0,0-.7-3.23,2.45,2.45,0,0,0-2.28-1.1A2.6,2.6,0,0,0,939,658.3,8,8,0,0,0,938.12,662Z"
          transform="translate(-361 -74)"/>
    <path class="cls-3"
          d="M978.15,667.8a4,4,0,0,0-1-3,11.52,11.52,0,0,0-3.64-2.08,17,17,0,0,1-6.92-4.27,8.61,8.61,0,0,1-2.11-5.79,8.12,8.12,0,0,1,2.87-6.49,10.78,10.78,0,0,1,7.28-2.45,10.9,10.9,0,0,1,5.26,1.24,8.65,8.65,0,0,1,3.54,3.5,10.53,10.53,0,0,1,1.25,5.15h-6.44a5.28,5.28,0,0,0-1-3.42,3.35,3.35,0,0,0-2.76-1.18,3.47,3.47,0,0,0-2.63,1,3.78,3.78,0,0,0-.95,2.69,3.3,3.3,0,0,0,1.06,2.39,12.11,12.11,0,0,0,3.73,2.21,15.91,15.91,0,0,1,6.8,4.15,9.22,9.22,0,0,1,2.12,6.26,8.26,8.26,0,0,1-2.65,6.53,10.54,10.54,0,0,1-7.23,2.35,12.45,12.45,0,0,1-5.65-1.28,9.56,9.56,0,0,1-4-3.64,10.59,10.59,0,0,1-1.44-5.61h6.48a6.13,6.13,0,0,0,1.08,4,4.43,4.43,0,0,0,3.52,1.25C977,671.38,978.15,670.18,978.15,667.8Z"
          transform="translate(-361 -74)"/>
    <path class="cls-3"
          d="M1000.32,674a6.12,6.12,0,0,1-5.19,2.62,5.82,5.82,0,0,1-5-2.25q-1.7-2.25-1.69-6.56v-15.4h6.21V668c0,2.32.8,3.47,2.31,3.47a3.21,3.21,0,0,0,3.08-1.84V652.42h6.26v23.77h-5.84Z"
          transform="translate(-361 -74)"/>
    <path class="cls-3"
          d="M1029.3,665.05q0,5.61-1.92,8.59a6.37,6.37,0,0,1-5.73,3,5.52,5.52,0,0,1-4.65-2.35v11.05h-6.22V652.42h5.75l.23,2.17a5.56,5.56,0,0,1,4.85-2.61,6.5,6.5,0,0,1,5.72,2.76c1.29,1.85,1.94,4.68,2,8.49Zm-6.2-1.56a11.34,11.34,0,0,0-.75-4.88,2.67,2.67,0,0,0-2.56-1.43,3,3,0,0,0-2.79,1.61v11.14a3,3,0,0,0,2.83,1.53,2.57,2.57,0,0,0,2.56-1.55,12.3,12.3,0,0,0,.71-4.86Z"
          transform="translate(-361 -74)"/>
    <path class="cls-3"
          d="M1042.66,676.63a9.74,9.74,0,0,1-7.47-2.86c-1.79-1.9-2.68-4.63-2.68-8.17v-1.89q0-5.62,2.46-8.68a8.51,8.51,0,0,1,7-3q4.49,0,6.75,2.86c1.51,1.91,2.28,4.73,2.31,8.48v3h-12.37a6.42,6.42,0,0,0,1.16,3.87,3.93,3.93,0,0,0,3.19,1.22,7,7,0,0,0,5.21-2.13l2.43,3.76a7.94,7.94,0,0,1-3.31,2.56A11.44,11.44,0,0,1,1042.66,676.63ZM1038.75,662H1045v-.57a6.76,6.76,0,0,0-.7-3.23,2.46,2.46,0,0,0-2.29-1.1,2.6,2.6,0,0,0-2.36,1.16A8.1,8.1,0,0,0,1038.75,662Z"
          transform="translate(-361 -74)"/>
    <path class="cls-3"
          d="M1066.33,658.41l-2.07-.17a3.38,3.38,0,0,0-3.45,2.24v15.71h-6.24V652.42h5.87l.17,2.57q1.47-3,4.07-3a4.36,4.36,0,0,1,1.71.28Z"
          transform="translate(-361 -74)"/>
    <path class="cls-3"
          d="M1080,669.82a1.94,1.94,0,0,0-.76-1.46,15.16,15.16,0,0,0-3.38-1.82,14,14,0,0,1-5.28-3.23,6.11,6.11,0,0,1-1.44-4.15,6.63,6.63,0,0,1,2.25-5.15,8.56,8.56,0,0,1,6-2,9.26,9.26,0,0,1,6.26,2,6.76,6.76,0,0,1,2.35,5.42h-6.22c0-1.93-.8-2.9-2.41-2.9a2.17,2.17,0,0,0-2.27,2.33,1.8,1.8,0,0,0,.71,1.4,15.31,15.31,0,0,0,3.31,1.72,13.77,13.77,0,0,1,5.38,3.13,6.44,6.44,0,0,1,1.57,4.48,6.26,6.26,0,0,1-2.4,5.12,9.73,9.73,0,0,1-6.28,1.93,10.07,10.07,0,0,1-4.62-1,7.77,7.77,0,0,1-3.13-2.85,7.35,7.35,0,0,1-1.13-3.93h5.91a3.76,3.76,0,0,0,.76,2.44,3,3,0,0,0,2.34.81C1079.2,672.08,1080,671.33,1080,669.82Z"
          transform="translate(-361 -74)"/>
    <path class="cls-3"
          d="M1099.55,676.63a9.71,9.71,0,0,1-7.47-2.86c-1.79-1.9-2.68-4.63-2.68-8.17v-1.89q0-5.62,2.46-8.68a8.51,8.51,0,0,1,7.05-3q4.48,0,6.75,2.86c1.51,1.91,2.27,4.73,2.3,8.48v3h-12.37a6.49,6.49,0,0,0,1.17,3.87,3.92,3.92,0,0,0,3.18,1.22,7,7,0,0,0,5.21-2.13l2.44,3.76a8,8,0,0,1-3.32,2.56A11.4,11.4,0,0,1,1099.55,676.63ZM1095.64,662h6.21v-.57a6.53,6.53,0,0,0-.7-3.23,2.45,2.45,0,0,0-2.28-1.1,2.58,2.58,0,0,0-2.36,1.16A8,8,0,0,0,1095.64,662Z"
          transform="translate(-361 -74)"/>
    <path class="cls-3"
          d="M1118.71,646.57v5.85h3.18v4.65h-3.18v11.82a3.56,3.56,0,0,0,.38,1.94,1.75,1.75,0,0,0,1.49.53,5.87,5.87,0,0,0,1.47-.16l0,4.84a9.75,9.75,0,0,1-3.42.59q-6,0-6.09-6.91V657.07h-2.75v-4.65h2.75v-5.85Z"
          transform="translate(-361 -74)"/>
    <path class="cls-3"
          d="M416.62,717.18a38.1,38.1,0,0,1,1.15-9.45,27.41,27.41,0,0,1,3.45-8.09,13.74,13.74,0,0,1,4.91-4.94l1.16,3.43a16,16,0,0,0-3.93,7.15,40.45,40.45,0,0,0-1.52,11.15v1.32a42,42,0,0,0,1.44,11.59,16.43,16.43,0,0,0,4,7.46l-1.16,3.39a13.78,13.78,0,0,1-4.87-4.86,27.22,27.22,0,0,1-3.44-8,37.92,37.92,0,0,1-1.2-9.3Z"
          transform="translate(-361 -74)"/>
    <path class="cls-3"
          d="M431.1,730.19v-32h8.45a11.63,11.63,0,0,1,8.94,3.56q3.33,3.56,3.39,9.75v5.19q0,6.3-3.33,9.9t-9.17,3.59Zm6.46-26.61v21.25h1.93q3.22,0,4.55-1.7t1.38-5.88v-5.56q0-4.49-1.25-6.25a5.07,5.07,0,0,0-4.26-1.86Z"
          transform="translate(-361 -74)"/>
    <path class="cls-3"
          d="M467.5,730.19a8.8,8.8,0,0,1-.52-1.85,5.32,5.32,0,0,1-4.53,2.29,6.68,6.68,0,0,1-4.95-2,6.91,6.91,0,0,1-2-5.12,7.21,7.21,0,0,1,2.38-5.78q2.38-2,6.87-2.08h1.89v-1.92a3.55,3.55,0,0,0-.55-2.26,2,2,0,0,0-1.6-.66c-1.56,0-2.33.91-2.33,2.73H456a6.88,6.88,0,0,1,2.47-5.44,9.19,9.19,0,0,1,6.25-2.14,8.4,8.4,0,0,1,6.05,2,7.61,7.61,0,0,1,2.15,5.81V725a11.71,11.71,0,0,0,.88,4.82v.37Zm-3.67-4.44a3.45,3.45,0,0,0,1.76-.42,2.82,2.82,0,0,0,1.08-1V719.4h-1.5a3.2,3.2,0,0,0-2.49,1,3.89,3.89,0,0,0-.91,2.7C461.77,724.87,462.46,725.75,463.83,725.75Z"
          transform="translate(-361 -74)"/>
    <path class="cls-3"
          d="M484.62,700.57v5.85h3.19v4.65h-3.19v11.82a3.45,3.45,0,0,0,.39,1.94,1.73,1.73,0,0,0,1.48.53,5.87,5.87,0,0,0,1.47-.16l0,4.84a9.85,9.85,0,0,1-3.43.59q-6,0-6.09-6.91V711.07h-2.74v-4.65h2.74v-5.85Z"
          transform="translate(-361 -74)"/>
    <path class="cls-3"
          d="M502.51,730.19a8.12,8.12,0,0,1-.53-1.85,5.3,5.3,0,0,1-4.53,2.29,6.68,6.68,0,0,1-4.95-2,7,7,0,0,1-2-5.12,7.21,7.21,0,0,1,2.39-5.78q2.37-2,6.86-2.08h1.89v-1.92a3.55,3.55,0,0,0-.55-2.26,2,2,0,0,0-1.6-.66c-1.55,0-2.33.91-2.33,2.73H491a6.88,6.88,0,0,1,2.47-5.44,9.19,9.19,0,0,1,6.25-2.14,8.44,8.44,0,0,1,6.06,2,7.61,7.61,0,0,1,2.14,5.81V725a11.71,11.71,0,0,0,.88,4.82v.37Zm-3.67-4.44a3.41,3.41,0,0,0,1.75-.42,2.75,2.75,0,0,0,1.08-1V719.4h-1.49a3.21,3.21,0,0,0-2.5,1,3.94,3.94,0,0,0-.91,2.7Q496.77,725.75,498.84,725.75Z"
          transform="translate(-361 -74)"/>
    <path class="cls-3" d="M530.57,721.4l3-15h6.48l-6.53,23.77H527.6l-6.55-23.77h6.51Z"
          transform="translate(-361 -74)"/>
    <path class="cls-3"
          d="M543,700.26a3.23,3.23,0,0,1,.92-2.37,3.75,3.75,0,0,1,4.92,0,3.19,3.19,0,0,1,.93,2.37,3.33,3.33,0,0,1-.91,2.38,3.39,3.39,0,0,1-5.86-2.38Zm6.53,29.93h-6.24V706.42h6.24Z"
          transform="translate(-361 -74)"/>
    <path class="cls-3"
          d="M564.84,723.82a1.91,1.91,0,0,0-.76-1.46,14.78,14.78,0,0,0-3.37-1.82,14,14,0,0,1-5.28-3.23,6.11,6.11,0,0,1-1.44-4.15,6.63,6.63,0,0,1,2.25-5.15,8.54,8.54,0,0,1,6-2,9.27,9.27,0,0,1,6.26,2,6.76,6.76,0,0,1,2.35,5.42H564.6c0-1.93-.8-2.9-2.42-2.9a2.17,2.17,0,0,0-2.26,2.33,1.82,1.82,0,0,0,.7,1.4,15.47,15.47,0,0,0,3.32,1.72,13.65,13.65,0,0,1,5.37,3.13,6.4,6.4,0,0,1,1.58,4.48,6.26,6.26,0,0,1-2.4,5.12,9.75,9.75,0,0,1-6.28,1.93,10,10,0,0,1-4.62-1,7.71,7.71,0,0,1-3.13-2.85,7.35,7.35,0,0,1-1.13-3.93h5.91a3.76,3.76,0,0,0,.76,2.44,3,3,0,0,0,2.34.81C564,726.08,564.84,725.33,564.84,723.82Z"
          transform="translate(-361 -74)"/>
    <path class="cls-3"
          d="M586.44,728a6.11,6.11,0,0,1-5.18,2.62,5.83,5.83,0,0,1-5-2.25q-1.69-2.25-1.69-6.56v-15.4h6.22V722c0,2.32.8,3.47,2.3,3.47a3.21,3.21,0,0,0,3.08-1.84V706.42h6.26v23.77h-5.84Z"
          transform="translate(-361 -74)"/>
    <path class="cls-3"
          d="M608.19,730.19a8.8,8.8,0,0,1-.52-1.85,5.31,5.31,0,0,1-4.53,2.29,6.68,6.68,0,0,1-4.95-2,7,7,0,0,1-2-5.12,7.21,7.21,0,0,1,2.38-5.78q2.39-2,6.87-2.08h1.89v-1.92a3.55,3.55,0,0,0-.55-2.26,2,2,0,0,0-1.6-.66c-1.56,0-2.33.91-2.33,2.73h-6.22a6.88,6.88,0,0,1,2.47-5.44,9.19,9.19,0,0,1,6.25-2.14,8.44,8.44,0,0,1,6.06,2,7.65,7.65,0,0,1,2.14,5.81V725a11.71,11.71,0,0,0,.88,4.82v.37Zm-3.66-4.44a3.44,3.44,0,0,0,1.75-.42,2.75,2.75,0,0,0,1.08-1V719.4h-1.49a3.21,3.21,0,0,0-2.5,1,3.89,3.89,0,0,0-.91,2.7Q602.46,725.75,604.53,725.75Z"
          transform="translate(-361 -74)"/>
    <path class="cls-3" d="M624.61,730.19h-6.24V696.44h6.24Z" transform="translate(-361 -74)"/>
    <path class="cls-3"
          d="M629.42,700.26a3.23,3.23,0,0,1,.92-2.37,3.76,3.76,0,0,1,4.93,0,3.23,3.23,0,0,1,.92,2.37,3.33,3.33,0,0,1-.91,2.38,3.39,3.39,0,0,1-5.86-2.38ZM636,730.19h-6.24V706.42H636Z"
          transform="translate(-361 -74)"/>
    <path class="cls-3" d="M647.64,725H657v5.16H640.25V726.3l9.19-14.7h-9v-5.18h16.44v3.75Z"
          transform="translate(-361 -74)"/>
    <path class="cls-3"
          d="M672.42,730.19a9.32,9.32,0,0,1-.53-1.85,5.29,5.29,0,0,1-4.52,2.29,6.71,6.71,0,0,1-5-2,6.94,6.94,0,0,1-2-5.12,7.21,7.21,0,0,1,2.38-5.78q2.38-2,6.87-2.08h1.89v-1.92a3.61,3.61,0,0,0-.55-2.26,2,2,0,0,0-1.61-.66c-1.55,0-2.33.91-2.33,2.73h-6.21a6.88,6.88,0,0,1,2.47-5.44,9.19,9.19,0,0,1,6.25-2.14,8.42,8.42,0,0,1,6,2,7.61,7.61,0,0,1,2.14,5.81V725a11.88,11.88,0,0,0,.88,4.82v.37Zm-3.67-4.44a3.45,3.45,0,0,0,1.76-.42,2.9,2.9,0,0,0,1.08-1V719.4h-1.5a3.2,3.2,0,0,0-2.49,1,3.89,3.89,0,0,0-.91,2.7C666.69,724.87,667.37,725.75,668.75,725.75Z"
          transform="translate(-361 -74)"/>
    <path class="cls-3"
          d="M689.54,700.57v5.85h3.18v4.65h-3.18v11.82a3.56,3.56,0,0,0,.38,1.94,1.75,1.75,0,0,0,1.49.53,5.87,5.87,0,0,0,1.47-.16l0,4.84a9.75,9.75,0,0,1-3.42.59q-6,0-6.09-6.91V711.07h-2.75v-4.65h2.75v-5.85Z"
          transform="translate(-361 -74)"/>
    <path class="cls-3"
          d="M696.13,700.26a3.23,3.23,0,0,1,.92-2.37,3.75,3.75,0,0,1,4.92,0,3.19,3.19,0,0,1,.93,2.37,3.33,3.33,0,0,1-.91,2.38,3.39,3.39,0,0,1-5.86-2.38Zm6.53,29.93h-6.24V706.42h6.24Z"
          transform="translate(-361 -74)"/>
    <path class="cls-3"
          d="M706.74,717.53q0-5.4,2.55-8.48a9.69,9.69,0,0,1,14.15,0q2.55,3.08,2.55,8.53v1.51q0,5.43-2.53,8.48a9.73,9.73,0,0,1-14.18,0q-2.53-3.06-2.54-8.51Zm6.24,1.56q0,6.38,3.41,6.37,3.14,0,3.38-5.31l0-2.62a10,10,0,0,0-.9-4.82,2.8,2.8,0,0,0-2.55-1.57,2.74,2.74,0,0,0-2.47,1.57,10.16,10.16,0,0,0-.89,4.82Z"
          transform="translate(-361 -74)"/>
    <path class="cls-3"
          d="M735.55,706.42l.17,2.35a6.61,6.61,0,0,1,5.52-2.79q6.13,0,6.31,8.59v15.62h-6.24V715a5.51,5.51,0,0,0-.61-2.94,2.37,2.37,0,0,0-2.12-.91,2.91,2.91,0,0,0-2.64,1.74v17.27H729.7V706.42Z"
          transform="translate(-361 -74)"/>
    <path class="cls-3"
          d="M762,717.71a35.17,35.17,0,0,1-1.31,9.69,28.21,28.21,0,0,1-3.62,8,13.83,13.83,0,0,1-4.91,4.77L751,736.8a16.36,16.36,0,0,0,4-7.32,40.61,40.61,0,0,0,1.49-11.18v-1.16A41.71,41.71,0,0,0,755,705.7a17.23,17.23,0,0,0-4-7.61l1.15-3.39a12.45,12.45,0,0,1,3.46,2.86,21.59,21.59,0,0,1,3.19,4.94,32.23,32.23,0,0,1,2.31,6.63A37,37,0,0,1,762,717.71Z"
          transform="translate(-361 -74)"/>
    <path class="cls-3"
          d="M767.06,727a3.29,3.29,0,0,1,1-2.47,3.58,3.58,0,0,1,2.6-1,3.69,3.69,0,0,1,2.59.95,3.22,3.22,0,0,1,1,2.48,3.15,3.15,0,0,1-1,2.47,3.72,3.72,0,0,1-2.58.93,3.64,3.64,0,0,1-2.58-.94A3.2,3.2,0,0,1,767.06,727Z"
          transform="translate(-361 -74)"/>
</svg>