<svg id="Camada_1" data-name="Camada 1" xmlns="http://www.w3.org/2000/svg" xmlns:xlink="http://www.w3.org/1999/xlink"
     viewBox="0 0 2067 885">
    <defs>
        <style>
            .cls-1,.cls-2,.cls-4{fill:none;}.cls-2,.cls-4{stroke:#fff;stroke-miterlimit:10;stroke-width:5px;}.cls-3{fill:#fff;}.cls-4{fill-rule:evenodd;}.cls-5{clip-path:url(#clip-path);}
        </style>
        <clipPath id="clip-path" transform="translate(-361 -106)">
            <rect class="cls-1" x="1690.93" y="242.8" width="693" height="693"/>
        </clipPath>
    </defs>
    <title>workshop_andre</title>
    <line class="cls-2" x1="24.5" y1="772.5" x2="1074.5" y2="772.5"/>
    <circle class="cls-3" cx="1074" cy="772" r="12"/>
    <polyline class="cls-2" points="1301 873 1301 119 2055 119 2055 496.5"/>
    <circle class="cls-3" cx="24" cy="773" r="12"/>
    <circle class="cls-3" cx="1301" cy="873" r="12"/>
    <circle class="cls-3" cx="2055" cy="496" r="12"/>
    <polyline class="cls-4" points="840.36 177 1074 177 1074 507.62"/>
    <polyline class="cls-4" points="12 417.34 12 292 443.71 292"/>
    <circle class="cls-3" cx="1074" cy="508" r="12"/>
    <circle class="cls-3" cx="12" cy="416" r="12"/>
    <circle class="cls-3" cx="444" cy="292" r="12"/>
    <circle class="cls-3" cx="840" cy="177" r="12"/>
    <g class="cls-5">
        <image width="450" height="450" transform="translate(1327.93 136.8) scale(1.55)"
               xlink:href="andreferreira.png"/>
    </g>
    <path class="cls-3" d="M735.93,149.24h-5a5,5,0,0,0-5,5h15a5.05,5.05,0,0,0-5-5Z" transform="translate(-361 -106)"/>
    <path class="cls-3"
          d="M487.4,150.72a4.81,4.81,0,0,0-1.47,3.52v5a5,5,0,0,0,5,5h10v-15h-10A4.83,4.83,0,0,0,487.4,150.72Z"
          transform="translate(-361 -106)"/>
    <path class="cls-3" d="M825.93,149.24h-5a5,5,0,0,0-5,5h15a5.05,5.05,0,0,0-5-5Z" transform="translate(-361 -106)"/>
    <polygon class="cls-3" points="64.92 48.24 79.92 48.24 72.42 33.24 64.92 48.24"/>
    <path class="cls-3" d="M555.93,149.24h-5a5,5,0,0,0-5,5h15a5.05,5.05,0,0,0-5-5Z" transform="translate(-361 -106)"/>
    <path class="cls-3"
          d="M378.43,106v94h595V106Zm473.22,29a2.51,2.51,0,0,1,3.55,3.55,2.51,2.51,0,0,1-3.55-3.55Zm-293.22-6.68,3.45,3.45-8.15,8.1-3.45-3.4Zm-112.5,41h-5v-10h-15v10h-5V153l9.4-18.75h6.25L445.93,153Zm30,0h-5v-15a5.05,5.05,0,0,0-5-5,7.21,7.21,0,0,0-5,2.5l-5,5v12.5h-5v-25h5v6.85l3.15-3.1q3.75-3.75,6.85-3.75a10,10,0,0,1,10,10Zm30,0h-15a10.07,10.07,0,0,1-10-10v-5a10.07,10.07,0,0,1,10-10h10v-10h5Zm25-15a5.05,5.05,0,0,0-5-5,7.21,7.21,0,0,0-5,2.5l-5,5v12.5h-5v-25h5v6.85l3.15-3.1q3.75-3.75,6.85-3.75a10,10,0,0,1,10,10Zm35,5h-20a5,5,0,0,0,5,5h15v5h-15a10.07,10.07,0,0,1-10-10v-5a10.07,10.07,0,0,1,10-10h5a10.07,10.07,0,0,1,10,10Zm41.47-11.47a4.82,4.82,0,0,0,3.53,1.47h5a10,10,0,0,1,0,20h-5a10,10,0,0,1-10-10h5a5,5,0,0,0,5,5h5a5,5,0,0,0,0-10h-5a10,10,0,0,1,0-20h5a10.07,10.07,0,0,1,10,10h-5a5.05,5.05,0,0,0-5-5h-5a5,5,0,0,0-3.53,8.53Zm39.45,18.77a4.52,4.52,0,0,1-3.42,1.45,5,5,0,0,1,0-10,4.56,4.56,0,0,1,3.42,1.45,5.26,5.26,0,0,1,0,7.1Zm69.08-27.3h-20v10h15v5h-15v15h-5v-35h25Zm30,20h-20a5,5,0,0,0,5,5h15v5h-15a10.07,10.07,0,0,1-10-10v-5a10.07,10.07,0,0,1,10-10h5a10.07,10.07,0,0,1,10,10Zm25-5a5.05,5.05,0,0,0-5-5,7.21,7.21,0,0,0-5,2.5l-5,5v12.5h-5v-25h5v6.85l3.15-3.1q3.75-3.75,6.85-3.75a10,10,0,0,1,10,10Zm30,0a5.05,5.05,0,0,0-5-5,7.21,7.21,0,0,0-5,2.5l-5,5v12.5h-5v-25h5v6.85l3.15-3.1q3.75-3.75,6.85-3.75a10,10,0,0,1,10,10Zm35,5h-20a5,5,0,0,0,5,5h15v5h-15a10.07,10.07,0,0,1-10-10v-5a10.07,10.07,0,0,1,10-10h5a10.07,10.07,0,0,1,10,10Zm25,10h-15v-5h5v-15h-5v-5h10v20h5Zm30-15a5.05,5.05,0,0,0-5-5,7.21,7.21,0,0,0-5,2.5l-5,5v12.5h-5v-25h5v6.85l3.15-3.1q3.75-3.75,6.85-3.75a10,10,0,0,1,10,10Zm35,15h-5v-6.9l-3.1,3.15c-2.5,2.5-4.81,3.75-6.9,3.75a10,10,0,0,1-10-10v-5a10,10,0,0,1,10-10h15Z"
          transform="translate(-361 -106)"/>
    <path class="cls-3"
          d="M907.4,150.72a4.81,4.81,0,0,0-1.47,3.52v5a5,5,0,0,0,5,5,7.21,7.21,0,0,0,5-2.5l5-5v-7.5h-10A4.83,4.83,0,0,0,907.4,150.72Z"
          transform="translate(-361 -106)"/>
    <path class="cls-3" d="M694.5,250.18h-3.75a3.79,3.79,0,0,0-3.75,3.75h11.25a3.79,3.79,0,0,0-3.75-3.75Z"
          transform="translate(-361 -106)"/>
    <path class="cls-3"
          d="M665.61,251.29a3.61,3.61,0,0,0-1.11,2.64v3.75a3.77,3.77,0,0,0,3.75,3.75h7.5V250.18h-7.5A3.57,3.57,0,0,0,665.61,251.29Z"
          transform="translate(-361 -106)"/>
    <path class="cls-3"
          d="M755.61,251.29a3.61,3.61,0,0,0-1.11,2.64v3.75a3.77,3.77,0,0,0,3.75,3.75,5.39,5.39,0,0,0,3.75-1.87l3.75-3.75v-5.63h-7.5A3.57,3.57,0,0,0,755.61,251.29Z"
          transform="translate(-361 -106)"/>
    <path class="cls-3" d="M739.5,242.68H732v18.75h7.5a3.77,3.77,0,0,0,3.75-3.75V246.43a3.79,3.79,0,0,0-3.75-3.75Z"
          transform="translate(-361 -106)"/>
    <path class="cls-3" d="M447,242.68h-7.5v7.5H447a3.75,3.75,0,0,0,0-7.5Z" transform="translate(-361 -106)"/>
    <path class="cls-3"
          d="M530.61,251.29a3.61,3.61,0,0,0-1.11,2.64v3.75a3.77,3.77,0,0,0,3.75,3.75,5.39,5.39,0,0,0,3.75-1.87l3.75-3.75v-5.63h-7.5A3.57,3.57,0,0,0,530.61,251.29Z"
          transform="translate(-361 -106)"/>
    <path class="cls-3" d="M627,250.18h-3.75a3.79,3.79,0,0,0-3.75,3.75h11.25a3.79,3.79,0,0,0-3.75-3.75Z"
          transform="translate(-361 -106)"/>
    <polygon class="cls-3" points="123.5 147.93 134.75 147.93 129.13 136.68 123.5 147.93"/>
    <path class="cls-3"
          d="M778.11,251.29a3.61,3.61,0,0,0-1.11,2.64v3.75a3.77,3.77,0,0,0,3.75,3.75h7.5V250.18h-7.5A3.57,3.57,0,0,0,778.11,251.29Z"
          transform="translate(-361 -106)"/>
    <path class="cls-3"
          d="M378,222v62H921V222Zm200.79,17.48a1.88,1.88,0,0,1,2.67,2.66,1.88,1.88,0,0,1-3.21-1.33A1.8,1.8,0,0,1,578.79,239.48Zm-39.91-5,2.58,2.59-6.11,6.07-2.59-2.55ZM454.5,257.68v7.5h-3.75v-7.5a3.79,3.79,0,0,0-3.75-3.75h-7.5v11.25h-3.75V238.93H447a7.49,7.49,0,0,1,7.5,7.5,6.68,6.68,0,0,1-3.19,5.63A6.67,6.67,0,0,1,454.5,257.68ZM474,267l-2.58,2.59L462,260.27V243.84l9.38-9.37,2.58,2.59-8.21,8.21v13.57Zm25.54-1.84h-3.75v-7.5H484.5v7.5h-3.75V253l7.05-14.06h4.69l7,14.06Zm22.5,0h-3.75V253.93a3.79,3.79,0,0,0-3.75-3.75,5.41,5.41,0,0,0-3.75,1.88L507,255.81v9.37h-3.75V246.43H507v5.14l2.36-2.33q2.82-2.81,5.14-2.81a7.49,7.49,0,0,1,7.5,7.5Zm22.5,0h-3.75V260l-2.32,2.36c-1.88,1.87-3.6,2.81-5.18,2.81a7.48,7.48,0,0,1-7.5-7.5v-3.75a7.49,7.49,0,0,1,7.5-7.5H544.5Zm18.75,0H552v-3.75h3.75V242.68H552v-3.75h7.5v22.5h3.75Zm22.5,0H574.5v-3.75h3.75V250.18H574.5v-3.75H582v15h3.75Zm26.25-15h-9.82a8.84,8.84,0,0,0-3.32.55c-.92.36-1.37.8-1.37,1.33s.45,1,1.37,1.33a9.05,9.05,0,0,0,3.32.54h.93a10.51,10.51,0,0,1,6,1.65,4.43,4.43,0,0,1,0,7.95,10.51,10.51,0,0,1-6,1.65h-9.86v-3.75h9.86a9.05,9.05,0,0,0,3.3-.54c.93-.36,1.39-.81,1.39-1.33s-.46-1-1.39-1.33a8.84,8.84,0,0,0-3.3-.55h-.93a10.49,10.49,0,0,1-6-1.65,4.45,4.45,0,0,1,0-7.95,10.49,10.49,0,0,1,6-1.65H612Zm22.5,7.5h-15a3.77,3.77,0,0,0,3.75,3.75H634.5v3.75H623.25a7.55,7.55,0,0,1-7.5-7.5v-3.75a7.55,7.55,0,0,1,7.5-7.5H627a7.55,7.55,0,0,1,7.5,7.5Zm45,7.5H668.25a7.55,7.55,0,0,1-7.5-7.5v-3.75a7.55,7.55,0,0,1,7.5-7.5h7.5v-7.5h3.75Zm22.5-7.5H687a3.77,3.77,0,0,0,3.75,3.75H702v3.75H690.75a7.55,7.55,0,0,1-7.5-7.5v-3.75a7.55,7.55,0,0,1,7.5-7.5h3.75a7.55,7.55,0,0,1,7.5,7.5Zm45,0a7.55,7.55,0,0,1-7.5,7.5H728.25V238.93H739.5a7.55,7.55,0,0,1,7.5,7.5Zm22.5,7.5h-3.75V260l-2.32,2.36c-1.88,1.87-3.6,2.81-5.18,2.81a7.48,7.48,0,0,1-7.5-7.5v-3.75a7.49,7.49,0,0,1,7.5-7.5H769.5Zm22.5,0H780.75a7.55,7.55,0,0,1-7.5-7.5v-3.75a7.55,7.55,0,0,1,7.5-7.5h7.5v-7.5H792Zm22.5-7.5a7.55,7.55,0,0,1-7.5,7.5h-3.75a7.55,7.55,0,0,1-7.5-7.5v-3.75a7.55,7.55,0,0,1,7.5-7.5H807a7.55,7.55,0,0,1,7.5,7.5Zm22.5-7.5h-9.82a8.84,8.84,0,0,0-3.32.55c-.92.36-1.37.8-1.37,1.33s.45,1,1.37,1.33a9.05,9.05,0,0,0,3.32.54h.93a10.51,10.51,0,0,1,6,1.65,4.43,4.43,0,0,1,0,7.95,10.51,10.51,0,0,1-6,1.65h-9.86v-3.75h9.86a9.05,9.05,0,0,0,3.3-.54c.93-.36,1.39-.81,1.39-1.33s-.46-1-1.39-1.33a8.84,8.84,0,0,0-3.3-.55h-.93a10.49,10.49,0,0,1-6-1.65,4.45,4.45,0,0,1,0-7.95,10.49,10.49,0,0,1,6-1.65H837Zm18.75,10.09-9.37,9.34L843.79,267l8.21-8.18V245.27l-8.21-8.21,2.59-2.59,9.37,9.37Z"
          transform="translate(-361 -106)"/>
    <path class="cls-3"
          d="M807,250.18h-3.75a3.79,3.79,0,0,0-3.75,3.75v3.75a3.77,3.77,0,0,0,3.75,3.75H807a3.77,3.77,0,0,0,3.75-3.75v-3.75a3.79,3.79,0,0,0-3.75-3.75Z"
          transform="translate(-361 -106)"/>
    <path class="cls-3"
          d="M430.61,561.18h-8.06L421,567.73h-6.25l9.15-32h5.41l9.21,32h-6.32Zm-6.77-5.38h5.47l-2.74-11.41Z"
          transform="translate(-361 -106)"/>
    <path class="cls-3"
          d="M445.19,544l.17,2.35a5.9,5.9,0,0,1,5-2.79q5.61,0,5.78,8.6v15.62h-5.72V552.57a5.9,5.9,0,0,0-.55-2.94,2.09,2.09,0,0,0-1.94-.91,2.65,2.65,0,0,0-2.41,1.74v17.27h-5.71V544Z"
          transform="translate(-361 -106)"/>
    <path class="cls-3"
          d="M459.49,555.12c0-3.9.61-6.81,1.81-8.73a5.86,5.86,0,0,1,5.27-2.88,5,5,0,0,1,4.19,2.38V534h5.73v33.75h-5.17l-.26-2.42a5.17,5.17,0,0,1-4.51,2.86,5.79,5.79,0,0,1-5.22-2.86q-1.8-2.85-1.84-8.39Zm5.72,1.56a12.24,12.24,0,0,0,.68,4.91A2.38,2.38,0,0,0,468.2,563a2.76,2.76,0,0,0,2.56-1.65V550.48a2.72,2.72,0,0,0-2.54-1.76,2.41,2.41,0,0,0-2.29,1.39,11.69,11.69,0,0,0-.72,4.92Z"
          transform="translate(-361 -106)"/>
    <path class="cls-3"
          d="M491.41,550l-1.89-.17a3.11,3.11,0,0,0-3.16,2.24v15.71h-5.71V544H486l.16,2.58q1.35-3,3.72-3a3.67,3.67,0,0,1,1.57.29Z"
          transform="translate(-361 -106)"/>
    <path class="cls-3"
          d="M502.73,568.17a8.5,8.5,0,0,1-6.83-2.86c-1.64-1.9-2.46-4.63-2.46-8.17v-1.89q0-5.62,2.26-8.68a7.52,7.52,0,0,1,6.45-3.06,7.14,7.14,0,0,1,6.18,2.87c1.38,1.91,2.08,4.73,2.11,8.48v3H499.11a7,7,0,0,0,1.07,3.87A3.44,3.44,0,0,0,503.1,563a6.13,6.13,0,0,0,4.76-2.13l2.24,3.76a7.44,7.44,0,0,1-3,2.56A9.72,9.72,0,0,1,502.73,568.17Zm-.2-34.19h6.4l-5.59,6.81h-4.75Zm-3.38,19.6h5.7V553a7.08,7.08,0,0,0-.65-3.23,2.17,2.17,0,0,0-2.09-1.1,2.32,2.32,0,0,0-2.16,1.16A8.75,8.75,0,0,0,499.15,553.58Z"
          transform="translate(-361 -106)"/>
    <path class="cls-3" d="M538.53,554.68h-9.19v13.05h-5.91v-32h16.21v5.38h-10.3v8.2h9.19Z"
          transform="translate(-361 -106)"/>
    <path class="cls-3"
          d="M551.1,568.17a8.5,8.5,0,0,1-6.83-2.86c-1.64-1.9-2.46-4.63-2.46-8.17v-1.89q0-5.62,2.25-8.68a7.55,7.55,0,0,1,6.46-3.06,7.11,7.11,0,0,1,6.17,2.87c1.39,1.91,2.09,4.73,2.12,8.48v3H547.48a6.9,6.9,0,0,0,1.07,3.87,3.44,3.44,0,0,0,2.92,1.22,6.13,6.13,0,0,0,4.76-2.13l2.23,3.76a7.41,7.41,0,0,1-3,2.56A9.72,9.72,0,0,1,551.1,568.17Zm-3.58-14.59h5.7V553a7.21,7.21,0,0,0-.65-3.23,2.17,2.17,0,0,0-2.09-1.1,2.32,2.32,0,0,0-2.16,1.16A8.6,8.6,0,0,0,547.52,553.58Z"
          transform="translate(-361 -106)"/>
    <path class="cls-3"
          d="M572.76,550l-1.89-.17a3.1,3.1,0,0,0-3.15,2.24v15.71H562V544h5.37l.16,2.58q1.35-3,3.73-3a3.65,3.65,0,0,1,1.56.29Z"
          transform="translate(-361 -106)"/>
    <path class="cls-3"
          d="M586.42,550l-1.89-.17a3.11,3.11,0,0,0-3.16,2.24v15.71h-5.71V544H581l.16,2.58q1.35-3,3.72-3a3.7,3.7,0,0,1,1.57.29Z"
          transform="translate(-361 -106)"/>
    <path class="cls-3"
          d="M597.74,568.17a8.53,8.53,0,0,1-6.84-2.86c-1.63-1.9-2.45-4.63-2.45-8.17v-1.89q0-5.62,2.25-8.68a7.55,7.55,0,0,1,6.46-3.06,7.13,7.13,0,0,1,6.17,2.87c1.38,1.91,2.09,4.73,2.12,8.48v3H594.12a6.9,6.9,0,0,0,1.07,3.87A3.43,3.43,0,0,0,598.1,563a6.13,6.13,0,0,0,4.77-2.13l2.23,3.76a7.41,7.41,0,0,1-3,2.56A9.72,9.72,0,0,1,597.74,568.17Zm-3.58-14.59h5.69V553a7.09,7.09,0,0,0-.64-3.23,2.17,2.17,0,0,0-2.09-1.1,2.32,2.32,0,0,0-2.16,1.16A8.6,8.6,0,0,0,594.16,553.58Z"
          transform="translate(-361 -106)"/>
    <path class="cls-3"
          d="M608.66,537.8a3.33,3.33,0,0,1,.85-2.37,3.21,3.21,0,0,1,4.5,0,3.33,3.33,0,0,1,.85,2.37,3.44,3.44,0,0,1-.84,2.37,3.16,3.16,0,0,1-4.52,0A3.44,3.44,0,0,1,608.66,537.8Zm6,29.93h-5.72V544h5.72Z"
          transform="translate(-361 -106)"/>
    <path class="cls-3"
          d="M629.78,550l-1.89-.17a3.11,3.11,0,0,0-3.16,2.24v15.71H619V544h5.37l.16,2.58q1.35-3,3.72-3a3.67,3.67,0,0,1,1.57.29Z"
          transform="translate(-361 -106)"/>
    <path class="cls-3"
          d="M642.43,567.73a9.37,9.37,0,0,1-.48-1.85,4.74,4.74,0,0,1-4.14,2.29,5.87,5.87,0,0,1-4.54-2,7.31,7.31,0,0,1-1.8-5.12,7.55,7.55,0,0,1,2.18-5.78,9,9,0,0,1,6.29-2.08h1.73v-1.92a3.78,3.78,0,0,0-.51-2.26,1.71,1.71,0,0,0-1.46-.66c-1.43,0-2.14.91-2.14,2.73h-5.69a7.18,7.18,0,0,1,2.26-5.44,8,8,0,0,1,5.73-2.15,7.34,7.34,0,0,1,5.54,2,8.05,8.05,0,0,1,2,5.81v11.18a12.58,12.58,0,0,0,.8,4.82v.37Zm-3.36-4.44a2.92,2.92,0,0,0,2.6-1.41v-4.94H640.3a2.79,2.79,0,0,0-2.28,1,4.11,4.11,0,0,0-.84,2.7Q637.18,563.29,639.07,563.29Z"
          transform="translate(-361 -106)"/>
    <path class="cls-3"
          d="M668.84,563c1.65,0,2.48-1.17,2.51-3.51h5.35a9.21,9.21,0,0,1-2.19,6.28,7.13,7.13,0,0,1-5.55,2.4,7.63,7.63,0,0,1-6.42-2.86c-1.47-1.9-2.22-4.71-2.25-8.41V555q0-5.61,2.18-8.55a7.54,7.54,0,0,1,6.45-3,7.06,7.06,0,0,1,5.67,2.43q2.07,2.43,2.11,6.89h-5.35a6.69,6.69,0,0,0-.6-3.08,2,2,0,0,0-1.93-1.07,2.23,2.23,0,0,0-2.13,1.15,10.65,10.65,0,0,0-.69,4.47v2.42a21.54,21.54,0,0,0,.26,4,3.22,3.22,0,0,0,.87,1.7A2.47,2.47,0,0,0,668.84,563Z"
          transform="translate(-361 -106)"/>
    <path class="cls-3"
          d="M679.26,555.07c0-3.6.77-6.43,2.33-8.48a8.35,8.35,0,0,1,12.95,0c1.56,2,2.33,4.89,2.33,8.53v1.51q0,5.43-2.31,8.48a8.4,8.4,0,0,1-13,0q-2.33-3.06-2.32-8.51Zm5.71,1.56q0,6.38,3.11,6.37,2.88,0,3.1-5.31l0-2.62a10.8,10.8,0,0,0-.82-4.82,2.55,2.55,0,0,0-2.34-1.57,2.49,2.49,0,0,0-2.26,1.57,11,11,0,0,0-.81,4.82Z"
          transform="translate(-361 -106)"/>
    <path class="cls-3"
          d="M705.76,544l.16,2.2a6,6,0,0,1,5.05-2.64,4.7,4.7,0,0,1,4.61,3.21,5.85,5.85,0,0,1,5.33-3.21c3.8,0,5.76,2.88,5.85,8.64v15.58h-5.69V552.54a6.06,6.06,0,0,0-.53-2.94,1.89,1.89,0,0,0-1.77-.88c-1,0-1.85.71-2.37,2.13l0,.75v16.13h-5.69V552.59a6.56,6.56,0,0,0-.5-3,1.88,1.88,0,0,0-1.79-.91,2.62,2.62,0,0,0-2.34,1.74v17.27h-5.69V544Z"
          transform="translate(-361 -106)"/>
    <path class="cls-3"
          d="M751.15,565.55a5.45,5.45,0,0,1-4.74,2.62,5.18,5.18,0,0,1-4.55-2.25,11.6,11.6,0,0,1-1.55-6.56V544H746v15.56c0,2.32.73,3.47,2.11,3.47a2.9,2.9,0,0,0,2.81-1.84V544h5.74v23.78h-5.35Z"
          transform="translate(-361 -106)"/>
    <path class="cls-3"
          d="M766.08,544l.16,2.2a5.94,5.94,0,0,1,5-2.64,4.69,4.69,0,0,1,4.6,3.21,5.88,5.88,0,0,1,5.33-3.21q5.71,0,5.85,8.64v15.58h-5.69V552.54a6.08,6.08,0,0,0-.52-2.94,1.91,1.91,0,0,0-1.77-.88q-1.59,0-2.37,2.13l0,.75v16.13h-5.69V552.59a6.41,6.41,0,0,0-.51-3,1.87,1.87,0,0,0-1.79-.91,2.61,2.61,0,0,0-2.33,1.74v17.27h-5.69V544Z"
          transform="translate(-361 -106)"/>
    <path class="cls-3"
          d="M808.78,535.74l5.53,23.13,5.51-23.13h7.72v32h-5.93v-8.66l.54-13.34-5.85,22h-4l-5.85-22,.55,13.34v8.66h-5.92v-32Z"
          transform="translate(-361 -106)"/>
    <path class="cls-3"
          d="M840.79,568.17a8.5,8.5,0,0,1-6.83-2.86c-1.64-1.9-2.46-4.63-2.46-8.17v-1.89q0-5.62,2.25-8.68a7.55,7.55,0,0,1,6.46-3.06,7.13,7.13,0,0,1,6.17,2.87c1.38,1.91,2.09,4.73,2.12,8.48v3H837.17a6.9,6.9,0,0,0,1.07,3.87,3.43,3.43,0,0,0,2.91,1.22,6.13,6.13,0,0,0,4.77-2.13l2.23,3.76a7.41,7.41,0,0,1-3,2.56A9.72,9.72,0,0,1,840.79,568.17Zm-3.58-14.59h5.69V553a7.09,7.09,0,0,0-.64-3.23,2.17,2.17,0,0,0-2.09-1.1,2.32,2.32,0,0,0-2.16,1.16A8.6,8.6,0,0,0,837.21,553.58Z"
          transform="translate(-361 -106)"/>
    <path class="cls-3"
          d="M861.35,561.36a2,2,0,0,0-.7-1.46,13.14,13.14,0,0,0-3.08-1.82,12.67,12.67,0,0,1-4.84-3.23,6.47,6.47,0,0,1-1.32-4.15,6.93,6.93,0,0,1,2.06-5.15,7.44,7.44,0,0,1,5.46-2,8,8,0,0,1,5.74,2,7.08,7.08,0,0,1,2.15,5.42h-5.69c0-1.93-.74-2.9-2.22-2.9a1.94,1.94,0,0,0-1.48.62,2.38,2.38,0,0,0-.59,1.71,1.88,1.88,0,0,0,.65,1.4,13.48,13.48,0,0,0,3,1.72,12.45,12.45,0,0,1,4.92,3.13,6.75,6.75,0,0,1,1.44,4.48,6.47,6.47,0,0,1-2.19,5.11,8.4,8.4,0,0,1-5.76,1.94,8.53,8.53,0,0,1-4.22-1,7.42,7.42,0,0,1-2.87-2.85,7.85,7.85,0,0,1-1-3.93h5.41a4.1,4.1,0,0,0,.69,2.44,2.6,2.6,0,0,0,2.14.81A2,2,0,0,0,861.35,561.36Z"
          transform="translate(-361 -106)"/>
    <path class="cls-3"
          d="M877,538.11V544H880v4.66H877v11.82a3.71,3.71,0,0,0,.36,1.94,1.5,1.5,0,0,0,1.35.52,5,5,0,0,0,1.35-.15l0,4.83a8.1,8.1,0,0,1-3.14.6q-5.5,0-5.57-6.91V548.61h-2.51V544h2.51v-5.84Z"
          transform="translate(-361 -106)"/>
    <path class="cls-3"
          d="M893.81,550l-1.89-.17a3.11,3.11,0,0,0-3.16,2.24v15.71h-5.71V544h5.37l.16,2.58q1.35-3,3.72-3a3.7,3.7,0,0,1,1.57.29Z"
          transform="translate(-361 -106)"/>
    <path class="cls-3"
          d="M906.46,567.73a10,10,0,0,1-.49-1.85,4.73,4.73,0,0,1-4.14,2.29,5.86,5.86,0,0,1-4.53-2,7.31,7.31,0,0,1-1.8-5.12,7.51,7.51,0,0,1,2.18-5.78,9,9,0,0,1,6.28-2.08h1.73v-1.92a3.87,3.87,0,0,0-.5-2.26,1.73,1.73,0,0,0-1.47-.66q-2.13,0-2.13,2.73H895.9a7.15,7.15,0,0,1,2.26-5.44,8,8,0,0,1,5.72-2.15,7.31,7.31,0,0,1,5.54,2,8,8,0,0,1,2,5.81v11.18a12.75,12.75,0,0,0,.81,4.82v.37Zm-3.36-4.44a3,3,0,0,0,1.61-.42,2.8,2.8,0,0,0,1-1v-4.94h-1.36a2.83,2.83,0,0,0-2.29,1,4.17,4.17,0,0,0-.83,2.7Q901.21,563.29,903.1,563.29Z"
          transform="translate(-361 -106)"/>
    <path class="cls-3"
          d="M914.74,555.12c0-3.9.61-6.81,1.81-8.73a5.86,5.86,0,0,1,5.27-2.88,5,5,0,0,1,4.19,2.38V534h5.73v33.75h-5.17l-.26-2.42a5.17,5.17,0,0,1-4.51,2.86,5.79,5.79,0,0,1-5.22-2.86q-1.8-2.85-1.84-8.39Zm5.71,1.56a12.2,12.2,0,0,0,.69,4.91,2.37,2.37,0,0,0,2.31,1.39,2.76,2.76,0,0,0,2.56-1.65V550.48a2.72,2.72,0,0,0-2.54-1.76,2.41,2.41,0,0,0-2.29,1.39,11.66,11.66,0,0,0-.73,4.92Z"
          transform="translate(-361 -106)"/>
    <path class="cls-3"
          d="M935.26,555.07q0-5.4,2.33-8.48a8.35,8.35,0,0,1,12.95,0q2.34,3.07,2.34,8.53v1.51c0,3.62-.78,6.45-2.32,8.48a8.4,8.4,0,0,1-13,0q-2.33-3.06-2.32-8.51Zm5.71,1.56q0,6.38,3.12,6.37c1.91,0,2.95-1.77,3.09-5.31l0-2.62a10.8,10.8,0,0,0-.82-4.82,2.55,2.55,0,0,0-2.33-1.57,2.5,2.5,0,0,0-2.27,1.57,11,11,0,0,0-.81,4.82Z"
          transform="translate(-361 -106)"/>
    <path class="cls-3"
          d="M974.7,568.17a8.5,8.5,0,0,1-6.84-2.86c-1.64-1.9-2.46-4.63-2.46-8.17v-1.89c0-3.75.76-6.64,2.26-8.68a7.52,7.52,0,0,1,6.45-3.06,7.13,7.13,0,0,1,6.18,2.87c1.38,1.91,2.08,4.73,2.11,8.48v3H971.08a6.9,6.9,0,0,0,1.06,3.87,3.44,3.44,0,0,0,2.92,1.22,6.16,6.16,0,0,0,4.77-2.13l2.23,3.76a7.44,7.44,0,0,1-3,2.56A9.71,9.71,0,0,1,974.7,568.17Zm-3.58-14.59h5.69V553a7.08,7.08,0,0,0-.65-3.23,2.17,2.17,0,0,0-2.09-1.1,2.32,2.32,0,0,0-2.16,1.16A8.63,8.63,0,0,0,971.12,553.58Z"
          transform="translate(-361 -106)"/>
    <path class="cls-3"
          d="M991,544l.16,2.2a5.93,5.93,0,0,1,5-2.64,4.69,4.69,0,0,1,4.6,3.21,5.88,5.88,0,0,1,5.33-3.21q5.71,0,5.85,8.64v15.58h-5.69V552.54a6.08,6.08,0,0,0-.52-2.94,1.91,1.91,0,0,0-1.77-.88q-1.59,0-2.37,2.13l0,.75v16.13H996V552.59a6.41,6.41,0,0,0-.51-3,1.87,1.87,0,0,0-1.79-.91,2.61,2.61,0,0,0-2.33,1.74v17.27h-5.69V544Z"
          transform="translate(-361 -106)"/>
    <path class="cls-3" d="M1041.07,553.89h-9.22v8.48h10.9v5.36h-16.81v-32h16.77v5.38h-10.86v7.56h9.22Z"
          transform="translate(-361 -106)"/>
    <path class="cls-3"
          d="M1051.08,544l.16,2.35a5.92,5.92,0,0,1,5-2.79q5.61,0,5.77,8.6v15.62h-5.71V552.57a5.9,5.9,0,0,0-.55-2.94,2.1,2.1,0,0,0-1.94-.91,2.66,2.66,0,0,0-2.42,1.74v17.27h-5.71V544Z"
          transform="translate(-361 -106)"/>
    <path class="cls-3"
          d="M1065.46,555.12q0-5.85,1.93-8.73a6.16,6.16,0,0,1,5.41-2.88,5.12,5.12,0,0,1,4.57,2.55l.22-2.11h5.13v23.78q0,4.54-2.34,6.95t-6.69,2.41a10.17,10.17,0,0,1-3.76-.78,6.83,6.83,0,0,1-2.94-2l1.91-4.31a6,6,0,0,0,2.09,1.51,5.9,5.9,0,0,0,2.44.58,3.38,3.38,0,0,0,2.74-1,5.1,5.1,0,0,0,.86-3.22v-2a5,5,0,0,1-4.25,2.33,6,6,0,0,1-5.38-3q-1.89-3-1.94-8.34Zm5.69,1.56a10.87,10.87,0,0,0,.79,4.8,2.61,2.61,0,0,0,2.49,1.5,2.84,2.84,0,0,0,2.6-1.38V550.24a2.82,2.82,0,0,0-2.56-1.52,2.67,2.67,0,0,0-2.5,1.52,10.77,10.77,0,0,0-.82,4.88Z"
          transform="translate(-361 -106)"/>
    <path class="cls-3"
          d="M1095.65,568.17a8.53,8.53,0,0,1-6.84-2.86c-1.63-1.9-2.45-4.63-2.45-8.17v-1.89q0-5.62,2.25-8.68a7.53,7.53,0,0,1,6.46-3.06,7.13,7.13,0,0,1,6.17,2.87c1.38,1.91,2.08,4.73,2.11,8.48v3H1092a6.9,6.9,0,0,0,1.06,3.87A3.46,3.46,0,0,0,1096,563a6.16,6.16,0,0,0,4.77-2.13l2.23,3.76a7.44,7.44,0,0,1-3,2.56A9.68,9.68,0,0,1,1095.65,568.17Zm-3.58-14.59h5.69V553a7.23,7.23,0,0,0-.64-3.23,2.18,2.18,0,0,0-2.09-1.1,2.32,2.32,0,0,0-2.17,1.16A8.63,8.63,0,0,0,1092.07,553.58Z"
          transform="translate(-361 -106)"/>
    <path class="cls-3"
          d="M1111.78,544l.16,2.35a5.92,5.92,0,0,1,5-2.79q5.61,0,5.77,8.6v15.62h-5.71V552.57a5.89,5.89,0,0,0-.56-2.94,2.08,2.08,0,0,0-1.94-.91,2.66,2.66,0,0,0-2.41,1.74v17.27h-5.71V544Z"
          transform="translate(-361 -106)"/>
    <path class="cls-3"
          d="M1132.39,546a5.51,5.51,0,0,1,4.55-2.53,5.13,5.13,0,0,1,4.52,2.29q1.56,2.28,1.57,6.81v15.12h-5.71V552.68a5.89,5.89,0,0,0-.59-3,2.1,2.1,0,0,0-1.92-.94,2.67,2.67,0,0,0-2.42,1.56v17.45h-5.69V534h5.69Z"
          transform="translate(-361 -106)"/>
    <path class="cls-3"
          d="M1157.45,567.73a9.37,9.37,0,0,1-.48-1.85,4.74,4.74,0,0,1-4.14,2.29,5.87,5.87,0,0,1-4.54-2,7.31,7.31,0,0,1-1.8-5.12,7.55,7.55,0,0,1,2.18-5.78,9,9,0,0,1,6.29-2.08h1.73v-1.92a3.87,3.87,0,0,0-.5-2.26,1.75,1.75,0,0,0-1.47-.66q-2.13,0-2.13,2.73h-5.7a7.15,7.15,0,0,1,2.27-5.44,8,8,0,0,1,5.72-2.15,7.34,7.34,0,0,1,5.54,2,8,8,0,0,1,2,5.81v11.18a12.78,12.78,0,0,0,.8,4.82v.37Zm-3.36-4.44a3,3,0,0,0,1.61-.42,2.84,2.84,0,0,0,1-1v-4.94h-1.37a2.79,2.79,0,0,0-2.28,1,4.11,4.11,0,0,0-.84,2.7Q1152.2,563.29,1154.09,563.29Z"
          transform="translate(-361 -106)"/>
    <path class="cls-3"
          d="M1177.24,550l-1.89-.17a3.11,3.11,0,0,0-3.16,2.24v15.71h-5.71V544h5.37l.16,2.58q1.35-3,3.72-3a3.67,3.67,0,0,1,1.57.29Z"
          transform="translate(-361 -106)"/>
    <path class="cls-3"
          d="M1180.16,537.8a3.37,3.37,0,0,1,.84-2.37,3.22,3.22,0,0,1,4.51,0,3.37,3.37,0,0,1,.84,2.37,3.48,3.48,0,0,1-.83,2.37,3.18,3.18,0,0,1-4.53,0A3.48,3.48,0,0,1,1180.16,537.8Zm6,29.93h-5.71V544h5.71Z"
          transform="translate(-361 -106)"/>
    <path class="cls-3"
          d="M1200.87,567.73a9.37,9.37,0,0,1-.48-1.85,4.74,4.74,0,0,1-4.14,2.29,5.87,5.87,0,0,1-4.54-2,7.31,7.31,0,0,1-1.8-5.12,7.55,7.55,0,0,1,2.18-5.78,9,9,0,0,1,6.29-2.08h1.73v-1.92a3.87,3.87,0,0,0-.5-2.26,1.75,1.75,0,0,0-1.47-.66q-2.13,0-2.13,2.73h-5.7a7.15,7.15,0,0,1,2.27-5.44,8,8,0,0,1,5.72-2.15,7.32,7.32,0,0,1,5.54,2,8,8,0,0,1,2,5.81v11.18a13,13,0,0,0,.8,4.82v.37Zm-3.36-4.44a2.92,2.92,0,0,0,1.61-.42,2.84,2.84,0,0,0,1-1v-4.94h-1.37a2.82,2.82,0,0,0-2.28,1,4.11,4.11,0,0,0-.84,2.7Q1195.62,563.29,1197.51,563.29Z"
          transform="translate(-361 -106)"/>
    <path class="cls-3"
          d="M437.23,608.21q0,7.93-3.92,11.54l4,4-3.72,3.73-5.39-5.38-1.55.11a9.23,9.23,0,0,1-7.77-3.68q-2.81-3.69-2.83-10.19v-5q0-6.59,2.8-10.29a10,10,0,0,1,15.42-.14q2.82,3.55,2.92,10Zm-5.93-5q0-4.38-1.15-6.46a4,4,0,0,0-7-.06,13.42,13.42,0,0,0-1.16,6.19v5.29q0,4.41,1.15,6.49a3.79,3.79,0,0,0,3.53,2.09,3.71,3.71,0,0,0,3.45-2.08,13.88,13.88,0,0,0,1.16-6.34Z"
          transform="translate(-361 -106)"/>
    <path class="cls-3"
          d="M451.91,619.55a5.45,5.45,0,0,1-4.74,2.62,5.17,5.17,0,0,1-4.55-2.25,11.6,11.6,0,0,1-1.55-6.56V598h5.69v15.56c0,2.32.73,3.47,2.12,3.47a2.91,2.91,0,0,0,2.81-1.84V598h5.73v23.78h-5.35Z"
          transform="translate(-361 -106)"/>
    <path class="cls-3" d="M467.6,621.73h-5.69V598h5.69ZM466,588.31h6.4l-5.6,6.81H462Z"
          transform="translate(-361 -106)"/>
    <path class="cls-3"
          d="M477.64,598l.16,2.2a5.93,5.93,0,0,1,5-2.64,4.69,4.69,0,0,1,4.61,3.21,5.87,5.87,0,0,1,5.33-3.21q5.72,0,5.85,8.64v15.58h-5.69V606.54a6.08,6.08,0,0,0-.52-2.94,1.91,1.91,0,0,0-1.77-.88c-1.06,0-1.85.71-2.38,2.13l0,.75v16.13h-5.69V606.59a6.43,6.43,0,0,0-.5-3,1.88,1.88,0,0,0-1.79-.91,2.6,2.6,0,0,0-2.33,1.74v17.27h-5.69V598Z"
          transform="translate(-361 -106)"/>
    <path class="cls-3"
          d="M502.83,591.8a3.37,3.37,0,0,1,.85-2.37,2.88,2.88,0,0,1,2.25-.92,2.91,2.91,0,0,1,2.26.92,3.37,3.37,0,0,1,.84,2.37,3.44,3.44,0,0,1-.84,2.37,3.16,3.16,0,0,1-4.52,0A3.44,3.44,0,0,1,502.83,591.8Zm6,29.93H503.1V598h5.71Z"
          transform="translate(-361 -106)"/>
    <path class="cls-3"
          d="M521.08,617c1.65,0,2.48-1.17,2.51-3.51h5.35a9.21,9.21,0,0,1-2.19,6.28,7.13,7.13,0,0,1-5.55,2.4,7.62,7.62,0,0,1-6.42-2.86c-1.47-1.9-2.22-4.71-2.25-8.41V609q0-5.61,2.18-8.55a7.53,7.53,0,0,1,6.45-3,7.06,7.06,0,0,1,5.67,2.43q2.07,2.43,2.11,6.89h-5.35a6.69,6.69,0,0,0-.6-3.08,2,2,0,0,0-1.93-1.07,2.25,2.25,0,0,0-2.14,1.15,10.86,10.86,0,0,0-.68,4.47v2.42a21.54,21.54,0,0,0,.26,4,3.15,3.15,0,0,0,.87,1.7A2.47,2.47,0,0,0,521.08,617Z"
          transform="translate(-361 -106)"/>
    <path class="cls-3"
          d="M542.5,621.73a8.58,8.58,0,0,1-.49-1.85,4.74,4.74,0,0,1-4.14,2.29,5.88,5.88,0,0,1-4.54-2,7.31,7.31,0,0,1-1.8-5.12,7.52,7.52,0,0,1,2.19-5.78,9,9,0,0,1,6.28-2.08h1.73v-1.92a3.87,3.87,0,0,0-.5-2.26,1.75,1.75,0,0,0-1.47-.66q-2.13,0-2.13,2.73h-5.69a7.15,7.15,0,0,1,2.26-5.44,8,8,0,0,1,5.72-2.15,7.32,7.32,0,0,1,5.54,2,8,8,0,0,1,2,5.81v11.18a12.75,12.75,0,0,0,.81,4.82v.37Zm-3.36-4.44a3,3,0,0,0,1.61-.42,2.8,2.8,0,0,0,1-1v-4.94h-1.37a2.82,2.82,0,0,0-2.28,1,4.11,4.11,0,0,0-.83,2.7Q537.25,617.29,539.14,617.29Z"
          transform="translate(-361 -106)"/>
    <path class="cls-3"
          d="M566.25,598l.16,2.35a5.92,5.92,0,0,1,5.05-2.79q5.61,0,5.77,8.6v15.62h-5.71V606.57a5.89,5.89,0,0,0-.56-2.94,2.08,2.08,0,0,0-1.94-.91,2.66,2.66,0,0,0-2.41,1.74v17.27H560.9V598Z"
          transform="translate(-361 -106)"/>
    <path class="cls-3"
          d="M591.65,621.73a9.37,9.37,0,0,1-.48-1.85,4.74,4.74,0,0,1-4.15,2.29,5.86,5.86,0,0,1-4.53-2,7.31,7.31,0,0,1-1.8-5.12,7.55,7.55,0,0,1,2.18-5.78,9,9,0,0,1,6.28-2.08h1.73v-1.92a3.79,3.79,0,0,0-.5-2.26,1.72,1.72,0,0,0-1.47-.66q-2.13,0-2.13,2.73h-5.69a7.15,7.15,0,0,1,2.26-5.44,8,8,0,0,1,5.72-2.15,7.35,7.35,0,0,1,5.55,2,8.05,8.05,0,0,1,2,5.81v11.18a12.58,12.58,0,0,0,.8,4.82v.37Zm-3.36-4.44a3,3,0,0,0,1.61-.42,2.8,2.8,0,0,0,1-1v-4.94h-1.36a2.83,2.83,0,0,0-2.29,1,4.17,4.17,0,0,0-.83,2.7Q586.4,617.29,588.29,617.29Z"
          transform="translate(-361 -106)"/>
    <path class="cls-3"
          d="M629.52,589.74v22.14c0,3.33-.87,5.87-2.52,7.64s-4,2.65-7.09,2.65-5.54-.9-7.19-2.68-2.49-4.37-2.49-7.76v-22h6v22a7,7,0,0,0,.8,3.89,3.3,3.3,0,0,0,2.92,1.17,3.25,3.25,0,0,0,2.89-1.16,7.13,7.13,0,0,0,.81-3.79V589.74Z"
          transform="translate(-361 -106)"/>
    <path class="cls-3"
          d="M638.93,598l.16,2.35a5.92,5.92,0,0,1,5-2.79q5.61,0,5.77,8.6v15.62H644.2V606.57a5.9,5.9,0,0,0-.55-2.94,2.1,2.1,0,0,0-1.94-.91,2.66,2.66,0,0,0-2.42,1.74v17.27h-5.71V598Z"
          transform="translate(-361 -106)"/>
    <path class="cls-3"
          d="M654,591.8a3.37,3.37,0,0,1,.85-2.37,3.21,3.21,0,0,1,4.5,0,3.33,3.33,0,0,1,.85,2.37,3.44,3.44,0,0,1-.84,2.37,3.16,3.16,0,0,1-4.52,0A3.44,3.44,0,0,1,654,591.8Zm6,29.93h-5.71V598H660Z"
          transform="translate(-361 -106)"/>
    <path class="cls-3" d="M671.51,612.94l2.76-15h5.93l-6,23.78H668.8l-6-23.78h6Z" transform="translate(-361 -106)"/>
    <path class="cls-3"
          d="M691.4,622.17a8.53,8.53,0,0,1-6.84-2.86c-1.63-1.9-2.45-4.63-2.45-8.17v-1.89q0-5.62,2.25-8.68a7.55,7.55,0,0,1,6.46-3.06,7.13,7.13,0,0,1,6.17,2.87c1.38,1.91,2.09,4.73,2.12,8.48v3H687.78a6.9,6.9,0,0,0,1.07,3.87,3.43,3.43,0,0,0,2.91,1.22,6.13,6.13,0,0,0,4.77-2.13l2.23,3.76a7.41,7.41,0,0,1-3,2.56A9.72,9.72,0,0,1,691.4,622.17Zm-3.58-14.59h5.69V607a7.09,7.09,0,0,0-.64-3.23,2.17,2.17,0,0,0-2.09-1.1,2.32,2.32,0,0,0-2.16,1.16A8.6,8.6,0,0,0,687.82,607.58Z"
          transform="translate(-361 -106)"/>
    <path class="cls-3"
          d="M713.06,604l-1.89-.17A3.09,3.09,0,0,0,708,606v15.71H702.3V598h5.37l.16,2.58q1.35-3,3.72-3a3.67,3.67,0,0,1,1.57.29Z"
          transform="translate(-361 -106)"/>
    <path class="cls-3"
          d="M725.61,615.36a2,2,0,0,0-.69-1.46,13,13,0,0,0-3.09-1.82,12.75,12.75,0,0,1-4.84-3.23,6.52,6.52,0,0,1-1.31-4.15,6.89,6.89,0,0,1,2.06-5.15,7.41,7.41,0,0,1,5.46-2,8,8,0,0,1,5.73,2,7,7,0,0,1,2.15,5.42h-5.69c0-1.93-.74-2.9-2.21-2.9a2,2,0,0,0-1.49.62,2.38,2.38,0,0,0-.58,1.71,1.87,1.87,0,0,0,.64,1.4,13.63,13.63,0,0,0,3,1.72,12.45,12.45,0,0,1,4.92,3.13,6.8,6.8,0,0,1,1.43,4.48,6.47,6.47,0,0,1-2.19,5.11,8.37,8.37,0,0,1-5.75,1.94,8.5,8.5,0,0,1-4.22-1,7.42,7.42,0,0,1-2.87-2.85,7.86,7.86,0,0,1-1-3.93h5.41a4,4,0,0,0,.7,2.44,2.59,2.59,0,0,0,2.14.81A2,2,0,0,0,725.61,615.36Z"
          transform="translate(-361 -106)"/>
    <path class="cls-3"
          d="M734.68,591.8a3.33,3.33,0,0,1,.85-2.37,3.21,3.21,0,0,1,4.5,0,3.33,3.33,0,0,1,.85,2.37,3.44,3.44,0,0,1-.84,2.37,3.16,3.16,0,0,1-4.52,0A3.44,3.44,0,0,1,734.68,591.8Zm6,29.93h-5.72V598h5.72Z"
          transform="translate(-361 -106)"/>
    <path class="cls-3"
          d="M744.3,609.12q0-5.85,1.81-8.73a5.84,5.84,0,0,1,5.27-2.88,5,5,0,0,1,4.18,2.38V588h5.73v33.75h-5.17l-.26-2.42a5.17,5.17,0,0,1-4.5,2.86,5.79,5.79,0,0,1-5.22-2.86c-1.2-1.9-1.82-4.7-1.84-8.39Zm5.71,1.56a12.42,12.42,0,0,0,.68,4.91A2.38,2.38,0,0,0,753,617a2.76,2.76,0,0,0,2.56-1.65V604.48a2.71,2.71,0,0,0-2.54-1.76,2.41,2.41,0,0,0-2.29,1.39A11.69,11.69,0,0,0,750,609Z"
          transform="translate(-361 -106)"/>
    <path class="cls-3"
          d="M775.81,621.73a9.37,9.37,0,0,1-.48-1.85,4.74,4.74,0,0,1-4.14,2.29,5.87,5.87,0,0,1-4.54-2,7.31,7.31,0,0,1-1.8-5.12,7.55,7.55,0,0,1,2.18-5.78,9,9,0,0,1,6.29-2.08h1.73v-1.92a3.78,3.78,0,0,0-.51-2.26,1.71,1.71,0,0,0-1.46-.66c-1.42,0-2.14.91-2.14,2.73h-5.69a7.15,7.15,0,0,1,2.27-5.44,8,8,0,0,1,5.72-2.15,7.34,7.34,0,0,1,5.54,2,8,8,0,0,1,2,5.81v11.18a12.78,12.78,0,0,0,.8,4.82v.37Zm-3.36-4.44a2.92,2.92,0,0,0,2.6-1.41v-4.94h-1.37a2.79,2.79,0,0,0-2.28,1,4.11,4.11,0,0,0-.84,2.7Q770.56,617.29,772.45,617.29Z"
          transform="translate(-361 -106)"/>
    <path class="cls-3"
          d="M784.1,609.12q0-5.85,1.81-8.73a5.84,5.84,0,0,1,5.27-2.88,5,5,0,0,1,4.18,2.38V588h5.73v33.75h-5.17l-.26-2.42a5.16,5.16,0,0,1-4.5,2.86,5.79,5.79,0,0,1-5.22-2.86c-1.2-1.9-1.82-4.7-1.84-8.39Zm5.71,1.56a12.42,12.42,0,0,0,.68,4.91,2.38,2.38,0,0,0,2.32,1.39,2.75,2.75,0,0,0,2.55-1.65V604.48a2.71,2.71,0,0,0-2.53-1.76,2.42,2.42,0,0,0-2.3,1.39,11.69,11.69,0,0,0-.72,4.92Z"
          transform="translate(-361 -106)"/>
    <path class="cls-3"
          d="M814.06,622.17a8.5,8.5,0,0,1-6.83-2.86c-1.64-1.9-2.46-4.63-2.46-8.17v-1.89q0-5.62,2.26-8.68a7.52,7.52,0,0,1,6.45-3.06,7.14,7.14,0,0,1,6.18,2.87c1.38,1.91,2.08,4.73,2.11,8.48v3H810.44a6.9,6.9,0,0,0,1.07,3.87,3.44,3.44,0,0,0,2.92,1.22,6.13,6.13,0,0,0,4.76-2.13l2.24,3.76a7.44,7.44,0,0,1-3,2.56A9.72,9.72,0,0,1,814.06,622.17Zm-3.58-14.59h5.7V607a7.08,7.08,0,0,0-.65-3.23,2.17,2.17,0,0,0-2.09-1.1,2.32,2.32,0,0,0-2.16,1.16A8.6,8.6,0,0,0,810.48,607.58Z"
          transform="translate(-361 -106)"/>
    <path class="cls-3"
          d="M833.71,609.12c0-3.9.61-6.81,1.81-8.73a5.86,5.86,0,0,1,5.27-2.88,5,5,0,0,1,4.19,2.38V588h5.73v33.75h-5.17l-.26-2.42a5.17,5.17,0,0,1-4.51,2.86,5.79,5.79,0,0,1-5.22-2.86q-1.8-2.85-1.84-8.39Zm5.72,1.56a12.24,12.24,0,0,0,.68,4.91,2.37,2.37,0,0,0,2.31,1.39,2.76,2.76,0,0,0,2.56-1.65V604.48a2.72,2.72,0,0,0-2.54-1.76,2.41,2.41,0,0,0-2.29,1.39,11.69,11.69,0,0,0-.72,4.92Z"
          transform="translate(-361 -106)"/>
    <path class="cls-3"
          d="M863.68,622.17a8.53,8.53,0,0,1-6.84-2.86c-1.63-1.9-2.45-4.63-2.45-8.17v-1.89q0-5.62,2.25-8.68a7.53,7.53,0,0,1,6.46-3.06,7.13,7.13,0,0,1,6.17,2.87c1.38,1.91,2.09,4.73,2.11,8.48v3H860.06a6.9,6.9,0,0,0,1.07,3.87A3.43,3.43,0,0,0,864,617a6.15,6.15,0,0,0,4.77-2.13l2.23,3.76a7.44,7.44,0,0,1-3,2.56A9.65,9.65,0,0,1,863.68,622.17Zm-3.58-14.59h5.69V607a7.23,7.23,0,0,0-.64-3.23,2.17,2.17,0,0,0-2.09-1.1,2.32,2.32,0,0,0-2.17,1.16A8.78,8.78,0,0,0,860.1,607.58Z"
          transform="translate(-361 -106)"/>
    <path class="cls-3"
          d="M904.23,611.07q-.22,5.48-2.82,8.29a9.48,9.48,0,0,1-7.32,2.81,8.89,8.89,0,0,1-7.61-3.57q-2.65-3.57-2.65-10.19V603q0-6.6,2.74-10.16a9,9,0,0,1,7.6-3.57q4.79,0,7.27,2.92c1.66,1.95,2.6,4.74,2.83,8.39h-5.94a9.29,9.29,0,0,0-1-4.67,3.63,3.63,0,0,0-3.21-1.28,3.51,3.51,0,0,0-3.36,1.81c-.66,1.21-1,3.2-1,6v6q0,4.77,1,6.55a3.51,3.51,0,0,0,3.35,1.78,3.73,3.73,0,0,0,3.22-1.24,8.8,8.8,0,0,0,1-4.5Z"
          transform="translate(-361 -106)"/>
    <path class="cls-3"
          d="M906.92,609.07q0-5.4,2.33-8.48a8.35,8.35,0,0,1,13,0q2.34,3.07,2.34,8.53v1.51q0,5.43-2.31,8.48a8.41,8.41,0,0,1-13,0q-2.32-3.06-2.32-8.51Zm5.71,1.56q0,6.38,3.12,6.37,2.88,0,3.1-5.31l0-2.62a10.77,10.77,0,0,0-.83-4.82,2.55,2.55,0,0,0-2.33-1.57,2.48,2.48,0,0,0-2.26,1.57,10.8,10.8,0,0,0-.82,4.82Z"
          transform="translate(-361 -106)"/>
    <path class="cls-3"
          d="M928.08,591.8a3.37,3.37,0,0,1,.84-2.37,3.22,3.22,0,0,1,4.51,0,3.37,3.37,0,0,1,.84,2.37,3.48,3.48,0,0,1-.83,2.37,3.18,3.18,0,0,1-4.53,0A3.48,3.48,0,0,1,928.08,591.8Zm6,29.93h-5.71V598h5.71Z"
          transform="translate(-361 -106)"/>
    <path class="cls-3"
          d="M943.81,598l.16,2.2a5.93,5.93,0,0,1,5-2.64,4.69,4.69,0,0,1,4.61,3.21,5.87,5.87,0,0,1,5.33-3.21q5.71,0,5.85,8.64v15.58h-5.69V606.54a6.08,6.08,0,0,0-.52-2.94,1.91,1.91,0,0,0-1.77-.88c-1.06,0-1.85.71-2.38,2.13l0,.75v16.13h-5.69V606.59a6.43,6.43,0,0,0-.5-3,1.87,1.87,0,0,0-1.79-.91,2.6,2.6,0,0,0-2.33,1.74v17.27h-5.69V598Z"
          transform="translate(-361 -106)"/>
    <path class="cls-3"
          d="M986,610.61q0,5.77-1.69,8.67a5.71,5.71,0,0,1-5.31,2.89,5.15,5.15,0,0,1-4.54-2.79l-.19,2.35H969V588h5.69v11.91a4.91,4.91,0,0,1,4.24-2.38,5.73,5.73,0,0,1,5.31,2.87c1.13,1.91,1.7,4.72,1.73,8.41Zm-5.69-1.56c0-2.51-.22-4.19-.67-5a2.37,2.37,0,0,0-2.31-1.29,2.74,2.74,0,0,0-2.61,1.78v10.83a2.68,2.68,0,0,0,2.65,1.67,2.33,2.33,0,0,0,2.26-1.16,11,11,0,0,0,.68-4.53Z"
          transform="translate(-361 -106)"/>
    <path class="cls-3"
          d="M1000.14,604l-1.89-.17a3.11,3.11,0,0,0-3.16,2.24v15.71h-5.71V598h5.37l.16,2.58q1.35-3,3.72-3a3.7,3.7,0,0,1,1.57.29Z"
          transform="translate(-361 -106)"/>
    <path class="cls-3"
          d="M1012.79,621.73a9.37,9.37,0,0,1-.48-1.85,4.74,4.74,0,0,1-4.15,2.29,5.86,5.86,0,0,1-4.53-2,7.31,7.31,0,0,1-1.8-5.12,7.51,7.51,0,0,1,2.18-5.78,9,9,0,0,1,6.28-2.08H1012v-1.92a3.79,3.79,0,0,0-.5-2.26,1.72,1.72,0,0,0-1.47-.66q-2.13,0-2.13,2.73h-5.69a7.15,7.15,0,0,1,2.26-5.44,8,8,0,0,1,5.72-2.15,7.31,7.31,0,0,1,5.54,2,8,8,0,0,1,2,5.81v11.18a12.58,12.58,0,0,0,.8,4.82v.37Zm-3.36-4.44a3,3,0,0,0,1.61-.42,2.8,2.8,0,0,0,1-1v-4.94h-1.36a2.83,2.83,0,0,0-2.29,1,4.17,4.17,0,0,0-.83,2.7Q1007.54,617.29,1009.43,617.29Z"
          transform="translate(-361 -106)"/>
    <path class="cls-3"
          d="M1023.53,629.79l-3-1.73.77-1.56a12.09,12.09,0,0,0,1.32-5.23v-4.95h4.95l0,4.42a12.55,12.55,0,0,1-1.09,4.83A12.24,12.24,0,0,1,1023.53,629.79Z"
          transform="translate(-361 -106)"/>
    <path class="cls-3"
          d="M1052.15,619.55a5.46,5.46,0,0,1-4.75,2.62,5.15,5.15,0,0,1-4.54-2.25c-1-1.51-1.55-3.69-1.55-6.56V598H1047v15.56c0,2.32.73,3.47,2.11,3.47a2.92,2.92,0,0,0,2.82-1.84V598h5.73v23.78h-5.35Z"
          transform="translate(-361 -106)"/>
    <path class="cls-3"
          d="M1067.07,598l.16,2.2a5.94,5.94,0,0,1,5-2.64,4.68,4.68,0,0,1,4.6,3.21,5.88,5.88,0,0,1,5.33-3.21q5.71,0,5.86,8.64v15.58h-5.69V606.54a6.06,6.06,0,0,0-.53-2.94,1.91,1.91,0,0,0-1.77-.88q-1.59,0-2.37,2.13l0,.75v16.13h-5.69V606.59a6.56,6.56,0,0,0-.5-3,1.89,1.89,0,0,0-1.79-.91,2.62,2.62,0,0,0-2.34,1.74v17.27h-5.69V598Z"
          transform="translate(-361 -106)"/>
    <path class="cls-3"
          d="M415.59,663.12q0-5.85,1.81-8.73a5.85,5.85,0,0,1,5.27-2.88,5,5,0,0,1,4.18,2.38V642h5.73v33.75h-5.16l-.27-2.42a5.15,5.15,0,0,1-4.5,2.86,5.79,5.79,0,0,1-5.22-2.86q-1.8-2.85-1.84-8.39Zm5.71,1.56a12.2,12.2,0,0,0,.69,4.91A2.36,2.36,0,0,0,424.3,671a2.73,2.73,0,0,0,2.55-1.65V658.48a2.7,2.7,0,0,0-2.53-1.76,2.4,2.4,0,0,0-2.29,1.39,11.5,11.5,0,0,0-.73,4.92Z"
          transform="translate(-361 -106)"/>
    <path class="cls-3"
          d="M436.1,663.07q0-5.4,2.34-8.48a8.35,8.35,0,0,1,12.95,0q2.33,3.07,2.33,8.53v1.51q0,5.43-2.31,8.48a8.4,8.4,0,0,1-13,0q-2.32-3.06-2.33-8.51Zm5.72,1.56q0,6.38,3.11,6.37,2.88,0,3.1-5.31l0-2.62a10.8,10.8,0,0,0-.82-4.82,2.55,2.55,0,0,0-2.34-1.57,2.49,2.49,0,0,0-2.26,1.57,11,11,0,0,0-.81,4.82Z"
          transform="translate(-361 -106)"/>
    <path class="cls-3"
          d="M468,673.55a5.46,5.46,0,0,1-4.75,2.62,5.16,5.16,0,0,1-4.54-2.25,11.6,11.6,0,0,1-1.55-6.56V652h5.69v15.56c0,2.32.73,3.47,2.11,3.47a2.91,2.91,0,0,0,2.82-1.84V652h5.73v23.78h-5.35Z"
          transform="translate(-361 -106)"/>
    <path class="cls-3"
          d="M484.15,646.11V652h2.92v4.66h-2.92v11.82a3.84,3.84,0,0,0,.35,1.94,1.53,1.53,0,0,0,1.36.52,5,5,0,0,0,1.35-.15l0,4.83a8.13,8.13,0,0,1-3.14.6q-5.5,0-5.57-6.91V656.61H476V652h2.51v-5.84Z"
          transform="translate(-361 -106)"/>
    <path class="cls-3"
          d="M488.92,663.07q0-5.4,2.33-8.48a8.35,8.35,0,0,1,12.95,0q2.34,3.07,2.34,8.53v1.51c0,3.62-.78,6.45-2.32,8.48a8.4,8.4,0,0,1-13,0q-2.33-3.06-2.32-8.51Zm5.71,1.56q0,6.38,3.12,6.37c1.91,0,2.95-1.77,3.09-5.31l0-2.62a10.8,10.8,0,0,0-.82-4.82,2.55,2.55,0,0,0-2.33-1.57,2.5,2.5,0,0,0-2.27,1.57,11,11,0,0,0-.81,4.82Z"
          transform="translate(-361 -106)"/>
    <path class="cls-3"
          d="M520.81,658l-1.89-.17a3.1,3.1,0,0,0-3.15,2.24v15.71h-5.71V652h5.37l.16,2.58q1.33-3,3.72-3a3.73,3.73,0,0,1,1.57.29Z"
          transform="translate(-361 -106)"/>
    <path class="cls-3"
          d="M533.47,675.73a8.58,8.58,0,0,1-.49-1.85,4.74,4.74,0,0,1-4.14,2.29,5.88,5.88,0,0,1-4.54-2,7.31,7.31,0,0,1-1.8-5.12,7.52,7.52,0,0,1,2.19-5.78,9,9,0,0,1,6.28-2.08h1.73v-1.92a3.87,3.87,0,0,0-.5-2.26,1.75,1.75,0,0,0-1.47-.66q-2.13,0-2.13,2.73h-5.69a7.15,7.15,0,0,1,2.26-5.44,8,8,0,0,1,5.72-2.15,7.31,7.31,0,0,1,5.54,2,8,8,0,0,1,2,5.81v11.18a12.75,12.75,0,0,0,.81,4.82v.37Zm-3.36-4.44a3,3,0,0,0,1.61-.42,2.8,2.8,0,0,0,1-1v-4.94h-1.37a2.82,2.82,0,0,0-2.28,1,4.11,4.11,0,0,0-.83,2.7Q528.22,671.29,530.11,671.29Z"
          transform="translate(-361 -106)"/>
    <path class="cls-3"
          d="M547.87,652l.16,2.2a5.93,5.93,0,0,1,5-2.64,4.69,4.69,0,0,1,4.61,3.21,5.87,5.87,0,0,1,5.33-3.21q5.72,0,5.85,8.64v15.58h-5.69V660.54a6.08,6.08,0,0,0-.52-2.94,1.91,1.91,0,0,0-1.77-.88c-1.06,0-1.85.71-2.38,2.13l0,.75v16.13h-5.69V660.59a6.43,6.43,0,0,0-.5-3,1.87,1.87,0,0,0-1.79-.91,2.6,2.6,0,0,0-2.33,1.74v17.27h-5.69V652Z"
          transform="translate(-361 -106)"/>
    <path class="cls-3"
          d="M581.85,676.17a8.5,8.5,0,0,1-6.83-2.86c-1.64-1.9-2.46-4.63-2.46-8.17v-1.89q0-5.62,2.25-8.68a7.55,7.55,0,0,1,6.46-3.06,7.11,7.11,0,0,1,6.17,2.87c1.39,1.91,2.09,4.73,2.12,8.48v3H578.23a6.9,6.9,0,0,0,1.07,3.87,3.44,3.44,0,0,0,2.92,1.22,6.13,6.13,0,0,0,4.76-2.13l2.23,3.76a7.35,7.35,0,0,1-3,2.56A9.72,9.72,0,0,1,581.85,676.17Zm-3.58-14.59H584V661a7.21,7.21,0,0,0-.65-3.23,2.17,2.17,0,0,0-2.09-1.1,2.32,2.32,0,0,0-2.16,1.16A8.6,8.6,0,0,0,578.27,661.58Z"
          transform="translate(-361 -106)"/>
    <path class="cls-3"
          d="M598,652l.17,2.35a5.89,5.89,0,0,1,5-2.79q5.61,0,5.77,8.6v15.62h-5.71V660.57a5.9,5.9,0,0,0-.55-2.94,2.1,2.1,0,0,0-1.94-.91,2.65,2.65,0,0,0-2.41,1.74v17.27h-5.72V652Z"
          transform="translate(-361 -106)"/>
    <path class="cls-3"
          d="M619.66,646.11V652h2.92v4.66h-2.92v11.82a3.71,3.71,0,0,0,.36,1.94,1.5,1.5,0,0,0,1.35.52,5,5,0,0,0,1.35-.15l0,4.83a8.1,8.1,0,0,1-3.14.6q-5.5,0-5.57-6.91V656.61h-2.51V652H614v-5.84Z"
          transform="translate(-361 -106)"/>
    <path class="cls-3"
          d="M624.43,663.07q0-5.4,2.33-8.48a8.36,8.36,0,0,1,13,0q2.32,3.07,2.33,8.53v1.51q0,5.43-2.31,8.48a8.41,8.41,0,0,1-13,0c-1.54-2-2.32-4.88-2.32-8.51Zm5.71,1.56q0,6.38,3.12,6.37,2.88,0,3.1-5.31l0-2.62a10.77,10.77,0,0,0-.83-4.82,2.54,2.54,0,0,0-2.33-1.57,2.48,2.48,0,0,0-2.26,1.57,10.8,10.8,0,0,0-.82,4.82Z"
          transform="translate(-361 -106)"/>
    <path class="cls-3"
          d="M663.87,676.17a8.53,8.53,0,0,1-6.84-2.86c-1.63-1.9-2.45-4.63-2.45-8.17v-1.89q0-5.62,2.25-8.68a7.53,7.53,0,0,1,6.46-3.06,7.13,7.13,0,0,1,6.17,2.87c1.38,1.91,2.09,4.73,2.11,8.48v3H660.25a6.9,6.9,0,0,0,1.07,3.87,3.43,3.43,0,0,0,2.91,1.22,6.15,6.15,0,0,0,4.77-2.13l2.23,3.76a7.44,7.44,0,0,1-3,2.56A9.65,9.65,0,0,1,663.87,676.17Zm-3.58-14.59H666V661a7.23,7.23,0,0,0-.64-3.23,2.17,2.17,0,0,0-2.09-1.1,2.32,2.32,0,0,0-2.17,1.16A8.78,8.78,0,0,0,660.29,661.58Z"
          transform="translate(-361 -106)"/>
    <path class="cls-3"
          d="M680.14,652l.16,2.2a6,6,0,0,1,5.05-2.64,4.7,4.7,0,0,1,4.61,3.21,5.85,5.85,0,0,1,5.32-3.21q5.72,0,5.86,8.64v15.58h-5.69V660.54a6.06,6.06,0,0,0-.53-2.94,1.91,1.91,0,0,0-1.77-.88q-1.59,0-2.37,2.13l0,.75v16.13h-5.69V660.59a6.56,6.56,0,0,0-.5-3,1.89,1.89,0,0,0-1.79-.91,2.62,2.62,0,0,0-2.34,1.74v17.27h-5.69V652Z"
          transform="translate(-361 -106)"/>
    <path class="cls-3" d="M730.24,661.89H721v8.48h10.9v5.36H715.11v-32h16.78v5.38H721v7.56h9.21Z"
          transform="translate(-361 -106)"/>
    <path class="cls-3"
          d="M740.25,652l.17,2.35a5.89,5.89,0,0,1,5-2.79q5.61,0,5.77,8.6v15.62h-5.71V660.57a5.9,5.9,0,0,0-.55-2.94,2.1,2.1,0,0,0-1.94-.91,2.65,2.65,0,0,0-2.41,1.74v17.27H734.9V652Z"
          transform="translate(-361 -106)"/>
    <path class="cls-3"
          d="M754.63,663.12c0-3.9.65-6.81,1.93-8.73a6.17,6.17,0,0,1,5.42-2.88,5.09,5.09,0,0,1,4.56,2.55l.22-2.11h5.13v23.78q0,4.54-2.33,6.95t-6.7,2.41a10.21,10.21,0,0,1-3.76-.78,7,7,0,0,1-2.94-2l1.91-4.31a6,6,0,0,0,2.1,1.51,5.82,5.82,0,0,0,2.43.58,3.36,3.36,0,0,0,2.74-1,5,5,0,0,0,.86-3.22v-2a5,5,0,0,1-4.24,2.33,6,6,0,0,1-5.38-3q-1.91-3-2-8.34Zm5.7,1.56a11,11,0,0,0,.78,4.8,2.61,2.61,0,0,0,2.49,1.5,2.83,2.83,0,0,0,2.6-1.38V658.24a2.81,2.81,0,0,0-2.56-1.52,2.67,2.67,0,0,0-2.5,1.52,10.93,10.93,0,0,0-.81,4.88Z"
          transform="translate(-361 -106)"/>
    <path class="cls-3"
          d="M784.82,676.17a8.53,8.53,0,0,1-6.84-2.86c-1.63-1.9-2.45-4.63-2.45-8.17v-1.89q0-5.62,2.25-8.68a7.54,7.54,0,0,1,6.46-3.06,7.13,7.13,0,0,1,6.17,2.87c1.38,1.91,2.09,4.73,2.11,8.48v3H781.2a6.9,6.9,0,0,0,1.07,3.87,3.43,3.43,0,0,0,2.91,1.22,6.13,6.13,0,0,0,4.77-2.13l2.23,3.76a7.41,7.41,0,0,1-3,2.56A9.72,9.72,0,0,1,784.82,676.17Zm-3.58-14.59h5.69V661a7.09,7.09,0,0,0-.64-3.23,2.17,2.17,0,0,0-2.09-1.1,2.32,2.32,0,0,0-2.16,1.16A8.6,8.6,0,0,0,781.24,661.58Z"
          transform="translate(-361 -106)"/>
    <path class="cls-3"
          d="M801,652l.16,2.35a5.92,5.92,0,0,1,5-2.79q5.61,0,5.77,8.6v15.62h-5.71V660.57a5.9,5.9,0,0,0-.55-2.94,2.1,2.1,0,0,0-1.94-.91,2.66,2.66,0,0,0-2.42,1.74v17.27H795.6V652Z"
          transform="translate(-361 -106)"/>
    <path class="cls-3"
          d="M821.57,654a5.48,5.48,0,0,1,4.54-2.53,5.14,5.14,0,0,1,4.53,2.29q1.54,2.28,1.57,6.81v15.12h-5.72V660.68a5.79,5.79,0,0,0-.59-3,2.1,2.1,0,0,0-1.92-.94,2.65,2.65,0,0,0-2.41,1.56v17.45h-5.7V642h5.7Z"
          transform="translate(-361 -106)"/>
    <path class="cls-3"
          d="M846.63,675.73a8.58,8.58,0,0,1-.49-1.85,4.74,4.74,0,0,1-4.14,2.29,5.88,5.88,0,0,1-4.54-2,7.31,7.31,0,0,1-1.8-5.12,7.52,7.52,0,0,1,2.19-5.78,9,9,0,0,1,6.28-2.08h1.73v-1.92a3.87,3.87,0,0,0-.5-2.26,1.75,1.75,0,0,0-1.47-.66q-2.13,0-2.13,2.73h-5.69a7.15,7.15,0,0,1,2.26-5.44,8,8,0,0,1,5.72-2.15,7.32,7.32,0,0,1,5.54,2,8,8,0,0,1,2,5.81v11.18a12.75,12.75,0,0,0,.81,4.82v.37Zm-3.36-4.44a3,3,0,0,0,1.61-.42,2.8,2.8,0,0,0,1-1v-4.94h-1.37a2.82,2.82,0,0,0-2.28,1,4.11,4.11,0,0,0-.83,2.7Q841.38,671.29,843.27,671.29Z"
          transform="translate(-361 -106)"/>
    <path class="cls-3"
          d="M866.42,658l-1.9-.17a3.1,3.1,0,0,0-3.15,2.24v15.71h-5.71V652H861l.16,2.58q1.34-3,3.72-3a3.73,3.73,0,0,1,1.57.29Z"
          transform="translate(-361 -106)"/>
    <path class="cls-3"
          d="M869.33,645.8a3.33,3.33,0,0,1,.85-2.37,3.21,3.21,0,0,1,4.5,0,3.37,3.37,0,0,1,.85,2.37,3.44,3.44,0,0,1-.84,2.37,3.16,3.16,0,0,1-4.52,0A3.44,3.44,0,0,1,869.33,645.8Zm6,29.93h-5.71V652h5.71Z"
          transform="translate(-361 -106)"/>
    <path class="cls-3"
          d="M890.05,675.73a9.22,9.22,0,0,1-.49-1.85,4.74,4.74,0,0,1-4.14,2.29,5.86,5.86,0,0,1-4.53-2,7.31,7.31,0,0,1-1.8-5.12,7.51,7.51,0,0,1,2.18-5.78,9,9,0,0,1,6.28-2.08h1.73v-1.92a3.87,3.87,0,0,0-.5-2.26,1.75,1.75,0,0,0-1.47-.66q-2.13,0-2.13,2.73h-5.69a7.15,7.15,0,0,1,2.26-5.44,8,8,0,0,1,5.72-2.15,7.31,7.31,0,0,1,5.54,2,8,8,0,0,1,2,5.81v11.18a12.75,12.75,0,0,0,.81,4.82v.37Zm-3.36-4.44a3,3,0,0,0,1.61-.42,2.8,2.8,0,0,0,1-1v-4.94h-1.36a2.83,2.83,0,0,0-2.29,1,4.17,4.17,0,0,0-.83,2.7Q884.8,671.29,886.69,671.29Z"
          transform="translate(-361 -106)"/>
    <path class="cls-3"
          d="M929.47,662.21q0,7.93-3.93,11.54l4.05,4-3.72,3.73-5.39-5.38-1.55.11a9.24,9.24,0,0,1-7.78-3.68q-2.8-3.69-2.82-10.19v-5q0-6.59,2.79-10.29a10,10,0,0,1,15.43-.14q2.82,3.55,2.92,10Zm-5.94-5a14,14,0,0,0-1.14-6.46,4,4,0,0,0-7-.06,13.53,13.53,0,0,0-1.17,6.19v5.29q0,4.41,1.16,6.49a3.79,3.79,0,0,0,3.53,2.09,3.71,3.71,0,0,0,3.45-2.08,13.9,13.9,0,0,0,1.15-6.34Z"
          transform="translate(-361 -106)"/>
    <path class="cls-3"
          d="M944.15,673.55a5.46,5.46,0,0,1-4.75,2.62,5.15,5.15,0,0,1-4.54-2.25c-1-1.51-1.55-3.69-1.55-6.56V652H939v15.56c0,2.32.73,3.47,2.11,3.47a2.92,2.92,0,0,0,2.82-1.84V652h5.73v23.78h-5.35Z"
          transform="translate(-361 -106)"/>
    <path class="cls-3" d="M959.83,675.73h-5.69V652h5.69Zm-1.64-33.42h6.39L959,649.12h-4.75Z"
          transform="translate(-361 -106)"/>
    <path class="cls-3"
          d="M969.87,652l.16,2.2a5.94,5.94,0,0,1,5.05-2.64,4.68,4.68,0,0,1,4.6,3.21,5.88,5.88,0,0,1,5.33-3.21q5.72,0,5.86,8.64v15.58h-5.69V660.54a6.06,6.06,0,0,0-.53-2.94,1.91,1.91,0,0,0-1.77-.88q-1.59,0-2.37,2.13l0,.75v16.13h-5.69V660.59a6.41,6.41,0,0,0-.51-3,1.87,1.87,0,0,0-1.79-.91,2.62,2.62,0,0,0-2.33,1.74v17.27h-5.69V652Z"
          transform="translate(-361 -106)"/>
    <path class="cls-3"
          d="M995.07,645.8a3.37,3.37,0,0,1,.84-2.37,2.91,2.91,0,0,1,2.26-.92,2.88,2.88,0,0,1,2.25.92,3.37,3.37,0,0,1,.84,2.37,3.43,3.43,0,0,1-.83,2.37,3.18,3.18,0,0,1-4.53,0A3.48,3.48,0,0,1,995.07,645.8Zm6,29.93h-5.71V652H1001Z"
          transform="translate(-361 -106)"/>
    <path class="cls-3"
          d="M1013.31,671q2.48,0,2.52-3.51h5.35a9.17,9.17,0,0,1-2.2,6.28,7.1,7.1,0,0,1-5.55,2.4,7.6,7.6,0,0,1-6.41-2.86c-1.48-1.9-2.23-4.71-2.26-8.41V663q0-5.61,2.19-8.55a7.51,7.51,0,0,1,6.44-3,7.06,7.06,0,0,1,5.67,2.43,10.5,10.5,0,0,1,2.12,6.89h-5.35a6.81,6.81,0,0,0-.61-3.08,2,2,0,0,0-1.93-1.07,2.24,2.24,0,0,0-2.13,1.15,10.53,10.53,0,0,0-.68,4.47v2.42a20.7,20.7,0,0,0,.26,4,3.14,3.14,0,0,0,.86,1.7A2.47,2.47,0,0,0,1013.31,671Z"
          transform="translate(-361 -106)"/>
    <path class="cls-3"
          d="M1034.73,675.73a9.37,9.37,0,0,1-.48-1.85,4.74,4.74,0,0,1-4.15,2.29,5.86,5.86,0,0,1-4.53-2,7.31,7.31,0,0,1-1.8-5.12,7.55,7.55,0,0,1,2.18-5.78,9,9,0,0,1,6.29-2.08H1034v-1.92a3.78,3.78,0,0,0-.51-2.26,1.71,1.71,0,0,0-1.46-.66c-1.43,0-2.14.91-2.14,2.73h-5.69a7.15,7.15,0,0,1,2.27-5.44,8,8,0,0,1,5.72-2.15,7.34,7.34,0,0,1,5.54,2,8.05,8.05,0,0,1,2,5.81v11.18a12.78,12.78,0,0,0,.8,4.82v.37Zm-3.36-4.44a2.92,2.92,0,0,0,2.6-1.41v-4.94h-1.37a2.79,2.79,0,0,0-2.28,1,4.11,4.11,0,0,0-.84,2.7Q1029.48,671.29,1031.37,671.29Z"
          transform="translate(-361 -106)"/>
    <path class="cls-3"
          d="M1073.4,665.07q-.21,5.48-2.81,8.29a9.48,9.48,0,0,1-7.32,2.81,8.89,8.89,0,0,1-7.61-3.57Q1053,669,1053,662.41V657q0-6.6,2.74-10.16a9,9,0,0,1,7.6-3.57q4.79,0,7.27,2.92c1.65,1.95,2.6,4.74,2.82,8.39h-5.93a9.29,9.29,0,0,0-1-4.67,3.64,3.64,0,0,0-3.21-1.28,3.51,3.51,0,0,0-3.36,1.81,13.65,13.65,0,0,0-1,6v6q0,4.77,1,6.55a3.51,3.51,0,0,0,3.35,1.78,3.73,3.73,0,0,0,3.22-1.24,8.8,8.8,0,0,0,1-4.5Z"
          transform="translate(-361 -106)"/>
    <path class="cls-3"
          d="M1076.1,663.07q0-5.4,2.33-8.48a8.35,8.35,0,0,1,13,0q2.34,3.07,2.34,8.53v1.51q0,5.43-2.32,8.48a8.4,8.4,0,0,1-13,0q-2.33-3.06-2.32-8.51Zm5.71,1.56q0,6.38,3.12,6.37,2.88,0,3.1-5.31l0-2.62a10.77,10.77,0,0,0-.83-4.82,2.55,2.55,0,0,0-2.33-1.57,2.48,2.48,0,0,0-2.26,1.57,10.8,10.8,0,0,0-.82,4.82Z"
          transform="translate(-361 -106)"/>
    <path class="cls-3"
          d="M1102.61,652l.16,2.2a5.93,5.93,0,0,1,5-2.64,4.69,4.69,0,0,1,4.6,3.21,5.87,5.87,0,0,1,5.33-3.21q5.71,0,5.85,8.64v15.58h-5.69V660.54a6.08,6.08,0,0,0-.52-2.94,1.91,1.91,0,0,0-1.77-.88q-1.59,0-2.37,2.13l0,.75v16.13h-5.69V660.59a6.41,6.41,0,0,0-.51-3,1.87,1.87,0,0,0-1.79-.91,2.61,2.61,0,0,0-2.33,1.74v17.27h-5.69V652Z"
          transform="translate(-361 -106)"/>
    <path class="cls-3"
          d="M1144.76,664.59c0,3.73-.58,6.6-1.76,8.59a5.71,5.71,0,0,1-5.24,3,5,5,0,0,1-4.26-2.35v11h-5.69V652h5.27l.2,2.18a5,5,0,0,1,4.44-2.62,5.81,5.81,0,0,1,5.24,2.77q1.76,2.78,1.8,8.48Zm-5.67-1.56a12.22,12.22,0,0,0-.69-4.88,2.43,2.43,0,0,0-2.35-1.43,2.68,2.68,0,0,0-2.55,1.61v11.14a2.67,2.67,0,0,0,2.59,1.53,2.36,2.36,0,0,0,2.35-1.56,13.48,13.48,0,0,0,.65-4.85Z"
          transform="translate(-361 -106)"/>
    <path class="cls-3"
          d="M1158.9,673.55a5.46,5.46,0,0,1-4.75,2.62,5.16,5.16,0,0,1-4.54-2.25,11.6,11.6,0,0,1-1.55-6.56V652h5.69v15.56c0,2.32.73,3.47,2.11,3.47a2.92,2.92,0,0,0,2.82-1.84V652h5.73v23.78h-5.35Z"
          transform="translate(-361 -106)"/>
    <path class="cls-3"
          d="M1175.09,646.11V652H1178v4.66h-2.92v11.82a3.84,3.84,0,0,0,.35,1.94,1.53,1.53,0,0,0,1.36.52,5,5,0,0,0,1.35-.15l0,4.83a8.13,8.13,0,0,1-3.14.6q-5.51,0-5.57-6.91V656.61h-2.52V652h2.52v-5.84Z"
          transform="translate(-361 -106)"/>
    <path class="cls-3"
          d="M1191.46,675.73a9.37,9.37,0,0,1-.48-1.85,4.74,4.74,0,0,1-4.14,2.29,5.87,5.87,0,0,1-4.54-2,7.31,7.31,0,0,1-1.8-5.12,7.55,7.55,0,0,1,2.18-5.78,9,9,0,0,1,6.29-2.08h1.73v-1.92a3.78,3.78,0,0,0-.51-2.26,1.71,1.71,0,0,0-1.46-.66c-1.43,0-2.14.91-2.14,2.73h-5.69a7.15,7.15,0,0,1,2.27-5.44,8,8,0,0,1,5.72-2.15,7.34,7.34,0,0,1,5.54,2,8.05,8.05,0,0,1,2,5.81v11.18a12.78,12.78,0,0,0,.8,4.82v.37Zm-3.36-4.44a2.92,2.92,0,0,0,2.6-1.41v-4.94h-1.37a2.79,2.79,0,0,0-2.28,1,4.11,4.11,0,0,0-.84,2.7Q1186.21,671.29,1188.1,671.29Z"
          transform="translate(-361 -106)"/>
    <path class="cls-3"
          d="M1208.38,671q2.46,0,2.51-3.51h5.35a9.21,9.21,0,0,1-2.19,6.28,7.13,7.13,0,0,1-5.55,2.4,7.62,7.62,0,0,1-6.42-2.86c-1.48-1.9-2.23-4.71-2.25-8.41V663q0-5.61,2.18-8.55a7.52,7.52,0,0,1,6.45-3,7.06,7.06,0,0,1,5.67,2.43q2.07,2.43,2.11,6.89h-5.35a6.82,6.82,0,0,0-.6-3.08,2,2,0,0,0-1.94-1.07,2.24,2.24,0,0,0-2.13,1.15,10.69,10.69,0,0,0-.68,4.47v2.42a21.54,21.54,0,0,0,.26,4,3.15,3.15,0,0,0,.87,1.7A2.47,2.47,0,0,0,1208.38,671Z"
          transform="translate(-361 -106)"/>
    <path class="cls-3"
          d="M1219.46,645.8a3.37,3.37,0,0,1,.84-2.37,3.22,3.22,0,0,1,4.51,0,3.37,3.37,0,0,1,.84,2.37,3.48,3.48,0,0,1-.83,2.37,3.18,3.18,0,0,1-4.53,0A3.43,3.43,0,0,1,1219.46,645.8Zm6,29.93h-5.71V652h5.71Z"
          transform="translate(-361 -106)"/>
    <path class="cls-3"
          d="M1229.17,663.07q0-5.4,2.33-8.48a8.36,8.36,0,0,1,13,0q2.32,3.07,2.33,8.53v1.51q0,5.43-2.31,8.48a8.41,8.41,0,0,1-13,0q-2.33-3.06-2.32-8.51Zm5.71,1.56q0,6.38,3.12,6.37,2.88,0,3.1-5.31l0-2.62a10.77,10.77,0,0,0-.83-4.82,2.54,2.54,0,0,0-2.33-1.57,2.48,2.48,0,0,0-2.26,1.57,10.8,10.8,0,0,0-.82,4.82Z"
          transform="translate(-361 -106)"/>
    <path class="cls-3"
          d="M1255.54,652l.16,2.35a5.9,5.9,0,0,1,5-2.79q5.61,0,5.77,8.6v15.62h-5.71V660.57a5.89,5.89,0,0,0-.56-2.94,2.09,2.09,0,0,0-1.94-.91,2.66,2.66,0,0,0-2.41,1.74v17.27h-5.71V652Z"
          transform="translate(-361 -106)"/>
    <path class="cls-3"
          d="M1280.94,675.73a10,10,0,0,1-.49-1.85,4.71,4.71,0,0,1-4.14,2.29,5.86,5.86,0,0,1-4.53-2,7.31,7.31,0,0,1-1.8-5.12,7.51,7.51,0,0,1,2.18-5.78,9,9,0,0,1,6.28-2.08h1.73v-1.92a3.79,3.79,0,0,0-.5-2.26,1.72,1.72,0,0,0-1.47-.66q-2.13,0-2.13,2.73h-5.69a7.15,7.15,0,0,1,2.26-5.44,8,8,0,0,1,5.72-2.15,7.31,7.31,0,0,1,5.54,2,8,8,0,0,1,2,5.81v11.18a12.75,12.75,0,0,0,.81,4.82v.37Zm-3.36-4.44a3,3,0,0,0,1.61-.42,2.8,2.8,0,0,0,1-1v-4.94h-1.36a2.83,2.83,0,0,0-2.29,1,4.17,4.17,0,0,0-.83,2.7Q1275.69,671.29,1277.58,671.29Z"
          transform="translate(-361 -106)"/>
    <path class="cls-3" d="M1296,675.73h-5.71V642H1296Z" transform="translate(-361 -106)"/>
    <path class="cls-3"
          d="M1318.65,676.17a8.53,8.53,0,0,1-6.84-2.86c-1.64-1.9-2.45-4.63-2.45-8.17v-1.89q0-5.62,2.25-8.68a7.52,7.52,0,0,1,6.45-3.06,7.13,7.13,0,0,1,6.18,2.87c1.38,1.91,2.08,4.73,2.11,8.48v3H1315a6.9,6.9,0,0,0,1.06,3.87A3.45,3.45,0,0,0,1319,671a6.16,6.16,0,0,0,4.77-2.13l2.23,3.76a7.44,7.44,0,0,1-3,2.56A9.68,9.68,0,0,1,1318.65,676.17Zm-3.58-14.59h5.69V661a7.23,7.23,0,0,0-.64-3.23,2.18,2.18,0,0,0-2.1-1.1,2.32,2.32,0,0,0-2.16,1.16A8.63,8.63,0,0,0,1315.07,661.58Z"
          transform="translate(-361 -106)"/>
    <path class="cls-3"
          d="M426.69,729.73a9.37,9.37,0,0,1-.48-1.85,4.74,4.74,0,0,1-4.14,2.29,5.87,5.87,0,0,1-4.54-2,7.31,7.31,0,0,1-1.8-5.12,7.55,7.55,0,0,1,2.18-5.78,9,9,0,0,1,6.29-2.08h1.73v-1.92a3.87,3.87,0,0,0-.5-2.26,1.75,1.75,0,0,0-1.47-.66q-2.13,0-2.13,2.73h-5.7a7.15,7.15,0,0,1,2.27-5.44,8,8,0,0,1,5.72-2.15,7.34,7.34,0,0,1,5.54,2,8,8,0,0,1,2,5.81v11.18a12.78,12.78,0,0,0,.8,4.82v.37Zm-3.36-4.44a2.92,2.92,0,0,0,2.6-1.41v-4.94h-1.37a2.79,2.79,0,0,0-2.28,1,4.11,4.11,0,0,0-.84,2.7Q421.44,725.29,423.33,725.29Z"
          transform="translate(-361 -106)"/>
    <path class="cls-3"
          d="M442.36,700.11V706h2.92v4.66h-2.92v11.82a3.84,3.84,0,0,0,.35,1.94,1.53,1.53,0,0,0,1.36.52,5,5,0,0,0,1.35-.15l0,4.83a8.17,8.17,0,0,1-3.14.6q-5.52,0-5.57-6.91V710.61h-2.52V706h2.52v-5.84Z"
          transform="translate(-361 -106)"/>
    <path class="cls-3"
          d="M459.09,727.55a5.45,5.45,0,0,1-4.74,2.62,5.17,5.17,0,0,1-4.55-2.25,11.6,11.6,0,0,1-1.55-6.56V706h5.69v15.56c0,2.32.73,3.47,2.12,3.47a2.91,2.91,0,0,0,2.81-1.84V706h5.73v23.78h-5.35Z"
          transform="translate(-361 -106)"/>
    <path class="cls-3"
          d="M479,729.73a9.37,9.37,0,0,1-.48-1.85,4.74,4.74,0,0,1-4.14,2.29,5.87,5.87,0,0,1-4.54-2,7.31,7.31,0,0,1-1.8-5.12,7.55,7.55,0,0,1,2.18-5.78,9,9,0,0,1,6.29-2.08h1.73v-1.92a3.87,3.87,0,0,0-.5-2.26,1.75,1.75,0,0,0-1.47-.66q-2.13,0-2.13,2.73h-5.7a7.15,7.15,0,0,1,2.27-5.44,8,8,0,0,1,5.72-2.15,7.34,7.34,0,0,1,5.54,2,8,8,0,0,1,2,5.81v11.18a12.78,12.78,0,0,0,.8,4.82v.37Zm-3.36-4.44a3,3,0,0,0,1.61-.42,2.84,2.84,0,0,0,1-1v-4.94h-1.37a2.81,2.81,0,0,0-2.28,1,4.11,4.11,0,0,0-.84,2.7Q473.75,725.29,475.64,725.29Z"
          transform="translate(-361 -106)"/>
    <path class="cls-3" d="M494,729.73h-5.72V696H494Z" transform="translate(-361 -106)"/>
    <path class="cls-3"
          d="M503.78,706l.16,2.2a6,6,0,0,1,5.05-2.64,4.7,4.7,0,0,1,4.61,3.21,5.85,5.85,0,0,1,5.32-3.21q5.72,0,5.86,8.64v15.58h-5.69V714.54a6.06,6.06,0,0,0-.53-2.94,1.91,1.91,0,0,0-1.77-.88q-1.59,0-2.37,2.13l0,.75v16.13h-5.69V714.59a6.56,6.56,0,0,0-.5-3,1.89,1.89,0,0,0-1.79-.91,2.62,2.62,0,0,0-2.34,1.74v17.27h-5.69V706Z"
          transform="translate(-361 -106)"/>
    <path class="cls-3"
          d="M537.77,730.17a8.53,8.53,0,0,1-6.84-2.86c-1.64-1.9-2.45-4.63-2.45-8.17v-1.89q0-5.62,2.25-8.68a7.53,7.53,0,0,1,6.46-3.06,7.13,7.13,0,0,1,6.17,2.87c1.38,1.91,2.08,4.73,2.11,8.48v3H534.15a6.9,6.9,0,0,0,1.06,3.87,3.45,3.45,0,0,0,2.92,1.22,6.16,6.16,0,0,0,4.77-2.13l2.23,3.76a7.44,7.44,0,0,1-3,2.56A9.68,9.68,0,0,1,537.77,730.17Zm-3.58-14.59h5.69V715a7.23,7.23,0,0,0-.64-3.23,2.18,2.18,0,0,0-2.09-1.1,2.32,2.32,0,0,0-2.17,1.16A8.63,8.63,0,0,0,534.19,715.58Z"
          transform="translate(-361 -106)"/>
    <path class="cls-3"
          d="M553.9,706l.16,2.35a5.92,5.92,0,0,1,5.05-2.79q5.61,0,5.77,8.6v15.62h-5.71V714.57a6,6,0,0,0-.55-2.94,2.11,2.11,0,0,0-2-.91,2.66,2.66,0,0,0-2.41,1.74v17.27h-5.71V706Z"
          transform="translate(-361 -106)"/>
    <path class="cls-3"
          d="M575.58,700.11V706h2.92v4.66h-2.92v11.82a3.84,3.84,0,0,0,.35,1.94,1.53,1.53,0,0,0,1.36.52,5,5,0,0,0,1.35-.15l0,4.83a8.17,8.17,0,0,1-3.14.6q-5.52,0-5.57-6.91V710.61h-2.52V706h2.52v-5.84Z"
          transform="translate(-361 -106)"/>
    <path class="cls-3"
          d="M590.4,730.17a8.53,8.53,0,0,1-6.84-2.86c-1.63-1.9-2.45-4.63-2.45-8.17v-1.89q0-5.62,2.25-8.68a7.54,7.54,0,0,1,6.46-3.06,7.13,7.13,0,0,1,6.17,2.87c1.38,1.91,2.09,4.73,2.11,8.48v3H586.78a6.9,6.9,0,0,0,1.07,3.87,3.43,3.43,0,0,0,2.91,1.22,6.13,6.13,0,0,0,4.77-2.13l2.23,3.76a7.41,7.41,0,0,1-3,2.56A9.72,9.72,0,0,1,590.4,730.17Zm-3.58-14.59h5.69V715a7.09,7.09,0,0,0-.64-3.23,2.17,2.17,0,0,0-2.09-1.1,2.32,2.32,0,0,0-2.16,1.16A8.6,8.6,0,0,0,586.82,715.58Z"
          transform="translate(-361 -106)"/>
    <path class="cls-3"
          d="M616,706l.17,2.35a5.89,5.89,0,0,1,5-2.79q5.61,0,5.77,8.6v15.62h-5.71V714.57a5.9,5.9,0,0,0-.55-2.94,2.1,2.1,0,0,0-1.94-.91,2.65,2.65,0,0,0-2.41,1.74v17.27h-5.72V706Z"
          transform="translate(-361 -106)"/>
    <path class="cls-3"
          d="M641.43,729.73a8.58,8.58,0,0,1-.49-1.85,4.74,4.74,0,0,1-4.14,2.29,5.88,5.88,0,0,1-4.54-2,7.31,7.31,0,0,1-1.8-5.12,7.52,7.52,0,0,1,2.19-5.78,9,9,0,0,1,6.28-2.08h1.73v-1.92a3.87,3.87,0,0,0-.5-2.26,1.75,1.75,0,0,0-1.47-.66q-2.13,0-2.13,2.73h-5.69a7.15,7.15,0,0,1,2.26-5.44,8,8,0,0,1,5.72-2.15,7.32,7.32,0,0,1,5.54,2,8,8,0,0,1,2,5.81v11.18a12.75,12.75,0,0,0,.81,4.82v.37Zm-3.36-4.44a3,3,0,0,0,1.61-.42,2.8,2.8,0,0,0,1-1v-4.94h-1.37a2.82,2.82,0,0,0-2.28,1,4.11,4.11,0,0,0-.83,2.7Q636.18,725.29,638.07,725.29Z"
          transform="translate(-361 -106)"/>
    <path class="cls-3"
          d="M668.76,730.17a8.5,8.5,0,0,1-6.84-2.86c-1.64-1.9-2.45-4.63-2.45-8.17v-1.89q0-5.62,2.25-8.68a7.52,7.52,0,0,1,6.45-3.06,7.13,7.13,0,0,1,6.18,2.87c1.38,1.91,2.08,4.73,2.11,8.48v3H665.14a6.9,6.9,0,0,0,1.06,3.87,3.44,3.44,0,0,0,2.92,1.22,6.16,6.16,0,0,0,4.77-2.13l2.23,3.76a7.44,7.44,0,0,1-3,2.56A9.71,9.71,0,0,1,668.76,730.17Zm-3.58-14.59h5.69V715a7.23,7.23,0,0,0-.64-3.23,2.18,2.18,0,0,0-2.1-1.1,2.32,2.32,0,0,0-2.16,1.16A8.63,8.63,0,0,0,665.18,715.58Z"
          transform="translate(-361 -106)"/>
    <path class="cls-3"
          d="M685,706l.16,2.2a5.93,5.93,0,0,1,5-2.64,4.69,4.69,0,0,1,4.6,3.21,5.88,5.88,0,0,1,5.33-3.21q5.72,0,5.85,8.64v15.58h-5.69V714.54a6.08,6.08,0,0,0-.52-2.94,1.91,1.91,0,0,0-1.77-.88q-1.59,0-2.37,2.13l0,.75v16.13H690V714.59a6.41,6.41,0,0,0-.51-3,1.87,1.87,0,0,0-1.79-.91,2.61,2.61,0,0,0-2.33,1.74v17.27H679.7V706Z"
          transform="translate(-361 -106)"/>
    <path class="cls-3"
          d="M727.18,718.59c0,3.73-.59,6.6-1.76,8.59a5.71,5.71,0,0,1-5.24,3,5,5,0,0,1-4.26-2.35v11h-5.69V706h5.27l.2,2.18a5,5,0,0,1,4.44-2.62,5.81,5.81,0,0,1,5.24,2.77q1.75,2.78,1.8,8.48ZM721.51,717a12.22,12.22,0,0,0-.69-4.88,2.43,2.43,0,0,0-2.35-1.43,2.68,2.68,0,0,0-2.55,1.61v11.14a2.67,2.67,0,0,0,2.59,1.53,2.36,2.36,0,0,0,2.35-1.56,13.48,13.48,0,0,0,.65-4.85Z"
          transform="translate(-361 -106)"/>
    <path class="cls-3"
          d="M741.36,712l-1.89-.17a3.11,3.11,0,0,0-3.16,2.24v15.71H730.6V706H736l.16,2.58q1.35-3,3.72-3a3.67,3.67,0,0,1,1.57.29Z"
          transform="translate(-361 -106)"/>
    <path class="cls-3"
          d="M752.68,730.17a8.5,8.5,0,0,1-6.83-2.86c-1.64-1.9-2.46-4.63-2.46-8.17v-1.89q0-5.62,2.25-8.68a7.55,7.55,0,0,1,6.46-3.06,7.13,7.13,0,0,1,6.17,2.87c1.38,1.91,2.09,4.73,2.12,8.48v3H749.06a6.9,6.9,0,0,0,1.07,3.87A3.43,3.43,0,0,0,753,725a6.13,6.13,0,0,0,4.77-2.13l2.23,3.76a7.41,7.41,0,0,1-3,2.56A9.72,9.72,0,0,1,752.68,730.17Zm-3.58-14.59h5.69V715a7.09,7.09,0,0,0-.64-3.23,2.17,2.17,0,0,0-2.09-1.1,2.32,2.32,0,0,0-2.16,1.16A8.6,8.6,0,0,0,749.1,715.58Z"
          transform="translate(-361 -106)"/>
    <path class="cls-3"
          d="M773.24,723.36a2,2,0,0,0-.7-1.46,13.14,13.14,0,0,0-3.08-1.82,12.67,12.67,0,0,1-4.84-3.23,6.47,6.47,0,0,1-1.32-4.15,6.93,6.93,0,0,1,2.06-5.15,7.44,7.44,0,0,1,5.46-2,8,8,0,0,1,5.74,2,7.08,7.08,0,0,1,2.15,5.42H773c0-1.93-.74-2.9-2.22-2.9a1.94,1.94,0,0,0-1.48.62,2.38,2.38,0,0,0-.59,1.71,1.88,1.88,0,0,0,.65,1.4,13.73,13.73,0,0,0,3,1.72,12.45,12.45,0,0,1,4.92,3.13,6.75,6.75,0,0,1,1.44,4.48,6.47,6.47,0,0,1-2.19,5.11,8.4,8.4,0,0,1-5.76,1.94,8.53,8.53,0,0,1-4.22-1,7.48,7.48,0,0,1-2.87-2.85,7.85,7.85,0,0,1-1-3.93h5.41a4.1,4.1,0,0,0,.69,2.44,2.6,2.6,0,0,0,2.14.81A2,2,0,0,0,773.24,723.36Z"
          transform="translate(-361 -106)"/>
    <path class="cls-3"
          d="M792.65,729.73a8.58,8.58,0,0,1-.49-1.85,4.74,4.74,0,0,1-4.14,2.29,5.88,5.88,0,0,1-4.54-2,7.31,7.31,0,0,1-1.8-5.12,7.52,7.52,0,0,1,2.19-5.78,9,9,0,0,1,6.28-2.08h1.73v-1.92a3.87,3.87,0,0,0-.5-2.26,1.75,1.75,0,0,0-1.47-.66q-2.13,0-2.13,2.73h-5.69a7.15,7.15,0,0,1,2.26-5.44,8,8,0,0,1,5.72-2.15,7.32,7.32,0,0,1,5.54,2,8,8,0,0,1,2,5.81v11.18a12.75,12.75,0,0,0,.81,4.82v.37Zm-3.36-4.44a3,3,0,0,0,1.61-.42,2.8,2.8,0,0,0,1-1v-4.94h-1.37a2.82,2.82,0,0,0-2.28,1,4.11,4.11,0,0,0-.83,2.7Q787.4,725.29,789.29,725.29Z"
          transform="translate(-361 -106)"/>
    <path class="cls-3" d="M832,729.73h-5.89V716h-8.73v13.69h-5.91v-32h5.91v12.94h8.73V697.74H832Z"
          transform="translate(-361 -106)"/>
    <path class="cls-3"
          d="M835.81,717.07c0-3.6.77-6.43,2.33-8.48a8.35,8.35,0,0,1,13,0c1.56,2,2.33,4.89,2.33,8.53v1.51q0,5.43-2.31,8.48a8.4,8.4,0,0,1-13,0q-2.32-3.06-2.32-8.51Zm5.71,1.56q0,6.38,3.11,6.37,2.88,0,3.1-5.31l0-2.62a10.8,10.8,0,0,0-.82-4.82,2.55,2.55,0,0,0-2.34-1.57,2.49,2.49,0,0,0-2.26,1.57,11,11,0,0,0-.81,4.82Z"
          transform="translate(-361 -106)"/>
    <path class="cls-3" d="M863.8,720.94l2.76-15h5.93l-6,23.78h-5.43l-6-23.78h6Z" transform="translate(-361 -106)"/>
    <path class="cls-3"
          d="M875.16,699.8a3.37,3.37,0,0,1,.85-2.37,3.21,3.21,0,0,1,4.5,0,3.33,3.33,0,0,1,.85,2.37,3.44,3.44,0,0,1-.84,2.37,3.16,3.16,0,0,1-4.52,0A3.44,3.44,0,0,1,875.16,699.8Zm6,29.93h-5.71V706h5.71Z"
          transform="translate(-361 -106)"/>
    <path class="cls-3"
          d="M884.88,717.07q0-5.4,2.33-8.48a8.35,8.35,0,0,1,12.95,0q2.34,3.07,2.34,8.53v1.51q0,5.43-2.32,8.48a8.4,8.4,0,0,1-13,0q-2.33-3.06-2.32-8.51Zm5.71,1.56q0,6.38,3.12,6.37c1.91,0,2.95-1.77,3.09-5.31l0-2.62a10.8,10.8,0,0,0-.82-4.82,2.55,2.55,0,0,0-2.33-1.57,2.5,2.5,0,0,0-2.27,1.57,11,11,0,0,0-.81,4.82Z"
          transform="translate(-361 -106)"/>
    <path class="cls-3"
          d="M911.24,706l.16,2.35a5.92,5.92,0,0,1,5.05-2.79q5.61,0,5.78,8.6v15.62h-5.72V714.57a5.9,5.9,0,0,0-.55-2.94,2.1,2.1,0,0,0-1.94-.91,2.65,2.65,0,0,0-2.41,1.74v17.27h-5.72V706Z"
          transform="translate(-361 -106)"/>
    <path class="cls-3"
          d="M935.1,730.17a8.52,8.52,0,0,1-6.84-2.86c-1.64-1.9-2.45-4.63-2.45-8.17v-1.89q0-5.62,2.25-8.68a7.52,7.52,0,0,1,6.45-3.06,7.13,7.13,0,0,1,6.18,2.87c1.38,1.91,2.08,4.73,2.11,8.48v3H931.48a6.9,6.9,0,0,0,1.06,3.87,3.45,3.45,0,0,0,2.92,1.22,6.16,6.16,0,0,0,4.77-2.13l2.23,3.76a7.44,7.44,0,0,1-3,2.56A9.71,9.71,0,0,1,935.1,730.17Zm-3.58-14.59h5.69V715a7.08,7.08,0,0,0-.65-3.23,2.16,2.16,0,0,0-2.09-1.1,2.32,2.32,0,0,0-2.16,1.16A8.63,8.63,0,0,0,931.52,715.58Z"
          transform="translate(-361 -106)"/>
    <path class="cls-3"
          d="M963.37,725q2.48,0,2.52-3.51h5.35a9.21,9.21,0,0,1-2.19,6.28,7.13,7.13,0,0,1-5.56,2.4,7.6,7.6,0,0,1-6.41-2.86c-1.48-1.9-2.23-4.71-2.25-8.41V717c0-3.74.72-6.59,2.18-8.55a7.51,7.51,0,0,1,6.44-3,7.09,7.09,0,0,1,5.68,2.43q2.07,2.43,2.11,6.89h-5.35a6.81,6.81,0,0,0-.61-3.08,2,2,0,0,0-1.93-1.07,2.24,2.24,0,0,0-2.13,1.15,10.53,10.53,0,0,0-.68,4.47v2.42a21.54,21.54,0,0,0,.26,4,3.14,3.14,0,0,0,.86,1.7A2.5,2.5,0,0,0,963.37,725Z"
          transform="translate(-361 -106)"/>
    <path class="cls-3"
          d="M973.79,717.07q0-5.4,2.34-8.48a8.35,8.35,0,0,1,13,0q2.32,3.07,2.33,8.53v1.51q0,5.43-2.31,8.48a8.41,8.41,0,0,1-13,0c-1.54-2-2.32-4.88-2.32-8.51Zm5.71,1.56q0,6.38,3.12,6.37,2.88,0,3.1-5.31l0-2.62a10.77,10.77,0,0,0-.83-4.82,2.54,2.54,0,0,0-2.33-1.57,2.49,2.49,0,0,0-2.26,1.57,10.8,10.8,0,0,0-.82,4.82Z"
          transform="translate(-361 -106)"/>
    <path class="cls-3"
          d="M1000.3,706l.16,2.2a5.94,5.94,0,0,1,5-2.64,4.69,4.69,0,0,1,4.6,3.21,5.88,5.88,0,0,1,5.33-3.21q5.71,0,5.86,8.64v15.58h-5.7V714.54a6.08,6.08,0,0,0-.52-2.94,1.91,1.91,0,0,0-1.77-.88q-1.59,0-2.37,2.13l0,.75v16.13h-5.69V714.59a6.41,6.41,0,0,0-.51-3,1.87,1.87,0,0,0-1.79-.91,2.62,2.62,0,0,0-2.33,1.74v17.27H995V706Z"
          transform="translate(-361 -106)"/>
    <path class="cls-3"
          d="M1024.84,717.07c0-3.6.77-6.43,2.33-8.48a8.35,8.35,0,0,1,12.95,0c1.56,2,2.33,4.89,2.33,8.53v1.51q0,5.43-2.31,8.48a8.4,8.4,0,0,1-13,0q-2.33-3.06-2.32-8.51Zm5.71,1.56q0,6.38,3.11,6.37,2.88,0,3.1-5.31l0-2.62a10.8,10.8,0,0,0-.82-4.82,2.55,2.55,0,0,0-2.34-1.57,2.49,2.49,0,0,0-2.26,1.57,11,11,0,0,0-.81,4.82Z"
          transform="translate(-361 -106)"/>
    <path class="cls-3"
          d="M1055.77,729.73v-32h7.74a10.21,10.21,0,0,1,8.18,3.56q3,3.56,3.1,9.75v5.19q0,6.3-3,9.9a10.44,10.44,0,0,1-8.4,3.59Zm5.91-26.61v21.25h1.77c2,0,3.36-.57,4.16-1.71s1.23-3.09,1.27-5.87v-5.56q0-4.49-1.15-6.25a4.47,4.47,0,0,0-3.9-1.86Z"
          transform="translate(-361 -106)"/>
    <path class="cls-3"
          d="M1089.09,729.73a9.37,9.37,0,0,1-.48-1.85,4.74,4.74,0,0,1-4.14,2.29,5.87,5.87,0,0,1-4.54-2,7.31,7.31,0,0,1-1.8-5.12,7.55,7.55,0,0,1,2.18-5.78,9,9,0,0,1,6.29-2.08h1.73v-1.92a3.78,3.78,0,0,0-.51-2.26,1.71,1.71,0,0,0-1.46-.66q-2.13,0-2.13,2.73h-5.7a7.15,7.15,0,0,1,2.27-5.44,8,8,0,0,1,5.72-2.15,7.34,7.34,0,0,1,5.54,2,8,8,0,0,1,2,5.81v11.18a12.78,12.78,0,0,0,.8,4.82v.37Zm-3.36-4.44a2.92,2.92,0,0,0,2.6-1.41v-4.94H1087a2.79,2.79,0,0,0-2.28,1,4.11,4.11,0,0,0-.84,2.7Q1083.84,725.29,1085.73,725.29Z"
          transform="translate(-361 -106)"/>
    <path class="cls-3"
          d="M1104.76,700.11V706h2.92v4.66h-2.92v11.82a3.84,3.84,0,0,0,.35,1.94,1.53,1.53,0,0,0,1.36.52,5,5,0,0,0,1.35-.15l0,4.83a8.13,8.13,0,0,1-3.14.6q-5.52,0-5.57-6.91V710.61h-2.52V706h2.52v-5.84Z"
          transform="translate(-361 -106)"/>
    <path class="cls-3"
          d="M1121.13,729.73a9.37,9.37,0,0,1-.48-1.85,4.74,4.74,0,0,1-4.15,2.29,5.86,5.86,0,0,1-4.53-2,7.31,7.31,0,0,1-1.8-5.12,7.55,7.55,0,0,1,2.18-5.78,9,9,0,0,1,6.29-2.08h1.73v-1.92a3.78,3.78,0,0,0-.51-2.26,1.71,1.71,0,0,0-1.46-.66c-1.43,0-2.14.91-2.14,2.73h-5.69a7.18,7.18,0,0,1,2.26-5.44,8,8,0,0,1,5.73-2.15,7.34,7.34,0,0,1,5.54,2,8.05,8.05,0,0,1,2,5.81v11.18a12.58,12.58,0,0,0,.8,4.82v.37Zm-3.36-4.44a2.92,2.92,0,0,0,2.6-1.41v-4.94H1119a2.79,2.79,0,0,0-2.28,1,4.11,4.11,0,0,0-.84,2.7Q1115.88,725.29,1117.77,725.29Z"
          transform="translate(-361 -106)"/>
    <path class="cls-3"
          d="M1152.32,721.33a4.24,4.24,0,0,0-.91-3,10.35,10.35,0,0,0-3.33-2.08,15.39,15.39,0,0,1-6.34-4.27,9.1,9.1,0,0,1-1.93-5.79,8.45,8.45,0,0,1,2.63-6.49,10.14,10.14,0,0,1,11.47-1.21,8.27,8.27,0,0,1,3.25,3.5,11.3,11.3,0,0,1,1.14,5.14h-5.9a5.66,5.66,0,0,0-.87-3.41,2.94,2.94,0,0,0-2.52-1.18,3,3,0,0,0-2.42,1,4,4,0,0,0-.86,2.69,3.49,3.49,0,0,0,1,2.39,11.29,11.29,0,0,0,3.42,2.21,14.5,14.5,0,0,1,6.23,4.15,9.83,9.83,0,0,1,1.94,6.26,8.64,8.64,0,0,1-2.44,6.53,9.13,9.13,0,0,1-6.61,2.35,10.59,10.59,0,0,1-5.17-1.28,9.07,9.07,0,0,1-3.65-3.64,11.38,11.38,0,0,1-1.32-5.61H1145a6.48,6.48,0,0,0,1,4,3.84,3.84,0,0,0,3.22,1.26Q1152.32,724.92,1152.32,721.33Z"
          transform="translate(-361 -106)"/>
    <path class="cls-3"
          d="M1169.78,725q2.48,0,2.51-3.51h5.35a9.12,9.12,0,0,1-2.19,6.28,7.1,7.1,0,0,1-5.55,2.4,7.6,7.6,0,0,1-6.41-2.86c-1.48-1.9-2.23-4.71-2.26-8.41V717q0-5.61,2.19-8.55a7.51,7.51,0,0,1,6.44-3,7.06,7.06,0,0,1,5.67,2.43,10.44,10.44,0,0,1,2.11,6.89h-5.35a6.69,6.69,0,0,0-.6-3.08,2,2,0,0,0-1.93-1.07,2.24,2.24,0,0,0-2.13,1.15,10.65,10.65,0,0,0-.69,4.47v2.42a20.48,20.48,0,0,0,.27,4,3.14,3.14,0,0,0,.86,1.7A2.47,2.47,0,0,0,1169.78,725Z"
          transform="translate(-361 -106)"/>
    <path class="cls-3"
          d="M1180.86,699.8a3.33,3.33,0,0,1,.85-2.37,3.21,3.21,0,0,1,4.5,0,3.37,3.37,0,0,1,.85,2.37,3.44,3.44,0,0,1-.84,2.37,3.16,3.16,0,0,1-4.52,0A3.44,3.44,0,0,1,1180.86,699.8Zm6,29.93h-5.72V706h5.72Z"
          transform="translate(-361 -106)"/>
    <path class="cls-3"
          d="M1200,730.17a8.53,8.53,0,0,1-6.84-2.86c-1.63-1.9-2.45-4.63-2.45-8.17v-1.89q0-5.62,2.25-8.68a7.53,7.53,0,0,1,6.46-3.06,7.13,7.13,0,0,1,6.17,2.87c1.38,1.91,2.08,4.73,2.11,8.48v3h-11.32a6.9,6.9,0,0,0,1.06,3.87,3.45,3.45,0,0,0,2.92,1.22,6.16,6.16,0,0,0,4.77-2.13l2.23,3.76a7.44,7.44,0,0,1-3,2.56A9.68,9.68,0,0,1,1200,730.17Zm-3.58-14.59h5.69V715a7.23,7.23,0,0,0-.64-3.23,2.18,2.18,0,0,0-2.09-1.1,2.32,2.32,0,0,0-2.17,1.16A8.63,8.63,0,0,0,1196.45,715.58Z"
          transform="translate(-361 -106)"/>
    <path class="cls-3"
          d="M1216.16,706l.16,2.35a5.92,5.92,0,0,1,5-2.79q5.61,0,5.77,8.6v15.62h-5.71V714.57a5.89,5.89,0,0,0-.56-2.94,2.08,2.08,0,0,0-1.94-.91,2.66,2.66,0,0,0-2.41,1.74v17.27h-5.71V706Z"
          transform="translate(-361 -106)"/>
    <path class="cls-3"
          d="M1237.84,700.11V706h2.92v4.66h-2.92v11.82a3.84,3.84,0,0,0,.35,1.94,1.53,1.53,0,0,0,1.36.52,5,5,0,0,0,1.35-.15l0,4.83a8.13,8.13,0,0,1-3.14.6q-5.52,0-5.57-6.91V710.61h-2.52V706h2.52v-5.84Z"
          transform="translate(-361 -106)"/>
    <path class="cls-3"
          d="M1243.87,699.8a3.33,3.33,0,0,1,.85-2.37,3.21,3.21,0,0,1,4.5,0,3.37,3.37,0,0,1,.85,2.37,3.44,3.44,0,0,1-.84,2.37,3.16,3.16,0,0,1-4.52,0A3.44,3.44,0,0,1,1243.87,699.8Zm6,29.93h-5.72V706h5.72Z"
          transform="translate(-361 -106)"/>
    <path class="cls-3"
          d="M1263.88,723.36a2,2,0,0,0-.69-1.46,13,13,0,0,0-3.09-1.82,12.61,12.61,0,0,1-4.83-3.23,6.47,6.47,0,0,1-1.32-4.15,6.93,6.93,0,0,1,2.06-5.15,7.41,7.41,0,0,1,5.46-2,8,8,0,0,1,5.73,2,7,7,0,0,1,2.15,5.42h-5.69c0-1.93-.74-2.9-2.21-2.9a2,2,0,0,0-1.49.62,2.38,2.38,0,0,0-.58,1.71,1.87,1.87,0,0,0,.64,1.4,13.63,13.63,0,0,0,3,1.72,12.45,12.45,0,0,1,4.92,3.13,6.8,6.8,0,0,1,1.43,4.48,6.47,6.47,0,0,1-2.19,5.11,8.37,8.37,0,0,1-5.75,1.94,8.5,8.5,0,0,1-4.22-1,7.42,7.42,0,0,1-2.87-2.85,7.86,7.86,0,0,1-1-3.93h5.41a4,4,0,0,0,.7,2.44,2.59,2.59,0,0,0,2.14.81A2,2,0,0,0,1263.88,723.36Z"
          transform="translate(-361 -106)"/>
    <path class="cls-3"
          d="M1279.57,700.11V706h2.92v4.66h-2.92v11.82a3.84,3.84,0,0,0,.35,1.94,1.53,1.53,0,0,0,1.36.52,5,5,0,0,0,1.35-.15l0,4.83a8.13,8.13,0,0,1-3.14.6q-5.51,0-5.57-6.91V710.61h-2.52V706h2.52v-5.84Z"
          transform="translate(-361 -106)"/>
    <path class="cls-3" d="M423.49,774.94l2.76-15h5.93l-6,23.78h-5.43l-6-23.78h5.95Z" transform="translate(-361 -106)"/>
    <path class="cls-3"
          d="M443.38,784.17a8.5,8.5,0,0,1-6.83-2.86c-1.64-1.9-2.46-4.63-2.46-8.17v-1.89q0-5.62,2.26-8.68a7.52,7.52,0,0,1,6.45-3.06,7.14,7.14,0,0,1,6.18,2.87c1.38,1.91,2.08,4.73,2.11,8.48v3H439.76a7,7,0,0,0,1.07,3.87,3.44,3.44,0,0,0,2.92,1.22,6.13,6.13,0,0,0,4.76-2.13l2.24,3.76a7.44,7.44,0,0,1-3,2.56A9.72,9.72,0,0,1,443.38,784.17Zm-3.58-14.59h5.7V769a7.08,7.08,0,0,0-.65-3.23,2.17,2.17,0,0,0-2.09-1.1,2.32,2.32,0,0,0-2.16,1.16A8.75,8.75,0,0,0,439.8,769.58Z"
          transform="translate(-361 -106)"/>
    <path class="cls-3"
          d="M459.66,760l.16,2.2a5.93,5.93,0,0,1,5-2.64,4.69,4.69,0,0,1,4.61,3.21,5.87,5.87,0,0,1,5.33-3.21q5.71,0,5.85,8.64v15.58H475V768.54a6.08,6.08,0,0,0-.52-2.94,1.91,1.91,0,0,0-1.77-.88c-1.06,0-1.85.71-2.38,2.13l0,.75v16.13h-5.69V768.59a6.43,6.43,0,0,0-.5-3,1.88,1.88,0,0,0-1.79-.91,2.6,2.6,0,0,0-2.33,1.74v17.27h-5.69V760Z"
          transform="translate(-361 -106)"/>
    <path class="cls-3"
          d="M493.58,771.12c0-3.9.61-6.81,1.81-8.73a5.86,5.86,0,0,1,5.27-2.88,5,5,0,0,1,4.19,2.38V750h5.73v33.75h-5.17l-.26-2.42a5.17,5.17,0,0,1-4.51,2.86,5.79,5.79,0,0,1-5.22-2.86q-1.8-2.85-1.84-8.39Zm5.72,1.56a12.24,12.24,0,0,0,.68,4.91,2.38,2.38,0,0,0,2.31,1.39,2.76,2.76,0,0,0,2.56-1.65V766.48a2.72,2.72,0,0,0-2.54-1.76,2.41,2.41,0,0,0-2.29,1.39,11.69,11.69,0,0,0-.72,4.92Z"
          transform="translate(-361 -106)"/>
    <path class="cls-3"
          d="M525.1,783.73a9.37,9.37,0,0,1-.48-1.85,4.74,4.74,0,0,1-4.15,2.29,5.86,5.86,0,0,1-4.53-2,7.31,7.31,0,0,1-1.8-5.12,7.55,7.55,0,0,1,2.18-5.78,9,9,0,0,1,6.28-2.08h1.73v-1.92a3.79,3.79,0,0,0-.5-2.26,1.72,1.72,0,0,0-1.47-.66q-2.13,0-2.13,2.73h-5.69a7.15,7.15,0,0,1,2.26-5.44,8,8,0,0,1,5.72-2.15,7.35,7.35,0,0,1,5.55,2,8.05,8.05,0,0,1,2,5.81v11.18a12.58,12.58,0,0,0,.8,4.82v.37Zm-3.36-4.44a3,3,0,0,0,1.61-.42,2.8,2.8,0,0,0,1-1v-4.94H523a2.83,2.83,0,0,0-2.29,1,4.17,4.17,0,0,0-.83,2.7Q519.85,779.29,521.74,779.29Z"
          transform="translate(-361 -106)"/>
    <path class="cls-3"
          d="M544.89,766l-1.89-.17a3.11,3.11,0,0,0-3.16,2.24v15.71h-5.71V760h5.37l.16,2.58q1.35-3,3.72-3a3.7,3.7,0,0,1,1.57.29Z"
          transform="translate(-361 -106)"/>
    <path class="cls-3" d="M558,772.61h-9.83v-5.19H558Z" transform="translate(-361 -106)"/>
    <path class="cls-3"
          d="M568,760l.16,2.35a5.92,5.92,0,0,1,5.05-2.79q5.61,0,5.77,8.6v15.62h-5.71V768.57a5.89,5.89,0,0,0-.56-2.94,2.09,2.09,0,0,0-1.94-.91,2.66,2.66,0,0,0-2.41,1.74v17.27h-5.71V760Z"
          transform="translate(-361 -106)"/>
    <path class="cls-3"
          d="M582.38,771.07c0-3.6.77-6.43,2.33-8.48a8.35,8.35,0,0,1,12.95,0q2.34,3.07,2.34,8.53v1.51c0,3.62-.78,6.45-2.32,8.48a8.4,8.4,0,0,1-13,0q-2.33-3.06-2.32-8.51Zm5.71,1.56q0,6.38,3.12,6.37c1.91,0,2.95-1.77,3.09-5.31l0-2.62a10.8,10.8,0,0,0-.82-4.82,2.55,2.55,0,0,0-2.33-1.57,2.5,2.5,0,0,0-2.27,1.57,11,11,0,0,0-.81,4.82Z"
          transform="translate(-361 -106)"/>
    <path class="cls-3"
          d="M613.17,777.36a2,2,0,0,0-.7-1.46,13.14,13.14,0,0,0-3.08-1.82,12.67,12.67,0,0,1-4.84-3.23,6.47,6.47,0,0,1-1.32-4.15,6.93,6.93,0,0,1,2.06-5.15,7.44,7.44,0,0,1,5.46-2,8,8,0,0,1,5.74,2,7.08,7.08,0,0,1,2.15,5.42H613c0-1.93-.74-2.9-2.22-2.9a2,2,0,0,0-1.48.62,2.38,2.38,0,0,0-.59,1.71,1.88,1.88,0,0,0,.65,1.4,13.73,13.73,0,0,0,3,1.72,12.45,12.45,0,0,1,4.92,3.13,6.75,6.75,0,0,1,1.44,4.48,6.47,6.47,0,0,1-2.19,5.11,8.38,8.38,0,0,1-5.76,1.94,8.53,8.53,0,0,1-4.22-1,7.39,7.39,0,0,1-2.86-2.85,7.86,7.86,0,0,1-1-3.93H608a4.1,4.1,0,0,0,.69,2.44,2.61,2.61,0,0,0,2.15.81A2,2,0,0,0,613.17,777.36Z"
          transform="translate(-361 -106)"/>
    <path class="cls-3"
          d="M642.43,781.55a5.46,5.46,0,0,1-4.75,2.62,5.16,5.16,0,0,1-4.54-2.25,11.6,11.6,0,0,1-1.55-6.56V760h5.69v15.56c0,2.32.73,3.47,2.11,3.47a2.92,2.92,0,0,0,2.82-1.84V760h5.73v23.78h-5.35Z"
          transform="translate(-361 -106)"/>
    <path class="cls-3"
          d="M657.35,760l.16,2.2a6,6,0,0,1,5-2.64,4.7,4.7,0,0,1,4.61,3.21,5.87,5.87,0,0,1,5.33-3.21q5.71,0,5.85,8.64v15.58h-5.69V768.54a6.21,6.21,0,0,0-.52-2.94,1.91,1.91,0,0,0-1.77-.88c-1.06,0-1.85.71-2.38,2.13l0,.75v16.13h-5.69V768.59a6.56,6.56,0,0,0-.5-3,1.88,1.88,0,0,0-1.79-.91,2.6,2.6,0,0,0-2.33,1.74v17.27H652V760Z"
          transform="translate(-361 -106)"/>
    <path class="cls-3"
          d="M707.89,773.29l2-13.34h5.45l-4.51,23.78h-4.73L703,770l-3.08,13.76h-4.75L690.66,760h5.47l1.93,13.36L701,760h4Z"
          transform="translate(-361 -106)"/>
    <path class="cls-3"
          d="M717.45,771.07c0-3.6.77-6.43,2.33-8.48a8.35,8.35,0,0,1,13,0q2.34,3.07,2.34,8.53v1.51c0,3.62-.78,6.45-2.32,8.48a8.4,8.4,0,0,1-13,0q-2.32-3.06-2.32-8.51Zm5.71,1.56q0,6.38,3.12,6.37c1.91,0,3-1.77,3.09-5.31l0-2.62a10.8,10.8,0,0,0-.82-4.82,2.55,2.55,0,0,0-2.33-1.57,2.5,2.5,0,0,0-2.27,1.57,11,11,0,0,0-.81,4.82Z"
          transform="translate(-361 -106)"/>
    <path class="cls-3"
          d="M749.34,766l-1.89-.17A3.1,3.1,0,0,0,744.3,768v15.71h-5.72V760H744l.16,2.58q1.33-3,3.72-3a3.73,3.73,0,0,1,1.57.29Z"
          transform="translate(-361 -106)"/>
    <path class="cls-3"
          d="M759.48,774.57,758,776.43v7.3h-5.69V750H758v18.24l.71-1.15L762.6,760h6.78l-6.32,9.8,6.92,14h-6.52Z"
          transform="translate(-361 -106)"/>
    <path class="cls-3"
          d="M781.6,777.36a2,2,0,0,0-.69-1.46,13,13,0,0,0-3.09-1.82,12.61,12.61,0,0,1-4.83-3.23,6.47,6.47,0,0,1-1.32-4.15,6.93,6.93,0,0,1,2.06-5.15,7.41,7.41,0,0,1,5.46-2,8,8,0,0,1,5.73,2,7,7,0,0,1,2.15,5.42h-5.69c0-1.93-.73-2.9-2.21-2.9a2,2,0,0,0-1.49.62,2.38,2.38,0,0,0-.58,1.71,1.87,1.87,0,0,0,.64,1.4,13.63,13.63,0,0,0,3,1.72,12.45,12.45,0,0,1,4.92,3.13,6.75,6.75,0,0,1,1.43,4.48,6.47,6.47,0,0,1-2.19,5.11,8.37,8.37,0,0,1-5.75,1.94,8.5,8.5,0,0,1-4.22-1,7.42,7.42,0,0,1-2.87-2.85,7.85,7.85,0,0,1-1-3.93h5.41a4,4,0,0,0,.69,2.44,2.59,2.59,0,0,0,2.14.81A2,2,0,0,0,781.6,777.36Z"
          transform="translate(-361 -106)"/>
    <path class="cls-3"
          d="M796.23,762a5.48,5.48,0,0,1,4.54-2.53,5.15,5.15,0,0,1,4.53,2.29q1.55,2.28,1.56,6.81v15.12h-5.71V768.68a5.89,5.89,0,0,0-.59-3,2.1,2.1,0,0,0-1.92-.94,2.65,2.65,0,0,0-2.41,1.56v17.45h-5.7V750h5.7Z"
          transform="translate(-361 -106)"/>
    <path class="cls-3"
          d="M810.28,771.07q0-5.4,2.34-8.48a8.35,8.35,0,0,1,13,0q2.32,3.07,2.33,8.53v1.51q0,5.43-2.31,8.48a8.4,8.4,0,0,1-13,0q-2.33-3.06-2.33-8.51Zm5.72,1.56c0,4.25,1,6.37,3.11,6.37q2.88,0,3.1-5.31l0-2.62a10.94,10.94,0,0,0-.82-4.82,2.56,2.56,0,0,0-2.34-1.57,2.49,2.49,0,0,0-2.26,1.57,11,11,0,0,0-.81,4.82Z"
          transform="translate(-361 -106)"/>
    <path class="cls-3"
          d="M848.4,772.59c0,3.73-.59,6.6-1.76,8.59a5.72,5.72,0,0,1-5.24,3,5,5,0,0,1-4.27-2.35v11h-5.69V760h5.27l.2,2.18a5,5,0,0,1,4.45-2.62,5.83,5.83,0,0,1,5.24,2.77q1.75,2.78,1.8,8.48ZM842.72,771a12.22,12.22,0,0,0-.69-4.88,2.4,2.4,0,0,0-2.34-1.43,2.69,2.69,0,0,0-2.56,1.61v11.14a2.68,2.68,0,0,0,2.6,1.53,2.35,2.35,0,0,0,2.34-1.56,13.26,13.26,0,0,0,.65-4.85Z"
          transform="translate(-361 -106)"/>
    <path class="cls-3"
          d="M860.56,771.12c0-3.9.61-6.81,1.81-8.73a5.86,5.86,0,0,1,5.27-2.88,5,5,0,0,1,4.19,2.38V750h5.73v33.75h-5.17l-.26-2.42a5.17,5.17,0,0,1-4.51,2.86,5.79,5.79,0,0,1-5.22-2.86q-1.8-2.85-1.84-8.39Zm5.71,1.56a12.2,12.2,0,0,0,.69,4.91,2.37,2.37,0,0,0,2.31,1.39,2.76,2.76,0,0,0,2.56-1.65V766.48a2.72,2.72,0,0,0-2.54-1.76,2.41,2.41,0,0,0-2.29,1.39,11.66,11.66,0,0,0-.73,4.92Z"
          transform="translate(-361 -106)"/>
    <path class="cls-3"
          d="M890.53,784.17a8.53,8.53,0,0,1-6.84-2.86c-1.63-1.9-2.45-4.63-2.45-8.17v-1.89q0-5.62,2.25-8.68a7.53,7.53,0,0,1,6.46-3.06,7.13,7.13,0,0,1,6.17,2.87c1.38,1.91,2.08,4.73,2.11,8.48v3H886.91a7,7,0,0,0,1.06,3.87,3.45,3.45,0,0,0,2.92,1.22,6.16,6.16,0,0,0,4.77-2.13l2.23,3.76a7.44,7.44,0,0,1-3,2.56A9.65,9.65,0,0,1,890.53,784.17ZM887,769.58h5.69V769a7.23,7.23,0,0,0-.64-3.23,2.17,2.17,0,0,0-2.09-1.1,2.32,2.32,0,0,0-2.17,1.16A8.63,8.63,0,0,0,887,769.58Z"
          transform="translate(-361 -106)"/>
    <path class="cls-3"
          d="M920.09,772h-2.93v11.69h-5.92v-32h9.44a9.09,9.09,0,0,1,6.86,2.51q2.43,2.52,2.43,7.15,0,6.38-4.25,8.93l5.13,13.09v.31H924.5Zm-2.93-5.38h3.36a3,3,0,0,0,2.65-1.29,6,6,0,0,0,.89-3.44q0-4.81-3.44-4.81h-3.46Z"
          transform="translate(-361 -106)"/>
    <path class="cls-3"
          d="M934.09,770.72a41.16,41.16,0,0,1,1.06-9.45,28.26,28.26,0,0,1,3.16-8.09,13.06,13.06,0,0,1,4.49-4.94l1.07,3.43a16.26,16.26,0,0,0-3.6,7.15A43.54,43.54,0,0,0,938.88,770v1.32a45.58,45.58,0,0,0,1.32,11.59,16.83,16.83,0,0,0,3.67,7.46l-1.07,3.39a13.15,13.15,0,0,1-4.45-4.86,28.22,28.22,0,0,1-3.15-8,41.68,41.68,0,0,1-1.11-9.3Z"
          transform="translate(-361 -106)"/>
    <path class="cls-3"
          d="M957.4,783.73a9.37,9.37,0,0,1-.48-1.85,4.74,4.74,0,0,1-4.15,2.29,5.86,5.86,0,0,1-4.53-2,7.31,7.31,0,0,1-1.8-5.12,7.55,7.55,0,0,1,2.18-5.78,9,9,0,0,1,6.29-2.08h1.73v-1.92a3.78,3.78,0,0,0-.51-2.26,1.71,1.71,0,0,0-1.46-.66c-1.43,0-2.14.91-2.14,2.73h-5.69a7.18,7.18,0,0,1,2.26-5.44,8,8,0,0,1,5.73-2.15,7.34,7.34,0,0,1,5.54,2,8.05,8.05,0,0,1,2,5.81v11.18a12.58,12.58,0,0,0,.8,4.82v.37ZM954,779.29a2.92,2.92,0,0,0,2.6-1.41v-4.94h-1.37a2.79,2.79,0,0,0-2.28,1,4.11,4.11,0,0,0-.84,2.7Q952.15,779.29,954,779.29Z"
          transform="translate(-361 -106)"/>
    <path class="cls-3"
          d="M971.66,760l.16,2.35a5.92,5.92,0,0,1,5-2.79q5.61,0,5.77,8.6v15.62h-5.71V768.57a6,6,0,0,0-.55-2.94,2.1,2.1,0,0,0-1.94-.91,2.66,2.66,0,0,0-2.42,1.74v17.27h-5.71V760Z"
          transform="translate(-361 -106)"/>
    <path class="cls-3"
          d="M997.06,783.73a9.37,9.37,0,0,1-.48-1.85,4.74,4.74,0,0,1-4.14,2.29,5.87,5.87,0,0,1-4.54-2,7.31,7.31,0,0,1-1.8-5.12,7.55,7.55,0,0,1,2.18-5.78,9,9,0,0,1,6.29-2.08h1.73v-1.92a3.78,3.78,0,0,0-.51-2.26,1.71,1.71,0,0,0-1.46-.66c-1.43,0-2.14.91-2.14,2.73H986.5a7.15,7.15,0,0,1,2.27-5.44,8,8,0,0,1,5.72-2.15,7.34,7.34,0,0,1,5.54,2,8.05,8.05,0,0,1,2,5.81v11.18a12.78,12.78,0,0,0,.8,4.82v.37ZM995.41,750h6.4l-5.59,6.81h-4.75Zm-1.71,29.31a2.92,2.92,0,0,0,2.6-1.41v-4.94h-1.37a2.79,2.79,0,0,0-2.28,1,4.11,4.11,0,0,0-.84,2.7Q991.81,779.29,993.7,779.29Z"
          transform="translate(-361 -106)"/>
    <path class="cls-3" d="M1012.08,783.73h-5.71V750h5.71Z" transform="translate(-361 -106)"/>
    <path class="cls-3"
          d="M1016.49,753.8a3.37,3.37,0,0,1,.84-2.37,3.22,3.22,0,0,1,4.51,0,3.37,3.37,0,0,1,.84,2.37,3.48,3.48,0,0,1-.83,2.37,3.18,3.18,0,0,1-4.53,0A3.48,3.48,0,0,1,1016.49,753.8Zm6,29.93h-5.71V760h5.71Z"
          transform="translate(-361 -106)"/>
    <path class="cls-3"
          d="M1036.5,777.36a2,2,0,0,0-.69-1.46,13.51,13.51,0,0,0-3.09-1.82,12.67,12.67,0,0,1-4.84-3.23,6.47,6.47,0,0,1-1.32-4.15,6.9,6.9,0,0,1,2.07-5.15,7.41,7.41,0,0,1,5.46-2,8,8,0,0,1,5.73,2A7.08,7.08,0,0,1,1042,767h-5.69c0-1.93-.74-2.9-2.21-2.9a2,2,0,0,0-1.49.62,2.38,2.38,0,0,0-.58,1.71,1.87,1.87,0,0,0,.64,1.4,13.63,13.63,0,0,0,3,1.72,12.4,12.4,0,0,1,4.91,3.13,6.75,6.75,0,0,1,1.44,4.48,6.47,6.47,0,0,1-2.19,5.11,8.37,8.37,0,0,1-5.75,1.94,8.54,8.54,0,0,1-4.23-1,7.39,7.39,0,0,1-2.86-2.85,7.86,7.86,0,0,1-1-3.93h5.41a4,4,0,0,0,.7,2.44,2.59,2.59,0,0,0,2.14.81A2,2,0,0,0,1036.5,777.36Z"
          transform="translate(-361 -106)"/>
    <path class="cls-3"
          d="M1054.36,784.17a8.53,8.53,0,0,1-6.84-2.86c-1.63-1.9-2.45-4.63-2.45-8.17v-1.89q0-5.62,2.25-8.68a7.53,7.53,0,0,1,6.46-3.06,7.13,7.13,0,0,1,6.17,2.87c1.38,1.91,2.09,4.73,2.11,8.48v3h-11.32a6.9,6.9,0,0,0,1.07,3.87,3.43,3.43,0,0,0,2.91,1.22,6.15,6.15,0,0,0,4.77-2.13l2.23,3.76a7.44,7.44,0,0,1-3,2.56A9.65,9.65,0,0,1,1054.36,784.17Zm-3.58-14.59h5.69V769a7.23,7.23,0,0,0-.64-3.23,2.17,2.17,0,0,0-2.09-1.1,2.32,2.32,0,0,0-2.17,1.16A8.78,8.78,0,0,0,1050.78,769.58Z"
          transform="translate(-361 -106)"/>
    <path class="cls-3"
          d="M1074,771.12q0-5.85,1.81-8.73a5.85,5.85,0,0,1,5.27-2.88,5,5,0,0,1,4.18,2.38V750H1091v33.75h-5.17l-.26-2.42a5.16,5.16,0,0,1-4.5,2.86,5.79,5.79,0,0,1-5.22-2.86q-1.8-2.85-1.84-8.39Zm5.71,1.56a12.42,12.42,0,0,0,.68,4.91,2.38,2.38,0,0,0,2.32,1.39,2.75,2.75,0,0,0,2.55-1.65V766.48a2.71,2.71,0,0,0-2.53-1.76,2.42,2.42,0,0,0-2.3,1.39,11.69,11.69,0,0,0-.72,4.92Z"
          transform="translate(-361 -106)"/>
    <path class="cls-3"
          d="M1104,784.17a8.5,8.5,0,0,1-6.84-2.86c-1.64-1.9-2.46-4.63-2.46-8.17v-1.89q0-5.62,2.26-8.68a7.52,7.52,0,0,1,6.45-3.06,7.13,7.13,0,0,1,6.18,2.87c1.38,1.91,2.08,4.73,2.11,8.48v3h-11.33a7,7,0,0,0,1.07,3.87,3.44,3.44,0,0,0,2.92,1.22,6.13,6.13,0,0,0,4.76-2.13l2.24,3.76a7.44,7.44,0,0,1-3,2.56A9.71,9.71,0,0,1,1104,784.17Zm-3.58-14.59h5.69V769a7.08,7.08,0,0,0-.65-3.23,2.17,2.17,0,0,0-2.09-1.1,2.32,2.32,0,0,0-2.16,1.16A8.63,8.63,0,0,0,1100.4,769.58Z"
          transform="translate(-361 -106)"/>
    <path class="cls-3"
          d="M1123.62,771.12c0-3.9.61-6.81,1.81-8.73a5.86,5.86,0,0,1,5.27-2.88,5,5,0,0,1,4.19,2.38V750h5.73v33.75h-5.17l-.26-2.42a5.17,5.17,0,0,1-4.51,2.86,5.79,5.79,0,0,1-5.22-2.86q-1.8-2.85-1.84-8.39Zm5.72,1.56a12.24,12.24,0,0,0,.68,4.91,2.38,2.38,0,0,0,2.31,1.39,2.76,2.76,0,0,0,2.56-1.65V766.48a2.72,2.72,0,0,0-2.54-1.76,2.41,2.41,0,0,0-2.29,1.39,11.69,11.69,0,0,0-.72,4.92Z"
          transform="translate(-361 -106)"/>
    <path class="cls-3"
          d="M1155.14,783.73a9.37,9.37,0,0,1-.48-1.85,4.74,4.74,0,0,1-4.15,2.29,5.86,5.86,0,0,1-4.53-2,7.31,7.31,0,0,1-1.8-5.12,7.51,7.51,0,0,1,2.18-5.78,9,9,0,0,1,6.29-2.08h1.72v-1.92a3.79,3.79,0,0,0-.5-2.26,1.72,1.72,0,0,0-1.47-.66q-2.13,0-2.13,2.73h-5.69a7.15,7.15,0,0,1,2.26-5.44,8,8,0,0,1,5.72-2.15,7.31,7.31,0,0,1,5.54,2,8,8,0,0,1,2,5.81v11.18a12.58,12.58,0,0,0,.8,4.82v.37Zm-3.36-4.44a3,3,0,0,0,1.61-.42,2.8,2.8,0,0,0,1-1v-4.94H1153a2.83,2.83,0,0,0-2.29,1,4.17,4.17,0,0,0-.83,2.7Q1149.89,779.29,1151.78,779.29Z"
          transform="translate(-361 -106)"/>
    <path class="cls-3"
          d="M1163.43,771.12q0-5.85,1.8-8.73a5.86,5.86,0,0,1,5.27-2.88,5,5,0,0,1,4.19,2.38V750h5.73v33.75h-5.17l-.26-2.42a5.17,5.17,0,0,1-4.51,2.86,5.78,5.78,0,0,1-5.21-2.86q-1.82-2.85-1.84-8.39Zm5.71,1.56a12.24,12.24,0,0,0,.68,4.91,2.38,2.38,0,0,0,2.31,1.39,2.76,2.76,0,0,0,2.56-1.65V766.48a2.72,2.72,0,0,0-2.54-1.76,2.41,2.41,0,0,0-2.29,1.39,11.69,11.69,0,0,0-.72,4.92Z"
          transform="translate(-361 -106)"/>
    <path class="cls-3"
          d="M1183.94,771.07q0-5.4,2.33-8.48a8.35,8.35,0,0,1,13,0q2.34,3.07,2.34,8.53v1.51q0,5.43-2.32,8.48a8.4,8.4,0,0,1-13,0q-2.33-3.06-2.32-8.51Zm5.71,1.56q0,6.38,3.12,6.37,2.88,0,3.1-5.31l0-2.62a10.77,10.77,0,0,0-.83-4.82,2.55,2.55,0,0,0-2.33-1.57,2.48,2.48,0,0,0-2.26,1.57,10.8,10.8,0,0,0-.82,4.82Z"
          transform="translate(-361 -106)"/>
    <path class="cls-3"
          d="M1214.73,777.36a2,2,0,0,0-.69-1.46,13.51,13.51,0,0,0-3.09-1.82,12.67,12.67,0,0,1-4.84-3.23,6.47,6.47,0,0,1-1.32-4.15,6.9,6.9,0,0,1,2.07-5.15,7.41,7.41,0,0,1,5.46-2,8,8,0,0,1,5.73,2,7.08,7.08,0,0,1,2.15,5.42h-5.69c0-1.93-.74-2.9-2.21-2.9a2,2,0,0,0-1.49.62,2.38,2.38,0,0,0-.58,1.71,1.87,1.87,0,0,0,.64,1.4,13.63,13.63,0,0,0,3,1.72,12.4,12.4,0,0,1,4.91,3.13,6.75,6.75,0,0,1,1.44,4.48,6.47,6.47,0,0,1-2.19,5.11,8.37,8.37,0,0,1-5.75,1.94,8.54,8.54,0,0,1-4.23-1,7.39,7.39,0,0,1-2.86-2.85,7.86,7.86,0,0,1-1-3.93h5.41a4,4,0,0,0,.7,2.44,2.57,2.57,0,0,0,2.14.81A2,2,0,0,0,1214.73,777.36Z"
          transform="translate(-361 -106)"/>
    <path class="cls-3"
          d="M1232.91,771.25a38.06,38.06,0,0,1-1.2,9.69,29.45,29.45,0,0,1-3.31,8,13.2,13.2,0,0,1-4.5,4.77l-1.05-3.39a16.83,16.83,0,0,0,3.63-7.33,44,44,0,0,0,1.36-11.17v-1.16a45.72,45.72,0,0,0-1.31-11.44,17.84,17.84,0,0,0-3.68-7.61l1.05-3.39a11.44,11.44,0,0,1,3.17,2.86A21.92,21.92,0,0,1,1230,756a34.18,34.18,0,0,1,2.12,6.63A40.92,40.92,0,0,1,1232.91,771.25Z"
          transform="translate(-361 -106)"/>
    <path class="cls-3"
          d="M1237.58,780.56a3.45,3.45,0,0,1,.91-2.46,3.16,3.16,0,0,1,2.39-1,3.22,3.22,0,0,1,2.37,1,3.36,3.36,0,0,1,.94,2.47,3.31,3.31,0,0,1-1,2.48,3.27,3.27,0,0,1-2.36.93,3.19,3.19,0,0,1-2.37-.94A3.36,3.36,0,0,1,1237.58,780.56Z"
          transform="translate(-361 -106)"/>
</svg>