<svg id="Camada_1" data-name="Camada 1" xmlns="http://www.w3.org/2000/svg" xmlns:xlink="http://www.w3.org/1999/xlink"
     viewBox="0 0 1044.55 1798.5">
    <defs>
        <style>
            .cls-1,.cls-2,.cls-4{fill:none;}.cls-2,.cls-4{stroke:#fff;stroke-miterlimit:10;stroke-width:5px;}.cls-3{fill:#fff;}.cls-4{fill-rule:evenodd;}.cls-5{clip-path:url(#clip-path);}
        </style>
        <clipPath id="clip-path" transform="translate(-18.72 -98.5)">
            <rect class="cls-1" x="116" y="401" width="693" height="693"/>
        </clipPath>
    </defs>
    <title>workshop_ecra_telemovel_andre</title>
    <line class="cls-2" x1="25.52" y1="1786.5" x2="1033.51" y2="1786.5"/>
    <circle class="cls-3" cx="1033.03" cy="1786.02" r="11.52"/>
    <polyline class="cls-2" points="68 1031.31 68 277.31 822 277.31 822 654.81"/>
    <circle class="cls-3" cx="25.04" cy="1786.98" r="11.52"/>
    <circle class="cls-3" cx="68" cy="1031.31" r="12"/>
    <circle class="cls-3" cx="822" cy="654.31" r="12"/>
    <polyline class="cls-4" points="806.74 1031.83 1031.03 1031.83 1031.03 1349.22"/>
    <polyline class="cls-4" points="11.52 1262.55 11.52 1142.23 425.95 1142.23"/>
    <circle class="cls-3" cx="1031.03" cy="1349.59" r="11.52"/>
    <circle class="cls-3" cx="11.52" cy="1261.27" r="11.52"/>
    <circle class="cls-3" cx="426.24" cy="1142.23" r="11.52"/>
    <circle class="cls-3" cx="806.39" cy="1031.83" r="11.52"/>
    <g class="cls-5">
        <image width="450" height="450" transform="translate(95.28 302.5) scale(1.55)"
               xlink:href="andreferreira.png"/>
    </g>
    <path class="cls-3" d="M441,141.74h-5a5,5,0,0,0-5,5h15a5,5,0,0,0-5-5Z" transform="translate(-18.72 -98.5)"/>
    <path class="cls-3"
          d="M192.46,143.21a4.84,4.84,0,0,0-1.48,3.53v5a5.05,5.05,0,0,0,5,5h10v-15H196A4.81,4.81,0,0,0,192.46,143.21Z"
          transform="translate(-18.72 -98.5)"/>
    <path class="cls-3" d="M531,141.74h-5a5,5,0,0,0-5,5h15a5,5,0,0,0-5-5Z" transform="translate(-18.72 -98.5)"/>
    <polygon class="cls-3" points="112.27 48.24 127.27 48.24 119.77 33.24 112.27 48.24"/>
    <path class="cls-3" d="M261,141.74h-5a5,5,0,0,0-5,5h15a5,5,0,0,0-5-5Z" transform="translate(-18.72 -98.5)"/>
    <path class="cls-3"
          d="M83.48,98.5v94h595v-94Zm473.23,29a2.41,2.41,0,0,1,1.77-.72,2.46,2.46,0,0,1,2.5,2.5,2.48,2.48,0,0,1-2.5,2.5,2.38,2.38,0,0,1-1.77-.73,2.41,2.41,0,0,1-.73-1.77A2.45,2.45,0,0,1,556.71,127.46Zm-293.23-6.67,3.45,3.45-8.15,8.1-3.45-3.4Zm-112.5,41h-5v-10H131v10h-5V145.49l9.4-18.75h6.25L151,145.49Zm30,0h-5v-15a5,5,0,0,0-5-5,7.21,7.21,0,0,0-5,2.5l-5,5v12.5h-5v-25h5v6.85l3.15-3.1c2.5-2.5,4.79-3.75,6.85-3.75a10,10,0,0,1,10,10Zm30,0H196a10.07,10.07,0,0,1-10-10v-5a10.07,10.07,0,0,1,10-10h10v-10h5Zm25-15a5,5,0,0,0-5-5,7.21,7.21,0,0,0-5,2.5l-5,5v12.5h-5v-25h5v6.85l3.15-3.1c2.5-2.5,4.79-3.75,6.85-3.75a10,10,0,0,1,10,10Zm35,5H251a5.05,5.05,0,0,0,5,5h15v5H256a10.07,10.07,0,0,1-10-10v-5a10.07,10.07,0,0,1,10-10h5a10.07,10.07,0,0,1,10,10Zm41.48-11.48a4.78,4.78,0,0,0,3.52,1.48h5a10,10,0,0,1,0,20h-5a10,10,0,0,1-10-10h5a5.05,5.05,0,0,0,5,5h5a5,5,0,0,0,0-10h-5a10,10,0,0,1,0-20h5a10.07,10.07,0,0,1,10,10h-5a5,5,0,0,0-5-5h-5a5,5,0,0,0-3.52,8.52ZM351.91,159a4.53,4.53,0,0,1-3.43,1.45,5.05,5.05,0,0,1-5-5,5,5,0,0,1,5-5,4.53,4.53,0,0,1,3.43,1.45,5.28,5.28,0,0,1,0,7.1ZM421,131.74H401v10h15v5H401v15h-5v-35h25Zm30,20H431a5.05,5.05,0,0,0,5,5h15v5H436a10.07,10.07,0,0,1-10-10v-5a10.07,10.07,0,0,1,10-10h5a10.07,10.07,0,0,1,10,10Zm25-5a5,5,0,0,0-5-5,7.21,7.21,0,0,0-5,2.5l-5,5v12.5h-5v-25h5v6.85l3.15-3.1c2.5-2.5,4.79-3.75,6.85-3.75a10,10,0,0,1,10,10Zm30,0a5,5,0,0,0-5-5,7.21,7.21,0,0,0-5,2.5l-5,5v12.5h-5v-25h5v6.85l3.15-3.1c2.5-2.5,4.79-3.75,6.85-3.75a10,10,0,0,1,10,10Zm35,5H521a5.05,5.05,0,0,0,5,5h15v5H526a10.07,10.07,0,0,1-10-10v-5a10.07,10.07,0,0,1,10-10h5a10.07,10.07,0,0,1,10,10Zm25,10H551v-5h5v-15h-5v-5h10v20h5Zm30-15a5,5,0,0,0-5-5,7.21,7.21,0,0,0-5,2.5l-5,5v12.5h-5v-25h5v6.85l3.15-3.1c2.5-2.5,4.79-3.75,6.85-3.75a10,10,0,0,1,10,10Zm35,15h-5v-6.9l-3.1,3.15q-3.75,3.75-6.9,3.75a10,10,0,0,1-10-10v-5a10,10,0,0,1,10-10h15Z"
          transform="translate(-18.72 -98.5)"/>
    <path class="cls-3"
          d="M612.46,143.21a4.84,4.84,0,0,0-1.48,3.53v5a5.05,5.05,0,0,0,5,5,7.17,7.17,0,0,0,5-2.5l5-5v-7.5H616A4.81,4.81,0,0,0,612.46,143.21Z"
          transform="translate(-18.72 -98.5)"/>
    <path class="cls-3" d="M399.56,242.68h-3.75a3.77,3.77,0,0,0-3.75,3.75h11.25a3.77,3.77,0,0,0-3.75-3.75Z"
          transform="translate(-18.72 -98.5)"/>
    <path class="cls-3"
          d="M370.67,243.78a3.61,3.61,0,0,0-1.11,2.65v3.75a3.79,3.79,0,0,0,3.75,3.75h7.5V242.68h-7.5A3.6,3.6,0,0,0,370.67,243.78Z"
          transform="translate(-18.72 -98.5)"/>
    <path class="cls-3"
          d="M460.67,243.78a3.61,3.61,0,0,0-1.11,2.65v3.75a3.79,3.79,0,0,0,3.75,3.75,5.41,5.41,0,0,0,3.75-1.88l3.75-3.75v-5.62h-7.5A3.6,3.6,0,0,0,460.67,243.78Z"
          transform="translate(-18.72 -98.5)"/>
    <path class="cls-3" d="M444.56,235.18h-7.5v18.75h7.5a3.79,3.79,0,0,0,3.75-3.75V238.93a3.77,3.77,0,0,0-3.75-3.75Z"
          transform="translate(-18.72 -98.5)"/>
    <path class="cls-3" d="M152.06,235.18h-7.5v7.5h7.5a3.75,3.75,0,0,0,0-7.5Z" transform="translate(-18.72 -98.5)"/>
    <path class="cls-3"
          d="M235.67,243.78a3.61,3.61,0,0,0-1.11,2.65v3.75a3.79,3.79,0,0,0,3.75,3.75,5.41,5.41,0,0,0,3.75-1.88l3.75-3.75v-5.62h-7.5A3.6,3.6,0,0,0,235.67,243.78Z"
          transform="translate(-18.72 -98.5)"/>
    <path class="cls-3" d="M332.06,242.68h-3.75a3.77,3.77,0,0,0-3.75,3.75h11.25a3.77,3.77,0,0,0-3.75-3.75Z"
          transform="translate(-18.72 -98.5)"/>
    <polygon class="cls-3" points="170.84 147.93 182.09 147.93 176.47 136.68 170.84 147.93"/>
    <path class="cls-3"
          d="M483.17,243.78a3.61,3.61,0,0,0-1.11,2.65v3.75a3.79,3.79,0,0,0,3.75,3.75h7.5V242.68h-7.5A3.6,3.6,0,0,0,483.17,243.78Z"
          transform="translate(-18.72 -98.5)"/>
    <path class="cls-3"
          d="M83.06,214.49v62h543v-62ZM283.85,232a1.91,1.91,0,0,1,2.66,0,1.88,1.88,0,1,1-3.2,1.33A1.82,1.82,0,0,1,283.85,232Zm-39.92-5,2.59,2.58-6.11,6.08-2.59-2.55Zm-84.37,23.21v7.5h-3.75v-7.5a3.77,3.77,0,0,0-3.75-3.75h-7.5v11.25h-3.75V231.43h11.25a7.49,7.49,0,0,1,7.5,7.5,6.67,6.67,0,0,1-3.19,5.62A6.68,6.68,0,0,1,159.56,250.18ZM179,259.51l-2.59,2.59-9.37-9.34V236.34l9.37-9.37,2.59,2.58-8.21,8.21v13.58Zm25.54-1.83h-3.75v-7.5H189.56v7.5h-3.75V245.49l7.05-14.06h4.69l7,14.06Zm22.5,0h-3.75V246.43a3.77,3.77,0,0,0-3.75-3.75,5.39,5.39,0,0,0-3.75,1.87l-3.75,3.75v9.38h-3.75V238.93h3.75v5.13l2.36-2.32c1.88-1.88,3.59-2.81,5.14-2.81a7.49,7.49,0,0,1,7.5,7.5Zm22.5,0h-3.75V252.5l-2.33,2.36c-1.87,1.88-3.6,2.82-5.17,2.82a7.49,7.49,0,0,1-7.5-7.5v-3.75a7.48,7.48,0,0,1,7.5-7.5h11.25Zm18.75,0H257.06v-3.75h3.75V235.18h-3.75v-3.75h7.5v22.5h3.75Zm22.5,0H279.56v-3.75h3.75V242.68h-3.75v-3.75h7.5v15h3.75Zm26.25-15h-9.83a9,9,0,0,0-3.31.54c-.92.36-1.37.81-1.37,1.33s.45,1,1.37,1.33a8.78,8.78,0,0,0,3.31.55h.94a10.48,10.48,0,0,1,6,1.65,4.43,4.43,0,0,1,0,7.95,10.48,10.48,0,0,1-6,1.65h-9.86v-3.75h9.86a8.84,8.84,0,0,0,3.3-.55c.93-.36,1.39-.8,1.39-1.33s-.46-1-1.39-1.33a9.05,9.05,0,0,0-3.3-.54h-.94a10.48,10.48,0,0,1-6-1.65,4.45,4.45,0,0,1,0-7.95,10.48,10.48,0,0,1,6-1.65h9.83Zm22.5,7.5h-15a3.79,3.79,0,0,0,3.75,3.75h11.25v3.75H328.31a7.55,7.55,0,0,1-7.5-7.5v-3.75a7.55,7.55,0,0,1,7.5-7.5h3.75a7.55,7.55,0,0,1,7.5,7.5Zm45,7.5H373.31a7.55,7.55,0,0,1-7.5-7.5v-3.75a7.55,7.55,0,0,1,7.5-7.5h7.5v-7.5h3.75Zm22.5-7.5h-15a3.79,3.79,0,0,0,3.75,3.75h11.25v3.75H395.81a7.55,7.55,0,0,1-7.5-7.5v-3.75a7.55,7.55,0,0,1,7.5-7.5h3.75a7.55,7.55,0,0,1,7.5,7.5Zm45,0a7.55,7.55,0,0,1-7.5,7.5H433.31V231.43h11.25a7.55,7.55,0,0,1,7.5,7.5Zm22.5,7.5h-3.75V252.5l-2.33,2.36c-1.87,1.88-3.6,2.82-5.17,2.82a7.49,7.49,0,0,1-7.5-7.5v-3.75a7.48,7.48,0,0,1,7.5-7.5h11.25Zm22.5,0H485.81a7.55,7.55,0,0,1-7.5-7.5v-3.75a7.55,7.55,0,0,1,7.5-7.5h7.5v-7.5h3.75Zm22.5-7.5a7.55,7.55,0,0,1-7.5,7.5h-3.75a7.55,7.55,0,0,1-7.5-7.5v-3.75a7.55,7.55,0,0,1,7.5-7.5h3.75a7.55,7.55,0,0,1,7.5,7.5Zm22.5-7.5h-9.83a9,9,0,0,0-3.31.54c-.92.36-1.37.81-1.37,1.33s.45,1,1.37,1.33a8.78,8.78,0,0,0,3.31.55h.94a10.48,10.48,0,0,1,6,1.65,4.43,4.43,0,0,1,0,7.95,10.48,10.48,0,0,1-6,1.65h-9.86v-3.75h9.86a8.84,8.84,0,0,0,3.3-.55c.93-.36,1.39-.8,1.39-1.33s-.46-1-1.39-1.33a9.05,9.05,0,0,0-3.3-.54h-.94a10.48,10.48,0,0,1-6-1.65,4.45,4.45,0,0,1,0-7.95,10.48,10.48,0,0,1,6-1.65h9.83Zm18.75,10.08-9.38,9.34-2.58-2.59,8.21-8.17V237.76l-8.21-8.21,2.58-2.58,9.38,9.37Z"
          transform="translate(-18.72 -98.5)"/>
    <path class="cls-3"
          d="M512.06,242.68h-3.75a3.77,3.77,0,0,0-3.75,3.75v3.75a3.79,3.79,0,0,0,3.75,3.75h3.75a3.79,3.79,0,0,0,3.75-3.75v-3.75a3.77,3.77,0,0,0-3.75-3.75Z"
          transform="translate(-18.72 -98.5)"/>
    <path class="cls-3"
          d="M87.62,1321.21H79.56L78,1327.76H71.74l9.15-32H86.3l9.21,32H89.19Zm-6.77-5.38h5.47l-2.74-11.41Z"
          transform="translate(-18.72 -98.5)"/>
    <path class="cls-3"
          d="M102.21,1304l.16,2.35a5.88,5.88,0,0,1,5-2.79q5.61,0,5.78,8.59v15.63h-5.72V1312.6a5.9,5.9,0,0,0-.55-2.94,2.09,2.09,0,0,0-1.94-.91,2.65,2.65,0,0,0-2.41,1.74v17.27H96.86V1304Z"
          transform="translate(-18.72 -98.5)"/>
    <path class="cls-3"
          d="M116.5,1315.15c0-3.9.61-6.81,1.81-8.73a5.86,5.86,0,0,1,5.27-2.88,5,5,0,0,1,4.19,2.38V1294h5.73v33.75h-5.17l-.26-2.42a5.17,5.17,0,0,1-4.51,2.86,5.79,5.79,0,0,1-5.22-2.86q-1.8-2.85-1.84-8.39Zm5.72,1.56a12.24,12.24,0,0,0,.68,4.91,2.38,2.38,0,0,0,2.31,1.39,2.76,2.76,0,0,0,2.56-1.65v-10.85a2.72,2.72,0,0,0-2.54-1.76,2.41,2.41,0,0,0-2.29,1.39,11.69,11.69,0,0,0-.72,4.92Z"
          transform="translate(-18.72 -98.5)"/>
    <path class="cls-3"
          d="M148.42,1310l-1.89-.17a3.11,3.11,0,0,0-3.16,2.24v15.71h-5.71V1304H143l.16,2.57c.9-2,2.14-3,3.72-3a3.67,3.67,0,0,1,1.57.29Z"
          transform="translate(-18.72 -98.5)"/>
    <path class="cls-3"
          d="M159.75,1328.2a8.5,8.5,0,0,1-6.84-2.86c-1.64-1.9-2.46-4.63-2.46-8.17v-1.89c0-3.75.75-6.65,2.26-8.68a7.52,7.52,0,0,1,6.45-3.06,7.13,7.13,0,0,1,6.18,2.87c1.38,1.91,2.08,4.73,2.11,8.48v3H156.13a6.9,6.9,0,0,0,1.06,3.87,3.44,3.44,0,0,0,2.92,1.22,6.13,6.13,0,0,0,4.76-2.13l2.24,3.76a7.52,7.52,0,0,1-3,2.56A9.71,9.71,0,0,1,159.75,1328.2Zm-.21-34.19h6.4l-5.59,6.81H155.6Zm-3.37,19.6h5.69V1313a7.08,7.08,0,0,0-.65-3.23,2.17,2.17,0,0,0-2.09-1.1,2.32,2.32,0,0,0-2.16,1.16A8.63,8.63,0,0,0,156.17,1313.61Z"
          transform="translate(-18.72 -98.5)"/>
    <path class="cls-3" d="M195.54,1314.71h-9.19v13h-5.91v-32h16.21v5.38h-10.3v8.19h9.19Z"
          transform="translate(-18.72 -98.5)"/>
    <path class="cls-3"
          d="M208.11,1328.2a8.5,8.5,0,0,1-6.83-2.86c-1.64-1.9-2.46-4.63-2.46-8.17v-1.89c0-3.75.75-6.65,2.25-8.68a7.55,7.55,0,0,1,6.46-3.06,7.11,7.11,0,0,1,6.17,2.87c1.39,1.91,2.09,4.73,2.12,8.48v3H204.49a6.9,6.9,0,0,0,1.07,3.87,3.44,3.44,0,0,0,2.92,1.22,6.13,6.13,0,0,0,4.76-2.13l2.23,3.76a7.42,7.42,0,0,1-3,2.56A9.72,9.72,0,0,1,208.11,1328.2Zm-3.58-14.59h5.7V1313a7.21,7.21,0,0,0-.65-3.23,2.17,2.17,0,0,0-2.09-1.1,2.32,2.32,0,0,0-2.16,1.16A8.6,8.6,0,0,0,204.53,1313.61Z"
          transform="translate(-18.72 -98.5)"/>
    <path class="cls-3"
          d="M229.77,1310l-1.89-.17a3.1,3.1,0,0,0-3.15,2.24v15.71H219V1304h5.37l.16,2.57c.9-2,2.14-3,3.73-3a3.65,3.65,0,0,1,1.56.29Z"
          transform="translate(-18.72 -98.5)"/>
    <path class="cls-3"
          d="M243.43,1310l-1.89-.17a3.11,3.11,0,0,0-3.16,2.24v15.71h-5.71V1304H238l.16,2.57c.9-2,2.14-3,3.72-3a3.7,3.7,0,0,1,1.57.29Z"
          transform="translate(-18.72 -98.5)"/>
    <path class="cls-3"
          d="M254.75,1328.2a8.5,8.5,0,0,1-6.83-2.86c-1.64-1.9-2.46-4.63-2.46-8.17v-1.89c0-3.75.75-6.65,2.25-8.68a7.55,7.55,0,0,1,6.46-3.06,7.13,7.13,0,0,1,6.17,2.87c1.38,1.91,2.09,4.73,2.12,8.48v3H251.13a6.9,6.9,0,0,0,1.07,3.87,3.43,3.43,0,0,0,2.91,1.22,6.13,6.13,0,0,0,4.77-2.13l2.23,3.76a7.49,7.49,0,0,1-3,2.56A9.72,9.72,0,0,1,254.75,1328.2Zm-3.58-14.59h5.69V1313a7.09,7.09,0,0,0-.64-3.23,2.17,2.17,0,0,0-2.09-1.1,2.32,2.32,0,0,0-2.16,1.16A8.6,8.6,0,0,0,251.17,1313.61Z"
          transform="translate(-18.72 -98.5)"/>
    <path class="cls-3"
          d="M265.67,1297.83a3.37,3.37,0,0,1,.85-2.37,3.21,3.21,0,0,1,4.5,0,3.33,3.33,0,0,1,.85,2.37,3.44,3.44,0,0,1-.84,2.37,3.16,3.16,0,0,1-4.52,0A3.44,3.44,0,0,1,265.67,1297.83Zm6,29.93h-5.71V1304h5.71Z"
          transform="translate(-18.72 -98.5)"/>
    <path class="cls-3"
          d="M286.79,1310l-1.89-.17a3.11,3.11,0,0,0-3.16,2.24v15.71H276V1304h5.37l.16,2.57c.9-2,2.14-3,3.72-3a3.67,3.67,0,0,1,1.57.29Z"
          transform="translate(-18.72 -98.5)"/>
    <path class="cls-3"
          d="M299.44,1327.76a9.37,9.37,0,0,1-.48-1.85,4.74,4.74,0,0,1-4.14,2.29,5.87,5.87,0,0,1-4.54-2,7.31,7.31,0,0,1-1.8-5.12,7.55,7.55,0,0,1,2.18-5.78,9,9,0,0,1,6.29-2.09h1.73v-1.91a3.78,3.78,0,0,0-.51-2.26,1.71,1.71,0,0,0-1.46-.66c-1.43,0-2.14.91-2.14,2.73h-5.69a7.15,7.15,0,0,1,2.27-5.44,8,8,0,0,1,5.72-2.15,7.34,7.34,0,0,1,5.54,2,8.05,8.05,0,0,1,2,5.81v11.18a12.68,12.68,0,0,0,.8,4.81v.38Zm-3.36-4.44a2.92,2.92,0,0,0,2.6-1.41V1317h-1.37a2.79,2.79,0,0,0-2.28,1,4.08,4.08,0,0,0-.84,2.7Q294.19,1323.32,296.08,1323.32Z"
          transform="translate(-18.72 -98.5)"/>
    <path class="cls-3"
          d="M325.85,1323c1.65,0,2.48-1.17,2.51-3.51h5.35a9.21,9.21,0,0,1-2.19,6.28,7.13,7.13,0,0,1-5.55,2.4,7.63,7.63,0,0,1-6.42-2.86c-1.47-1.9-2.22-4.71-2.25-8.41V1315q0-5.61,2.18-8.55a7.54,7.54,0,0,1,6.45-3,7.06,7.06,0,0,1,5.67,2.43q2.07,2.43,2.11,6.89h-5.35a6.69,6.69,0,0,0-.6-3.08,2,2,0,0,0-1.93-1.07,2.24,2.24,0,0,0-2.13,1.15,10.65,10.65,0,0,0-.69,4.47v2.42a21.54,21.54,0,0,0,.26,4,3.22,3.22,0,0,0,.87,1.7A2.52,2.52,0,0,0,325.85,1323Z"
          transform="translate(-18.72 -98.5)"/>
    <path class="cls-3"
          d="M336.27,1315.1c0-3.6.77-6.43,2.33-8.48a8.35,8.35,0,0,1,12.95,0c1.56,2.05,2.33,4.89,2.33,8.53v1.51q0,5.43-2.31,8.48a8.4,8.4,0,0,1-13,0q-2.32-3.06-2.32-8.51Zm5.71,1.56q0,6.38,3.11,6.37,2.88,0,3.1-5.31l0-2.62a10.8,10.8,0,0,0-.82-4.82,2.55,2.55,0,0,0-2.34-1.57,2.49,2.49,0,0,0-2.26,1.57,11,11,0,0,0-.81,4.82Z"
          transform="translate(-18.72 -98.5)"/>
    <path class="cls-3"
          d="M362.77,1304l.16,2.2a6,6,0,0,1,5.05-2.64,4.7,4.7,0,0,1,4.61,3.21,5.85,5.85,0,0,1,5.33-3.21c3.8,0,5.76,2.88,5.85,8.64v15.58h-5.69v-15.19a6.06,6.06,0,0,0-.53-2.94,1.86,1.86,0,0,0-1.76-.88c-1.06,0-1.86.71-2.38,2.13l0,.75v16.13h-5.69v-15.14a6.56,6.56,0,0,0-.5-3,1.88,1.88,0,0,0-1.79-.91,2.62,2.62,0,0,0-2.34,1.74v17.27h-5.69V1304Z"
          transform="translate(-18.72 -98.5)"/>
    <path class="cls-3"
          d="M408.17,1325.58a5.48,5.48,0,0,1-4.75,2.62,5.18,5.18,0,0,1-4.55-2.25,11.6,11.6,0,0,1-1.55-6.56V1304H403v15.56c0,2.31.73,3.47,2.11,3.47a2.9,2.9,0,0,0,2.81-1.84V1304h5.74v23.78h-5.35Z"
          transform="translate(-18.72 -98.5)"/>
    <path class="cls-3"
          d="M423.09,1304l.16,2.2a5.94,5.94,0,0,1,5.05-2.64,4.69,4.69,0,0,1,4.6,3.21,5.88,5.88,0,0,1,5.33-3.21q5.72,0,5.85,8.64v15.58h-5.69v-15.19a6.08,6.08,0,0,0-.52-2.94,1.89,1.89,0,0,0-1.77-.88q-1.59,0-2.37,2.13l0,.75v16.13h-5.69v-15.14a6.41,6.41,0,0,0-.51-3,1.87,1.87,0,0,0-1.79-.91,2.61,2.61,0,0,0-2.33,1.74v17.27h-5.69V1304Z"
          transform="translate(-18.72 -98.5)"/>
    <path class="cls-3"
          d="M465.79,1295.77l5.53,23.13,5.51-23.13h7.72v32h-5.93v-8.66l.54-13.34-5.85,22h-4l-5.85-22,.55,13.34v8.66h-5.92v-32Z"
          transform="translate(-18.72 -98.5)"/>
    <path class="cls-3"
          d="M497.8,1328.2a8.5,8.5,0,0,1-6.83-2.86c-1.64-1.9-2.46-4.63-2.46-8.17v-1.89c0-3.75.75-6.65,2.25-8.68a7.55,7.55,0,0,1,6.46-3.06,7.11,7.11,0,0,1,6.17,2.87c1.38,1.91,2.09,4.73,2.12,8.48v3H494.18a6.9,6.9,0,0,0,1.07,3.87,3.44,3.44,0,0,0,2.92,1.22,6.13,6.13,0,0,0,4.76-2.13l2.23,3.76a7.49,7.49,0,0,1-3,2.56A9.72,9.72,0,0,1,497.8,1328.2Zm-3.58-14.59h5.7V1313a7.21,7.21,0,0,0-.65-3.23,2.17,2.17,0,0,0-2.09-1.1,2.32,2.32,0,0,0-2.16,1.16A8.6,8.6,0,0,0,494.22,1313.61Z"
          transform="translate(-18.72 -98.5)"/>
    <path class="cls-3"
          d="M518.36,1321.39a2,2,0,0,0-.7-1.47,13.59,13.59,0,0,0-3.08-1.81,12.67,12.67,0,0,1-4.84-3.23,6.48,6.48,0,0,1-1.32-4.15,6.93,6.93,0,0,1,2.06-5.15,7.44,7.44,0,0,1,5.46-2,8,8,0,0,1,5.74,2,7.08,7.08,0,0,1,2.15,5.42h-5.69c0-1.93-.74-2.9-2.22-2.9a1.94,1.94,0,0,0-1.48.62,2.38,2.38,0,0,0-.59,1.71,1.88,1.88,0,0,0,.65,1.4,13.9,13.9,0,0,0,3,1.72,12.45,12.45,0,0,1,4.92,3.13,6.74,6.74,0,0,1,1.44,4.47,6.49,6.49,0,0,1-2.19,5.12,8.4,8.4,0,0,1-5.76,1.94,8.53,8.53,0,0,1-4.22-1,7.42,7.42,0,0,1-2.87-2.85,7.85,7.85,0,0,1-1-3.93h5.41a4.1,4.1,0,0,0,.69,2.44,2.6,2.6,0,0,0,2.14.81A2,2,0,0,0,518.36,1321.39Z"
          transform="translate(-18.72 -98.5)"/>
    <path class="cls-3"
          d="M534,1298.14V1304H537v4.66H534v11.82a3.71,3.71,0,0,0,.36,1.94,1.5,1.5,0,0,0,1.35.52,5,5,0,0,0,1.35-.15l0,4.83a8.1,8.1,0,0,1-3.14.6q-5.5,0-5.57-6.91v-12.65h-2.51V1304h2.51v-5.84Z"
          transform="translate(-18.72 -98.5)"/>
    <path class="cls-3"
          d="M550.82,1310l-1.89-.17a3.11,3.11,0,0,0-3.16,2.24v15.71h-5.71V1304h5.37l.16,2.57c.9-2,2.14-3,3.72-3a3.7,3.7,0,0,1,1.57.29Z"
          transform="translate(-18.72 -98.5)"/>
    <path class="cls-3"
          d="M563.47,1327.76a10,10,0,0,1-.49-1.85,4.73,4.73,0,0,1-4.14,2.29,5.86,5.86,0,0,1-4.53-2,7.31,7.31,0,0,1-1.8-5.12,7.51,7.51,0,0,1,2.18-5.78,9,9,0,0,1,6.28-2.09h1.73v-1.91a3.79,3.79,0,0,0-.5-2.26,1.72,1.72,0,0,0-1.47-.66q-2.13,0-2.13,2.73h-5.69a7.15,7.15,0,0,1,2.26-5.44,8,8,0,0,1,5.72-2.15,7.31,7.31,0,0,1,5.54,2,8,8,0,0,1,2,5.81v11.18a12.66,12.66,0,0,0,.81,4.81v.38Zm-3.36-4.44a3,3,0,0,0,1.61-.42,2.8,2.8,0,0,0,1-1V1317h-1.36a2.83,2.83,0,0,0-2.29,1,4.13,4.13,0,0,0-.83,2.7Q558.22,1323.32,560.11,1323.32Z"
          transform="translate(-18.72 -98.5)"/>
    <path class="cls-3"
          d="M571.75,1315.15c0-3.9.61-6.81,1.81-8.73a5.86,5.86,0,0,1,5.27-2.88,5,5,0,0,1,4.19,2.38V1294h5.73v33.75h-5.17l-.26-2.42a5.17,5.17,0,0,1-4.51,2.86,5.79,5.79,0,0,1-5.22-2.86q-1.8-2.85-1.84-8.39Zm5.71,1.56a12.2,12.2,0,0,0,.69,4.91,2.37,2.37,0,0,0,2.31,1.39,2.76,2.76,0,0,0,2.56-1.65v-10.85a2.72,2.72,0,0,0-2.54-1.76,2.41,2.41,0,0,0-2.29,1.39,11.66,11.66,0,0,0-.73,4.92Z"
          transform="translate(-18.72 -98.5)"/>
    <path class="cls-3"
          d="M592.27,1315.1q0-5.4,2.33-8.48a8.35,8.35,0,0,1,12.95,0q2.34,3.08,2.34,8.53v1.51q0,5.43-2.32,8.48a8.4,8.4,0,0,1-13,0q-2.33-3.06-2.32-8.51Zm5.71,1.56q0,6.38,3.12,6.37c1.91,0,2.95-1.77,3.09-5.31l0-2.62a10.8,10.8,0,0,0-.82-4.82,2.55,2.55,0,0,0-2.33-1.57,2.5,2.5,0,0,0-2.27,1.57,11,11,0,0,0-.81,4.82Z"
          transform="translate(-18.72 -98.5)"/>
    <path class="cls-3"
          d="M631.71,1328.2a8.5,8.5,0,0,1-6.84-2.86c-1.64-1.9-2.45-4.63-2.45-8.17v-1.89c0-3.75.75-6.65,2.25-8.68a7.52,7.52,0,0,1,6.45-3.06,7.13,7.13,0,0,1,6.18,2.87c1.38,1.91,2.08,4.73,2.11,8.48v3H628.09a6.9,6.9,0,0,0,1.06,3.87,3.44,3.44,0,0,0,2.92,1.22,6.16,6.16,0,0,0,4.77-2.13l2.23,3.76a7.52,7.52,0,0,1-3,2.56A9.71,9.71,0,0,1,631.71,1328.2Zm-3.58-14.59h5.69V1313a7.08,7.08,0,0,0-.65-3.23,2.16,2.16,0,0,0-2.09-1.1,2.32,2.32,0,0,0-2.16,1.16A8.63,8.63,0,0,0,628.13,1313.61Z"
          transform="translate(-18.72 -98.5)"/>
    <path class="cls-3"
          d="M648,1304l.16,2.2a5.93,5.93,0,0,1,5.05-2.64,4.69,4.69,0,0,1,4.6,3.21,5.88,5.88,0,0,1,5.33-3.21q5.71,0,5.85,8.64v15.58h-5.69v-15.19a6.08,6.08,0,0,0-.52-2.94,1.89,1.89,0,0,0-1.77-.88q-1.59,0-2.37,2.13l0,.75v16.13H653v-15.14a6.41,6.41,0,0,0-.51-3,1.87,1.87,0,0,0-1.79-.91,2.61,2.61,0,0,0-2.33,1.74v17.27h-5.69V1304Z"
          transform="translate(-18.72 -98.5)"/>
    <path class="cls-3" d="M698.08,1313.92h-9.22v8.48h10.9v5.36H683v-32h16.77v5.38H688.86v7.56h9.22Z"
          transform="translate(-18.72 -98.5)"/>
    <path class="cls-3"
          d="M708.09,1304l.16,2.35a5.89,5.89,0,0,1,5-2.79q5.61,0,5.77,8.59v15.63h-5.71V1312.6a5.9,5.9,0,0,0-.55-2.94,2.1,2.1,0,0,0-1.94-.91,2.66,2.66,0,0,0-2.42,1.74v17.27h-5.71V1304Z"
          transform="translate(-18.72 -98.5)"/>
    <path class="cls-3"
          d="M722.47,1315.15c0-3.9.65-6.81,1.93-8.73a6.16,6.16,0,0,1,5.41-2.88,5.12,5.12,0,0,1,4.57,2.55l.22-2.11h5.13v23.78q0,4.54-2.34,7t-6.69,2.41a10.17,10.17,0,0,1-3.76-.78,6.83,6.83,0,0,1-2.94-2l1.91-4.31a6,6,0,0,0,2.09,1.51,5.9,5.9,0,0,0,2.44.58,3.36,3.36,0,0,0,2.74-1,5.1,5.1,0,0,0,.86-3.22v-2a5,5,0,0,1-4.25,2.33,6,6,0,0,1-5.38-3q-1.89-3-1.94-8.34Zm5.69,1.56a10.87,10.87,0,0,0,.79,4.8,2.61,2.61,0,0,0,2.49,1.5,2.84,2.84,0,0,0,2.6-1.38v-11.36a2.82,2.82,0,0,0-2.56-1.52,2.67,2.67,0,0,0-2.5,1.52,10.74,10.74,0,0,0-.82,4.88Z"
          transform="translate(-18.72 -98.5)"/>
    <path class="cls-3"
          d="M752.66,1328.2a8.53,8.53,0,0,1-6.84-2.86c-1.63-1.9-2.45-4.63-2.45-8.17v-1.89c0-3.75.75-6.65,2.25-8.68a7.53,7.53,0,0,1,6.46-3.06,7.13,7.13,0,0,1,6.17,2.87c1.38,1.91,2.08,4.73,2.11,8.48v3H749a6.9,6.9,0,0,0,1.06,3.87A3.46,3.46,0,0,0,753,1323a6.16,6.16,0,0,0,4.77-2.13l2.23,3.76a7.52,7.52,0,0,1-3,2.56A9.68,9.68,0,0,1,752.66,1328.2Zm-3.58-14.59h5.69V1313a7.23,7.23,0,0,0-.64-3.23,2.18,2.18,0,0,0-2.09-1.1,2.32,2.32,0,0,0-2.17,1.16A8.63,8.63,0,0,0,749.08,1313.61Z"
          transform="translate(-18.72 -98.5)"/>
    <path class="cls-3"
          d="M768.79,1304l.16,2.35a5.89,5.89,0,0,1,5-2.79q5.61,0,5.77,8.59v15.63h-5.71V1312.6a5.89,5.89,0,0,0-.56-2.94,2.08,2.08,0,0,0-1.94-.91,2.66,2.66,0,0,0-2.41,1.74v17.27h-5.71V1304Z"
          transform="translate(-18.72 -98.5)"/>
    <path class="cls-3"
          d="M789.4,1306.07a5.51,5.51,0,0,1,4.55-2.53,5.13,5.13,0,0,1,4.52,2.29q1.56,2.28,1.57,6.81v15.12h-5.71v-15a5.89,5.89,0,0,0-.59-3,2.1,2.1,0,0,0-1.92-.94,2.67,2.67,0,0,0-2.42,1.56v17.45h-5.69V1294h5.69Z"
          transform="translate(-18.72 -98.5)"/>
    <path class="cls-3"
          d="M814.46,1327.76a9.37,9.37,0,0,1-.48-1.85,4.74,4.74,0,0,1-4.14,2.29,5.87,5.87,0,0,1-4.54-2,7.31,7.31,0,0,1-1.8-5.12,7.55,7.55,0,0,1,2.18-5.78,9,9,0,0,1,6.29-2.09h1.73v-1.91a3.87,3.87,0,0,0-.5-2.26,1.75,1.75,0,0,0-1.47-.66q-2.13,0-2.13,2.73h-5.7a7.15,7.15,0,0,1,2.27-5.44,8,8,0,0,1,5.72-2.15,7.34,7.34,0,0,1,5.54,2,8,8,0,0,1,2,5.81v11.18a12.68,12.68,0,0,0,.8,4.81v.38Zm-3.36-4.44a3,3,0,0,0,1.61-.42,2.84,2.84,0,0,0,1-1V1317h-1.37a2.81,2.81,0,0,0-2.28,1,4.08,4.08,0,0,0-.84,2.7Q809.21,1323.32,811.1,1323.32Z"
          transform="translate(-18.72 -98.5)"/>
    <path class="cls-3"
          d="M834.25,1310l-1.89-.17a3.11,3.11,0,0,0-3.16,2.24v15.71h-5.71V1304h5.37l.16,2.57c.9-2,2.14-3,3.72-3a3.67,3.67,0,0,1,1.57.29Z"
          transform="translate(-18.72 -98.5)"/>
    <path class="cls-3"
          d="M837.17,1297.83a3.37,3.37,0,0,1,.84-2.37,2.91,2.91,0,0,1,2.26-.92,2.88,2.88,0,0,1,2.25.92,3.37,3.37,0,0,1,.84,2.37,3.48,3.48,0,0,1-.83,2.37,3.18,3.18,0,0,1-4.53,0A3.48,3.48,0,0,1,837.17,1297.83Zm6,29.93h-5.71V1304h5.71Z"
          transform="translate(-18.72 -98.5)"/>
    <path class="cls-3"
          d="M857.88,1327.76a9.37,9.37,0,0,1-.48-1.85,4.74,4.74,0,0,1-4.14,2.29,5.87,5.87,0,0,1-4.54-2,7.31,7.31,0,0,1-1.8-5.12,7.55,7.55,0,0,1,2.18-5.78,9,9,0,0,1,6.29-2.09h1.73v-1.91a3.87,3.87,0,0,0-.5-2.26,1.75,1.75,0,0,0-1.47-.66q-2.13,0-2.13,2.73h-5.69a7.15,7.15,0,0,1,2.26-5.44,8,8,0,0,1,5.72-2.15,7.32,7.32,0,0,1,5.54,2,8,8,0,0,1,2,5.81v11.18a12.66,12.66,0,0,0,.81,4.81v.38Zm-3.36-4.44a2.92,2.92,0,0,0,1.61-.42,2.84,2.84,0,0,0,1-1V1317h-1.37a2.82,2.82,0,0,0-2.28,1,4.08,4.08,0,0,0-.84,2.7Q852.63,1323.32,854.52,1323.32Z"
          transform="translate(-18.72 -98.5)"/>
    <path class="cls-3"
          d="M94.24,1368.24q0,7.93-3.92,11.54l4,4-3.72,3.73-5.39-5.38-1.55.11a9.23,9.23,0,0,1-7.77-3.68q-2.81-3.69-2.83-10.19v-5q0-6.58,2.8-10.29a10,10,0,0,1,15.42-.14q2.82,3.55,2.92,10Zm-5.93-5q0-4.38-1.15-6.46a4,4,0,0,0-7-.06A13.42,13.42,0,0,0,79,1363v5.29q0,4.4,1.15,6.49a3.78,3.78,0,0,0,3.53,2.08,3.7,3.7,0,0,0,3.45-2.07,13.88,13.88,0,0,0,1.16-6.34Z"
          transform="translate(-18.72 -98.5)"/>
    <path class="cls-3"
          d="M108.92,1379.58a5.45,5.45,0,0,1-4.74,2.62,5.17,5.17,0,0,1-4.55-2.25,11.6,11.6,0,0,1-1.55-6.56V1358h5.69v15.56c0,2.31.73,3.47,2.12,3.47a2.91,2.91,0,0,0,2.81-1.84V1358h5.73v23.78h-5.35Z"
          transform="translate(-18.72 -98.5)"/>
    <path class="cls-3" d="M124.61,1381.76h-5.69V1358h5.69ZM123,1348.34h6.4l-5.59,6.81H119Z"
          transform="translate(-18.72 -98.5)"/>
    <path class="cls-3"
          d="M134.65,1358l.16,2.2a5.93,5.93,0,0,1,5-2.64,4.69,4.69,0,0,1,4.61,3.21,5.87,5.87,0,0,1,5.33-3.21q5.72,0,5.85,8.64v15.58H150v-15.19a6.08,6.08,0,0,0-.52-2.94,1.89,1.89,0,0,0-1.77-.88c-1.06,0-1.85.71-2.38,2.13l0,.75v16.13h-5.69v-15.14a6.43,6.43,0,0,0-.5-3,1.88,1.88,0,0,0-1.79-.91,2.6,2.6,0,0,0-2.33,1.74v17.27h-5.69V1358Z"
          transform="translate(-18.72 -98.5)"/>
    <path class="cls-3"
          d="M159.85,1351.83a3.37,3.37,0,0,1,.84-2.37,2.88,2.88,0,0,1,2.25-.92,2.91,2.91,0,0,1,2.26.92,3.37,3.37,0,0,1,.84,2.37,3.48,3.48,0,0,1-.83,2.37,3.18,3.18,0,0,1-4.53,0A3.43,3.43,0,0,1,159.85,1351.83Zm6,29.93h-5.71V1358h5.71Z"
          transform="translate(-18.72 -98.5)"/>
    <path class="cls-3"
          d="M178.09,1377c1.65,0,2.48-1.17,2.51-3.51H186a9.21,9.21,0,0,1-2.19,6.28,7.13,7.13,0,0,1-5.55,2.4,7.62,7.62,0,0,1-6.42-2.86c-1.47-1.9-2.22-4.71-2.25-8.41V1369q0-5.61,2.18-8.55a7.53,7.53,0,0,1,6.45-3,7.06,7.06,0,0,1,5.67,2.43q2.07,2.43,2.11,6.89H180.6a6.69,6.69,0,0,0-.6-3.08,2,2,0,0,0-1.93-1.07,2.25,2.25,0,0,0-2.14,1.15,10.86,10.86,0,0,0-.68,4.47v2.42a21.54,21.54,0,0,0,.26,4,3.15,3.15,0,0,0,.87,1.7A2.52,2.52,0,0,0,178.09,1377Z"
          transform="translate(-18.72 -98.5)"/>
    <path class="cls-3"
          d="M199.51,1381.76a8.58,8.58,0,0,1-.49-1.85,4.74,4.74,0,0,1-4.14,2.29,5.88,5.88,0,0,1-4.54-2,7.31,7.31,0,0,1-1.8-5.12,7.52,7.52,0,0,1,2.19-5.78,9,9,0,0,1,6.28-2.09h1.73v-1.91a3.87,3.87,0,0,0-.5-2.26,1.75,1.75,0,0,0-1.47-.66q-2.13,0-2.13,2.73H189a7.15,7.15,0,0,1,2.26-5.44,8,8,0,0,1,5.72-2.15,7.31,7.31,0,0,1,5.54,2,8,8,0,0,1,2,5.81v11.18a12.66,12.66,0,0,0,.81,4.81v.38Zm-3.36-4.44a3,3,0,0,0,1.61-.42,2.8,2.8,0,0,0,1-1V1371h-1.37a2.82,2.82,0,0,0-2.28,1,4.07,4.07,0,0,0-.83,2.7Q194.26,1377.32,196.15,1377.32Z"
          transform="translate(-18.72 -98.5)"/>
    <path class="cls-3"
          d="M223.26,1358l.16,2.35a5.89,5.89,0,0,1,5.05-2.79q5.61,0,5.77,8.59v15.63h-5.71V1366.6a5.89,5.89,0,0,0-.56-2.94,2.08,2.08,0,0,0-1.94-.91,2.66,2.66,0,0,0-2.41,1.74v17.27h-5.71V1358Z"
          transform="translate(-18.72 -98.5)"/>
    <path class="cls-3"
          d="M248.66,1381.76a9.37,9.37,0,0,1-.48-1.85,4.74,4.74,0,0,1-4.15,2.29,5.86,5.86,0,0,1-4.53-2,7.31,7.31,0,0,1-1.8-5.12,7.55,7.55,0,0,1,2.18-5.78,9,9,0,0,1,6.29-2.09h1.72v-1.91a3.79,3.79,0,0,0-.5-2.26,1.72,1.72,0,0,0-1.47-.66q-2.13,0-2.13,2.73H238.1a7.15,7.15,0,0,1,2.26-5.44,8,8,0,0,1,5.72-2.15,7.35,7.35,0,0,1,5.55,2,8.05,8.05,0,0,1,2,5.81v11.18a12.49,12.49,0,0,0,.8,4.81v.38Zm-3.36-4.44a3,3,0,0,0,1.61-.42,2.8,2.8,0,0,0,1-1V1371h-1.36a2.83,2.83,0,0,0-2.29,1,4.13,4.13,0,0,0-.83,2.7Q243.41,1377.32,245.3,1377.32Z"
          transform="translate(-18.72 -98.5)"/>
    <path class="cls-3"
          d="M286.53,1349.77v22.14c0,3.33-.87,5.87-2.51,7.64s-4,2.65-7.1,2.65-5.54-.9-7.19-2.68-2.49-4.38-2.49-7.76v-22h6v22a7,7,0,0,0,.8,3.89,3.3,3.3,0,0,0,2.92,1.17,3.25,3.25,0,0,0,2.89-1.16,7.13,7.13,0,0,0,.81-3.79v-22.12Z"
          transform="translate(-18.72 -98.5)"/>
    <path class="cls-3"
          d="M295.94,1358l.16,2.35a5.89,5.89,0,0,1,5-2.79q5.61,0,5.77,8.59v15.63h-5.71V1366.6a5.9,5.9,0,0,0-.55-2.94,2.1,2.1,0,0,0-1.94-.91,2.66,2.66,0,0,0-2.42,1.74v17.27h-5.71V1358Z"
          transform="translate(-18.72 -98.5)"/>
    <path class="cls-3"
          d="M311,1351.83a3.37,3.37,0,0,1,.85-2.37,3.21,3.21,0,0,1,4.5,0,3.33,3.33,0,0,1,.85,2.37,3.44,3.44,0,0,1-.84,2.37,3.16,3.16,0,0,1-4.52,0A3.44,3.44,0,0,1,311,1351.83Zm6,29.93h-5.71V1358H317Z"
          transform="translate(-18.72 -98.5)"/>
    <path class="cls-3" d="M328.52,1373l2.76-15h5.93l-6,23.78h-5.43l-6-23.78h6Z" transform="translate(-18.72 -98.5)"/>
    <path class="cls-3"
          d="M348.41,1382.2a8.5,8.5,0,0,1-6.83-2.86c-1.64-1.9-2.46-4.63-2.46-8.17v-1.89c0-3.75.75-6.65,2.25-8.68a7.55,7.55,0,0,1,6.46-3.06,7.13,7.13,0,0,1,6.17,2.87c1.38,1.91,2.09,4.73,2.12,8.48v3H344.79a6.9,6.9,0,0,0,1.07,3.87,3.43,3.43,0,0,0,2.91,1.22,6.13,6.13,0,0,0,4.77-2.13l2.23,3.76a7.49,7.49,0,0,1-3,2.56A9.72,9.72,0,0,1,348.41,1382.2Zm-3.58-14.59h5.69V1367a7.09,7.09,0,0,0-.64-3.23,2.17,2.17,0,0,0-2.09-1.1,2.32,2.32,0,0,0-2.16,1.16A8.6,8.6,0,0,0,344.83,1367.61Z"
          transform="translate(-18.72 -98.5)"/>
    <path class="cls-3"
          d="M370.07,1364l-1.89-.17a3.1,3.1,0,0,0-3.15,2.24v15.71h-5.72V1358h5.37l.16,2.57c.9-2,2.14-3,3.72-3a3.67,3.67,0,0,1,1.57.29Z"
          transform="translate(-18.72 -98.5)"/>
    <path class="cls-3"
          d="M382.62,1375.39a2,2,0,0,0-.69-1.47,13.49,13.49,0,0,0-3.09-1.81,12.75,12.75,0,0,1-4.84-3.23,6.54,6.54,0,0,1-1.31-4.15,6.89,6.89,0,0,1,2.06-5.15,7.41,7.41,0,0,1,5.46-2,8,8,0,0,1,5.73,2,7,7,0,0,1,2.15,5.42H382.4c0-1.93-.74-2.9-2.21-2.9a2,2,0,0,0-1.49.62,2.38,2.38,0,0,0-.58,1.71,1.87,1.87,0,0,0,.64,1.4,14.06,14.06,0,0,0,3,1.72,12.45,12.45,0,0,1,4.92,3.13,6.79,6.79,0,0,1,1.43,4.47,6.49,6.49,0,0,1-2.19,5.12,8.37,8.37,0,0,1-5.75,1.94,8.5,8.5,0,0,1-4.22-1,7.42,7.42,0,0,1-2.87-2.85,7.86,7.86,0,0,1-1-3.93h5.41a4,4,0,0,0,.7,2.44,2.59,2.59,0,0,0,2.14.81A2,2,0,0,0,382.62,1375.39Z"
          transform="translate(-18.72 -98.5)"/>
    <path class="cls-3"
          d="M391.69,1351.83a3.37,3.37,0,0,1,.85-2.37,3.21,3.21,0,0,1,4.5,0,3.33,3.33,0,0,1,.85,2.37,3.44,3.44,0,0,1-.84,2.37,3.16,3.16,0,0,1-4.52,0A3.44,3.44,0,0,1,391.69,1351.83Zm6,29.93H392V1358h5.71Z"
          transform="translate(-18.72 -98.5)"/>
    <path class="cls-3"
          d="M401.31,1369.15q0-5.85,1.81-8.73a5.84,5.84,0,0,1,5.27-2.88,5,5,0,0,1,4.18,2.38V1348h5.73v33.75h-5.17l-.26-2.42a5.17,5.17,0,0,1-4.5,2.86,5.79,5.79,0,0,1-5.22-2.86c-1.2-1.9-1.82-4.7-1.84-8.39Zm5.71,1.56a12.42,12.42,0,0,0,.68,4.91A2.38,2.38,0,0,0,410,1377a2.75,2.75,0,0,0,2.55-1.65v-10.85a2.71,2.71,0,0,0-2.53-1.76,2.42,2.42,0,0,0-2.3,1.39,11.69,11.69,0,0,0-.72,4.92Z"
          transform="translate(-18.72 -98.5)"/>
    <path class="cls-3"
          d="M432.82,1381.76a9.37,9.37,0,0,1-.48-1.85,4.74,4.74,0,0,1-4.14,2.29,5.87,5.87,0,0,1-4.54-2,7.31,7.31,0,0,1-1.8-5.12,7.55,7.55,0,0,1,2.18-5.78,9,9,0,0,1,6.29-2.09h1.73v-1.91a3.87,3.87,0,0,0-.5-2.26,1.75,1.75,0,0,0-1.47-.66q-2.13,0-2.13,2.73h-5.7a7.15,7.15,0,0,1,2.27-5.44,8,8,0,0,1,5.72-2.15,7.34,7.34,0,0,1,5.54,2,8,8,0,0,1,2,5.81v11.18a12.68,12.68,0,0,0,.8,4.81v.38Zm-3.36-4.44a2.92,2.92,0,0,0,2.6-1.41V1371h-1.37a2.79,2.79,0,0,0-2.28,1,4.08,4.08,0,0,0-.84,2.7Q427.57,1377.32,429.46,1377.32Z"
          transform="translate(-18.72 -98.5)"/>
    <path class="cls-3"
          d="M441.11,1369.15q0-5.85,1.81-8.73a5.85,5.85,0,0,1,5.27-2.88,5,5,0,0,1,4.18,2.38V1348h5.73v33.75h-5.17l-.26-2.42a5.16,5.16,0,0,1-4.5,2.86,5.79,5.79,0,0,1-5.22-2.86c-1.2-1.9-1.82-4.7-1.84-8.39Zm5.71,1.56a12.42,12.42,0,0,0,.68,4.91,2.38,2.38,0,0,0,2.32,1.39,2.75,2.75,0,0,0,2.55-1.65v-10.85a2.71,2.71,0,0,0-2.53-1.76,2.42,2.42,0,0,0-2.3,1.39,11.69,11.69,0,0,0-.72,4.92Z"
          transform="translate(-18.72 -98.5)"/>
    <path class="cls-3"
          d="M471.07,1382.2a8.5,8.5,0,0,1-6.83-2.86c-1.64-1.9-2.46-4.63-2.46-8.17v-1.89c0-3.75.75-6.65,2.26-8.68a7.52,7.52,0,0,1,6.45-3.06,7.14,7.14,0,0,1,6.18,2.87c1.38,1.91,2.08,4.73,2.11,8.48v3H467.45a7,7,0,0,0,1.07,3.87,3.44,3.44,0,0,0,2.92,1.22,6.13,6.13,0,0,0,4.76-2.13l2.24,3.76a7.52,7.52,0,0,1-3,2.56A9.72,9.72,0,0,1,471.07,1382.2Zm-3.58-14.59h5.7V1367a7.08,7.08,0,0,0-.65-3.23,2.17,2.17,0,0,0-2.09-1.1,2.32,2.32,0,0,0-2.16,1.16A8.75,8.75,0,0,0,467.49,1367.61Z"
          transform="translate(-18.72 -98.5)"/>
    <path class="cls-3"
          d="M490.72,1369.15c0-3.9.61-6.81,1.81-8.73a5.86,5.86,0,0,1,5.27-2.88,5,5,0,0,1,4.19,2.38V1348h5.73v33.75h-5.17l-.26-2.42a5.17,5.17,0,0,1-4.51,2.86,5.79,5.79,0,0,1-5.22-2.86q-1.8-2.85-1.84-8.39Zm5.72,1.56a12.24,12.24,0,0,0,.68,4.91,2.38,2.38,0,0,0,2.31,1.39,2.76,2.76,0,0,0,2.56-1.65v-10.85a2.72,2.72,0,0,0-2.54-1.76,2.41,2.41,0,0,0-2.29,1.39,11.69,11.69,0,0,0-.72,4.92Z"
          transform="translate(-18.72 -98.5)"/>
    <path class="cls-3"
          d="M520.69,1382.2a8.53,8.53,0,0,1-6.84-2.86c-1.63-1.9-2.45-4.63-2.45-8.17v-1.89c0-3.75.75-6.65,2.25-8.68a7.53,7.53,0,0,1,6.46-3.06,7.13,7.13,0,0,1,6.17,2.87c1.38,1.91,2.09,4.73,2.11,8.48v3H517.07a6.9,6.9,0,0,0,1.07,3.87,3.43,3.43,0,0,0,2.91,1.22,6.15,6.15,0,0,0,4.77-2.13l2.23,3.76a7.52,7.52,0,0,1-3,2.56A9.65,9.65,0,0,1,520.69,1382.2Zm-3.58-14.59h5.69V1367a7.23,7.23,0,0,0-.64-3.23,2.17,2.17,0,0,0-2.09-1.1,2.32,2.32,0,0,0-2.17,1.16A8.78,8.78,0,0,0,517.11,1367.61Z"
          transform="translate(-18.72 -98.5)"/>
    <path class="cls-3"
          d="M561.24,1371.1q-.22,5.48-2.82,8.28a9.45,9.45,0,0,1-7.32,2.82,8.89,8.89,0,0,1-7.61-3.57q-2.65-3.57-2.65-10.19v-5.38q0-6.6,2.74-10.16a9,9,0,0,1,7.6-3.57q4.79,0,7.27,2.92c1.66,2,2.6,4.74,2.83,8.39h-5.94a9.29,9.29,0,0,0-1-4.67,3.63,3.63,0,0,0-3.21-1.28,3.51,3.51,0,0,0-3.36,1.81c-.66,1.21-1,3.2-1,6v6q0,4.77,1,6.55a3.51,3.51,0,0,0,3.35,1.78,3.71,3.71,0,0,0,3.22-1.25c.59-.82.92-2.32,1-4.49Z"
          transform="translate(-18.72 -98.5)"/>
    <path class="cls-3"
          d="M563.93,1369.1q0-5.4,2.33-8.48a8.35,8.35,0,0,1,13,0q2.34,3.08,2.34,8.53v1.51q0,5.43-2.31,8.48a8.41,8.41,0,0,1-13,0q-2.32-3.06-2.32-8.51Zm5.71,1.56q0,6.38,3.12,6.37,2.88,0,3.1-5.31l0-2.62a10.77,10.77,0,0,0-.83-4.82,2.55,2.55,0,0,0-2.33-1.57,2.48,2.48,0,0,0-2.26,1.57,10.8,10.8,0,0,0-.82,4.82Z"
          transform="translate(-18.72 -98.5)"/>
    <path class="cls-3"
          d="M585.09,1351.83a3.37,3.37,0,0,1,.84-2.37,3.22,3.22,0,0,1,4.51,0,3.37,3.37,0,0,1,.84,2.37,3.48,3.48,0,0,1-.83,2.37,3.18,3.18,0,0,1-4.53,0A3.48,3.48,0,0,1,585.09,1351.83Zm6,29.93h-5.71V1358h5.71Z"
          transform="translate(-18.72 -98.5)"/>
    <path class="cls-3"
          d="M600.82,1358l.16,2.2a5.93,5.93,0,0,1,5-2.64,4.69,4.69,0,0,1,4.61,3.21,5.87,5.87,0,0,1,5.33-3.21q5.71,0,5.85,8.64v15.58h-5.69v-15.19a6.08,6.08,0,0,0-.52-2.94,1.89,1.89,0,0,0-1.77-.88q-1.59,0-2.37,2.13l0,.75v16.13h-5.7v-15.14a6.43,6.43,0,0,0-.5-3,1.87,1.87,0,0,0-1.79-.91,2.6,2.6,0,0,0-2.33,1.74v17.27h-5.69V1358Z"
          transform="translate(-18.72 -98.5)"/>
    <path class="cls-3"
          d="M643,1370.64q0,5.77-1.69,8.67a5.73,5.73,0,0,1-5.31,2.89,5.15,5.15,0,0,1-4.54-2.79l-.19,2.35H626V1348h5.69v11.91a4.89,4.89,0,0,1,4.24-2.38,5.73,5.73,0,0,1,5.31,2.87c1.13,1.91,1.7,4.72,1.73,8.41Zm-5.69-1.56c0-2.51-.22-4.19-.67-5a2.37,2.37,0,0,0-2.31-1.29,2.73,2.73,0,0,0-2.61,1.78v10.83a2.68,2.68,0,0,0,2.65,1.67,2.36,2.36,0,0,0,2.27-1.16,11.18,11.18,0,0,0,.67-4.53Z"
          transform="translate(-18.72 -98.5)"/>
    <path class="cls-3"
          d="M657.15,1364l-1.89-.17a3.11,3.11,0,0,0-3.16,2.24v15.71h-5.71V1358h5.37l.16,2.57c.9-2,2.14-3,3.72-3a3.7,3.7,0,0,1,1.57.29Z"
          transform="translate(-18.72 -98.5)"/>
    <path class="cls-3"
          d="M669.8,1381.76a9.37,9.37,0,0,1-.48-1.85,4.74,4.74,0,0,1-4.15,2.29,5.86,5.86,0,0,1-4.53-2,7.31,7.31,0,0,1-1.8-5.12,7.51,7.51,0,0,1,2.18-5.78,9,9,0,0,1,6.28-2.09H669v-1.91a3.79,3.79,0,0,0-.5-2.26,1.72,1.72,0,0,0-1.47-.66q-2.13,0-2.13,2.73h-5.69a7.15,7.15,0,0,1,2.26-5.44,8,8,0,0,1,5.72-2.15,7.31,7.31,0,0,1,5.54,2,8,8,0,0,1,2,5.81v11.18a12.49,12.49,0,0,0,.8,4.81v.38Zm-3.36-4.44a3,3,0,0,0,1.61-.42,2.8,2.8,0,0,0,1-1V1371h-1.36a2.83,2.83,0,0,0-2.29,1,4.13,4.13,0,0,0-.83,2.7Q664.55,1377.32,666.44,1377.32Z"
          transform="translate(-18.72 -98.5)"/>
    <path class="cls-3"
          d="M680.54,1389.82l-3-1.73.77-1.56a12.12,12.12,0,0,0,1.32-5.23v-5h4.95l0,4.42a12.55,12.55,0,0,1-1.09,4.83A12.24,12.24,0,0,1,680.54,1389.82Z"
          transform="translate(-18.72 -98.5)"/>
    <path class="cls-3"
          d="M709.16,1379.58a5.46,5.46,0,0,1-4.75,2.62,5.15,5.15,0,0,1-4.54-2.25c-1-1.51-1.55-3.69-1.55-6.56V1358H704v15.56c0,2.31.73,3.47,2.11,3.47a2.92,2.92,0,0,0,2.82-1.84V1358h5.73v23.78h-5.35Z"
          transform="translate(-18.72 -98.5)"/>
    <path class="cls-3"
          d="M724.08,1358l.16,2.2a5.94,5.94,0,0,1,5-2.64,4.68,4.68,0,0,1,4.6,3.21,5.88,5.88,0,0,1,5.33-3.21q5.71,0,5.86,8.64v15.58h-5.69v-15.19a6.06,6.06,0,0,0-.53-2.94,1.89,1.89,0,0,0-1.77-.88q-1.59,0-2.37,2.13l0,.75v16.13h-5.69v-15.14a6.56,6.56,0,0,0-.5-3,1.89,1.89,0,0,0-1.79-.91,2.62,2.62,0,0,0-2.34,1.74v17.27h-5.69V1358Z"
          transform="translate(-18.72 -98.5)"/>
    <path class="cls-3"
          d="M72.6,1423.15q0-5.85,1.81-8.73a5.85,5.85,0,0,1,5.27-2.88,4.94,4.94,0,0,1,4.18,2.38V1402H89.6v33.75H84.43l-.26-2.42a5.17,5.17,0,0,1-4.51,2.86,5.79,5.79,0,0,1-5.22-2.86q-1.8-2.85-1.84-8.39Zm5.71,1.56a12.2,12.2,0,0,0,.69,4.91,2.36,2.36,0,0,0,2.31,1.39,2.73,2.73,0,0,0,2.55-1.65v-10.85a2.7,2.7,0,0,0-2.53-1.76,2.4,2.4,0,0,0-2.29,1.39,11.5,11.5,0,0,0-.73,4.92Z"
          transform="translate(-18.72 -98.5)"/>
    <path class="cls-3"
          d="M93.11,1423.1q0-5.4,2.34-8.48a8.35,8.35,0,0,1,13,0c1.56,2.05,2.33,4.89,2.33,8.53v1.51q0,5.43-2.31,8.48a8.4,8.4,0,0,1-13,0q-2.32-3.06-2.33-8.51Zm5.72,1.56q0,6.38,3.11,6.37,2.88,0,3.1-5.31l0-2.62a10.8,10.8,0,0,0-.82-4.82,2.55,2.55,0,0,0-2.34-1.57,2.49,2.49,0,0,0-2.26,1.57,11,11,0,0,0-.81,4.82Z"
          transform="translate(-18.72 -98.5)"/>
    <path class="cls-3"
          d="M125,1433.58a5.45,5.45,0,0,1-4.74,2.62,5.17,5.17,0,0,1-4.55-2.25,11.6,11.6,0,0,1-1.55-6.56V1412h5.69v15.56c0,2.31.73,3.47,2.11,3.47a2.91,2.91,0,0,0,2.82-1.84V1412h5.73v23.78h-5.35Z"
          transform="translate(-18.72 -98.5)"/>
    <path class="cls-3"
          d="M141.16,1406.14V1412h2.92v4.66h-2.92v11.82a3.84,3.84,0,0,0,.35,1.94,1.53,1.53,0,0,0,1.36.52,5,5,0,0,0,1.35-.15l0,4.83a8.13,8.13,0,0,1-3.14.6q-5.5,0-5.57-6.91v-12.65H133V1412h2.51v-5.84Z"
          transform="translate(-18.72 -98.5)"/>
    <path class="cls-3"
          d="M145.93,1423.1q0-5.4,2.33-8.48a8.35,8.35,0,0,1,13,0q2.34,3.08,2.34,8.53v1.51c0,3.62-.78,6.45-2.32,8.48a8.4,8.4,0,0,1-13,0q-2.33-3.06-2.32-8.51Zm5.71,1.56q0,6.38,3.12,6.37c1.91,0,3-1.77,3.09-5.31l0-2.62a10.8,10.8,0,0,0-.82-4.82,2.55,2.55,0,0,0-2.33-1.57,2.5,2.5,0,0,0-2.27,1.57,11,11,0,0,0-.81,4.82Z"
          transform="translate(-18.72 -98.5)"/>
    <path class="cls-3"
          d="M177.83,1418l-1.89-.17a3.11,3.11,0,0,0-3.16,2.24v15.71h-5.71V1412h5.37l.16,2.57c.89-2,2.13-3,3.72-3a3.73,3.73,0,0,1,1.57.29Z"
          transform="translate(-18.72 -98.5)"/>
    <path class="cls-3"
          d="M190.48,1435.76a8.58,8.58,0,0,1-.49-1.85,4.74,4.74,0,0,1-4.14,2.29,5.88,5.88,0,0,1-4.54-2,7.3,7.3,0,0,1-1.79-5.12,7.51,7.51,0,0,1,2.18-5.78,9,9,0,0,1,6.28-2.09h1.73v-1.91a3.87,3.87,0,0,0-.5-2.26,1.75,1.75,0,0,0-1.47-.66q-2.13,0-2.13,2.73h-5.69a7.15,7.15,0,0,1,2.26-5.44,8,8,0,0,1,5.72-2.15,7.31,7.31,0,0,1,5.54,2,8,8,0,0,1,2,5.81v11.18a12.66,12.66,0,0,0,.81,4.81v.38Zm-3.36-4.44a3,3,0,0,0,1.61-.42,2.8,2.8,0,0,0,1-1V1425h-1.37a2.82,2.82,0,0,0-2.28,1,4.07,4.07,0,0,0-.83,2.7Q185.23,1431.32,187.12,1431.32Z"
          transform="translate(-18.72 -98.5)"/>
    <path class="cls-3"
          d="M204.88,1412l.16,2.2a5.93,5.93,0,0,1,5-2.64,4.69,4.69,0,0,1,4.61,3.21,5.87,5.87,0,0,1,5.33-3.21q5.72,0,5.85,8.64v15.58h-5.69v-15.19a6.08,6.08,0,0,0-.52-2.94,1.89,1.89,0,0,0-1.77-.88q-1.59,0-2.37,2.13l0,.75v16.13h-5.7v-15.14a6.43,6.43,0,0,0-.5-3,1.87,1.87,0,0,0-1.79-.91,2.6,2.6,0,0,0-2.33,1.74v17.27h-5.69V1412Z"
          transform="translate(-18.72 -98.5)"/>
    <path class="cls-3"
          d="M238.86,1436.2a8.5,8.5,0,0,1-6.83-2.86c-1.64-1.9-2.46-4.63-2.46-8.17v-1.89c0-3.75.75-6.65,2.26-8.68a7.52,7.52,0,0,1,6.45-3.06,7.14,7.14,0,0,1,6.18,2.87c1.38,1.91,2.08,4.73,2.11,8.48v3H235.24a6.9,6.9,0,0,0,1.07,3.87,3.44,3.44,0,0,0,2.92,1.22,6.13,6.13,0,0,0,4.76-2.13l2.24,3.76a7.52,7.52,0,0,1-3,2.56A9.72,9.72,0,0,1,238.86,1436.2Zm-3.58-14.59H241V1421a7.21,7.21,0,0,0-.65-3.23,2.17,2.17,0,0,0-2.09-1.1,2.32,2.32,0,0,0-2.16,1.16A8.6,8.6,0,0,0,235.28,1421.61Z"
          transform="translate(-18.72 -98.5)"/>
    <path class="cls-3"
          d="M255,1412l.17,2.35a5.88,5.88,0,0,1,5-2.79q5.61,0,5.78,8.59v15.63h-5.72V1420.6a5.9,5.9,0,0,0-.55-2.94,2.1,2.1,0,0,0-1.94-.91,2.65,2.65,0,0,0-2.41,1.74v17.27h-5.72V1412Z"
          transform="translate(-18.72 -98.5)"/>
    <path class="cls-3"
          d="M276.67,1406.14V1412h2.92v4.66h-2.92v11.82a3.71,3.71,0,0,0,.36,1.94,1.5,1.5,0,0,0,1.35.52,5,5,0,0,0,1.35-.15l0,4.83a8.1,8.1,0,0,1-3.14.6q-5.51,0-5.57-6.91v-12.65h-2.51V1412H271v-5.84Z"
          transform="translate(-18.72 -98.5)"/>
    <path class="cls-3"
          d="M281.44,1423.1q0-5.4,2.33-8.48a8.36,8.36,0,0,1,13,0q2.32,3.08,2.33,8.53v1.51q0,5.43-2.31,8.48a8.41,8.41,0,0,1-13,0c-1.54-2-2.32-4.88-2.32-8.51Zm5.71,1.56q0,6.38,3.12,6.37,2.88,0,3.1-5.31l0-2.62a10.77,10.77,0,0,0-.83-4.82,2.54,2.54,0,0,0-2.33-1.57,2.48,2.48,0,0,0-2.26,1.57,10.8,10.8,0,0,0-.82,4.82Z"
          transform="translate(-18.72 -98.5)"/>
    <path class="cls-3"
          d="M320.88,1436.2a8.53,8.53,0,0,1-6.84-2.86c-1.63-1.9-2.45-4.63-2.45-8.17v-1.89c0-3.75.75-6.65,2.25-8.68a7.53,7.53,0,0,1,6.46-3.06,7.13,7.13,0,0,1,6.17,2.87c1.38,1.91,2.09,4.73,2.11,8.48v3H317.26a6.9,6.9,0,0,0,1.07,3.87,3.43,3.43,0,0,0,2.91,1.22,6.15,6.15,0,0,0,4.77-2.13l2.23,3.76a7.52,7.52,0,0,1-3,2.56A9.65,9.65,0,0,1,320.88,1436.2Zm-3.58-14.59H323V1421a7.23,7.23,0,0,0-.64-3.23,2.17,2.17,0,0,0-2.09-1.1,2.32,2.32,0,0,0-2.17,1.16A8.78,8.78,0,0,0,317.3,1421.61Z"
          transform="translate(-18.72 -98.5)"/>
    <path class="cls-3"
          d="M337.15,1412l.16,2.2a6,6,0,0,1,5.05-2.64,4.7,4.7,0,0,1,4.61,3.21,5.85,5.85,0,0,1,5.32-3.21q5.71,0,5.86,8.64v15.58h-5.69v-15.19a6.06,6.06,0,0,0-.53-2.94,1.89,1.89,0,0,0-1.77-.88q-1.59,0-2.37,2.13l0,.75v16.13h-5.69v-15.14a6.56,6.56,0,0,0-.5-3,1.89,1.89,0,0,0-1.79-.91,2.62,2.62,0,0,0-2.34,1.74v17.27h-5.69V1412Z"
          transform="translate(-18.72 -98.5)"/>
    <path class="cls-3" d="M387.25,1421.92H378v8.48h10.9v5.36H372.13v-32H388.9v5.38H378v7.56h9.21Z"
          transform="translate(-18.72 -98.5)"/>
    <path class="cls-3"
          d="M397.26,1412l.17,2.35a5.88,5.88,0,0,1,5-2.79q5.61,0,5.78,8.59v15.63h-5.72V1420.6a5.9,5.9,0,0,0-.55-2.94,2.1,2.1,0,0,0-1.94-.91,2.65,2.65,0,0,0-2.41,1.74v17.27h-5.72V1412Z"
          transform="translate(-18.72 -98.5)"/>
    <path class="cls-3"
          d="M411.64,1423.15q0-5.85,1.94-8.73a6.14,6.14,0,0,1,5.41-2.88,5.09,5.09,0,0,1,4.56,2.55l.22-2.11h5.13v23.78q0,4.54-2.33,7t-6.7,2.41a10.21,10.21,0,0,1-3.76-.78,7,7,0,0,1-2.94-2l1.91-4.31a6,6,0,0,0,2.1,1.51,5.82,5.82,0,0,0,2.43.58,3.36,3.36,0,0,0,2.74-1,5,5,0,0,0,.86-3.22v-2a5,5,0,0,1-4.24,2.33,6,6,0,0,1-5.38-3q-1.9-3-1.95-8.34Zm5.7,1.56a11,11,0,0,0,.78,4.8,2.61,2.61,0,0,0,2.49,1.5,2.83,2.83,0,0,0,2.6-1.38v-11.36a2.81,2.81,0,0,0-2.56-1.52,2.67,2.67,0,0,0-2.5,1.52,10.9,10.9,0,0,0-.81,4.88Z"
          transform="translate(-18.72 -98.5)"/>
    <path class="cls-3"
          d="M441.83,1436.2a8.53,8.53,0,0,1-6.84-2.86c-1.63-1.9-2.45-4.63-2.45-8.17v-1.89c0-3.75.75-6.65,2.25-8.68a7.54,7.54,0,0,1,6.46-3.06,7.13,7.13,0,0,1,6.17,2.87c1.38,1.91,2.09,4.73,2.11,8.48v3H438.21a6.9,6.9,0,0,0,1.07,3.87,3.43,3.43,0,0,0,2.91,1.22,6.13,6.13,0,0,0,4.77-2.13l2.23,3.76a7.49,7.49,0,0,1-3,2.56A9.72,9.72,0,0,1,441.83,1436.2Zm-3.58-14.59h5.69V1421a7.09,7.09,0,0,0-.64-3.23,2.17,2.17,0,0,0-2.09-1.1,2.32,2.32,0,0,0-2.16,1.16A8.6,8.6,0,0,0,438.25,1421.61Z"
          transform="translate(-18.72 -98.5)"/>
    <path class="cls-3"
          d="M458,1412l.16,2.35a5.89,5.89,0,0,1,5.05-2.79q5.61,0,5.77,8.59v15.63h-5.71V1420.6a5.9,5.9,0,0,0-.55-2.94,2.1,2.1,0,0,0-1.94-.91,2.66,2.66,0,0,0-2.42,1.74v17.27h-5.71V1412Z"
          transform="translate(-18.72 -98.5)"/>
    <path class="cls-3"
          d="M478.58,1414.07a5.48,5.48,0,0,1,4.54-2.53,5.14,5.14,0,0,1,4.53,2.29q1.55,2.28,1.57,6.81v15.12H483.5v-15a5.79,5.79,0,0,0-.59-3,2.08,2.08,0,0,0-1.92-.94,2.65,2.65,0,0,0-2.41,1.56v17.45h-5.7V1402h5.7Z"
          transform="translate(-18.72 -98.5)"/>
    <path class="cls-3"
          d="M503.64,1435.76a8.58,8.58,0,0,1-.49-1.85,4.74,4.74,0,0,1-4.14,2.29,5.88,5.88,0,0,1-4.54-2,7.31,7.31,0,0,1-1.8-5.12,7.52,7.52,0,0,1,2.19-5.78,9,9,0,0,1,6.28-2.09h1.73v-1.91a3.87,3.87,0,0,0-.5-2.26,1.75,1.75,0,0,0-1.47-.66q-2.13,0-2.13,2.73h-5.69a7.15,7.15,0,0,1,2.26-5.44,8,8,0,0,1,5.72-2.15,7.32,7.32,0,0,1,5.54,2,8,8,0,0,1,2,5.81v11.18a12.66,12.66,0,0,0,.81,4.81v.38Zm-3.36-4.44a3,3,0,0,0,1.61-.42,2.8,2.8,0,0,0,1-1V1425H501.5a2.82,2.82,0,0,0-2.28,1,4.07,4.07,0,0,0-.83,2.7Q498.39,1431.32,500.28,1431.32Z"
          transform="translate(-18.72 -98.5)"/>
    <path class="cls-3"
          d="M523.43,1418l-1.89-.17a3.11,3.11,0,0,0-3.16,2.24v15.71h-5.71V1412H518l.16,2.57c.89-2,2.13-3,3.72-3a3.73,3.73,0,0,1,1.57.29Z"
          transform="translate(-18.72 -98.5)"/>
    <path class="cls-3"
          d="M526.34,1405.83a3.33,3.33,0,0,1,.85-2.37,3.21,3.21,0,0,1,4.5,0,3.37,3.37,0,0,1,.85,2.37,3.44,3.44,0,0,1-.84,2.37,3.16,3.16,0,0,1-4.52,0A3.44,3.44,0,0,1,526.34,1405.83Zm6,29.93H526.6V1412h5.71Z"
          transform="translate(-18.72 -98.5)"/>
    <path class="cls-3"
          d="M547.06,1435.76a9.22,9.22,0,0,1-.49-1.85,4.74,4.74,0,0,1-4.14,2.29,5.86,5.86,0,0,1-4.53-2,7.31,7.31,0,0,1-1.8-5.12,7.51,7.51,0,0,1,2.18-5.78,9,9,0,0,1,6.28-2.09h1.73v-1.91a3.79,3.79,0,0,0-.5-2.26,1.73,1.73,0,0,0-1.47-.66q-2.13,0-2.13,2.73H536.5a7.15,7.15,0,0,1,2.26-5.44,8,8,0,0,1,5.72-2.15,7.31,7.31,0,0,1,5.54,2,8,8,0,0,1,2,5.81v11.18a12.66,12.66,0,0,0,.81,4.81v.38Zm-3.36-4.44a3,3,0,0,0,1.61-.42,2.8,2.8,0,0,0,1-1V1425h-1.36a2.83,2.83,0,0,0-2.29,1,4.13,4.13,0,0,0-.83,2.7Q541.81,1431.32,543.7,1431.32Z"
          transform="translate(-18.72 -98.5)"/>
    <path class="cls-3"
          d="M586.48,1422.24q0,7.93-3.93,11.54l4.05,4-3.72,3.73-5.39-5.38-1.55.11a9.25,9.25,0,0,1-7.78-3.68q-2.8-3.69-2.82-10.19v-5q0-6.58,2.79-10.29a10,10,0,0,1,15.43-.14q2.82,3.55,2.92,10Zm-5.94-5a14,14,0,0,0-1.14-6.46,4,4,0,0,0-7-.06,13.53,13.53,0,0,0-1.17,6.19v5.29a14,14,0,0,0,1.16,6.49,3.78,3.78,0,0,0,3.53,2.08,3.7,3.7,0,0,0,3.45-2.07,13.9,13.9,0,0,0,1.15-6.34Z"
          transform="translate(-18.72 -98.5)"/>
    <path class="cls-3"
          d="M601.16,1433.58a5.46,5.46,0,0,1-4.75,2.62,5.15,5.15,0,0,1-4.54-2.25c-1-1.51-1.55-3.69-1.55-6.56V1412H596v15.56c0,2.31.73,3.47,2.11,3.47a2.92,2.92,0,0,0,2.82-1.84V1412h5.73v23.78h-5.35Z"
          transform="translate(-18.72 -98.5)"/>
    <path class="cls-3" d="M616.84,1435.76h-5.69V1412h5.69Zm-1.64-33.42h6.39l-5.59,6.81h-4.75Z"
          transform="translate(-18.72 -98.5)"/>
    <path class="cls-3"
          d="M626.88,1412l.16,2.2a5.94,5.94,0,0,1,5.05-2.64,4.68,4.68,0,0,1,4.6,3.21,5.88,5.88,0,0,1,5.33-3.21q5.72,0,5.86,8.64v15.58h-5.69v-15.19a6.06,6.06,0,0,0-.53-2.94,1.89,1.89,0,0,0-1.77-.88q-1.59,0-2.37,2.13l0,.75v16.13h-5.69v-15.14a6.56,6.56,0,0,0-.5-3,1.89,1.89,0,0,0-1.79-.91,2.62,2.62,0,0,0-2.34,1.74v17.27h-5.69V1412Z"
          transform="translate(-18.72 -98.5)"/>
    <path class="cls-3"
          d="M652.08,1405.83a3.37,3.37,0,0,1,.84-2.37,2.91,2.91,0,0,1,2.26-.92,2.88,2.88,0,0,1,2.25.92,3.37,3.37,0,0,1,.84,2.37,3.43,3.43,0,0,1-.83,2.37,3.16,3.16,0,0,1-4.52,0A3.44,3.44,0,0,1,652.08,1405.83Zm6,29.93h-5.71V1412h5.71Z"
          transform="translate(-18.72 -98.5)"/>
    <path class="cls-3"
          d="M670.32,1431q2.48,0,2.52-3.51h5.35a9.17,9.17,0,0,1-2.2,6.28,7.1,7.1,0,0,1-5.55,2.4,7.6,7.6,0,0,1-6.41-2.86c-1.48-1.9-2.23-4.71-2.26-8.41V1423q0-5.61,2.19-8.55a7.51,7.51,0,0,1,6.44-3,7.06,7.06,0,0,1,5.67,2.43c1.39,1.62,2.09,3.92,2.12,6.89h-5.35a6.81,6.81,0,0,0-.61-3.08,2,2,0,0,0-1.93-1.07,2.24,2.24,0,0,0-2.13,1.15,10.53,10.53,0,0,0-.68,4.47v2.42a20.7,20.7,0,0,0,.26,4,3.14,3.14,0,0,0,.86,1.7A2.52,2.52,0,0,0,670.32,1431Z"
          transform="translate(-18.72 -98.5)"/>
    <path class="cls-3"
          d="M691.74,1435.76a9.37,9.37,0,0,1-.48-1.85,4.74,4.74,0,0,1-4.14,2.29,5.87,5.87,0,0,1-4.54-2,7.31,7.31,0,0,1-1.8-5.12,7.55,7.55,0,0,1,2.18-5.78,9,9,0,0,1,6.29-2.09H691v-1.91a3.78,3.78,0,0,0-.51-2.26,1.71,1.71,0,0,0-1.46-.66c-1.43,0-2.14.91-2.14,2.73h-5.69a7.15,7.15,0,0,1,2.27-5.44,8,8,0,0,1,5.72-2.15,7.34,7.34,0,0,1,5.54,2,8.05,8.05,0,0,1,2,5.81v11.18a12.68,12.68,0,0,0,.8,4.81v.38Zm-3.36-4.44a2.92,2.92,0,0,0,2.6-1.41V1425h-1.37a2.79,2.79,0,0,0-2.28,1,4.08,4.08,0,0,0-.84,2.7Q686.49,1431.32,688.38,1431.32Z"
          transform="translate(-18.72 -98.5)"/>
    <path class="cls-3"
          d="M730.42,1425.1q-.23,5.48-2.82,8.28a9.45,9.45,0,0,1-7.32,2.82,8.89,8.89,0,0,1-7.61-3.57q-2.65-3.57-2.65-10.19v-5.38q0-6.6,2.74-10.16a9,9,0,0,1,7.6-3.57q4.78,0,7.27,2.92c1.66,2,2.6,4.74,2.83,8.39h-5.94a9.29,9.29,0,0,0-.95-4.67,3.63,3.63,0,0,0-3.21-1.28,3.51,3.51,0,0,0-3.36,1.81c-.66,1.21-1,3.2-1,6v6q0,4.77,1,6.55a3.51,3.51,0,0,0,3.35,1.78,3.71,3.71,0,0,0,3.22-1.25c.59-.82.92-2.32,1-4.49Z"
          transform="translate(-18.72 -98.5)"/>
    <path class="cls-3"
          d="M733.11,1423.1q0-5.4,2.33-8.48a8.35,8.35,0,0,1,12.95,0q2.34,3.08,2.34,8.53v1.51q0,5.43-2.31,8.48a8.41,8.41,0,0,1-13,0q-2.32-3.06-2.32-8.51Zm5.71,1.56q0,6.38,3.12,6.37,2.88,0,3.1-5.31l0-2.62a10.77,10.77,0,0,0-.83-4.82,2.55,2.55,0,0,0-2.33-1.57,2.48,2.48,0,0,0-2.26,1.57,10.8,10.8,0,0,0-.82,4.82Z"
          transform="translate(-18.72 -98.5)"/>
    <path class="cls-3"
          d="M759.62,1412l.16,2.2a5.93,5.93,0,0,1,5.05-2.64,4.69,4.69,0,0,1,4.6,3.21,5.88,5.88,0,0,1,5.33-3.21q5.72,0,5.85,8.64v15.58h-5.69v-15.19a6.08,6.08,0,0,0-.52-2.94,1.89,1.89,0,0,0-1.77-.88q-1.59,0-2.37,2.13l0,.75v16.13h-5.69v-15.14a6.41,6.41,0,0,0-.51-3,1.87,1.87,0,0,0-1.79-.91,2.61,2.61,0,0,0-2.33,1.74v17.27h-5.69V1412Z"
          transform="translate(-18.72 -98.5)"/>
    <path class="cls-3"
          d="M801.77,1424.62c0,3.73-.58,6.6-1.76,8.59a5.71,5.71,0,0,1-5.24,3,5,5,0,0,1-4.26-2.35v11.05h-5.69V1412h5.27l.2,2.18a5,5,0,0,1,4.44-2.62,5.81,5.81,0,0,1,5.24,2.77c1.17,1.85,1.78,4.68,1.8,8.48Zm-5.67-1.56a12.22,12.22,0,0,0-.69-4.88,2.43,2.43,0,0,0-2.35-1.43,2.68,2.68,0,0,0-2.55,1.61v11.14a2.67,2.67,0,0,0,2.59,1.53,2.36,2.36,0,0,0,2.35-1.56,13.52,13.52,0,0,0,.65-4.85Z"
          transform="translate(-18.72 -98.5)"/>
    <path class="cls-3"
          d="M815.91,1433.58a5.46,5.46,0,0,1-4.75,2.62,5.16,5.16,0,0,1-4.54-2.25,11.6,11.6,0,0,1-1.55-6.56V1412h5.69v15.56c0,2.31.73,3.47,2.11,3.47a2.92,2.92,0,0,0,2.82-1.84V1412h5.73v23.78h-5.35Z"
          transform="translate(-18.72 -98.5)"/>
    <path class="cls-3"
          d="M832.1,1406.14V1412H835v4.66H832.1v11.82a3.84,3.84,0,0,0,.35,1.94,1.53,1.53,0,0,0,1.36.52,5,5,0,0,0,1.35-.15l0,4.83a8.13,8.13,0,0,1-3.14.6q-5.51,0-5.57-6.91v-12.65h-2.52V1412h2.52v-5.84Z"
          transform="translate(-18.72 -98.5)"/>
    <path class="cls-3"
          d="M848.47,1435.76a9.37,9.37,0,0,1-.48-1.85,4.74,4.74,0,0,1-4.14,2.29,5.87,5.87,0,0,1-4.54-2,7.31,7.31,0,0,1-1.8-5.12,7.55,7.55,0,0,1,2.18-5.78,9,9,0,0,1,6.29-2.09h1.73v-1.91a3.78,3.78,0,0,0-.51-2.26,1.71,1.71,0,0,0-1.46-.66c-1.43,0-2.14.91-2.14,2.73h-5.69a7.15,7.15,0,0,1,2.27-5.44,8,8,0,0,1,5.72-2.15,7.34,7.34,0,0,1,5.54,2,8,8,0,0,1,2,5.81v11.18a12.68,12.68,0,0,0,.8,4.81v.38Zm-3.36-4.44a2.92,2.92,0,0,0,2.6-1.41V1425h-1.37a2.79,2.79,0,0,0-2.28,1,4.08,4.08,0,0,0-.84,2.7Q843.22,1431.32,845.11,1431.32Z"
          transform="translate(-18.72 -98.5)"/>
    <path class="cls-3"
          d="M865.39,1431q2.46,0,2.51-3.51h5.35a9.21,9.21,0,0,1-2.19,6.28,7.13,7.13,0,0,1-5.55,2.4,7.62,7.62,0,0,1-6.42-2.86c-1.47-1.9-2.23-4.71-2.25-8.41V1423q0-5.61,2.18-8.55a7.52,7.52,0,0,1,6.45-3,7.06,7.06,0,0,1,5.67,2.43q2.07,2.43,2.11,6.89H867.9a6.82,6.82,0,0,0-.6-3.08,2,2,0,0,0-1.93-1.07,2.25,2.25,0,0,0-2.14,1.15,10.69,10.69,0,0,0-.68,4.47v2.42a21.54,21.54,0,0,0,.26,4,3.15,3.15,0,0,0,.87,1.7A2.52,2.52,0,0,0,865.39,1431Z"
          transform="translate(-18.72 -98.5)"/>
    <path class="cls-3"
          d="M876.47,1405.83a3.37,3.37,0,0,1,.84-2.37,3.22,3.22,0,0,1,4.51,0,3.37,3.37,0,0,1,.84,2.37,3.48,3.48,0,0,1-.83,2.37,3.18,3.18,0,0,1-4.53,0A3.48,3.48,0,0,1,876.47,1405.83Zm6,29.93h-5.71V1412h5.71Z"
          transform="translate(-18.72 -98.5)"/>
    <path class="cls-3"
          d="M886.18,1423.1q0-5.4,2.33-8.48a8.36,8.36,0,0,1,13,0q2.32,3.08,2.33,8.53v1.51q0,5.43-2.31,8.48a8.41,8.41,0,0,1-13,0c-1.54-2-2.32-4.88-2.32-8.51Zm5.71,1.56q0,6.38,3.12,6.37,2.88,0,3.1-5.31l0-2.62a10.77,10.77,0,0,0-.83-4.82,2.54,2.54,0,0,0-2.33-1.57,2.48,2.48,0,0,0-2.26,1.57,10.8,10.8,0,0,0-.82,4.82Z"
          transform="translate(-18.72 -98.5)"/>
    <path class="cls-3"
          d="M912.55,1412l.16,2.35a5.89,5.89,0,0,1,5-2.79q5.61,0,5.77,8.59v15.63h-5.71V1420.6a5.89,5.89,0,0,0-.56-2.94,2.09,2.09,0,0,0-1.94-.91,2.66,2.66,0,0,0-2.41,1.74v17.27H907.2V1412Z"
          transform="translate(-18.72 -98.5)"/>
    <path class="cls-3"
          d="M938,1435.76a10,10,0,0,1-.49-1.85,4.71,4.71,0,0,1-4.14,2.29,5.86,5.86,0,0,1-4.53-2,7.31,7.31,0,0,1-1.8-5.12,7.51,7.51,0,0,1,2.18-5.78,9,9,0,0,1,6.28-2.09h1.73v-1.91a3.79,3.79,0,0,0-.5-2.26,1.72,1.72,0,0,0-1.47-.66q-2.13,0-2.13,2.73h-5.69a7.15,7.15,0,0,1,2.26-5.44,8,8,0,0,1,5.72-2.15,7.31,7.31,0,0,1,5.54,2,8,8,0,0,1,2,5.81v11.18a12.49,12.49,0,0,0,.8,4.81v.38Zm-3.36-4.44a3,3,0,0,0,1.61-.42,2.8,2.8,0,0,0,1-1V1425h-1.36a2.83,2.83,0,0,0-2.29,1,4.13,4.13,0,0,0-.83,2.7Q932.7,1431.32,934.59,1431.32Z"
          transform="translate(-18.72 -98.5)"/>
    <path class="cls-3" d="M953,1435.76h-5.71V1402H953Z" transform="translate(-18.72 -98.5)"/>
    <path class="cls-3"
          d="M975.66,1436.2a8.53,8.53,0,0,1-6.84-2.86c-1.64-1.9-2.45-4.63-2.45-8.17v-1.89c0-3.75.75-6.65,2.25-8.68a7.53,7.53,0,0,1,6.46-3.06,7.13,7.13,0,0,1,6.17,2.87c1.38,1.91,2.08,4.73,2.11,8.48v3H972a6.9,6.9,0,0,0,1.06,3.87A3.45,3.45,0,0,0,976,1431a6.16,6.16,0,0,0,4.77-2.13l2.23,3.76a7.52,7.52,0,0,1-3,2.56A9.68,9.68,0,0,1,975.66,1436.2Zm-3.58-14.59h5.69V1421a7.23,7.23,0,0,0-.64-3.23,2.18,2.18,0,0,0-2.09-1.1,2.32,2.32,0,0,0-2.17,1.16A8.63,8.63,0,0,0,972.08,1421.61Z"
          transform="translate(-18.72 -98.5)"/>
    <path class="cls-3"
          d="M83.7,1489.76a9.37,9.37,0,0,1-.48-1.85,4.74,4.74,0,0,1-4.14,2.29,5.87,5.87,0,0,1-4.54-2,7.31,7.31,0,0,1-1.8-5.12,7.55,7.55,0,0,1,2.18-5.78,9,9,0,0,1,6.29-2.09h1.73v-1.91a3.87,3.87,0,0,0-.5-2.26,1.75,1.75,0,0,0-1.47-.66q-2.13,0-2.13,2.73h-5.7a7.15,7.15,0,0,1,2.27-5.44,8,8,0,0,1,5.72-2.15,7.34,7.34,0,0,1,5.54,2,8,8,0,0,1,2,5.81v11.18a12.68,12.68,0,0,0,.8,4.81v.38Zm-3.36-4.44a3,3,0,0,0,1.61-.42,2.84,2.84,0,0,0,1-1V1479H81.57a2.79,2.79,0,0,0-2.28,1,4.08,4.08,0,0,0-.84,2.7Q78.45,1485.32,80.34,1485.32Z"
          transform="translate(-18.72 -98.5)"/>
    <path class="cls-3"
          d="M99.37,1460.14V1466h2.92v4.66H99.37v11.82a3.84,3.84,0,0,0,.35,1.94,1.53,1.53,0,0,0,1.36.52,5,5,0,0,0,1.35-.15l0,4.83a8.13,8.13,0,0,1-3.14.6q-5.52,0-5.57-6.91v-12.65H91.16V1466h2.52v-5.84Z"
          transform="translate(-18.72 -98.5)"/>
    <path class="cls-3"
          d="M116.1,1487.58a5.45,5.45,0,0,1-4.74,2.62,5.17,5.17,0,0,1-4.55-2.25,11.6,11.6,0,0,1-1.55-6.56V1466H111v15.56c0,2.31.73,3.47,2.12,3.47a2.91,2.91,0,0,0,2.81-1.84V1466h5.73v23.78h-5.35Z"
          transform="translate(-18.72 -98.5)"/>
    <path class="cls-3"
          d="M136,1489.76a9.37,9.37,0,0,1-.48-1.85,4.74,4.74,0,0,1-4.14,2.29,5.87,5.87,0,0,1-4.54-2,7.31,7.31,0,0,1-1.8-5.12,7.55,7.55,0,0,1,2.18-5.78,9,9,0,0,1,6.29-2.09h1.73v-1.91a3.87,3.87,0,0,0-.5-2.26,1.75,1.75,0,0,0-1.47-.66q-2.13,0-2.13,2.73h-5.7a7.15,7.15,0,0,1,2.27-5.44,8,8,0,0,1,5.72-2.15,7.32,7.32,0,0,1,5.54,2,8,8,0,0,1,2,5.81v11.18a12.68,12.68,0,0,0,.8,4.81v.38Zm-3.36-4.44a3,3,0,0,0,1.61-.42,2.84,2.84,0,0,0,1-1V1479h-1.37a2.81,2.81,0,0,0-2.28,1,4.08,4.08,0,0,0-.84,2.7Q130.76,1485.32,132.65,1485.32Z"
          transform="translate(-18.72 -98.5)"/>
    <path class="cls-3" d="M151,1489.76h-5.72V1456H151Z" transform="translate(-18.72 -98.5)"/>
    <path class="cls-3"
          d="M160.79,1466l.16,2.2a6,6,0,0,1,5.05-2.64,4.7,4.7,0,0,1,4.61,3.21,5.85,5.85,0,0,1,5.33-3.21q5.7,0,5.85,8.64v15.58H176.1v-15.19a6.06,6.06,0,0,0-.53-2.94,1.89,1.89,0,0,0-1.77-.88q-1.59,0-2.37,2.13l0,.75v16.13h-5.69v-15.14a6.56,6.56,0,0,0-.5-3,1.89,1.89,0,0,0-1.79-.91,2.62,2.62,0,0,0-2.34,1.74v17.27h-5.69V1466Z"
          transform="translate(-18.72 -98.5)"/>
    <path class="cls-3"
          d="M194.78,1490.2a8.53,8.53,0,0,1-6.84-2.86c-1.63-1.9-2.45-4.63-2.45-8.17v-1.89c0-3.75.75-6.65,2.25-8.68a7.53,7.53,0,0,1,6.46-3.06,7.13,7.13,0,0,1,6.17,2.87c1.38,1.91,2.09,4.73,2.11,8.48v3H191.16a6.82,6.82,0,0,0,1.07,3.87,3.42,3.42,0,0,0,2.91,1.22,6.16,6.16,0,0,0,4.77-2.13l2.23,3.76a7.52,7.52,0,0,1-3,2.56A9.68,9.68,0,0,1,194.78,1490.2Zm-3.58-14.59h5.69V1475a7.23,7.23,0,0,0-.64-3.23,2.17,2.17,0,0,0-2.09-1.1,2.32,2.32,0,0,0-2.17,1.16A8.63,8.63,0,0,0,191.2,1475.61Z"
          transform="translate(-18.72 -98.5)"/>
    <path class="cls-3"
          d="M210.91,1466l.16,2.35a5.89,5.89,0,0,1,5.05-2.79q5.61,0,5.77,8.59v15.63h-5.71V1474.6a6,6,0,0,0-.55-2.94,2.11,2.11,0,0,0-1.95-.91,2.66,2.66,0,0,0-2.41,1.74v17.27h-5.71V1466Z"
          transform="translate(-18.72 -98.5)"/>
    <path class="cls-3"
          d="M232.59,1460.14V1466h2.92v4.66h-2.92v11.82a3.84,3.84,0,0,0,.35,1.94,1.53,1.53,0,0,0,1.36.52,5,5,0,0,0,1.35-.15l0,4.83a8.13,8.13,0,0,1-3.14.6q-5.52,0-5.57-6.91v-12.65h-2.52V1466h2.52v-5.84Z"
          transform="translate(-18.72 -98.5)"/>
    <path class="cls-3"
          d="M247.41,1490.2a8.53,8.53,0,0,1-6.84-2.86c-1.63-1.9-2.45-4.63-2.45-8.17v-1.89c0-3.75.75-6.65,2.25-8.68a7.54,7.54,0,0,1,6.46-3.06,7.13,7.13,0,0,1,6.17,2.87c1.38,1.91,2.09,4.73,2.11,8.48v3H243.79a6.9,6.9,0,0,0,1.07,3.87,3.43,3.43,0,0,0,2.91,1.22,6.13,6.13,0,0,0,4.77-2.13l2.23,3.76a7.49,7.49,0,0,1-3,2.56A9.72,9.72,0,0,1,247.41,1490.2Zm-3.58-14.59h5.69V1475a7.09,7.09,0,0,0-.64-3.23,2.17,2.17,0,0,0-2.09-1.1,2.32,2.32,0,0,0-2.16,1.16A8.6,8.6,0,0,0,243.83,1475.61Z"
          transform="translate(-18.72 -98.5)"/>
    <path class="cls-3"
          d="M273,1466l.17,2.35a5.88,5.88,0,0,1,5-2.79q5.61,0,5.78,8.59v15.63H278.3V1474.6a5.9,5.9,0,0,0-.55-2.94,2.1,2.1,0,0,0-1.94-.91,2.65,2.65,0,0,0-2.41,1.74v17.27h-5.72V1466Z"
          transform="translate(-18.72 -98.5)"/>
    <path class="cls-3"
          d="M298.44,1489.76a8.58,8.58,0,0,1-.49-1.85,4.74,4.74,0,0,1-4.14,2.29,5.88,5.88,0,0,1-4.54-2,7.31,7.31,0,0,1-1.8-5.12,7.52,7.52,0,0,1,2.19-5.78,9,9,0,0,1,6.28-2.09h1.73v-1.91a3.87,3.87,0,0,0-.5-2.26,1.75,1.75,0,0,0-1.47-.66q-2.13,0-2.13,2.73h-5.69a7.15,7.15,0,0,1,2.26-5.44,8,8,0,0,1,5.72-2.15,7.32,7.32,0,0,1,5.54,2,8,8,0,0,1,2,5.81v11.18a12.66,12.66,0,0,0,.81,4.81v.38Zm-3.36-4.44a3,3,0,0,0,1.61-.42,2.8,2.8,0,0,0,1-1V1479H296.3a2.82,2.82,0,0,0-2.28,1,4.07,4.07,0,0,0-.83,2.7Q293.19,1485.32,295.08,1485.32Z"
          transform="translate(-18.72 -98.5)"/>
    <path class="cls-3"
          d="M325.77,1490.2a8.5,8.5,0,0,1-6.84-2.86c-1.64-1.9-2.45-4.63-2.45-8.17v-1.89c0-3.75.75-6.65,2.25-8.68a7.52,7.52,0,0,1,6.45-3.06,7.13,7.13,0,0,1,6.18,2.87c1.38,1.91,2.08,4.73,2.11,8.48v3H322.15a6.9,6.9,0,0,0,1.06,3.87,3.44,3.44,0,0,0,2.92,1.22,6.16,6.16,0,0,0,4.77-2.13l2.23,3.76a7.52,7.52,0,0,1-3,2.56A9.71,9.71,0,0,1,325.77,1490.2Zm-3.58-14.59h5.69V1475a7.23,7.23,0,0,0-.64-3.23,2.18,2.18,0,0,0-2.1-1.1,2.32,2.32,0,0,0-2.16,1.16A8.63,8.63,0,0,0,322.19,1475.61Z"
          transform="translate(-18.72 -98.5)"/>
    <path class="cls-3"
          d="M342,1466l.16,2.2a5.93,5.93,0,0,1,5.05-2.64,4.69,4.69,0,0,1,4.6,3.21,5.88,5.88,0,0,1,5.33-3.21q5.71,0,5.85,8.64v15.58h-5.69v-15.19a6.08,6.08,0,0,0-.52-2.94,1.89,1.89,0,0,0-1.77-.88q-1.59,0-2.37,2.13l0,.75v16.13H347v-15.14a6.41,6.41,0,0,0-.51-3,1.87,1.87,0,0,0-1.79-.91,2.61,2.61,0,0,0-2.33,1.74v17.27h-5.69V1466Z"
          transform="translate(-18.72 -98.5)"/>
    <path class="cls-3"
          d="M384.19,1478.62c0,3.73-.59,6.6-1.76,8.59a5.71,5.71,0,0,1-5.24,3,5,5,0,0,1-4.26-2.35v11.05h-5.69V1466h5.27l.2,2.18a5,5,0,0,1,4.44-2.62,5.81,5.81,0,0,1,5.24,2.77q1.75,2.78,1.8,8.48Zm-5.67-1.56a12.22,12.22,0,0,0-.69-4.88,2.43,2.43,0,0,0-2.35-1.43,2.68,2.68,0,0,0-2.55,1.61v11.14a2.67,2.67,0,0,0,2.59,1.53,2.36,2.36,0,0,0,2.35-1.56,13.52,13.52,0,0,0,.65-4.85Z"
          transform="translate(-18.72 -98.5)"/>
    <path class="cls-3"
          d="M398.37,1472l-1.89-.17a3.11,3.11,0,0,0-3.16,2.24v15.71h-5.71V1466H393l.16,2.57c.9-2,2.14-3,3.72-3a3.67,3.67,0,0,1,1.57.29Z"
          transform="translate(-18.72 -98.5)"/>
    <path class="cls-3"
          d="M409.69,1490.2a8.5,8.5,0,0,1-6.83-2.86c-1.64-1.9-2.46-4.63-2.46-8.17v-1.89c0-3.75.75-6.65,2.25-8.68a7.55,7.55,0,0,1,6.46-3.06,7.11,7.11,0,0,1,6.17,2.87c1.39,1.91,2.09,4.73,2.12,8.48v3H406.07a6.9,6.9,0,0,0,1.07,3.87,3.44,3.44,0,0,0,2.92,1.22,6.13,6.13,0,0,0,4.76-2.13l2.23,3.76a7.49,7.49,0,0,1-3,2.56A9.72,9.72,0,0,1,409.69,1490.2Zm-3.58-14.59h5.7V1475a7.21,7.21,0,0,0-.65-3.23,2.17,2.17,0,0,0-2.09-1.1,2.32,2.32,0,0,0-2.16,1.16A8.6,8.6,0,0,0,406.11,1475.61Z"
          transform="translate(-18.72 -98.5)"/>
    <path class="cls-3"
          d="M430.25,1483.39a2,2,0,0,0-.7-1.47,13.59,13.59,0,0,0-3.08-1.81,12.67,12.67,0,0,1-4.84-3.23,6.48,6.48,0,0,1-1.32-4.15,6.93,6.93,0,0,1,2.06-5.15,7.44,7.44,0,0,1,5.46-2,8,8,0,0,1,5.74,2,7.08,7.08,0,0,1,2.15,5.42H430c0-1.93-.74-2.9-2.22-2.9a1.94,1.94,0,0,0-1.48.62,2.38,2.38,0,0,0-.59,1.71,1.88,1.88,0,0,0,.65,1.4,14.16,14.16,0,0,0,3,1.72,12.45,12.45,0,0,1,4.92,3.13,6.74,6.74,0,0,1,1.44,4.47,6.49,6.49,0,0,1-2.19,5.12,8.38,8.38,0,0,1-5.76,1.94,8.53,8.53,0,0,1-4.22-1,7.39,7.39,0,0,1-2.86-2.85,7.76,7.76,0,0,1-1-3.93h5.41a4.1,4.1,0,0,0,.69,2.44,2.61,2.61,0,0,0,2.15.81A2,2,0,0,0,430.25,1483.39Z"
          transform="translate(-18.72 -98.5)"/>
    <path class="cls-3"
          d="M449.66,1489.76a8.58,8.58,0,0,1-.49-1.85,4.74,4.74,0,0,1-4.14,2.29,5.88,5.88,0,0,1-4.54-2,7.31,7.31,0,0,1-1.8-5.12,7.52,7.52,0,0,1,2.19-5.78,9,9,0,0,1,6.28-2.09h1.73v-1.91a3.87,3.87,0,0,0-.5-2.26,1.75,1.75,0,0,0-1.47-.66q-2.13,0-2.13,2.73H439.1a7.15,7.15,0,0,1,2.26-5.44,8,8,0,0,1,5.72-2.15,7.32,7.32,0,0,1,5.54,2,8,8,0,0,1,2,5.81v11.18a12.66,12.66,0,0,0,.81,4.81v.38Zm-3.36-4.44a3,3,0,0,0,1.61-.42,2.8,2.8,0,0,0,1-1V1479h-1.37a2.82,2.82,0,0,0-2.28,1,4.07,4.07,0,0,0-.83,2.7Q444.41,1485.32,446.3,1485.32Z"
          transform="translate(-18.72 -98.5)"/>
    <path class="cls-3" d="M489,1489.76h-5.89v-13.69h-8.73v13.69h-5.91v-32h5.91v12.94h8.73v-12.94H489Z"
          transform="translate(-18.72 -98.5)"/>
    <path class="cls-3"
          d="M492.82,1477.1c0-3.6.77-6.43,2.33-8.48a8.35,8.35,0,0,1,13,0c1.56,2.05,2.33,4.89,2.33,8.53v1.51q0,5.43-2.31,8.48a8.4,8.4,0,0,1-13,0q-2.33-3.06-2.32-8.51Zm5.71,1.56q0,6.38,3.11,6.37,2.88,0,3.1-5.31l0-2.62a10.8,10.8,0,0,0-.82-4.82,2.55,2.55,0,0,0-2.34-1.57,2.49,2.49,0,0,0-2.26,1.57,11,11,0,0,0-.81,4.82Z"
          transform="translate(-18.72 -98.5)"/>
    <path class="cls-3" d="M520.81,1481l2.76-15h5.93l-6,23.78H518.1l-6-23.78h6Z" transform="translate(-18.72 -98.5)"/>
    <path class="cls-3"
          d="M532.17,1459.83a3.37,3.37,0,0,1,.85-2.37,3.21,3.21,0,0,1,4.5,0,3.33,3.33,0,0,1,.85,2.37,3.44,3.44,0,0,1-.84,2.37,3.16,3.16,0,0,1-4.52,0A3.44,3.44,0,0,1,532.17,1459.83Zm6,29.93h-5.71V1466h5.71Z"
          transform="translate(-18.72 -98.5)"/>
    <path class="cls-3"
          d="M541.89,1477.1q0-5.4,2.33-8.48a8.35,8.35,0,0,1,12.95,0q2.34,3.08,2.34,8.53v1.51q0,5.43-2.32,8.48a8.4,8.4,0,0,1-13,0q-2.33-3.06-2.32-8.51Zm5.71,1.56q0,6.38,3.12,6.37c1.91,0,2.95-1.77,3.09-5.31l0-2.62a10.8,10.8,0,0,0-.82-4.82,2.55,2.55,0,0,0-2.33-1.57,2.48,2.48,0,0,0-2.26,1.57,10.8,10.8,0,0,0-.82,4.82Z"
          transform="translate(-18.72 -98.5)"/>
    <path class="cls-3"
          d="M568.25,1466l.17,2.35a5.86,5.86,0,0,1,5-2.79q5.61,0,5.78,8.59v15.63h-5.72V1474.6a5.9,5.9,0,0,0-.55-2.94,2.09,2.09,0,0,0-1.94-.91,2.65,2.65,0,0,0-2.41,1.74v17.27H562.9V1466Z"
          transform="translate(-18.72 -98.5)"/>
    <path class="cls-3"
          d="M592.11,1490.2a8.52,8.52,0,0,1-6.84-2.86c-1.64-1.9-2.45-4.63-2.45-8.17v-1.89c0-3.75.75-6.65,2.25-8.68a7.52,7.52,0,0,1,6.45-3.06,7.13,7.13,0,0,1,6.18,2.87c1.38,1.91,2.08,4.73,2.11,8.48v3H588.49a6.9,6.9,0,0,0,1.06,3.87,3.45,3.45,0,0,0,2.92,1.22,6.16,6.16,0,0,0,4.77-2.13l2.23,3.76a7.52,7.52,0,0,1-3,2.56A9.71,9.71,0,0,1,592.11,1490.2Zm-3.58-14.59h5.69V1475a7.23,7.23,0,0,0-.64-3.23,2.18,2.18,0,0,0-2.1-1.1,2.32,2.32,0,0,0-2.16,1.16A8.63,8.63,0,0,0,588.53,1475.61Z"
          transform="translate(-18.72 -98.5)"/>
    <path class="cls-3"
          d="M620.38,1485q2.48,0,2.52-3.51h5.35a9.21,9.21,0,0,1-2.19,6.28,7.13,7.13,0,0,1-5.56,2.4,7.6,7.6,0,0,1-6.41-2.86c-1.48-1.9-2.23-4.71-2.25-8.41V1477c0-3.74.72-6.59,2.18-8.55a7.51,7.51,0,0,1,6.44-3,7.08,7.08,0,0,1,5.68,2.43q2.07,2.43,2.11,6.89H622.9a6.81,6.81,0,0,0-.61-3.08,2,2,0,0,0-1.93-1.07,2.24,2.24,0,0,0-2.13,1.15,10.69,10.69,0,0,0-.68,4.47v2.42a21.54,21.54,0,0,0,.26,4,3.14,3.14,0,0,0,.86,1.7A2.55,2.55,0,0,0,620.38,1485Z"
          transform="translate(-18.72 -98.5)"/>
    <path class="cls-3"
          d="M630.8,1477.1q0-5.4,2.34-8.48a8.35,8.35,0,0,1,13,0q2.32,3.08,2.33,8.53v1.51q0,5.43-2.31,8.48a8.4,8.4,0,0,1-13,0q-2.32-3.06-2.33-8.51Zm5.71,1.56q0,6.38,3.12,6.37,2.88,0,3.1-5.31l0-2.62a10.77,10.77,0,0,0-.83-4.82,2.54,2.54,0,0,0-2.33-1.57,2.49,2.49,0,0,0-2.26,1.57,10.94,10.94,0,0,0-.82,4.82Z"
          transform="translate(-18.72 -98.5)"/>
    <path class="cls-3"
          d="M657.31,1466l.16,2.2a5.94,5.94,0,0,1,5-2.64,4.69,4.69,0,0,1,4.6,3.21,5.88,5.88,0,0,1,5.33-3.21q5.71,0,5.86,8.64v15.58h-5.7v-15.19a6.08,6.08,0,0,0-.52-2.94,1.89,1.89,0,0,0-1.77-.88q-1.59,0-2.37,2.13l0,.75v16.13H662.3v-15.14a6.41,6.41,0,0,0-.51-3,1.87,1.87,0,0,0-1.79-.91,2.62,2.62,0,0,0-2.33,1.74v17.27H652V1466Z"
          transform="translate(-18.72 -98.5)"/>
    <path class="cls-3"
          d="M681.85,1477.1c0-3.6.77-6.43,2.33-8.48a8.35,8.35,0,0,1,13,0c1.56,2.05,2.33,4.89,2.33,8.53v1.51q0,5.43-2.31,8.48a8.4,8.4,0,0,1-13,0q-2.32-3.06-2.32-8.51Zm5.71,1.56q0,6.38,3.11,6.37,2.88,0,3.1-5.31l0-2.62a10.8,10.8,0,0,0-.82-4.82,2.55,2.55,0,0,0-2.34-1.57,2.5,2.5,0,0,0-2.26,1.57,11,11,0,0,0-.81,4.82Z"
          transform="translate(-18.72 -98.5)"/>
    <path class="cls-3"
          d="M712.78,1489.76v-32h7.74a10.2,10.2,0,0,1,8.18,3.56q3,3.56,3.1,9.75v5.19q0,6.3-3,9.9a10.44,10.44,0,0,1-8.4,3.59Zm5.91-26.61v21.25h1.77c2,0,3.36-.57,4.16-1.71s1.23-3.09,1.27-5.87v-5.56c0-3-.38-5.08-1.15-6.25a4.47,4.47,0,0,0-3.9-1.86Z"
          transform="translate(-18.72 -98.5)"/>
    <path class="cls-3"
          d="M746.1,1489.76a9.37,9.37,0,0,1-.48-1.85,4.74,4.74,0,0,1-4.14,2.29,5.87,5.87,0,0,1-4.54-2,7.31,7.31,0,0,1-1.8-5.12,7.55,7.55,0,0,1,2.18-5.78,9,9,0,0,1,6.29-2.09h1.73v-1.91a3.78,3.78,0,0,0-.51-2.26,1.71,1.71,0,0,0-1.46-.66q-2.13,0-2.13,2.73h-5.7a7.15,7.15,0,0,1,2.27-5.44,8,8,0,0,1,5.72-2.15,7.34,7.34,0,0,1,5.54,2,8,8,0,0,1,2,5.81v11.18a12.68,12.68,0,0,0,.8,4.81v.38Zm-3.36-4.44a2.92,2.92,0,0,0,2.6-1.41V1479H744a2.79,2.79,0,0,0-2.28,1,4.08,4.08,0,0,0-.84,2.7Q740.85,1485.32,742.74,1485.32Z"
          transform="translate(-18.72 -98.5)"/>
    <path class="cls-3"
          d="M761.77,1460.14V1466h2.92v4.66h-2.92v11.82a3.84,3.84,0,0,0,.35,1.94,1.53,1.53,0,0,0,1.36.52,5,5,0,0,0,1.35-.15l0,4.83a8.13,8.13,0,0,1-3.14.6q-5.52,0-5.57-6.91v-12.65h-2.52V1466h2.52v-5.84Z"
          transform="translate(-18.72 -98.5)"/>
    <path class="cls-3"
          d="M778.14,1489.76a9.37,9.37,0,0,1-.48-1.85,4.74,4.74,0,0,1-4.15,2.29,5.86,5.86,0,0,1-4.53-2,7.31,7.31,0,0,1-1.8-5.12,7.55,7.55,0,0,1,2.18-5.78,9,9,0,0,1,6.29-2.09h1.73v-1.91a3.78,3.78,0,0,0-.51-2.26,1.71,1.71,0,0,0-1.46-.66c-1.43,0-2.14.91-2.14,2.73h-5.69a7.18,7.18,0,0,1,2.26-5.44,8,8,0,0,1,5.73-2.15,7.34,7.34,0,0,1,5.54,2,8.05,8.05,0,0,1,2,5.81v11.18a12.49,12.49,0,0,0,.8,4.81v.38Zm-3.36-4.44a2.92,2.92,0,0,0,2.6-1.41V1479H776a2.79,2.79,0,0,0-2.28,1,4.08,4.08,0,0,0-.84,2.7Q772.89,1485.32,774.78,1485.32Z"
          transform="translate(-18.72 -98.5)"/>
    <path class="cls-3"
          d="M809.33,1481.36a4.24,4.24,0,0,0-.91-2.95,10.35,10.35,0,0,0-3.33-2.08,15.39,15.39,0,0,1-6.34-4.27,9.1,9.1,0,0,1-1.93-5.79,8.45,8.45,0,0,1,2.63-6.49,10.14,10.14,0,0,1,11.47-1.21,8.27,8.27,0,0,1,3.25,3.5,11.27,11.27,0,0,1,1.14,5.14h-5.9a5.66,5.66,0,0,0-.87-3.41,2.93,2.93,0,0,0-2.52-1.18,3,3,0,0,0-2.42,1,4,4,0,0,0-.86,2.69,3.49,3.49,0,0,0,1,2.39,11.29,11.29,0,0,0,3.42,2.21,14.5,14.5,0,0,1,6.23,4.15,9.83,9.83,0,0,1,1.94,6.26,8.64,8.64,0,0,1-2.44,6.53,9.13,9.13,0,0,1-6.61,2.35,10.59,10.59,0,0,1-5.17-1.28,9.07,9.07,0,0,1-3.65-3.64,11.38,11.38,0,0,1-1.32-5.61H802a6.48,6.48,0,0,0,1,4,3.84,3.84,0,0,0,3.22,1.26Q809.33,1485,809.33,1481.36Z"
          transform="translate(-18.72 -98.5)"/>
    <path class="cls-3"
          d="M826.79,1485q2.48,0,2.51-3.51h5.35a9.12,9.12,0,0,1-2.19,6.28,7.1,7.1,0,0,1-5.55,2.4,7.6,7.6,0,0,1-6.41-2.86c-1.48-1.9-2.23-4.71-2.26-8.41V1477q0-5.61,2.19-8.55a7.51,7.51,0,0,1,6.44-3,7.06,7.06,0,0,1,5.67,2.43,10.44,10.44,0,0,1,2.11,6.89H829.3a6.69,6.69,0,0,0-.6-3.08,2,2,0,0,0-1.93-1.07,2.24,2.24,0,0,0-2.13,1.15,10.53,10.53,0,0,0-.68,4.47v2.42a20.7,20.7,0,0,0,.26,4,3.14,3.14,0,0,0,.86,1.7A2.52,2.52,0,0,0,826.79,1485Z"
          transform="translate(-18.72 -98.5)"/>
    <path class="cls-3"
          d="M837.87,1459.83a3.33,3.33,0,0,1,.85-2.37,3.21,3.21,0,0,1,4.5,0,3.33,3.33,0,0,1,.85,2.37,3.44,3.44,0,0,1-.84,2.37,3.16,3.16,0,0,1-4.52,0A3.44,3.44,0,0,1,837.87,1459.83Zm6,29.93h-5.72V1466h5.72Z"
          transform="translate(-18.72 -98.5)"/>
    <path class="cls-3"
          d="M857,1490.2a8.53,8.53,0,0,1-6.84-2.86c-1.63-1.9-2.45-4.63-2.45-8.17v-1.89c0-3.75.75-6.65,2.25-8.68a7.53,7.53,0,0,1,6.46-3.06,7.13,7.13,0,0,1,6.17,2.87c1.38,1.91,2.08,4.73,2.11,8.48v3H853.42a6.9,6.9,0,0,0,1.06,3.87,3.46,3.46,0,0,0,2.92,1.22,6.16,6.16,0,0,0,4.77-2.13l2.23,3.76a7.52,7.52,0,0,1-3,2.56A9.68,9.68,0,0,1,857,1490.2Zm-3.58-14.59h5.69V1475a7.23,7.23,0,0,0-.64-3.23,2.18,2.18,0,0,0-2.09-1.1,2.32,2.32,0,0,0-2.17,1.16A8.63,8.63,0,0,0,853.46,1475.61Z"
          transform="translate(-18.72 -98.5)"/>
    <path class="cls-3"
          d="M873.17,1466l.16,2.35a5.89,5.89,0,0,1,5-2.79q5.61,0,5.77,8.59v15.63h-5.71V1474.6a5.89,5.89,0,0,0-.56-2.94,2.08,2.08,0,0,0-1.94-.91,2.66,2.66,0,0,0-2.41,1.74v17.27h-5.71V1466Z"
          transform="translate(-18.72 -98.5)"/>
    <path class="cls-3"
          d="M894.85,1460.14V1466h2.92v4.66h-2.92v11.82a3.84,3.84,0,0,0,.35,1.94,1.53,1.53,0,0,0,1.36.52,5,5,0,0,0,1.35-.15l0,4.83a8.13,8.13,0,0,1-3.14.6q-5.52,0-5.57-6.91v-12.65h-2.52V1466h2.52v-5.84Z"
          transform="translate(-18.72 -98.5)"/>
    <path class="cls-3"
          d="M900.88,1459.83a3.33,3.33,0,0,1,.85-2.37,3.21,3.21,0,0,1,4.5,0,3.37,3.37,0,0,1,.85,2.37,3.44,3.44,0,0,1-.84,2.37,3.16,3.16,0,0,1-4.52,0A3.44,3.44,0,0,1,900.88,1459.83Zm6,29.93h-5.72V1466h5.72Z"
          transform="translate(-18.72 -98.5)"/>
    <path class="cls-3"
          d="M920.89,1483.39a2,2,0,0,0-.69-1.47,13.49,13.49,0,0,0-3.09-1.81,12.61,12.61,0,0,1-4.83-3.23,6.48,6.48,0,0,1-1.32-4.15,6.93,6.93,0,0,1,2.06-5.15,7.41,7.41,0,0,1,5.46-2,8,8,0,0,1,5.73,2,7,7,0,0,1,2.15,5.42h-5.69c0-1.93-.74-2.9-2.21-2.9a2,2,0,0,0-1.49.62,2.38,2.38,0,0,0-.58,1.71,1.87,1.87,0,0,0,.64,1.4,14.06,14.06,0,0,0,3,1.72,12.45,12.45,0,0,1,4.92,3.13,6.79,6.79,0,0,1,1.43,4.47,6.49,6.49,0,0,1-2.19,5.12,8.37,8.37,0,0,1-5.75,1.94,8.5,8.5,0,0,1-4.22-1,7.42,7.42,0,0,1-2.87-2.85,7.86,7.86,0,0,1-1-3.93h5.41a4,4,0,0,0,.7,2.44,2.59,2.59,0,0,0,2.14.81A2,2,0,0,0,920.89,1483.39Z"
          transform="translate(-18.72 -98.5)"/>
    <path class="cls-3"
          d="M936.58,1460.14V1466h2.92v4.66h-2.92v11.82a3.84,3.84,0,0,0,.35,1.94,1.53,1.53,0,0,0,1.36.52,5,5,0,0,0,1.35-.15l0,4.83a8.13,8.13,0,0,1-3.14.6q-5.51,0-5.57-6.91v-12.65h-2.51V1466h2.51v-5.84Z"
          transform="translate(-18.72 -98.5)"/>
    <path class="cls-3" d="M80.5,1535l2.76-15h5.93l-6,23.78H77.79l-6-23.78h6Z" transform="translate(-18.72 -98.5)"/>
    <path class="cls-3"
          d="M100.4,1544.2a8.5,8.5,0,0,1-6.84-2.86c-1.64-1.9-2.46-4.63-2.46-8.17v-1.89c0-3.75.75-6.65,2.26-8.68a7.52,7.52,0,0,1,6.45-3.06,7.14,7.14,0,0,1,6.18,2.87c1.38,1.91,2.08,4.73,2.11,8.48v3H96.77a7,7,0,0,0,1.07,3.87,3.44,3.44,0,0,0,2.92,1.22,6.13,6.13,0,0,0,4.76-2.13l2.24,3.76a7.52,7.52,0,0,1-3,2.56A9.71,9.71,0,0,1,100.4,1544.2Zm-3.59-14.59h5.7V1529a7.08,7.08,0,0,0-.65-3.23,2.17,2.17,0,0,0-2.09-1.1,2.32,2.32,0,0,0-2.16,1.16A8.75,8.75,0,0,0,96.81,1529.61Z"
          transform="translate(-18.72 -98.5)"/>
    <path class="cls-3"
          d="M116.67,1520l.16,2.2a5.93,5.93,0,0,1,5-2.64,4.69,4.69,0,0,1,4.61,3.21,5.87,5.87,0,0,1,5.33-3.21q5.72,0,5.85,8.64v15.58H132v-15.19a6.08,6.08,0,0,0-.52-2.94,1.89,1.89,0,0,0-1.77-.88c-1.06,0-1.85.71-2.38,2.13l0,.75v16.13h-5.69v-15.14a6.43,6.43,0,0,0-.5-3,1.88,1.88,0,0,0-1.79-.91,2.6,2.6,0,0,0-2.33,1.74v17.27h-5.69V1520Z"
          transform="translate(-18.72 -98.5)"/>
    <path class="cls-3"
          d="M150.59,1531.15c0-3.9.61-6.81,1.81-8.73a5.86,5.86,0,0,1,5.27-2.88,5,5,0,0,1,4.19,2.38V1510h5.73v33.75h-5.17l-.26-2.42a5.17,5.17,0,0,1-4.51,2.86,5.79,5.79,0,0,1-5.22-2.86q-1.8-2.85-1.84-8.39Zm5.72,1.56a12.24,12.24,0,0,0,.68,4.91,2.38,2.38,0,0,0,2.31,1.39,2.76,2.76,0,0,0,2.56-1.65v-10.85a2.72,2.72,0,0,0-2.54-1.76,2.41,2.41,0,0,0-2.29,1.39,11.69,11.69,0,0,0-.72,4.92Z"
          transform="translate(-18.72 -98.5)"/>
    <path class="cls-3"
          d="M182.11,1543.76a9.37,9.37,0,0,1-.48-1.85,4.74,4.74,0,0,1-4.15,2.29,5.86,5.86,0,0,1-4.53-2,7.31,7.31,0,0,1-1.8-5.12,7.55,7.55,0,0,1,2.18-5.78,9,9,0,0,1,6.29-2.09h1.72v-1.91a3.79,3.79,0,0,0-.5-2.26,1.72,1.72,0,0,0-1.47-.66q-2.13,0-2.13,2.73h-5.69a7.15,7.15,0,0,1,2.26-5.44,8,8,0,0,1,5.72-2.15,7.35,7.35,0,0,1,5.55,2,8.05,8.05,0,0,1,2,5.81v11.18a12.49,12.49,0,0,0,.8,4.81v.38Zm-3.36-4.44a3,3,0,0,0,1.61-.42,2.8,2.8,0,0,0,1-1V1533H180a2.83,2.83,0,0,0-2.29,1,4.13,4.13,0,0,0-.83,2.7Q176.86,1539.32,178.75,1539.32Z"
          transform="translate(-18.72 -98.5)"/>
    <path class="cls-3"
          d="M201.9,1526l-1.89-.17a3.11,3.11,0,0,0-3.16,2.24v15.71h-5.71V1520h5.37l.16,2.57c.9-2,2.14-3,3.72-3a3.7,3.7,0,0,1,1.57.29Z"
          transform="translate(-18.72 -98.5)"/>
    <path class="cls-3" d="M215.05,1532.64h-9.83v-5.19h9.83Z" transform="translate(-18.72 -98.5)"/>
    <path class="cls-3"
          d="M225,1520l.16,2.35a5.89,5.89,0,0,1,5-2.79q5.61,0,5.77,8.59v15.63h-5.71V1528.6a5.89,5.89,0,0,0-.56-2.94,2.09,2.09,0,0,0-1.94-.91,2.66,2.66,0,0,0-2.41,1.74v17.27h-5.71V1520Z"
          transform="translate(-18.72 -98.5)"/>
    <path class="cls-3"
          d="M239.39,1531.1c0-3.6.77-6.43,2.33-8.48a8.35,8.35,0,0,1,12.95,0q2.34,3.08,2.34,8.53v1.51c0,3.62-.78,6.45-2.32,8.48a8.4,8.4,0,0,1-13,0q-2.33-3.06-2.32-8.51Zm5.71,1.56q0,6.38,3.12,6.37c1.91,0,2.95-1.77,3.09-5.31l0-2.62a10.8,10.8,0,0,0-.82-4.82,2.55,2.55,0,0,0-2.33-1.57,2.5,2.5,0,0,0-2.27,1.57,11,11,0,0,0-.81,4.82Z"
          transform="translate(-18.72 -98.5)"/>
    <path class="cls-3"
          d="M270.18,1537.39a2,2,0,0,0-.7-1.47,13.59,13.59,0,0,0-3.08-1.81,12.67,12.67,0,0,1-4.84-3.23,6.48,6.48,0,0,1-1.32-4.15,6.93,6.93,0,0,1,2.06-5.15,7.45,7.45,0,0,1,5.47-2,8,8,0,0,1,5.73,2,7.08,7.08,0,0,1,2.15,5.42H270c0-1.93-.74-2.9-2.21-2.9a2,2,0,0,0-1.49.62,2.38,2.38,0,0,0-.59,1.71,1.88,1.88,0,0,0,.65,1.4,14.16,14.16,0,0,0,3,1.72,12.45,12.45,0,0,1,4.92,3.13,6.74,6.74,0,0,1,1.44,4.47,6.49,6.49,0,0,1-2.19,5.12,8.37,8.37,0,0,1-5.75,1.94,8.54,8.54,0,0,1-4.23-1,7.39,7.39,0,0,1-2.86-2.85,7.86,7.86,0,0,1-1-3.93h5.41a4.1,4.1,0,0,0,.69,2.44,2.61,2.61,0,0,0,2.15.81A2,2,0,0,0,270.18,1537.39Z"
          transform="translate(-18.72 -98.5)"/>
    <path class="cls-3"
          d="M299.44,1541.58a5.46,5.46,0,0,1-4.75,2.62,5.16,5.16,0,0,1-4.54-2.25,11.6,11.6,0,0,1-1.55-6.56V1520h5.69v15.56c0,2.31.73,3.47,2.11,3.47a2.92,2.92,0,0,0,2.82-1.84V1520H305v23.78H299.6Z"
          transform="translate(-18.72 -98.5)"/>
    <path class="cls-3"
          d="M314.36,1520l.16,2.2a6,6,0,0,1,5.05-2.64,4.69,4.69,0,0,1,4.61,3.21,5.87,5.87,0,0,1,5.33-3.21q5.72,0,5.85,8.64v15.58h-5.69v-15.19a6.21,6.21,0,0,0-.52-2.94,1.89,1.89,0,0,0-1.77-.88c-1.06,0-1.85.71-2.38,2.13l0,.75v16.13h-5.69v-15.14a6.56,6.56,0,0,0-.5-3,1.88,1.88,0,0,0-1.79-.91,2.6,2.6,0,0,0-2.33,1.74v17.27H309V1520Z"
          transform="translate(-18.72 -98.5)"/>
    <path class="cls-3"
          d="M364.9,1533.32l2-13.34h5.45l-4.51,23.78h-4.73L360,1530l-3.08,13.76h-4.75l-4.5-23.78h5.47l1.93,13.36L358,1520h4Z"
          transform="translate(-18.72 -98.5)"/>
    <path class="cls-3"
          d="M374.46,1531.1c0-3.6.77-6.43,2.33-8.48a8.35,8.35,0,0,1,12.95,0q2.34,3.08,2.34,8.53v1.51c0,3.62-.78,6.45-2.32,8.48a8.4,8.4,0,0,1-13,0q-2.32-3.06-2.32-8.51Zm5.71,1.56q0,6.38,3.12,6.37c1.91,0,2.95-1.77,3.09-5.31l0-2.62a10.8,10.8,0,0,0-.82-4.82,2.55,2.55,0,0,0-2.33-1.57,2.5,2.5,0,0,0-2.27,1.57,11,11,0,0,0-.81,4.82Z"
          transform="translate(-18.72 -98.5)"/>
    <path class="cls-3"
          d="M406.35,1526l-1.89-.17a3.1,3.1,0,0,0-3.15,2.24v15.71H395.6V1520H401l.16,2.57c.89-2,2.13-3,3.72-3a3.73,3.73,0,0,1,1.57.29Z"
          transform="translate(-18.72 -98.5)"/>
    <path class="cls-3"
          d="M416.49,1534.6l-1.53,1.86v7.3h-5.69V1510H415v18.24l.71-1.15,3.94-7.12h6.78l-6.32,9.8,6.92,14h-6.52Z"
          transform="translate(-18.72 -98.5)"/>
    <path class="cls-3"
          d="M438.61,1537.39a2,2,0,0,0-.69-1.47,13.49,13.49,0,0,0-3.09-1.81,12.61,12.61,0,0,1-4.83-3.23,6.48,6.48,0,0,1-1.32-4.15,6.93,6.93,0,0,1,2.06-5.15,7.41,7.41,0,0,1,5.46-2,8,8,0,0,1,5.73,2,7,7,0,0,1,2.15,5.42h-5.69c0-1.93-.73-2.9-2.21-2.9a2,2,0,0,0-1.49.62,2.38,2.38,0,0,0-.58,1.71,1.87,1.87,0,0,0,.64,1.4,14.06,14.06,0,0,0,3,1.72,12.45,12.45,0,0,1,4.92,3.13,6.74,6.74,0,0,1,1.44,4.47,6.5,6.5,0,0,1-2.2,5.12,8.37,8.37,0,0,1-5.75,1.94,8.5,8.5,0,0,1-4.22-1,7.42,7.42,0,0,1-2.87-2.85,7.85,7.85,0,0,1-1-3.93h5.41a4,4,0,0,0,.69,2.44,2.6,2.6,0,0,0,2.14.81A2,2,0,0,0,438.61,1537.39Z"
          transform="translate(-18.72 -98.5)"/>
    <path class="cls-3"
          d="M453.24,1522.07a5.48,5.48,0,0,1,4.54-2.53,5.14,5.14,0,0,1,4.53,2.29q1.54,2.28,1.56,6.81v15.12h-5.71v-15a5.89,5.89,0,0,0-.59-3,2.1,2.1,0,0,0-1.92-.94,2.65,2.65,0,0,0-2.41,1.56v17.45h-5.7V1510h5.7Z"
          transform="translate(-18.72 -98.5)"/>
    <path class="cls-3"
          d="M467.29,1531.1q0-5.4,2.34-8.48a8.35,8.35,0,0,1,12.95,0q2.32,3.08,2.33,8.53v1.51q0,5.43-2.31,8.48a8.4,8.4,0,0,1-13,0q-2.33-3.06-2.33-8.51Zm5.72,1.56c0,4.25,1,6.37,3.11,6.37q2.88,0,3.1-5.31l0-2.62a10.94,10.94,0,0,0-.82-4.82,2.55,2.55,0,0,0-2.34-1.57,2.49,2.49,0,0,0-2.26,1.57,11,11,0,0,0-.81,4.82Z"
          transform="translate(-18.72 -98.5)"/>
    <path class="cls-3"
          d="M505.41,1532.62c0,3.73-.59,6.6-1.76,8.59a5.72,5.72,0,0,1-5.24,3,5,5,0,0,1-4.27-2.35v11.05h-5.69V1520h5.27l.2,2.18a5,5,0,0,1,4.45-2.62,5.83,5.83,0,0,1,5.24,2.77q1.75,2.78,1.8,8.48Zm-5.68-1.56a12.22,12.22,0,0,0-.69-4.88,2.4,2.4,0,0,0-2.34-1.43,2.69,2.69,0,0,0-2.56,1.61v11.14a2.68,2.68,0,0,0,2.6,1.53,2.35,2.35,0,0,0,2.34-1.56,13.3,13.3,0,0,0,.65-4.85Z"
          transform="translate(-18.72 -98.5)"/>
    <path class="cls-3"
          d="M517.57,1531.15c0-3.9.61-6.81,1.81-8.73a5.86,5.86,0,0,1,5.27-2.88,5,5,0,0,1,4.19,2.38V1510h5.73v33.75H529.4l-.26-2.42a5.17,5.17,0,0,1-4.51,2.86,5.79,5.79,0,0,1-5.22-2.86q-1.8-2.85-1.84-8.39Zm5.71,1.56a12.2,12.2,0,0,0,.69,4.91,2.37,2.37,0,0,0,2.31,1.39,2.76,2.76,0,0,0,2.56-1.65v-10.85a2.72,2.72,0,0,0-2.54-1.76,2.41,2.41,0,0,0-2.29,1.39,11.66,11.66,0,0,0-.73,4.92Z"
          transform="translate(-18.72 -98.5)"/>
    <path class="cls-3"
          d="M547.54,1544.2a8.53,8.53,0,0,1-6.84-2.86c-1.63-1.9-2.45-4.63-2.45-8.17v-1.89c0-3.75.75-6.65,2.25-8.68a7.53,7.53,0,0,1,6.46-3.06,7.13,7.13,0,0,1,6.17,2.87c1.38,1.91,2.08,4.73,2.11,8.48v3H543.92a7,7,0,0,0,1.06,3.87,3.46,3.46,0,0,0,2.92,1.22,6.16,6.16,0,0,0,4.77-2.13l2.23,3.76a7.52,7.52,0,0,1-3,2.56A9.65,9.65,0,0,1,547.54,1544.2ZM544,1529.61h5.69V1529a7.09,7.09,0,0,0-.64-3.23,2.17,2.17,0,0,0-2.09-1.1,2.32,2.32,0,0,0-2.17,1.16A8.63,8.63,0,0,0,544,1529.61Z"
          transform="translate(-18.72 -98.5)"/>
    <path class="cls-3"
          d="M577.1,1532.07h-2.93v11.69h-5.92v-32h9.44a9.05,9.05,0,0,1,6.86,2.51q2.43,2.52,2.43,7.15,0,6.38-4.25,8.92l5.13,13.1v.31h-6.35Zm-2.93-5.38h3.36a3,3,0,0,0,2.65-1.29,6,6,0,0,0,.89-3.44q0-4.82-3.44-4.81h-3.46Z"
          transform="translate(-18.72 -98.5)"/>
    <path class="cls-3"
          d="M591.1,1530.75a41.16,41.16,0,0,1,1.06-9.45,28.15,28.15,0,0,1,3.16-8.09,13.06,13.06,0,0,1,4.49-4.94l1.07,3.43a16.26,16.26,0,0,0-3.6,7.15,43.54,43.54,0,0,0-1.39,11.15v1.32a45.58,45.58,0,0,0,1.32,11.59,16.83,16.83,0,0,0,3.67,7.46l-1.07,3.39a13.15,13.15,0,0,1-4.45-4.86,28.22,28.22,0,0,1-3.15-8,41.68,41.68,0,0,1-1.11-9.3Z"
          transform="translate(-18.72 -98.5)"/>
    <path class="cls-3"
          d="M614.41,1543.76a9.37,9.37,0,0,1-.48-1.85,4.74,4.74,0,0,1-4.14,2.29,5.87,5.87,0,0,1-4.54-2,7.31,7.31,0,0,1-1.8-5.12,7.55,7.55,0,0,1,2.18-5.78,9,9,0,0,1,6.29-2.09h1.73v-1.91a3.78,3.78,0,0,0-.51-2.26,1.71,1.71,0,0,0-1.46-.66c-1.43,0-2.14.91-2.14,2.73h-5.69a7.15,7.15,0,0,1,2.27-5.44,8,8,0,0,1,5.72-2.15,7.34,7.34,0,0,1,5.54,2,8.05,8.05,0,0,1,2,5.81v11.18a12.68,12.68,0,0,0,.8,4.81v.38Zm-3.36-4.44a2.92,2.92,0,0,0,2.6-1.41V1533h-1.37a2.79,2.79,0,0,0-2.28,1,4.08,4.08,0,0,0-.84,2.7Q609.16,1539.32,611.05,1539.32Z"
          transform="translate(-18.72 -98.5)"/>
    <path class="cls-3"
          d="M628.67,1520l.16,2.35a5.89,5.89,0,0,1,5-2.79q5.61,0,5.77,8.59v15.63h-5.71V1528.6a6,6,0,0,0-.55-2.94,2.1,2.1,0,0,0-1.94-.91,2.66,2.66,0,0,0-2.42,1.74v17.27h-5.71V1520Z"
          transform="translate(-18.72 -98.5)"/>
    <path class="cls-3"
          d="M654.07,1543.76a9.37,9.37,0,0,1-.48-1.85,4.74,4.74,0,0,1-4.14,2.29,5.87,5.87,0,0,1-4.54-2,7.31,7.31,0,0,1-1.8-5.12,7.55,7.55,0,0,1,2.18-5.78,9,9,0,0,1,6.29-2.09h1.73v-1.91a3.78,3.78,0,0,0-.51-2.26,1.71,1.71,0,0,0-1.46-.66c-1.43,0-2.14.91-2.14,2.73h-5.69a7.15,7.15,0,0,1,2.27-5.44,8,8,0,0,1,5.72-2.15,7.34,7.34,0,0,1,5.54,2,8.05,8.05,0,0,1,2,5.81v11.18a12.68,12.68,0,0,0,.8,4.81v.38ZM652.42,1510h6.4l-5.59,6.81h-4.75Zm-1.71,29.31a2.92,2.92,0,0,0,2.6-1.41V1533h-1.37a2.79,2.79,0,0,0-2.28,1,4.08,4.08,0,0,0-.84,2.7Q648.82,1539.32,650.71,1539.32Z"
          transform="translate(-18.72 -98.5)"/>
    <path class="cls-3" d="M669.09,1543.76h-5.71V1510h5.71Z" transform="translate(-18.72 -98.5)"/>
    <path class="cls-3"
          d="M673.5,1513.83a3.37,3.37,0,0,1,.84-2.37,2.91,2.91,0,0,1,2.26-.92,2.88,2.88,0,0,1,2.25.92,3.37,3.37,0,0,1,.84,2.37,3.43,3.43,0,0,1-.83,2.37,3.18,3.18,0,0,1-4.53,0A3.48,3.48,0,0,1,673.5,1513.83Zm6,29.93h-5.71V1520h5.71Z"
          transform="translate(-18.72 -98.5)"/>
    <path class="cls-3"
          d="M693.51,1537.39a2,2,0,0,0-.69-1.47,13.73,13.73,0,0,0-3.09-1.81,12.67,12.67,0,0,1-4.84-3.23,6.48,6.48,0,0,1-1.31-4.15,6.89,6.89,0,0,1,2.06-5.15,7.41,7.41,0,0,1,5.46-2,8,8,0,0,1,5.73,2A7.08,7.08,0,0,1,699,1527h-5.69c0-1.93-.74-2.9-2.21-2.9a2,2,0,0,0-1.49.62,2.38,2.38,0,0,0-.58,1.71,1.87,1.87,0,0,0,.64,1.4,14.06,14.06,0,0,0,3,1.72,12.4,12.4,0,0,1,4.91,3.13,6.74,6.74,0,0,1,1.44,4.47,6.49,6.49,0,0,1-2.19,5.12,8.37,8.37,0,0,1-5.75,1.94,8.54,8.54,0,0,1-4.23-1,7.39,7.39,0,0,1-2.86-2.85,7.86,7.86,0,0,1-1-3.93h5.41a4,4,0,0,0,.7,2.44,2.59,2.59,0,0,0,2.14.81A2,2,0,0,0,693.51,1537.39Z"
          transform="translate(-18.72 -98.5)"/>
    <path class="cls-3"
          d="M711.37,1544.2a8.53,8.53,0,0,1-6.84-2.86c-1.63-1.9-2.45-4.63-2.45-8.17v-1.89c0-3.75.75-6.65,2.25-8.68a7.53,7.53,0,0,1,6.46-3.06,7.13,7.13,0,0,1,6.17,2.87c1.38,1.91,2.09,4.73,2.11,8.48v3H707.75a6.9,6.9,0,0,0,1.07,3.87,3.43,3.43,0,0,0,2.91,1.22,6.15,6.15,0,0,0,4.77-2.13l2.23,3.76a7.52,7.52,0,0,1-3,2.56A9.65,9.65,0,0,1,711.37,1544.2Zm-3.58-14.59h5.69V1529a7.09,7.09,0,0,0-.64-3.23,2.17,2.17,0,0,0-2.09-1.1,2.32,2.32,0,0,0-2.17,1.16A8.78,8.78,0,0,0,707.79,1529.61Z"
          transform="translate(-18.72 -98.5)"/>
    <path class="cls-3"
          d="M731,1531.15q0-5.85,1.81-8.73a5.85,5.85,0,0,1,5.27-2.88,5,5,0,0,1,4.18,2.38V1510H748v33.75h-5.17l-.26-2.42a5.15,5.15,0,0,1-4.5,2.86,5.79,5.79,0,0,1-5.22-2.86q-1.8-2.85-1.84-8.39Zm5.71,1.56a12.2,12.2,0,0,0,.69,4.91,2.36,2.36,0,0,0,2.31,1.39,2.74,2.74,0,0,0,2.55-1.65v-10.85a2.71,2.71,0,0,0-2.53-1.76,2.4,2.4,0,0,0-2.29,1.39,11.5,11.5,0,0,0-.73,4.92Z"
          transform="translate(-18.72 -98.5)"/>
    <path class="cls-3"
          d="M761,1544.2a8.5,8.5,0,0,1-6.84-2.86c-1.64-1.9-2.46-4.63-2.46-8.17v-1.89c0-3.75.75-6.65,2.26-8.68a7.52,7.52,0,0,1,6.45-3.06,7.13,7.13,0,0,1,6.18,2.87c1.38,1.91,2.08,4.73,2.11,8.48v3H757.37a6.9,6.9,0,0,0,1.06,3.87,3.44,3.44,0,0,0,2.92,1.22,6.13,6.13,0,0,0,4.76-2.13l2.24,3.76a7.52,7.52,0,0,1-3,2.56A9.71,9.71,0,0,1,761,1544.2Zm-3.58-14.59h5.69V1529a7.08,7.08,0,0,0-.65-3.23,2.17,2.17,0,0,0-2.09-1.1,2.32,2.32,0,0,0-2.16,1.16A8.63,8.63,0,0,0,757.41,1529.61Z"
          transform="translate(-18.72 -98.5)"/>
    <path class="cls-3"
          d="M780.63,1531.15c0-3.9.61-6.81,1.81-8.73a5.86,5.86,0,0,1,5.27-2.88,5,5,0,0,1,4.19,2.38V1510h5.73v33.75h-5.17l-.26-2.42a5.17,5.17,0,0,1-4.51,2.86,5.79,5.79,0,0,1-5.22-2.86q-1.8-2.85-1.84-8.39Zm5.72,1.56a12.24,12.24,0,0,0,.68,4.91,2.38,2.38,0,0,0,2.31,1.39,2.76,2.76,0,0,0,2.56-1.65v-10.85a2.72,2.72,0,0,0-2.54-1.76,2.41,2.41,0,0,0-2.29,1.39,11.69,11.69,0,0,0-.72,4.92Z"
          transform="translate(-18.72 -98.5)"/>
    <path class="cls-3"
          d="M812.15,1543.76a9.37,9.37,0,0,1-.48-1.85,4.74,4.74,0,0,1-4.15,2.29,5.86,5.86,0,0,1-4.53-2,7.31,7.31,0,0,1-1.8-5.12,7.55,7.55,0,0,1,2.18-5.78,9,9,0,0,1,6.29-2.09h1.72v-1.91a3.79,3.79,0,0,0-.5-2.26,1.72,1.72,0,0,0-1.47-.66q-2.13,0-2.13,2.73h-5.69a7.15,7.15,0,0,1,2.26-5.44,8,8,0,0,1,5.73-2.15,7.34,7.34,0,0,1,5.54,2,8.05,8.05,0,0,1,2,5.81v11.18a12.49,12.49,0,0,0,.8,4.81v.38Zm-3.36-4.44a3,3,0,0,0,1.61-.42,2.8,2.8,0,0,0,1-1V1533H810a2.83,2.83,0,0,0-2.29,1,4.13,4.13,0,0,0-.83,2.7Q806.9,1539.32,808.79,1539.32Z"
          transform="translate(-18.72 -98.5)"/>
    <path class="cls-3"
          d="M820.44,1531.15q0-5.85,1.81-8.73a5.83,5.83,0,0,1,5.26-2.88,5,5,0,0,1,4.19,2.38V1510h5.73v33.75h-5.17l-.26-2.42a5.17,5.17,0,0,1-4.51,2.86,5.78,5.78,0,0,1-5.21-2.86c-1.2-1.9-1.82-4.7-1.84-8.39Zm5.71,1.56a12.42,12.42,0,0,0,.68,4.91,2.38,2.38,0,0,0,2.31,1.39,2.76,2.76,0,0,0,2.56-1.65v-10.85a2.72,2.72,0,0,0-2.54-1.76,2.41,2.41,0,0,0-2.29,1.39,11.69,11.69,0,0,0-.72,4.92Z"
          transform="translate(-18.72 -98.5)"/>
    <path class="cls-3"
          d="M841,1531.1q0-5.4,2.33-8.48a8.35,8.35,0,0,1,13,0q2.34,3.08,2.34,8.53v1.51q0,5.43-2.32,8.48a8.4,8.4,0,0,1-13,0q-2.32-3.06-2.32-8.51Zm5.71,1.56q0,6.38,3.12,6.37,2.88,0,3.1-5.31l0-2.62a10.77,10.77,0,0,0-.83-4.82,2.55,2.55,0,0,0-2.33-1.57,2.48,2.48,0,0,0-2.26,1.57,10.8,10.8,0,0,0-.82,4.82Z"
          transform="translate(-18.72 -98.5)"/>
    <path class="cls-3"
          d="M871.74,1537.39a2,2,0,0,0-.69-1.47,14,14,0,0,0-3.09-1.81,12.67,12.67,0,0,1-4.84-3.23,6.48,6.48,0,0,1-1.32-4.15,6.9,6.9,0,0,1,2.07-5.15,7.41,7.41,0,0,1,5.46-2,8,8,0,0,1,5.73,2,7.08,7.08,0,0,1,2.15,5.42h-5.69c0-1.93-.74-2.9-2.21-2.9a2,2,0,0,0-1.49.62,2.38,2.38,0,0,0-.58,1.71,1.87,1.87,0,0,0,.64,1.4,14.06,14.06,0,0,0,3,1.72,12.4,12.4,0,0,1,4.91,3.13,6.74,6.74,0,0,1,1.44,4.47,6.49,6.49,0,0,1-2.19,5.12,8.37,8.37,0,0,1-5.75,1.94,8.54,8.54,0,0,1-4.23-1,7.39,7.39,0,0,1-2.86-2.85,7.86,7.86,0,0,1-1-3.93h5.41a4,4,0,0,0,.7,2.44,2.59,2.59,0,0,0,2.14.81A2,2,0,0,0,871.74,1537.39Z"
          transform="translate(-18.72 -98.5)"/>
    <path class="cls-3"
          d="M889.92,1531.28a38.06,38.06,0,0,1-1.2,9.69,29.45,29.45,0,0,1-3.31,8,13.2,13.2,0,0,1-4.5,4.77l-1-3.39a17,17,0,0,0,3.62-7.33,44.09,44.09,0,0,0,1.36-11.17v-1.16a45.72,45.72,0,0,0-1.31-11.44,18,18,0,0,0-3.67-7.61l1-3.39a11.44,11.44,0,0,1,3.17,2.86,21.92,21.92,0,0,1,2.92,4.94,34.18,34.18,0,0,1,2.12,6.63A40.92,40.92,0,0,1,889.92,1531.28Z"
          transform="translate(-18.72 -98.5)"/>
    <path class="cls-3"
          d="M894.59,1540.59a3.45,3.45,0,0,1,.91-2.46,3.44,3.44,0,0,1,4.76,0,3.36,3.36,0,0,1,.94,2.47,3.31,3.31,0,0,1-1,2.48,3.27,3.27,0,0,1-2.36.93,3.2,3.2,0,0,1-2.37-1A3.36,3.36,0,0,1,894.59,1540.59Z"
          transform="translate(-18.72 -98.5)"/>
</svg>